<?xml version="1.0" encoding="UTF-8"?>
<svg xmlns="http://www.w3.org/2000/svg" version="1.1" viewBox="0 0 153.03 151.47">
  <defs>
    <style>
      .cls-1 {
        fill: #b54f2a;
      }

      .cls-2 {
        fill: #d98f4e;
      }

      .cls-2, .cls-3, .cls-4, .cls-5, .cls-6 {
        fill-rule: evenodd;
      }

      .cls-3 {
        fill: #da9455;
      }

      .cls-4 {
        fill: #fff;
      }

      .cls-7, .cls-6 {
        fill: #c96d38;
      }

      .cls-5 {
        fill: #b4522b;
      }

      .cls-8 {
        fill: #e2a95f;
      }

      .cls-9 {
        fill: #7c181c;
      }

      .cls-10 {
        fill: #9c3a23;
      }
    </style>
  </defs>
  <!-- Generator: Adobe Illustrator 28.6.0, SVG Export Plug-In . SVG Version: 1.2.0 Build 709)  -->
  <g>
    <g id="Layer_1">
      <g>
        <g>
          <path class="cls-9" d="M6.37,46.32c30.58-76.41,126-45.2,142.8.2,12.83,46.61-9.22,73.06-22.51,86.3-10.86,10.82-42.82,25.5-75.82,15.09C17.84,137.49-13.9,96.95,6.37,46.32Z"/>
          <g>
            <path class="cls-6" d="M9.56,51.39c13.75-3.83,35.93-7.4,40.75-7,24.89,2.03,52.46-6.78,74.26-21.4,4.08,3.15,7.76,6.62,10.89,10.31-12.8,1.23-28.17,14.3-42.06,20.14-14.64,6.17-30.95,11.78-45.91,12.92-8.73.67-31.11,9.92-42.34,4.34.61-6.2,2.03-12.65,4.41-19.31Z"/>
            <path class="cls-2" d="M18.99,65.7c-4.69-.58-9.88-.78-13.48,2-1.17,8.42-.83,16.41.7,23.83,4.31-3.6,11.95-10.68,22.23.7,2.96,7.19,16.26,1.47,30.68-1.93,15.38-3.63,31.21-13.01,36.2-14.13,8.56-1.93,42.28,7.18,52.69,2.04.51-8.78-.43-18.69-3.49-29.82-1.51-4.08-3.7-8.02-6.44-11.78-3.05-.3-6.3.34-8.51,1.2-21.86,8.56-45.58,28.09-65.92,21.87-15.11-4.62-32.58-4.43-44.65,6.01Z"/>
            <path class="cls-6" d="M7.29,96.02c8.82-8.94,21.13-5.97,31.67-2.44,21.85,7.31,39.07-10.86,62.23-8.34,14.18,1.55,37.47,8.13,45.79-11.27.38-.9.76-1.4,1.14-1.59.22,13.54-2.96,24.65-7.42,33.65-7.98,3.35-17.13,5.6-20.77,8.19-26.57,18.91-60.48,6.3-90.13,13.05-1.05.24-2.03.51-2.97.82-8.85-8.33-15.98-19.25-19.55-32.06Z"/>
            <path class="cls-5" d="M7.29,96.02c8.82-8.94,21.13-5.97,31.67-2.44,21.85,7.31,39.07-10.86,62.23-8.34,12.53,1.37,32.18,6.65,42.32-5.52,1.12,8.47-.15,14.62-5.49,15.84-13.06,2.97-27.64-2.45-40.07.39-22.13,5.04-37.97,15.46-62.21,7.1-9.06-3.12-15.39,4.69-21.97,8.48-2.73-4.78-4.94-9.97-6.48-15.51Z"/>
            <path class="cls-6" d="M145.29,94.25c-15.23-1.2-35.64,18.07-47.23,21.62-25.23,7.76-42.42,9.77-67.6,15.4,6.77,5.56,14.32,9.69,21.95,12.09,7.73,2.44,15.4,3.41,22.71,3.34l36.12-9.01c5.26-2.73,9.44-5.73,12.19-8.46,7.17-7.14,17.07-18.39,21.87-34.99Z"/>
            <path class="cls-1" d="M27.26,128.47c1.35-.84,2.53-1.65,3.43-2.24,18.37-12.08,38.69,6.87,56.45-9.53,8.58-7.9,36.84,2.7,22.07-2.53-10-3.53-18.44-10.39-28.02-1.94-14.66,12.97-30.17.75-45.95,2.15-3.13.28-10.04,4.24-16.09,5.22,2.48,3.21,5.21,6.18,8.11,8.87Z"/>
            <path class="cls-10" d="M36.45,95.63c5.85-.44,14.05-3.29,22.66-5.32,15.39-3.64,30.84-12.09,35.82-13.22,8.6-1.94,42.61,6.47,53.06,1.16.18-3.06.18-6.24-.02-9.57-18.35,10.61-31.62-1-44.97,2.42-21.38,5.46-36.26,10.23-50.34,13.54-17.35,4.08-19.76,8.16-16.22,11Z"/>
            <path class="cls-7" d="M93.87,52.82c-10.79,2.45-23.77,11.31-35.44,7.23-9.98-3.49-18.04-1.71-27.56.45-6.74,1.54-24.7,10.96-18.36,10.01l20.9-3.1c22.13-3.29,44.83,4,60.46-14.6Z"/>
            <path class="cls-3" d="M39.65,13.12c12.54,1.15,23.86-4.9,36.25-8.18,19.5.96,38.86,9.23,52.42,21.13-6.33,2.27-12.46,4.08-15.28,6.08-26.57,18.91-60.48,6.3-90.13,13.05-5.75,1.31-9.75,3.88-12.83,4.76.22-.58.44-1.16.67-1.75,6.81-17.01,17.04-28.3,28.9-35.1Z"/>
            <path class="cls-10" d="M146.15,83.9c-5.7,22.39-28.02,41.32-35.76,43.29-38.33,9.78-59.88,20.34-102.8-32.92.14,1.65.35,3.26.64,4.82,7.37,22.27,25.56,38.4,44.18,44.27,30.9,9.76,60.84-3.99,71.01-14.13,8.21-8.18,19.99-21.75,23.61-42.56-.21-.93-.5-1.85-.89-2.77Z"/>
            <path class="cls-5" d="M20.8,30.02c4.75.42,18.17-2.26,22.91-3.6,29.02-8.18,31.6-6.8,53.42-1.41,8.59,2.12,17.43.14,27.53-2.54.91.56-21.99,15.46-46.15,5.76-10.64-4.27-56.23,15.97-68.95,23.16.38-1.05.77-2.1,1.2-3.16,2.81-7.01,6.2-13.04,10.04-18.2Z"/>
            <path class="cls-8" d="M9.56,51.39c13.75-3.83,35.93-7.4,40.75-7,24.89,2.03,52.46-6.78,74.26-21.4,1.84,1.42,3.58,2.9,5.24,4.44-3.38.46-6.74,1.91-10.18,3.72-24.38,12.85-36.69,13.21-64.16,17.1-9.74,1.39-38.76.83-48.04,9.94.6-2.24,1.31-4.51,2.13-6.8h0ZM5.34,68.95c.26.73.58,1.49.98,2.28-.4-.16-.79-.34-1.18-.52.06-.58.12-1.17.19-1.76Z"/>
            <path class="cls-7" d="M88.78,6.61c-5.94,1.94-11.99,3.06-17.71,1.06-3.59-1.26-6.93-1.83-10.18-1.95-9.52,1.52-18.71,5.07-26.89,11.09l12.05-1.79c17.82-2.65,35.99,1.55,50.56-6.4-2.57-.79-5.18-1.46-7.83-2.02Z"/>
          </g>
        </g>
        <path class="cls-4" d="M54.99,67.58c-.12-8.42-.12-15.77.05-18.72.41-7.32-.81-13.95,1.78-15.19,2.01-.98,43.16,22.69,52.6,33.91-9.44,11.23-50.59,34.89-52.6,33.91-2.59-1.25-1.37-7.87-1.78-15.2-.17-2.95-.17-10.29-.05-18.72Z"/>
      </g>
    </g>
  </g>
</svg>