<?xml version="1.0" encoding="UTF-8"?>
<svg xmlns="http://www.w3.org/2000/svg" version="1.1" viewBox="0 0 41.15 998.31">
  <defs>
    <style>
      .cls-1 {
        fill: #eb2127;
      }

      .cls-1, .cls-2, .cls-3, .cls-4 {
        fill-rule: evenodd;
      }

      .cls-2 {
        fill: #fcee1f;
      }

      .cls-3 {
        fill: #7c181c;
      }

      .cls-4 {
        fill: #fbbd16;
      }
    </style>
  </defs>
  <!-- Generator: Adobe Illustrator 28.6.0, SVG Export Plug-In . SVG Version: 1.2.0 Build 709)  -->
  <g>
    <g id="Layer_1">
      <g>
        <path class="cls-3" d="M0,989.44V8.87C0,3.99,4.12,0,9.15,0h22.86c5.03,0,9.14,3.99,9.14,8.87v980.57c0,4.87-4.11,8.87-9.14,8.87H9.15c-5.03,0-9.15-3.99-9.15-8.87Z"/>
        <path class="cls-1" d="M5.38,984.79V13.51c0-4.81,3.04-8.75,6.75-8.75h16.89c3.71,0,6.76,3.94,6.76,8.75v971.27c0,4.81-3.04,8.75-6.76,8.75H12.13c-3.71,0-6.75-3.94-6.75-8.75Z"/>
        <path class="cls-4" d="M5.38,984.79V13.51c0-4.81,2.17-8.75,4.81-8.75h12.04c2.65,0,4.81,3.94,4.81,8.75v971.27c0,4.81-2.17,8.75-4.81,8.75h-12.04c-2.65,0-4.81-3.94-4.81-8.75Z"/>
        <path class="cls-2" d="M5.38,984.79V13.51c0-4.81,1.22-8.75,2.7-8.75h6.76c1.49,0,2.71,3.94,2.71,8.75v971.27c0,4.81-1.22,8.75-2.71,8.75h-6.76c-1.48,0-2.7-3.94-2.7-8.75Z"/>
      </g>
    </g>
  </g>
</svg>