<?xml version="1.0" encoding="UTF-8"?>
<svg xmlns="http://www.w3.org/2000/svg" version="1.1" viewBox="0 0 63.51 74.68">
  <defs>
    <style>
      .cls-1 {
        fill: #a6362a;
      }

      .cls-1, .cls-2, .cls-3, .cls-4 {
        fill-rule: evenodd;
      }

      .cls-2 {
        fill: #ffcd7c;
      }

      .cls-3 {
        fill: #c96d38;
      }

      .cls-4 {
        fill: #595a5c;
      }
    </style>
  </defs>
  <!-- Generator: Adobe Illustrator 28.6.0, SVG Export Plug-In . SVG Version: 1.2.0 Build 709)  -->
  <g>
    <g id="Layer_1">
      <g>
        <g>
          <path class="cls-1" d="M54.27,0c2.66.02,5.23.74,6.96,2.91,2.09,2.63,2.03,6.32,1.88,9.5-.05,1.12,0,2.31,0,3.43.03,2.19.08,4.38.12,6.58.12,6.05.22,12.11.25,18.16.03,6.2.02,12.46-.31,18.65-.16,2.97-.42,9.61-2.35,11.94l-.08.1-.09.09c-1.8,1.85-3.92,2.93-6.5,3.09-7.22.41-14.44.16-21.65-.02-4.51-.1-9.02-.17-13.53-.06h-.11s-.11,0-.11,0c-2.63-.12-5.17.08-7.78.15-2.42.06-4.94-.05-7.02-1.48-3.1-2.12-3.68-6.09-3.77-9.6C-.03,54.19,0,44.83,0,35.57c0-6.49.01-12.99.12-19.48.04-2.22.08-4.45.19-6.67.07-1.37.07-3.36.86-4.51l.02-.03.02-.03C2.88,2.55,5.34,1.1,8.14.84,13.05.42,17.98.13,22.91.08c10.45-.09,20.89-.06,31.36-.08Z"/>
          <path class="cls-4" d="M55.1,1.76c-10.86.01-21.64-.02-32.5.08-5.03.05-10.05.34-15.07.76-1.91.17-3.62,1.14-4.81,2.75-.89,1.28-.6,49.94-.4,57.77.28,10.87,5.75,7.48,16.1,7.93,4.76-.11,9.43-.04,14.19.06,7.39.18,14.8.44,22.21.03,1.77-.11,3.22-.8,4.57-2.17,3.4-4.04,1.36-53,1.59-58,.24-5.27-.05-9.17-5.89-9.21Z"/>
          <path class="cls-3" d="M21.89,2.54c-4.26.05-8.47.17-13.03.52-2.85.22-4.43-.08-4.99,3.57-1.88,12.07-.6,54.33.23,59.9.49,3.34,3.59,4.07,7.48,3.49,14.68-.3,28.21,1.1,42.89.32,5.76-.44,5.27-7.1,5.34-11.38.12-4.9.56-47.01.65-51.91,0-3.25-2.5-5.04-16.18-4.73-18.92.45-20.08.21-22.39.22Z"/>
          <path class="cls-2" d="M5.78,54.24c-.1-1.2-.23-2.39-.4-3.58-.37-2.5-.83-32.49-.44-43.2.14-3.93,1.16-3.89,4.14-4.16,4.66-.41,8.26-.53,12.93-.58,12.82-.14,19.28.05,32.08.25,2.28.03,3.54.9,4.59,1.92.79,1.09-.36,42.1-1.27,48.73-.8,5.84.98,11.08-3.01,12.59-16.43.98-26.86-.64-43.39.72-7.07.53-4.77-6.91-5.23-12.69Z"/>
        </g>
        <g>
          <path class="cls-1" d="M44.77,36.28c-2.28,4.29-9.03,14.62-12.59,17.4-3.57-2.79-10.31-13.12-12.59-17.4h25.19Z"/>
          <path class="cls-1" d="M44.77,30.31c-2.28-4.29-9.03-14.62-12.59-17.4-3.57,2.78-10.31,13.12-12.59,17.4h25.19Z"/>
        </g>
      </g>
    </g>
  </g>
</svg>