<?xml version="1.0" encoding="UTF-8"?>
<svg xmlns="http://www.w3.org/2000/svg" version="1.1" viewBox="0 0 103.83 102.76">
  <defs>
    <style>
      .cls-1 {
        fill: #b54f2a;
      }

      .cls-2 {
        fill: #d98f4e;
      }

      .cls-2, .cls-3, .cls-4, .cls-5, .cls-6 {
        fill-rule: evenodd;
      }

      .cls-3 {
        fill: #da9455;
      }

      .cls-4 {
        fill: #fff;
      }

      .cls-7, .cls-6 {
        fill: #c96d38;
      }

      .cls-5 {
        fill: #b4522b;
      }

      .cls-8 {
        fill: #e2a95f;
      }

      .cls-9 {
        fill: #7c181c;
      }

      .cls-10 {
        fill: #9c3a23;
      }
    </style>
  </defs>
  <!-- Generator: Adobe Illustrator 28.6.0, SVG Export Plug-In . SVG Version: 1.2.0 Build 709)  -->
  <g>
    <g id="Layer_1">
      <g>
        <g>
          <path class="cls-9" d="M4.32,31.42c20.75-51.84,85.49-30.67,96.88.13,8.7,31.62-6.26,49.57-15.28,58.55-7.37,7.34-29.05,17.3-51.44,10.24C12.11,93.28-9.43,65.77,4.32,31.42Z"/>
          <g>
            <path class="cls-6" d="M6.49,34.86c9.33-2.6,24.38-5.02,27.65-4.75,16.89,1.38,35.59-4.59,50.38-14.52,2.77,2.14,5.27,4.49,7.39,7-8.68.84-19.11,9.7-28.53,13.67-9.93,4.18-20.99,7.99-31.15,8.76-5.92.45-21.11,6.73-28.73,2.94.41-4.21,1.38-8.58,3-13.1Z"/>
            <path class="cls-2" d="M12.88,44.58c-3.18-.4-6.7-.53-9.15,1.35-.79,5.72-.56,11.13.48,16.17,2.93-2.44,8.11-7.24,15.08.48,2.01,4.88,11.03,1,20.81-1.31,10.44-2.47,21.18-8.82,24.56-9.59,5.81-1.31,28.69,4.88,35.75,1.38.35-5.96-.29-12.68-2.37-20.23-1.02-2.76-2.51-5.44-4.37-7.99-2.07-.2-4.27.23-5.78.81-14.83,5.8-30.92,19.05-44.73,14.84-10.25-3.13-22.11-3.01-30.29,4.08Z"/>
            <path class="cls-6" d="M4.95,65.14c5.98-6.06,14.34-4.05,21.49-1.65,14.82,4.96,26.51-7.37,42.22-5.66,9.62,1.05,25.42,5.51,31.06-7.65.26-.61.52-.95.78-1.08.15,9.19-2.01,16.72-5.03,22.83-5.41,2.27-11.62,3.8-14.09,5.56-18.02,12.83-41.03,4.27-61.15,8.85-.71.16-1.38.35-2.01.55-6.01-5.65-10.84-13.06-13.26-21.75Z"/>
            <path class="cls-5" d="M4.95,65.14c5.98-6.06,14.34-4.05,21.49-1.65,14.82,4.96,26.51-7.37,42.22-5.66,8.5.93,21.83,4.51,28.72-3.75.76,5.75-.1,9.92-3.73,10.75-8.86,2.02-18.75-1.66-27.18.27-15.01,3.42-25.76,10.49-42.21,4.82-6.15-2.11-10.44,3.18-14.91,5.75-1.85-3.24-3.35-6.76-4.4-10.52Z"/>
            <path class="cls-6" d="M98.57,63.94c-10.33-.82-24.18,12.26-32.04,14.67-17.11,5.26-28.78,6.62-45.86,10.45,4.59,3.77,9.72,6.57,14.89,8.21,5.24,1.66,10.44,2.31,15.4,2.26l24.51-6.11c3.56-1.85,6.4-3.89,8.27-5.74,4.86-4.85,11.58-12.48,14.84-23.74Z"/>
            <path class="cls-1" d="M18.49,87.16c.91-.57,1.72-1.12,2.33-1.53,12.46-8.19,26.25,4.67,38.3-6.46,5.82-5.36,25,1.83,14.97-1.71-6.78-2.39-12.52-7.05-19.01-1.31-9.95,8.8-20.47.51-31.18,1.46-2.12.19-6.81,2.87-10.91,3.53,1.68,2.18,3.53,4.2,5.5,6.02Z"/>
            <path class="cls-10" d="M24.73,64.88c3.97-.3,9.53-2.23,15.37-3.61,10.44-2.47,20.92-8.2,24.3-8.97,5.83-1.32,28.91,4.39,36,.78.12-2.07.12-4.23-.02-6.49-12.45,7.2-21.45-.68-30.51,1.64-14.51,3.71-24.6,6.94-34.15,9.19-11.77,2.76-13.41,5.53-11.01,7.46Z"/>
            <path class="cls-7" d="M63.68,35.83c-7.32,1.67-16.13,7.68-24.04,4.91-6.77-2.37-12.24-1.16-18.7.31-4.57,1.05-16.76,7.43-12.46,6.79l14.18-2.1c15.02-2.23,30.41,2.71,41.02-9.91Z"/>
            <path class="cls-3" d="M26.9,8.9c8.51.78,16.19-3.32,24.6-5.55,13.23.65,26.36,6.26,35.56,14.33-4.3,1.54-8.46,2.76-10.37,4.13-18.02,12.83-41.03,4.28-61.15,8.85-3.9.89-6.61,2.63-8.7,3.23.15-.39.3-.79.46-1.19,4.62-11.53,11.56-19.2,19.6-23.81Z"/>
            <path class="cls-10" d="M99.15,56.92c-3.87,15.2-19.01,28.04-24.26,29.37-26,6.63-40.62,13.79-69.74-22.34.09,1.12.24,2.21.43,3.27,5,15.11,17.34,26.05,29.98,30.04,20.96,6.62,41.27-2.71,48.18-9.59,5.57-5.55,13.56-14.75,16.02-28.88-.14-.63-.34-1.25-.6-1.88Z"/>
            <path class="cls-5" d="M14.11,20.37c3.22.28,12.33-1.54,15.55-2.44,19.69-5.55,21.44-4.62,36.24-.96,5.82,1.44,11.82.09,18.68-1.73.62.38-14.91,10.49-31.31,3.91-7.22-2.9-38.15,10.84-46.77,15.71.25-.71.52-1.43.81-2.15,1.9-4.76,4.2-8.84,6.81-12.34Z"/>
            <path class="cls-8" d="M6.49,34.86c9.33-2.6,24.38-5.02,27.65-4.75,16.89,1.38,35.59-4.59,50.38-14.52,1.25.96,2.43,1.97,3.56,3.01-2.29.31-4.57,1.3-6.91,2.53-16.55,8.72-24.89,8.96-43.53,11.6-6.61.94-26.3.56-32.59,6.75.41-1.52.89-3.06,1.44-4.61h0ZM3.62,46.77c.18.5.39,1.01.67,1.55-.27-.1-.54-.22-.8-.35.04-.4.08-.8.13-1.2Z"/>
            <path class="cls-7" d="M60.23,4.48c-4.03,1.32-8.14,2.07-12.02.72-2.44-.85-4.7-1.24-6.91-1.32-6.46,1.03-12.69,3.44-18.25,7.53l8.17-1.21c12.09-1.79,24.42,1.05,34.31-4.34-1.75-.54-3.52-.99-5.31-1.37Z"/>
          </g>
        </g>
        <path class="cls-4" d="M50.51,78.19h0c.43-.04.89-.04,1.41,0,2.62.25,2.67.93,2.48-6.05,3.3-.45,6.52-1.68,9.36-3.71,5.72,6.82,4.45,3.19,8.34.46,1.92-1.35,2.19-1.04-2.87-6.12l.29-.44c1.77-2.73,2.85-5.73,3.29-8.79,8.46.41,6.38-.43,6.27-3.94.11-3.5,2.19-4.34-6.27-3.93-.45-3.05-1.53-6.05-3.29-8.79l-.29-.44c5.06-5.08,4.79-4.78,2.87-6.12-3.89-2.73-2.62-6.36-8.34.46-2.85-2.04-6.06-3.26-9.36-3.71.19-6.99.14-6.31-2.48-6.05-.51.04-.98.04-1.41,0h0v15.92h0c3.99-.21,8.03,1.54,10.59,5.52,1.42,2.2,2.05,4.69,1.95,7.15.1,2.46-.53,4.95-1.95,7.15-2.56,3.97-6.6,5.73-10.59,5.52h0v15.92ZM31.51,62.32l.29.44c-5.06,5.08-4.79,4.77-2.87,6.12,3.89,2.73,2.62,6.36,8.33-.46,2.85,2.04,6.06,3.26,9.37,3.71-.2,6.98-.14,6.3,2.48,6.05.52-.04.98-.04,1.41,0v-15.92c-3.99.21-8.02-1.54-10.59-5.52-1.42-2.2-2.05-4.69-1.96-7.15-.1-2.46.53-4.95,1.96-7.15,2.56-3.97,6.6-5.73,10.59-5.52v-15.92c-.43.05-.89.05-1.41,0-2.62-.26-2.67-.93-2.48,6.05-3.3.45-6.52,1.68-9.37,3.71-5.72-6.82-4.45-3.19-8.33-.46-1.92,1.35-2.19,1.04,2.87,6.12l-.29.44c-1.77,2.74-2.85,5.73-3.29,8.79-8.46-.41-6.38.43-6.27,3.93-.11,3.51-2.19,4.34,6.27,3.94.45,3.05,1.53,6.05,3.29,8.79Z"/>
      </g>
    </g>
  </g>
</svg>