<?xml version="1.0" encoding="UTF-8"?>
<svg xmlns="http://www.w3.org/2000/svg" version="1.1" viewBox="0 0 272.22 95.02">
  <defs>
    <style>
      .cls-1 {
        fill: #58595b;
      }

      .cls-1, .cls-2, .cls-3, .cls-4, .cls-5 {
        fill-rule: evenodd;
      }

      .cls-2 {
        fill: #fff;
      }

      .cls-3 {
        fill: #f0583e;
      }

      .cls-4 {
        fill: #ec1c24;
      }

      .cls-5 {
        fill: #a6352a;
      }
    </style>
  </defs>
  <!-- Generator: Adobe Illustrator 28.6.0, SVG Export Plug-In . SVG Version: 1.2.0 Build 709)  -->
  <g>
    <g id="Layer_1">
      <path class="cls-5" d="M19.74,26.48h242.43c5.52,0,10.04,2.83,10.04,6.29v44.48c0,3.46-4.52,6.29-10.04,6.29H19.74c-5.52,0-10.04-2.83-10.04-6.29v-44.48c0-3.46,4.52-6.29,10.04-6.29Z"/>
      <g>
        <g>
          <g>
            <path class="cls-5" d="M37.22,7.77h6.33c.32,0,.58.4.58.9v7.96c0,.5-.26.9-.58.9h-6.33c-.32,0-.58-.4-.58-.9v-7.96c0-.5.26-.9.58-.9Z"/>
            <path class="cls-5" d="M34.19,0h12.4c.62,0,1.13.41,1.13.9v7.96c0,.5-.51.9-1.13.9h-12.4c-.62,0-1.13-.4-1.13-.9V.9c0-.49.51-.9,1.13-.9Z"/>
            <path class="cls-1" d="M39.35,10.52h2.08c.1,0,.19.24.19.54v4.76c0,.3-.09.54-.19.54h-2.08c-.1,0-.19-.24-.19-.54v-4.76c0-.29.09-.54.19-.54Z"/>
            <path class="cls-1" d="M37.71.94h5.36c.27,0,.49.3.49.66v5.91c0,.37-.22.67-.49.67h-5.36c-.27,0-.49-.3-.49-.67V1.6c0-.37.22-.66.49-.66Z"/>
          </g>
          <g>
            <g>
              <path class="cls-5" d="M13.65,18.58l3.75-2.43c.19-.12.5.02.69.31l3.05,4.72c.19.29.19.63,0,.76l-3.76,2.43c-.19.12-.5-.02-.69-.32l-3.05-4.72c-.19-.29-.19-.63,0-.76Z"/>
              <path class="cls-5" d="M8.87,15.14l7.35-4.75c.37-.24.83-.19,1.02.1l3.05,4.72c.19.29.04.73-.33.97l-7.35,4.75c-.37.24-.83.19-1.02-.1l-3.05-4.72c-.19-.29-.04-.73.33-.97Z"/>
              <path class="cls-1" d="M15.96,19.4l1.23-.8c.06-.04.2.07.32.25l1.83,2.82c.12.18.16.35.09.39l-1.23.79c-.06.04-.2-.07-.32-.24l-1.82-2.83c-.11-.18-.16-.35-.09-.39Z"/>
              <path class="cls-1" d="M11.32,14.34l3.18-2.05c.16-.1.41-.01.55.21l2.26,3.5c.14.21.13.48-.03.58l-3.18,2.05c-.16.1-.41,0-.55-.21l-2.26-3.5c-.14-.22-.12-.48.04-.58Z"/>
            </g>
            <g>
              <path class="cls-5" d="M66.88,18.58l-3.76-2.43c-.19-.12-.5.02-.69.31l-3.05,4.72c-.19.29-.19.63,0,.76l3.76,2.43c.19.12.5-.02.69-.31l3.05-4.72c.19-.29.19-.63,0-.76Z"/>
              <path class="cls-5" d="M71.65,15.14l-7.35-4.75c-.37-.24-.82-.2-1.02.1l-3.05,4.72c-.19.29-.04.73.33.97l7.35,4.75c.37.24.82.2,1.02-.1l3.05-4.72c.19-.29.04-.73-.33-.97Z"/>
              <path class="cls-1" d="M64.56,19.4l-1.23-.79c-.06-.04-.21.07-.32.24l-1.83,2.83c-.11.18-.16.35-.09.39l1.23.8c.06.04.21-.07.32-.25l1.83-2.83c.11-.18.16-.35.09-.39Z"/>
              <path class="cls-1" d="M69.21,14.35l-3.18-2.06c-.16-.1-.41,0-.55.21l-2.26,3.5c-.14.22-.12.48.04.58l3.18,2.06c.16.1.4,0,.55-.21l2.26-3.5c.14-.21.13-.48-.03-.58Z"/>
            </g>
          </g>
        </g>
        <path class="cls-5" d="M40.26,14.27c22.23,0,40.26,18.08,40.26,40.37s-18.03,40.37-40.26,40.37S0,76.94,0,54.64,18.03,14.27,40.26,14.27Z"/>
        <path class="cls-4" d="M40.26,15.43c21.59,0,39.11,17.56,39.11,39.22s-17.51,39.22-39.11,39.22S1.15,76.3,1.15,54.64,18.67,15.43,40.26,15.43Z"/>
        <path class="cls-2" d="M40.26,16.08c21.23,0,38.44,17.27,38.44,38.56s-17.22,38.56-38.44,38.56S1.82,75.93,1.82,54.64,19.03,16.08,40.26,16.08Z"/>
        <path class="cls-4" d="M78.43,58.57c-2.29,18.79-18.5,33.36-38.17,33.36C19.03,91.93,1.82,74.95,1.82,54.02c0-1.27.07-2.52.19-3.76C4.29,31.47,20.51,16.9,40.17,16.9c21.23,0,38.45,16.98,38.45,37.92,0,1.27-.07,2.51-.19,3.75Z"/>
        <path class="cls-3" d="M40.26,18.71c19.78,0,35.82,16.09,35.82,35.93s-16.04,35.93-35.82,35.93S4.43,74.48,4.43,54.64,20.48,18.71,40.26,18.71Z"/>
        <path class="cls-5" d="M40.26,27.02c15.21,0,27.55,12.37,27.55,27.62s-12.34,27.62-27.55,27.62-27.55-12.37-27.55-27.62,12.34-27.62,27.55-27.62Z"/>
        <path class="cls-2" d="M40.26,28.23c14.54,0,26.33,11.82,26.33,26.41s-11.79,26.41-26.33,26.41-26.34-11.83-26.34-26.41,11.79-26.41,26.34-26.41Z"/>
        <path class="cls-5" d="M62.11,66.47l-2.09-1.2c-.21.39-.44.78-.68,1.17l2.09,1.2c.24-.39.46-.78.67-1.17h0ZM20.51,44.01c.21-.39.44-.78.67-1.17l-2.09-1.21c-.24.38-.46.78-.68,1.17l2.1,1.21Z"/>
        <path class="cls-5" d="M52.12,32.76l-1.21,2.1c.39.21.78.44,1.16.68l1.21-2.09c-.38-.24-.77-.46-1.16-.68h0ZM29.62,74.43c-.4-.22-.79-.44-1.17-.68l-1.21,2.1c.38.24.77.47,1.17.68l1.21-2.09Z"/>
        <path class="cls-5" d="M53.29,75.84l-1.21-2.09c-.38.24-.77.47-1.17.68l1.21,2.09c.39-.22.79-.45,1.17-.68h0ZM28.45,35.53c.38-.24.77-.46,1.17-.68l-1.21-2.1c-.4.21-.78.44-1.17.68l1.21,2.1Z"/>
        <path class="cls-5" d="M61.44,41.64l-2.09,1.21c.24.38.46.77.67,1.17l2.09-1.21c-.21-.39-.44-.78-.67-1.17h0ZM21.18,66.44c-.24-.39-.46-.78-.68-1.17l-2.09,1.21c.21.39.44.79.68,1.17l2.09-1.21Z"/>
        <path class="cls-5" d="M39.59,29.75v2.43c.22,0,.45,0,.68,0s.45,0,.68,0v-2.43c-.23,0-.45,0-.68,0s-.45,0-.68,0h0ZM40.94,77.11c-.22,0-.45.01-.68.01s-.45,0-.67-.01v2.43c.22,0,.45.01.67.01s.45,0,.68-.01v-2.43Z"/>
        <path class="cls-5" d="M65.09,53.97h-2.42c0,.23.01.45.01.68s0,.45-.01.68h2.42c0-.23,0-.45,0-.68s0-.45,0-.68h0ZM17.85,55.32c0-.23-.01-.45-.01-.68s0-.45.01-.68h-2.42c0,.23,0,.45,0,.68s0,.45,0,.68h2.42Z"/>
        <polygon class="cls-5" points="39.11 55.28 49.59 46.41 58.04 43.91 51.94 50.23 39.11 55.28"/>
        <path class="cls-5" d="M40.26,52.43c1.21,0,2.2.99,2.2,2.21s-.98,2.21-2.2,2.21-2.2-.99-2.2-2.21.98-2.21,2.2-2.21Z"/>
      </g>
    </g>
  </g>
</svg>