<?xml version="1.0" encoding="UTF-8"?>
<svg xmlns="http://www.w3.org/2000/svg" version="1.1" viewBox="0 0 448.62 159.83">
  <defs>
    <style>
      .cls-1 {
        fill: #552b00;
      }
    </style>
  </defs>
  <!-- Generator: Adobe Illustrator 28.6.0, SVG Export Plug-In . SVG Version: 1.2.0 Build 709)  -->
  <g>
    <g id="Layer_1">
      <g>
        <path class="cls-1" d="M47.77,18.2c0,2.41-.55,6.49-1.66,12.25-.32,1.7-.95,3.18-1.87,4.42-1.05,1.38-2.35,2.27-3.89,2.68-2.62.68-5.52,1.01-8.68,1.01-2,0-4.11-.15-6.33-.45l-.57-.57c.03-2.3.13-6.33.32-12.09.19-5.14.28-9.18.28-12.13,0-2.6-.05-4.99-.16-7.18l.85-.57c1.46-.05,2.73-.08,3.81-.08,5.11,0,9.26.76,12.46,2.27.84.41,1.46.76,1.87,1.05,2.38,1.76,3.57,4.88,3.57,9.37ZM37.1,24.9c0-4.51-.39-7.88-1.18-10.12-.35-.97-1.03-1.71-2.03-2.23-.16-.05-.41-.15-.73-.28-.49-.24-.87-.36-1.14-.36-.49,0-.76.26-.81.77-.22,2.05-.33,4.24-.33,6.56,0,1.16.01,2.91.04,5.24.03,2.33.04,4.08.04,5.24.43.32.97.49,1.62.49.73,0,1.57-.21,2.52-.63.95-.42,1.54-1.06,1.79-1.92.13-.46.2-1.38.2-2.75Z"/>
        <path class="cls-1" d="M70.57,27.49c0,3.16-.46,5.58-1.38,7.26-.27.49-.47.8-.61.93-.14.13-.5.37-1.1.69-2.27,1.27-5.07,1.91-8.4,1.91s-5.69-.57-7.08-1.7c-1.39-1.14-2.39-2.8-2.98-4.99-.41-1.49-.61-3.49-.61-6v-10.14c0-3.25.38-5.83,1.14-7.75.19-.43.32-.7.41-.81.08-.11.32-.31.73-.61,1.54-1.14,3.5-1.7,5.88-1.7,2,0,4.12.3,6.37.89,2.65.7,4.53,1.62,5.64,2.76.81.81,1.26,2.26,1.34,4.34.05,1.05.12,2.64.2,4.75.03.87.11,2.57.24,5.11.13,2.11.2,3.8.2,5.07ZM62.98,23.01c0-2.71-.08-5.1-.24-7.16,0-.27-.03-.65-.08-1.14-.03-.11-.12-.3-.28-.57-.68-1.06-1.75-1.58-3.21-1.58-.6.49-.99.92-1.18,1.3.08,6.18.12,9.32.12,9.43,0,.38-.02.96-.06,1.75-.04.79-.06,1.37-.06,1.75,0,1.82.43,3.13,1.28,3.94.22.22.4.35.54.41.27.11.65.16,1.11.16.85,0,1.48-.28,1.9-.85.11-2.71.17-5.19.17-7.44Z"/>
        <path class="cls-1" d="M94.51,18.2c0,2.41-.55,6.49-1.66,12.25-.32,1.7-.95,3.18-1.87,4.42-1.05,1.38-2.35,2.27-3.89,2.68-2.62.68-5.52,1.01-8.68,1.01-2,0-4.11-.15-6.33-.45l-.57-.57c.03-2.3.13-6.33.32-12.09.19-5.14.28-9.18.28-12.13,0-2.6-.05-4.99-.16-7.18l.85-.57c1.46-.05,2.73-.08,3.81-.08,5.11,0,9.26.76,12.46,2.27.84.41,1.46.76,1.87,1.05,2.38,1.76,3.57,4.88,3.57,9.37ZM83.84,24.9c0-4.51-.39-7.88-1.18-10.12-.35-.97-1.03-1.71-2.03-2.23-.16-.05-.41-.15-.73-.28-.49-.24-.87-.36-1.14-.36-.49,0-.76.26-.81.77-.22,2.05-.33,4.24-.33,6.56,0,1.16.01,2.91.04,5.24.03,2.33.04,4.08.04,5.24.43.32.97.49,1.62.49.73,0,1.57-.21,2.52-.63.95-.42,1.54-1.06,1.79-1.92.13-.46.2-1.38.2-2.75Z"/>
        <path class="cls-1" d="M116.66,14.38c0,.6-.03,1.22-.08,1.87-1.08.32-3.8.57-8.17.73-.27-.24-.49-1-.65-2.27-.16-1.08-.54-1.69-1.13-1.83h-.65c-2.08,0-3.44.2-4.09.61-.86.54-1.3,2.03-1.3,4.46v1.42c0,.57-.05,1.41-.14,2.52s-.14,1.95-.14,2.51c0,2.76.82,4.53,2.47,5.32.65.3,1.49.45,2.52.45,1.35,0,2.34-.26,2.96-.77.78-.65,1.16-1.34,1.14-2.07v-.12l-.41-.45s-1.12,0-3.45,0c-1.14,0-1.95-.24-2.43-.73v-6.94l.41-.45c2.6.22,6.33.46,11.2.73l.41.45c.03.35.09,1.46.2,3.33.11,1.35.16,2.46.16,3.33,0,2.95-.65,5.09-1.95,6.41-1.89,1.95-4.58,2.92-8.07,2.92-2.89,0-5.32-.73-7.26-2.19-1.24-.92-2.08-2.25-2.51-3.98-.3-1.14-.45-2.73-.45-4.79v-2.84c0-5.52.16-9.15.49-10.91.22-1.27.72-2.45,1.5-3.53.87-1.22,1.77-1.93,2.72-2.15.32-.08,1.58-.28,3.77-.61,2.3-.33,3.83-.49,4.58-.49,1.79,0,3.33.27,4.62.81.38.16.58.26.61.28.51.49,1.04,1.01,1.58,1.58.05.05.18.31.37.77.78,1.79,1.18,3.99,1.18,6.61Z"/>
        <path class="cls-1" d="M137.63,3.67l-.33,6.74c-.54.41-1.2.61-1.99.61-.35,0-.77-.05-1.26-.16-.95-.22-2-.33-3.17-.33-.54,0-1.34.01-2.39.04-1.05.03-1.85.04-2.39.04-.3.38-.45.84-.45,1.38,0,.3.05.75.16,1.36s.16,1.06.16,1.36c.78.49,1.81.73,3.08.73h-.08.12l.53-.05c.87-.07,1.64-.12,2.31-.15h.49c.81-.03,1.55.07,2.23.29l-.28,6.12-10.18.12c-.43.32-.65.82-.65,1.49,0,.21.03.53.1.94.07.42.1.72.1.9l.61.44h7.46c1.03,0,2.56-.03,4.58-.08.3.57.47,1.42.53,2.56-.03-.59-.04.27-.04,2.6,0,.38-.35.77-1.05,1.18-.89.05-1.83.08-2.8.08-1.68,0-4.19-.09-7.53-.26-3.34-.18-5.85-.26-7.53-.26l-.24-.41c.24-3.33.39-7.84.45-13.55.08-6.57.18-11.1.28-13.59l.45-.32c1,.05,2.05.08,3.16.08,1.54,0,3.94-.08,7.18-.24,3.14-.19,5.53-.27,7.18-.24h.85l.33.61Z"/>
        <path class="cls-1" d="M192,9.84l-.69.6-11.93-.49-.61.69c0,.38.04,4.4.12,12.05.09,4.71.32,8.68.69,11.93-.62.19-1.33.28-2.11.28-.43,0-1.08-.04-1.93-.12s-1.5-.12-1.93-.12-.81.03-1.14.08c-.14-.11-.55-.16-1.26-.16-.54,0-.89-.18-1.05-.53v-3.45c0-1.89-.11-4.92-.32-9.09-.19-3.92-.27-6.95-.24-9.09l-.85-.69h-11.13l-.36-.49c.11-.78.16-2.22.16-4.3,0-1.81.11-3.25.33-4.3.54-.22,1.16-.33,1.87-.33.46,0,1.1.08,1.91.23.95.22,1.57.34,1.87.38-.03,0,.46,0,1.46,0l3.57-.12c1.79,0,4.49.02,8.11.06,3.62.04,6.33.06,8.11.06h6.49l.85.48v6.42Z"/>
        <path class="cls-1" d="M213.7,35.84c0,.13-.14.29-.4.47-.27.17-.47.26-.61.26-3.36,0-5.61-.18-6.74-.53.05-1.03.08-2.14.08-3.33,0-1.76-.14-4.34-.41-7.75-.54-.38-1.22-.57-2.03-.57-.35,0-.86.04-1.52.12s-1.17.12-1.52.12c-.3,0-.58-.03-.85-.08-.3.57-.45,1.28-.45,2.15,0,.24.03.7.08,1.38.11,1.24.27,3.68.49,7.3l-.28.32c-.51.03-1,.04-1.46.04-2.19,0-3.81-.22-4.87-.65.35-3.76.53-7.84.53-12.25,0-3.57-.12-7.67-.37-12.29.68-.35,1.53-.53,2.56-.53.84,0,1.72.11,2.64.32.19.51.28,1.66.28,3.45,0,1.11.08,1.92.24,2.43,1.58.22,2.99.32,4.24.32.76,0,1.47-.04,2.12-.12.33-.41.49-1.6.49-3.57,0-.78,0-1.16,0-1.14-.2-1.05-.33-1.87-.37-2.43-.04-.57-.14-1.38-.28-2.43l.61-.49c1.38.11,2.6.16,3.65.16,1.38,0,2.46-.09,3.25-.28l.61.85c-.16,3.46-.24,7.09-.24,10.87,0,4.52.13,9.81.41,15.86.08,1.38.12,2.04.12,1.99Z"/>
        <path class="cls-1" d="M234.84,3.67l-.33,6.74c-.54.41-1.2.61-1.99.61-.35,0-.77-.05-1.26-.16-.95-.22-2-.33-3.17-.33-.54,0-1.34.01-2.39.04-1.05.03-1.85.04-2.39.04-.3.38-.45.84-.45,1.38,0,.3.05.75.16,1.36s.16,1.06.16,1.36c.78.49,1.81.73,3.08.73h-.08.12l.53-.05c.87-.07,1.64-.12,2.31-.15h.49c.81-.03,1.55.07,2.23.29l-.28,6.12-10.18.12c-.43.32-.65.82-.65,1.49,0,.21.03.53.1.94.07.42.1.72.1.9l.61.44h7.46c1.03,0,2.56-.03,4.58-.08.3.57.47,1.42.53,2.56-.03-.59-.04.27-.04,2.6,0,.38-.35.77-1.05,1.18-.89.05-1.83.08-2.8.08-1.68,0-4.19-.09-7.53-.26-3.34-.18-5.85-.26-7.53-.26l-.24-.41c.24-3.33.39-7.84.45-13.55.08-6.57.18-11.1.28-13.59l.45-.32c1,.05,2.05.08,3.16.08,1.54,0,3.94-.08,7.18-.24,3.14-.19,5.53-.27,7.18-.24h.85l.33.61Z"/>
        <path class="cls-1" d="M281.7,32.49c0,2.76-.59,4.84-1.79,6.24-.22.24-.59.57-1.14.97-2.06,1.51-4.73,2.27-8.03,2.27-2.73,0-6.13-.53-10.18-1.58-2.54-.67-4.15-2.17-4.83-4.49-.57-1.97-.89-4.15-.97-6.55.92-.13,1.95-.2,3.08-.2,2,0,4.33.21,6.98.64.19.27.34.91.45,1.93.11.8.42,1.37.93,1.69.76.46,1.61.68,2.56.68,1.03,0,1.88-.34,2.56-1.01-.08-1.67-.76-3.12-2.03-4.33-.79-.73-2.15-1.61-4.1-2.63-1.24-.65-2.22-1.2-2.92-1.66-.3-.24-.7-.55-1.22-.93-.35-.16-.88-.43-1.58-.81-1.43-.92-2.49-2.15-3.16-3.69-.22-.46-.34-.77-.37-.93,0-.03-.04-.54-.12-1.54-.16-1.92-.24-3.21-.24-3.89,0-4.13,1.16-6.9,3.49-8.31,1.32-.81,3.37-1.35,6.13-1.62,3.49-.35,5.83-.53,7.02-.53,3.6,0,6.06,1,7.38,3,1.11,1.68,1.66,5.04,1.66,10.1,0,1-.05,1.93-.16,2.8-1.62,0-3.25-.01-4.87-.04-1.89-.05-3.49-.27-4.79-.65l.12-2.8c0-.3.03-.74.08-1.34,0-1.51-.16-2.66-.49-3.45-.3-.7-.84-1.05-1.62-1.05-.87,0-1.7.28-2.52.85-1.14.22-1.91.93-2.31,2.15-.11.33-.16.88-.16,1.66,0,1.73.45,2.94,1.34,3.65.05.03.81.46,2.27,1.3,2.81,1.59,4.77,2.74,5.88,3.44,2.11,1.35,3.89,2.73,5.35,4.13.22.19.5.47.85.85.97,1.3,1.46,3.19,1.46,5.67Z"/>
        <path class="cls-1" d="M303.2,7.57s-1.99,5.53-5.96,16.51c.62,1.97,1.57,4.73,2.84,8.28,1.41,3.81,2.38,6.56,2.92,8.24,0,.46-.3.73-.89.81-.84.14-1.34.2-1.5.2h-2.11c-.84,0-1.46-.16-1.87-.49-.65-1.76-1.68-4.4-3.08-7.91-.41.7-.85,2-1.34,3.89-.46,1.7-.99,2.96-1.58,3.77h-6.77l-.73-.73c.19-4.81.28-9.31.28-13.49,0-7.4-.3-14.25-.89-20.55l.32-.28,8.07.16.57.77c0,1.38-.05,3.45-.14,6.21-.09,2.77-.14,4.84-.14,6.21,0,.67.01,1.28.04,1.82.84-1.79,2.64-6.37,5.4-13.75.3-.78,1.11-1.18,2.43-1.18.3,0,.75.04,1.36.1.61.07,1.06.1,1.36.1.3.16.61.34.93.55.32.2.49.45.49.75Z"/>
        <path class="cls-1" d="M328.35,23.8c0,3.93-.18,7.48-.53,10.66-.68,1.33-1.2,2.14-1.58,2.44-.62.3-1.43.71-2.43,1.22-1.43.73-3.16,1.1-5.19,1.1-.84,0-2.06-.05-3.65-.16-.24-.05-.6-.12-1.06-.2s-1.41-.26-2.84-.53c-2.38-.43-4.07-1.05-5.07-1.87-1.3-1.05-1.95-2.7-1.95-4.95,0-.59.05-1.49.16-2.68s.16-2.08.16-2.68v-1.14c0,.05.07-.96.2-3.04l.45-6.41c.27-3.76.83-6.78,1.66-9.05.68-.57,1.58-.85,2.72-.85.62,0,1.18.07,1.66.2.78.22,1.18.54,1.18.97,0,2.52-.08,5.83-.24,9.94-.22,5.14-.34,8.44-.37,9.9v.2c-.03.57.12,1.11.45,1.62.32.51.77.84,1.34.97.46.11,1.08.16,1.87.16,1.3,0,2.05-.39,2.27-1.18.08-.3.12-1.44.12-3.42,0-1.11-.05-2.78-.14-5.01-.1-2.22-.14-3.89-.14-5.01,0-3.2.28-6,.85-8.39,1.43-.65,2.97-.98,4.62-.98,1.76,0,3.29.37,4.58,1.1.22.6.33,1.38.33,2.36,0,.76.05,1.95.16,3.58.27,3.71.41,7.42.41,11.1Z"/>
        <path class="cls-1" d="M348.8,31.95l-.45.49h-.73c-2.65.03-8.68-.38-18.09-1.22l-.32-.45c.22-5.19.32-9.68.32-13.47,0-4.95-.18-9.4-.53-13.35l.77-.57h7.34c.59,0,.89.38.89,1.14,0,.3-.05.55-.16.77-.35,5.65-.55,8.71-.61,9.17-.24,3.46-.53,6.5-.85,9.13.11.19.16.45.16.77,0,.14-.03.34-.08.61-.05.27-.08.47-.08.61,0,.49.15.85.45,1.1.9.08,1.9.12,3.01.12.79,0,1.97-.03,3.56-.08,1.59-.05,2.77-.08,3.56-.08.71,0,1.32.01,1.83.04v5.27Z"/>
        <path class="cls-1" d="M369.57,31.95l-.45.49h-.73c-2.65.03-8.68-.38-18.09-1.22l-.32-.45c.22-5.19.32-9.68.32-13.47,0-4.95-.18-9.4-.53-13.35l.77-.57h7.34c.59,0,.89.38.89,1.14,0,.3-.05.55-.16.77-.35,5.65-.55,8.71-.61,9.17-.24,3.46-.53,6.5-.85,9.13.11.19.16.45.16.77,0,.14-.03.34-.08.61-.05.27-.08.47-.08.61,0,.49.15.85.45,1.1.9.08,1.9.12,3.01.12.79,0,1.97-.03,3.56-.08,1.59-.05,2.77-.08,3.56-.08.71,0,1.32.01,1.83.04v5.27Z"/>
        <path class="cls-1" d="M397.56,32.49c0,2.76-.59,4.84-1.79,6.24-.22.24-.59.57-1.14.97-2.06,1.51-4.73,2.27-8.03,2.27-2.73,0-6.13-.53-10.18-1.58-2.54-.67-4.15-2.17-4.83-4.49-.57-1.97-.89-4.15-.97-6.55.92-.13,1.95-.2,3.08-.2,2,0,4.33.21,6.98.64.19.27.34.91.45,1.93.11.8.42,1.37.93,1.69.76.46,1.61.68,2.56.68,1.03,0,1.88-.34,2.56-1.01-.08-1.67-.76-3.12-2.03-4.33-.79-.73-2.15-1.61-4.1-2.63-1.24-.65-2.22-1.2-2.92-1.66-.3-.24-.7-.55-1.22-.93-.35-.16-.88-.43-1.58-.81-1.43-.92-2.49-2.15-3.16-3.69-.22-.46-.34-.77-.37-.93,0-.03-.04-.54-.12-1.54-.16-1.92-.24-3.21-.24-3.89,0-4.13,1.16-6.9,3.49-8.31,1.32-.81,3.37-1.35,6.13-1.62,3.49-.35,5.83-.53,7.02-.53,3.6,0,6.06,1,7.38,3,1.11,1.68,1.66,5.04,1.66,10.1,0,1-.05,1.93-.16,2.8-1.62,0-3.25-.01-4.87-.04-1.89-.05-3.49-.27-4.79-.65l.12-2.8c0-.3.03-.74.08-1.34,0-1.51-.16-2.66-.49-3.45-.3-.7-.84-1.05-1.62-1.05-.87,0-1.7.28-2.52.85-1.14.22-1.91.93-2.31,2.15-.11.33-.16.88-.16,1.66,0,1.73.45,2.94,1.34,3.65.05.03.81.46,2.27,1.3,2.81,1.59,4.77,2.74,5.88,3.44,2.11,1.35,3.89,2.73,5.35,4.13.22.19.5.47.85.85.97,1.3,1.46,3.19,1.46,5.67Z"/>
        <path class="cls-1" d="M405.27,17.02c-.79.38-1.87.57-3.25.57h-2.07c-.81-.03-1.49-.03-2.03,0l-.41-.25v-3.9c0-1.18.09-2.12.28-2.83h6.94l.41.41.12,6ZM405.27,33.65c-.79.38-1.87.57-3.25.57h-2.07c-.81-.03-1.49-.03-2.03,0l-.41-.25v-3.9c0-1.18.09-2.12.28-2.83h6.94l.41.41.12,6Z"/>
        <path class="cls-1" d="M35.9,100.31c.05.14.12.3.2.49.08.19.14.39.18.59.04.2.04.39,0,.57-.04.18-.16.3-.34.39-.14.05-.3.08-.49.08h-1.77c-.42,0-.75-.07-.99-.2-.27-.16-.47-.45-.59-.85-.12-.41-.25-.77-.38-1.1-.3-.7-.57-1.43-.81-2.19-.24-.76-.51-1.5-.81-2.23-.08-.24-.16-.47-.22-.69s-.15-.42-.24-.61-.22-.35-.39-.49c-.16-.13-.38-.24-.65-.32-.14-.05-.29-.07-.47-.06-.18.01-.36.02-.55.02h-7.67c-.24,0-.51,0-.81-.02-.3-.01-.58,0-.85.02-.27.03-.52.07-.75.12-.23.05-.4.16-.51.32-.22.27-.37.58-.47.91-.09.34-.21.68-.34,1.03-.27.62-.52,1.27-.75,1.95-.23.68-.48,1.33-.75,1.95-.05.16-.12.34-.18.55-.07.2-.14.41-.22.63-.08.22-.17.41-.26.59s-.2.3-.3.38c-.22.16-.51.25-.87.26-.37.01-.75.02-1.16.02-.22,0-.43,0-.63-.02-.2-.01-.37-.07-.51-.18-.13-.08-.21-.2-.22-.36-.01-.16,0-.33.04-.51.04-.18.09-.35.16-.53.07-.18.13-.3.18-.38.38-.87.72-1.72,1.01-2.58.3-.85.62-1.71.97-2.58.24-.59.47-1.18.69-1.76.22-.58.45-1.17.69-1.76.81-1.95,1.58-3.92,2.31-5.9.73-1.99,1.5-3.97,2.31-5.94.3-.7.57-1.42.83-2.15.26-.73.53-1.45.83-2.15.13-.3.26-.63.39-.99.12-.37.3-.63.55-.79.11-.11.28-.19.53-.24.05-.03.11-.03.18-.02.07.01.13,0,.18-.02.49,0,1.05,0,1.7-.02.65-.01,1.12.09,1.42.3.22.16.38.43.51.79.12.37.25.7.39.99.27.62.51,1.25.73,1.87s.46,1.24.73,1.87c.22.54.43,1.09.63,1.66.2.57.43,1.12.67,1.66.81,1.97,1.59,3.97,2.33,5.98.74,2.02,1.54,4.01,2.37,5.98.11.24.2.47.26.69.07.22.14.45.22.69.3.7.59,1.42.87,2.15.28.73.57,1.45.87,2.15ZM27.22,90.46c.24-.08.4-.22.47-.41.07-.19.08-.4.04-.63-.04-.23-.11-.46-.2-.69-.1-.23-.18-.43-.26-.59-.05-.11-.08-.2-.08-.28s-.03-.18-.08-.28c-.08-.22-.16-.44-.22-.67s-.16-.47-.26-.71c-.41-.97-.76-1.97-1.08-2.98-.31-1.01-.67-2.01-1.08-2.98-.14-.3-.25-.59-.34-.89s-.21-.58-.34-.85c-.05-.13-.12-.26-.18-.39-.07-.12-.21-.18-.43-.18-.05.05-.11.09-.16.12-.05.03-.11.07-.16.12-.11.14-.19.28-.24.43-.05.15-.11.3-.16.47-.14.3-.24.59-.32.89-.08.3-.19.59-.33.89-.46,1.05-.86,2.12-1.2,3.21-.34,1.08-.72,2.14-1.16,3.16-.05.14-.1.27-.14.41-.04.13-.09.27-.14.41-.08.22-.16.43-.24.65-.08.22-.15.43-.2.65-.05.14-.08.28-.06.45.01.16.05.3.1.41.14.22.42.33.85.34.43.01.84.02,1.22.02h4.34c.3,0,.66,0,1.1.02s.76-.02.97-.1Z"/>
        <path class="cls-1" d="M38.3,81.53h1.3c.46,0,.81.08,1.06.24.19.14.32.3.38.51.07.2.14.41.22.63.16.38.3.76.41,1.14s.23.76.37,1.14c.54,1.46,1.04,2.93,1.5,4.4.46,1.47.96,2.94,1.5,4.4.19.49.35.98.49,1.48.13.5.31.99.53,1.48.05.19.12.39.2.61.08.22.22.35.41.41.22.05.39-.04.51-.28.12-.24.21-.43.26-.57.22-.51.4-1.03.55-1.56.15-.53.32-1.06.51-1.6.35-1.03.69-2.05,1.01-3.06.33-1.01.66-2.04,1.01-3.06.13-.46.27-.91.41-1.36s.3-.89.49-1.32c.13-.38.26-.76.37-1.14.11-.38.23-.76.37-1.14.05-.19.12-.38.2-.57.08-.19.19-.35.33-.49.22-.14.46-.22.73-.24.27-.03.59-.04.97-.04.19,0,.36,0,.53.02.16.01.31.05.45.1.24.11.37.28.38.53.01.24-.03.49-.14.73-.16.46-.32.93-.49,1.42-.16.49-.35.96-.57,1.42-.05.13-.1.26-.12.38-.03.12-.07.25-.12.39-.22.46-.39.93-.53,1.42-.14.49-.31.97-.53,1.46-.14.35-.26.71-.38,1.07-.12.37-.26.72-.43,1.08-.46,1.11-.87,2.23-1.24,3.37-.37,1.14-.78,2.26-1.24,3.37-.16.43-.31.87-.45,1.3-.14.43-.3.87-.49,1.3-.14.3-.25.57-.34.83-.1.26-.29.45-.59.59-.16.08-.34.12-.55.12h-.63c-.43,0-.85,0-1.26-.02-.41-.01-.7-.14-.89-.38-.19-.22-.33-.48-.41-.79s-.19-.62-.32-.91c-.16-.38-.32-.78-.47-1.2-.15-.42-.29-.82-.43-1.2-.05-.13-.1-.25-.12-.34-.03-.09-.07-.21-.12-.34-.54-1.3-1.04-2.61-1.48-3.94s-.94-2.64-1.48-3.94c-.16-.43-.32-.86-.47-1.28-.15-.42-.3-.84-.47-1.28-.05-.14-.1-.28-.14-.43-.04-.15-.09-.29-.14-.43-.22-.46-.4-.92-.55-1.38-.15-.46-.32-.92-.51-1.38-.05-.16-.12-.38-.2-.65s-.07-.5.04-.69c.13-.13.3-.23.49-.28.19,0,.3-.01.32-.04Z"/>
        <path class="cls-1" d="M78.46,91.06c.05.16.08.41.08.75s-.01.58-.04.71v.41c-.03.22-.05.41-.06.59-.01.18-.03.37-.06.59-.05.16-.09.32-.1.49-.01.16-.05.33-.1.49-.11.35-.2.7-.28,1.05s-.19.68-.32.97c-.57,1.3-1.33,2.39-2.27,3.27-.95.88-2.11,1.55-3.49,2.01-.3.11-.62.19-.95.24-.34.05-.68.11-1.03.16-.16.03-.33.05-.51.06s-.34.02-.51.02c-.11.03-.26.04-.47.04s-.34-.01-.43-.04c-.11-.03-.22-.03-.32-.02-.11.01-.2,0-.28-.02h-.24l-.97-.12c-.38-.11-.74-.22-1.1-.32-.35-.11-.69-.23-1.01-.37-1.22-.54-2.22-1.24-3-2.11-.78-.87-1.43-1.92-1.95-3.16-.14-.27-.24-.54-.3-.81-.07-.27-.13-.55-.18-.85-.05-.11-.07-.2-.06-.26s0-.16-.02-.26c-.05-.22-.09-.44-.1-.67-.01-.23-.05-.45-.1-.67v-.34c0-.09-.01-.21-.04-.35-.03-.13-.04-.37-.04-.71s.03-.59.08-.75c.05-.19.07-.38.04-.57-.03-.19-.01-.38.04-.57.03-.14.05-.25.06-.35.01-.09.03-.21.06-.34.08-.32.16-.65.22-.97.07-.32.17-.63.3-.93.41-1,.9-1.9,1.48-2.7.58-.8,1.29-1.47,2.13-2.01.32-.22.66-.4,1.01-.55.35-.15.72-.3,1.09-.47.33-.13.68-.22,1.05-.26s.76-.11,1.14-.22c.19,0,.37,0,.55-.02s.35-.03.51-.06c2.41-.03,4.41.47,6,1.5,1.6,1.03,2.75,2.37,3.45,4.02.13.27.24.54.32.81.08.27.18.55.28.85.08.3.15.62.2.95.05.34.12.68.2,1.03.03.14.03.28.02.43s0,.29.02.43ZM74.85,93.38c.05-.19.07-.41.06-.65-.01-.24-.02-.47-.02-.69,0-1.05-.1-1.95-.28-2.68-.08-.22-.15-.43-.2-.65-.05-.22-.12-.42-.2-.61-.76-1.76-1.96-2.97-3.61-3.65-.19-.08-.39-.14-.61-.18-.22-.04-.43-.09-.65-.14-.22-.05-.45-.08-.69-.08h-.73l-.73.12c-.27.05-.52.12-.75.18-.23.07-.45.16-.67.26-.19.05-.37.14-.53.24s-.31.22-.45.32c-.65.46-1.18,1.01-1.58,1.66-.41.65-.76,1.41-1.05,2.27-.08.27-.14.55-.16.83-.03.28-.07.58-.12.87-.03.11-.04.28-.04.53-.03.08-.03.18-.02.28.01.11.02.23.02.37v.81c0,.27.03.51.08.73l.08.49c.05.27.1.53.14.79.04.26.12.49.22.71.27.65.59,1.26.95,1.83.37.57.82,1.04,1.36,1.42.13.08.26.15.37.2.11.05.23.12.36.2.22.14.45.25.71.34s.53.18.83.26c.13.05.26.07.39.06.12-.01.25,0,.38.02.08.03.25.05.51.08.26.03.45.01.59-.04.11-.03.22-.03.33-.02.11.01.22,0,.32-.06.22-.05.43-.1.65-.14.22-.04.42-.1.61-.18.92-.38,1.66-.91,2.23-1.58.57-.68,1.04-1.47,1.42-2.39.13-.33.22-.67.26-1.04.04-.37.11-.74.22-1.12Z"/>
        <path class="cls-1" d="M83.25,77.47c-.22-.16-.33-.45-.35-.87-.01-.42-.02-.83-.02-1.24v-.69c0-.24.04-.45.12-.61.11-.22.33-.38.65-.49.05-.03.11-.03.18-.02.07.01.13,0,.18-.02.46,0,.89.01,1.3.04.41.03.68.19.81.49.08.16.12.36.12.59v.71c0,.49,0,.95-.02,1.38s-.2.72-.55.85c-.14.05-.28.08-.43.08h-1.32c-.27,0-.5-.07-.69-.2ZM86.25,100.48c0,.27,0,.55.02.83.01.28-.05.51-.18.67-.08.16-.2.26-.37.3-.16.04-.35.09-.57.14h-.61c-.35,0-.66-.02-.91-.06-.26-.04-.45-.17-.59-.39-.11-.16-.16-.37-.16-.63v-18.78c0-.28.07-.51.2-.67.08-.13.19-.22.33-.24.13-.03.28-.07.45-.12.05,0,.11,0,.18.02.07.01.13,0,.18-.02.35,0,.71,0,1.08.02.36.01.61.13.75.34.13.16.2.37.2.63v17.95Z"/>
        <path class="cls-1" d="M110.31,100.23v1.03c0,.34-.07.62-.2.83-.14.19-.36.29-.67.3-.31.01-.63.02-.95.02-.16,0-.32,0-.47.02s-.28,0-.38-.06c-.24-.05-.41-.16-.49-.33-.11-.13-.17-.3-.18-.49s-.06-.38-.14-.57c-.03-.05-.06-.1-.1-.14-.04-.04-.09-.09-.14-.14-.27-.03-.48.03-.63.16-.15.13-.3.27-.47.41-.54.41-1.08.72-1.62.93-.49.22-1.05.38-1.68.49-.64.11-1.29.17-1.95.18-.66.01-1.32-.03-1.97-.12s-1.22-.25-1.7-.47c-1.41-.59-2.54-1.4-3.41-2.41-.87-1.01-1.54-2.28-2.03-3.79-.11-.24-.18-.49-.22-.75-.04-.26-.1-.52-.18-.79-.03-.14-.04-.27-.04-.41s-.01-.27-.04-.41c-.05-.14-.08-.28-.06-.43s0-.29-.02-.43v-.41c-.05-.13-.08-.31-.08-.53s.03-.39.08-.53v-.45c.05-.19.07-.39.06-.59-.01-.2,0-.4.06-.59.03-.13.04-.26.04-.37s.01-.23.04-.37c.08-.27.15-.53.2-.79.05-.26.12-.51.2-.75.35-1.03.8-1.95,1.36-2.78.55-.83,1.22-1.51,2.01-2.05.46-.33.94-.59,1.44-.81.5-.22,1.05-.41,1.64-.57.19-.03.37-.05.55-.08.18-.03.36-.07.55-.12h.41c.22-.05.53-.08.95-.08s.74.03.95.08c.11.03.26.04.45.04.3.08.59.14.89.18.3.04.58.13.85.26.41.16.79.34,1.16.53.37.19.71.41,1.04.65.16.14.33.28.51.43.18.15.41.2.71.14.05-.08.1-.15.14-.2.04-.05.07-.14.1-.24.08-.24.12-.55.1-.93s-.02-.72-.02-1.01v-5.94c0-.47.07-.82.2-1.03.11-.19.27-.31.49-.37.05,0,.12,0,.2-.02.08-.01.15-.02.2-.02.38-.03.78-.03,1.2-.02.42.01.71.13.87.34.13.22.2.49.2.81v25.52ZM107.02,92.56c.05-.13.08-.32.08-.55s-.03-.41-.08-.55v-.61c-.05-.24-.1-.49-.12-.75-.03-.26-.08-.49-.16-.71-.05-.22-.1-.42-.14-.61-.04-.19-.1-.38-.18-.57-.32-.81-.74-1.53-1.26-2.15-.51-.62-1.16-1.11-1.95-1.46-.27-.13-.55-.24-.83-.3s-.59-.13-.91-.18c-.22-.05-.45-.08-.71-.08h-.75c-.13.03-.26.05-.36.06-.11.01-.23.02-.37.02-.22.05-.44.11-.67.16-.23.05-.45.12-.67.2-.87.38-1.56.93-2.09,1.64-.53.72-.95,1.55-1.28,2.5-.11.3-.18.6-.22.91-.04.31-.09.62-.14.91,0,.11,0,.21-.02.3-.01.1-.02.2-.02.3-.05.14-.07.28-.06.45.01.16.02.31.02.45v.87c0,.28.03.55.08.79.03.08.04.22.04.41.05.19.1.38.14.57.04.19.09.38.14.57.3.95.7,1.76,1.22,2.43.51.68,1.16,1.23,1.95,1.66.24.14.49.24.73.32.24.08.51.16.81.24.13.05.28.07.43.04.15-.03.29-.01.43.04.11.03.22.04.34.04h.71c.08-.03.22-.04.41-.04.22-.05.43-.1.65-.14.22-.04.42-.1.61-.18.89-.38,1.62-.86,2.17-1.44.55-.58,1.02-1.32,1.4-2.21.13-.3.23-.59.28-.89.05-.3.12-.59.2-.89.05-.11.08-.21.08-.3s.01-.2.04-.3c.03-.16.03-.32.02-.49-.01-.16,0-.32.02-.49Z"/>
        <path class="cls-1" d="M129.38,75.2c.41,0,.81,0,1.22.02.41.01.69.13.85.34.13.16.21.39.22.67.01.28.02.58.02.87v2.35c0,.22,0,.44-.02.67-.01.23,0,.43.06.59.11.38.35.62.73.73.13.03.26.04.39.04h.38c.3,0,.66,0,1.1-.02s.74.02.93.1c.24.16.41.33.49.49.05.11.08.23.08.37v.41c0,.3-.01.58-.04.83-.03.26-.12.45-.28.59-.16.14-.39.21-.67.22s-.58.01-.89,0c-.31-.01-.62-.02-.91-.02s-.55.04-.77.12c-.19.08-.32.22-.41.41-.08.19-.14.41-.16.67-.03.26-.04.53-.02.81.01.28.02.56.02.83v8.03c0,.6,0,1.22-.02,1.89-.01.66.1,1.17.34,1.52.13.22.31.37.53.45.22.08.47.15.77.2.08.03.17.03.26.02.09-.01.18,0,.26.02h.53c.27,0,.52.02.75.06.23.04.4.14.51.3.05.08.1.22.14.43.04.2.07.41.08.63.01.22,0,.43-.02.63-.03.2-.08.36-.16.47-.11.19-.31.32-.61.41-.22.05-.46.08-.73.06-.27-.01-.51-.02-.73-.02-.16,0-.32,0-.49.02-.16.01-.31,0-.45-.02h-.49c-.14-.03-.26-.05-.39-.06-.12-.01-.25-.02-.38-.02-.54-.14-1.01-.28-1.4-.45-.39-.16-.72-.45-.99-.85-.38-.54-.6-1.22-.65-2.05-.05-.82-.08-1.71-.08-2.66v-10.63c-.08-.35-.16-.61-.22-.77s-.26-.3-.59-.41c-.11-.03-.22-.03-.32,0-.11.03-.22.01-.33-.04h-.65c-.35,0-.64-.03-.87-.1-.23-.07-.38-.22-.47-.47-.05-.11-.09-.23-.1-.37-.01-.14-.02-.27-.02-.41,0-.38.03-.7.08-.95.05-.26.22-.45.49-.59.3-.11.68-.13,1.16-.08.47.05.87.03,1.2-.08.24-.13.43-.32.57-.57.05-.16.08-.37.08-.61v-3.88c0-.23.03-.43.08-.59.11-.22.31-.39.61-.53.08,0,.16,0,.22-.02.07-.01.13-.02.18-.02Z"/>
        <path class="cls-1" d="M140.86,73.58c.38,0,.78,0,1.2.02.42.01.71.13.87.34.13.19.2.47.2.83v6.59c0,.11,0,.22-.02.32-.01.11,0,.22.02.32.03.08.03.18.02.28-.01.11,0,.2.02.28.05.22.09.42.1.61.01.19.16.28.43.28.05-.05.12-.09.18-.1.07-.01.13-.05.18-.1.16-.11.31-.22.45-.34.13-.12.28-.25.45-.38.3-.22.63-.41.99-.59.37-.18.74-.33,1.12-.47.22-.05.45-.1.69-.14.24-.04.47-.09.69-.14.11-.05.22-.07.32-.06.11.01.23,0,.37-.02.13-.05.36-.08.67-.08s.53.03.67.08h.39c.12,0,.25.01.38.04.22.05.43.09.65.12.22.03.43.07.65.12.13.05.24.09.32.1.08.01.19.05.33.1.3.14.58.28.85.43.27.15.54.32.81.51.27.24.53.53.77.85.16.24.31.49.45.73.13.24.27.51.41.81.08.19.14.38.18.57.04.19.09.39.14.61.05.14.08.27.08.41s.01.28.04.45c.05.14.07.27.06.41-.01.14,0,.27.06.41v.41c.03.14.03.28.02.45s-.02.31-.02.45v10.18c0,.22,0,.48.02.79.01.31.01.61,0,.89s-.05.55-.1.79c-.05.24-.14.41-.24.49-.19.16-.54.24-1.05.24h-1.04c-.34,0-.59-.11-.75-.33-.14-.19-.2-.41-.2-.67v-10.24c0-.73,0-1.51.02-2.33.01-.82-.08-1.53-.26-2.13-.33-.92-.87-1.6-1.62-2.03-.22-.13-.45-.25-.69-.34-.24-.09-.51-.17-.81-.22-.11-.03-.27-.04-.49-.04-.11-.03-.24-.05-.38-.08-.15-.03-.29-.01-.43.04-.11.03-.22.03-.32.02-.11-.01-.23,0-.37.02-.24.05-.49.1-.75.14-.26.04-.49.12-.71.22-.92.38-1.65.89-2.19,1.54-.54.65-.96,1.47-1.26,2.48-.05.19-.09.39-.12.61-.03.22-.07.43-.12.65-.03.08-.03.17-.02.26.01.1,0,.18-.02.26-.03.14-.03.27,0,.41.03.14.03.27,0,.41v8.16c0,.22,0,.47.02.75.01.28.01.56,0,.83s-.03.53-.06.77c-.03.24-.08.42-.16.53-.11.14-.24.21-.39.22s-.32.05-.51.1h-.57c-.3,0-.58,0-.85-.02-.27-.01-.47-.1-.61-.26-.14-.22-.21-.48-.22-.79-.01-.31-.02-.64-.02-.99v-24.63c0-.3,0-.62-.02-.95-.01-.34.05-.6.18-.79.11-.19.31-.32.61-.41.05-.03.11-.03.16-.02.05.01.11,0,.16-.02Z"/>
        <path class="cls-1" d="M180.41,91.14c.05.27.06.58.02.91-.04.34-.13.57-.26.71-.14.11-.33.18-.59.22-.26.04-.55.06-.87.06s-.65,0-.97-.02c-.32-.01-.61-.02-.85-.02h-10.39c-.22,0-.43,0-.65.02-.22.01-.39.06-.53.14-.11.05-.22.16-.33.32-.05.08-.11.2-.16.35-.05.15-.05.29,0,.43.03.14.04.26.04.37s.01.22.04.32c.05.22.11.44.16.67.05.23.14.45.24.67.62,1.46,1.65,2.5,3.08,3.12.16.08.34.15.53.2.19.05.38.11.57.16.08.03.22.04.41.04.38.11.88.16,1.5.16s1.12-.05,1.5-.16c.38-.11.72-.22,1.04-.34.31-.12.6-.28.87-.47.3-.19.55-.41.77-.67.22-.26.41-.53.57-.83.16-.27.3-.55.43-.85.12-.3.33-.51.63-.65.11-.05.28-.09.53-.12s.49-.03.73-.02.47.03.69.06c.22.03.37.08.45.16.27.19.34.5.2.93-.22.73-.5,1.38-.85,1.95-.54.87-1.16,1.58-1.85,2.13-.69.55-1.56,1.01-2.62,1.36-.27.11-.54.18-.81.22-.27.04-.55.09-.85.14-.14.03-.26.04-.38.04s-.25.01-.39.04h-.41c-.14.03-.29.04-.47.04s-.32-.01-.43-.04h-.37c-.14-.03-.26-.04-.37-.04s-.22-.01-.33-.04c-.13-.03-.28-.05-.45-.06-.16-.01-.31-.03-.45-.06-.24-.05-.49-.12-.73-.18-.24-.07-.47-.14-.69-.22-.11-.05-.2-.09-.28-.1s-.18-.05-.28-.1c-.41-.19-.84-.42-1.3-.69-.78-.51-1.45-1.14-2.01-1.89-.55-.74-1.02-1.58-1.4-2.5-.14-.3-.24-.61-.3-.93-.07-.32-.16-.65-.26-.97-.03-.11-.04-.2-.04-.28s-.01-.19-.04-.32c-.05-.22-.09-.45-.12-.69s-.07-.49-.12-.73v-.57c-.03-.11-.05-.26-.06-.47-.01-.2,0-.37.02-.51v-.45c.05-.13.07-.28.06-.43-.01-.15,0-.29.02-.43.11-.43.2-.87.26-1.3s.18-.84.34-1.22c.14-.3.26-.6.39-.91.12-.31.26-.61.43-.91.59-.95,1.27-1.76,2.03-2.46.76-.69,1.69-1.26,2.8-1.72.32-.14.66-.24.99-.3.34-.07.7-.14,1.08-.22.13-.03.26-.05.37-.06.11-.01.23-.02.37-.02.05-.03.12-.03.2,0,.08.03.15.01.2-.04,1.14-.03,2.12.09,2.96.34.84.26,1.6.6,2.27,1.03.13.05.24.13.33.22.08.09.17.17.28.22.22.16.44.35.67.57.23.22.43.43.59.65.43.57.8,1.11,1.1,1.62.19.3.34.62.45.97.11.35.23.7.37,1.05.13.35.24.72.3,1.09.07.38.16.76.26,1.14.03.19.05.38.06.57.01.19.03.38.06.57ZM176.48,89.76c.08-.11.15-.25.2-.43.05-.18.05-.36,0-.55-.16-.59-.39-1.15-.69-1.66-.38-.62-.8-1.15-1.26-1.58s-1.05-.8-1.79-1.1c-.19-.05-.38-.1-.57-.14-.19-.04-.39-.09-.61-.14-.22-.05-.45-.08-.69-.08h-.69c-.08.05-.18.08-.28.06-.11-.01-.2,0-.28.02-.22.05-.43.1-.63.14-.2.04-.4.09-.59.14-.79.32-1.41.73-1.89,1.22-.47.49-.9,1.1-1.28,1.83-.08.14-.16.3-.24.51-.08.2-.15.43-.2.67-.05.24-.07.47-.04.69.03.22.12.38.28.49.22.16.59.24,1.12.22s.98-.02,1.36-.02h6.17c.41,0,.89,0,1.46.02s.95-.09,1.14-.3Z"/>
        <path class="cls-1" d="M201.79,81.04c1.95-.03,3.58.2,4.91.67,1.33.47,2.35,1.3,3.08,2.5.19.3.34.6.45.91.11.31.22.66.32,1.03.05.19.07.39.04.59-.03.2-.07.36-.12.47-.05.05-.12.1-.2.14-.08.04-.15.09-.2.14-.14.05-.27.07-.41.04-.14-.03-.27-.03-.41,0-.22.05-.5.06-.85.02-.35-.04-.59-.1-.73-.18-.22-.13-.36-.32-.43-.55-.07-.23-.17-.45-.3-.67-.24-.43-.58-.83-1.01-1.18-.3-.22-.62-.38-.97-.49-.35-.11-.73-.22-1.14-.33-.14-.05-.27-.07-.41-.06-.14.01-.27,0-.41-.02-.16-.05-.37-.08-.61-.08s-.45.03-.61.08h-.24c-.14.03-.27.05-.41.06-.14.01-.27.03-.41.06-.7.16-1.29.39-1.74.69-.46.3-.77.8-.93,1.5-.05.19-.06.38-.02.57.04.19.09.35.14.49.16.41.36.7.59.87s.52.37.87.59c.43.27.92.47,1.46.59.54.12,1.08.26,1.62.43.35.11.7.19,1.05.24.35.05.7.14,1.05.24.57.16,1.12.32,1.66.47s1.08.33,1.62.55c.14.05.27.11.41.16.13.05.27.12.41.2.54.32,1.01.69,1.42,1.09s.74.92,1.01,1.54c.05.19.11.45.16.77.05.19.09.39.1.59.01.2.02.43.02.67v.41c-.05.19-.08.38-.08.57s-.03.38-.08.57c-.08.3-.18.58-.28.85-.11.27-.23.51-.37.73-.43.7-.99,1.26-1.66,1.68-.68.42-1.43.78-2.27,1.08-.24.08-.49.14-.75.18-.26.04-.51.1-.75.18-.27.05-.54.08-.81.08s-.54.03-.81.08h-.41c-.14.03-.33.04-.57.04s-.43-.01-.57-.04h-.45c-.16-.05-.34-.07-.53-.06s-.35,0-.49-.06c-.14-.03-.31-.04-.53-.04-.22-.05-.43-.1-.63-.14-.2-.04-.41-.1-.63-.18-.84-.27-1.57-.61-2.19-1.01s-1.16-.93-1.62-1.58c-.24-.35-.45-.72-.61-1.1-.16-.38-.31-.8-.45-1.26-.05-.16-.08-.36-.06-.59.01-.23.05-.41.1-.55.08-.11.22-.22.41-.32.14-.05.33-.09.57-.1s.49,0,.73.02.48.06.71.1c.23.04.39.09.47.14.19.14.32.33.38.59.07.26.16.49.26.71.27.6.64,1.05,1.1,1.38.32.24.69.43,1.1.57.41.14.84.27,1.3.41l.85.12h.24c.19.05.44.08.75.08s.58-.03.79-.08c.19,0,.34-.01.45-.04.16-.03.32-.05.49-.06s.31-.03.45-.06c.78-.22,1.41-.5,1.87-.85s.78-.95.97-1.79c.05-.13.07-.28.04-.45-.03-.16-.05-.28-.08-.37-.14-.51-.33-.9-.57-1.16-.24-.26-.55-.49-.93-.71-.24-.16-.51-.3-.81-.41-.3-.11-.6-.22-.89-.33-.08-.03-.16-.04-.22-.04s-.14-.03-.22-.08c-.92-.3-1.87-.52-2.86-.67-.99-.15-1.91-.4-2.78-.75-.27-.11-.53-.2-.77-.28-.24-.08-.47-.19-.69-.33-.51-.3-.99-.63-1.42-1.01s-.77-.85-1.01-1.42c-.08-.19-.14-.38-.18-.57-.04-.19-.09-.39-.14-.61-.08-.32-.11-.7-.08-1.12.03-.42.07-.78.12-1.07.05-.14.09-.25.1-.35.01-.09.05-.2.1-.3.24-.62.57-1.16.99-1.62.42-.46.9-.87,1.44-1.22.41-.24.85-.44,1.34-.59.49-.15,1-.29,1.54-.43.19-.03.37-.05.55-.08.18-.03.37-.05.59-.08.08-.03.19-.03.33,0,.13.03.23.01.28-.04Z"/>
        <path class="cls-1" d="M235.59,91.43c.03.14.04.31.04.53s-.01.39-.04.53c-.05.14-.07.26-.04.39.03.12.03.24,0,.34,0,.19-.01.34-.04.45-.05.24-.09.49-.1.73-.01.24-.05.49-.1.73-.05.22-.11.43-.16.63-.05.2-.12.41-.2.63-.32,1-.77,1.91-1.34,2.72-.16.24-.34.48-.53.71-.19.23-.39.44-.61.63l-.2.2c-.19.14-.37.27-.53.41s-.35.27-.57.41c-.3.22-.63.4-.99.55-.36.15-.74.29-1.12.43-.22.05-.43.09-.63.12-.2.03-.41.07-.63.12-.05,0-.1,0-.14.02-.04.01-.09.02-.14.02-.24.05-.6.09-1.08.1s-.85,0-1.12-.06h-.2c-.19-.03-.37-.05-.53-.06s-.32-.05-.49-.1c-.46-.13-.89-.26-1.3-.37-.41-.11-.78-.27-1.14-.49-.43-.24-.81-.5-1.14-.77-.11-.08-.27-.2-.49-.35-.22-.15-.42-.16-.61-.02-.11.08-.16.19-.16.32s-.03.28-.08.45c-.03.08-.03.17,0,.26.03.09.03.2,0,.3-.05.16-.08.34-.06.55.01.2.02.38.02.55v6.04c0,.41-.08.72-.24.93-.14.19-.35.29-.65.3-.3.01-.59.02-.89.02h-.65c-.19-.05-.35-.11-.47-.16-.12-.05-.22-.15-.3-.28-.14-.19-.2-.49-.18-.89.01-.41.02-.76.02-1.05v-24.34c0-.33,0-.66.02-.99.01-.34.09-.62.22-.83.08-.11.26-.2.55-.26.28-.07.59-.09.91-.08s.63.05.91.12c.28.07.47.16.55.26.11.14.17.3.18.49.01.19.06.38.14.57.05.08.1.14.14.18.04.04.09.09.14.14.3.03.55-.07.75-.28.2-.22.4-.39.59-.53.7-.49,1.54-.87,2.51-1.14.24-.05.49-.09.75-.12.26-.03.52-.07.79-.12.11-.03.24-.03.41,0,.16.03.27.01.33-.04,1.16-.03,2.19.09,3.08.34.89.26,1.69.62,2.39,1.08.14.11.27.21.41.3.13.09.27.2.41.3.05.05.1.1.14.14s.09.09.14.14c.13.14.28.28.45.45.16.16.31.33.45.49.32.46.66.96,1.01,1.5.22.35.4.74.55,1.18s.29.87.43,1.3c.05.22.1.45.14.69.04.24.09.47.14.69,0,.11,0,.21.02.3.01.1.02.18.02.26.05.14.07.28.06.45s0,.31.06.45v.41ZM231.98,92.52c.05-.13.07-.3.04-.51-.03-.2-.04-.39-.04-.55,0-.46-.02-.89-.06-1.3-.04-.41-.13-.8-.26-1.18-.05-.16-.1-.33-.14-.51-.04-.18-.1-.34-.18-.51-.3-.73-.76-1.43-1.4-2.11-.64-.68-1.24-1.14-1.81-1.38-.22-.11-.44-.19-.67-.24-.23-.05-.47-.12-.71-.2-.24-.05-.52-.08-.83-.08h-.91c-.05.05-.16.07-.3.06-.15-.01-.28,0-.39.02-.24.05-.48.11-.71.16-.23.05-.45.14-.67.24-.87.38-1.58.93-2.13,1.64-.55.72-.98,1.55-1.28,2.5-.11.3-.18.59-.22.89-.04.3-.09.59-.14.89-.03.11-.04.21-.04.3s-.01.2-.04.3v.32c-.03.14-.04.33-.04.59s.01.45.04.59v.32c.03.11.04.22.04.33s.01.2.04.28c.03.08.04.16.04.24s.01.18.04.28c.05.22.1.43.14.65.04.22.09.43.14.65.3.92.71,1.72,1.24,2.41s1.22,1.22,2.09,1.6c.51.22,1.04.38,1.58.49.11.05.22.08.32.06s.22,0,.33.02h.32c.19.05.38.05.57,0h.32c.3-.05.58-.09.85-.12s.54-.09.81-.2c.84-.35,1.52-.82,2.05-1.4s.97-1.29,1.32-2.13c.14-.38.24-.76.3-1.16s.16-.8.26-1.24c.03-.14.04-.26.04-.37s.01-.23.04-.37v-.33Z"/>
        <path class="cls-1" d="M258.84,91.06c.05.16.08.41.08.75s-.01.58-.04.71v.41c-.03.22-.05.41-.06.59-.01.18-.03.37-.06.59-.05.16-.09.32-.1.49-.01.16-.05.33-.1.49-.11.35-.2.7-.28,1.05s-.19.68-.32.97c-.57,1.3-1.33,2.39-2.27,3.27-.95.88-2.11,1.55-3.49,2.01-.3.11-.62.19-.95.24-.34.05-.68.11-1.03.16-.16.03-.33.05-.51.06s-.34.02-.51.02c-.11.03-.26.04-.47.04s-.34-.01-.43-.04c-.11-.03-.22-.03-.32-.02-.11.01-.2,0-.28-.02h-.24l-.97-.12c-.38-.11-.74-.22-1.1-.32-.35-.11-.69-.23-1.01-.37-1.22-.54-2.22-1.24-3-2.11-.78-.87-1.43-1.92-1.95-3.16-.14-.27-.24-.54-.3-.81-.07-.27-.13-.55-.18-.85-.05-.11-.07-.2-.06-.26s0-.16-.02-.26c-.05-.22-.09-.44-.1-.67-.01-.23-.05-.45-.1-.67v-.34c0-.09-.01-.21-.04-.35-.03-.13-.04-.37-.04-.71s.03-.59.08-.75c.05-.19.07-.38.04-.57-.03-.19-.01-.38.04-.57.03-.14.05-.25.06-.35.01-.09.03-.21.06-.34.08-.32.16-.65.22-.97.07-.32.17-.63.3-.93.41-1,.9-1.9,1.48-2.7.58-.8,1.29-1.47,2.13-2.01.32-.22.66-.4,1.01-.55.35-.15.72-.3,1.09-.47.33-.13.68-.22,1.05-.26s.76-.11,1.14-.22c.19,0,.37,0,.55-.02s.35-.03.51-.06c2.41-.03,4.41.47,6,1.5,1.6,1.03,2.75,2.37,3.45,4.02.13.27.24.54.32.81.08.27.18.55.28.85.08.3.15.62.2.95.05.34.12.68.2,1.03.03.14.03.28.02.43s0,.29.02.43ZM255.22,93.38c.05-.19.07-.41.06-.65-.01-.24-.02-.47-.02-.69,0-1.05-.1-1.95-.28-2.68-.08-.22-.15-.43-.2-.65-.05-.22-.12-.42-.2-.61-.76-1.76-1.96-2.97-3.61-3.65-.19-.08-.39-.14-.61-.18-.22-.04-.43-.09-.65-.14-.22-.05-.45-.08-.69-.08h-.73l-.73.12c-.27.05-.52.12-.75.18-.23.07-.45.16-.67.26-.19.05-.37.14-.53.24s-.31.22-.45.32c-.65.46-1.18,1.01-1.58,1.66-.41.65-.76,1.41-1.05,2.27-.08.27-.14.55-.16.83-.03.28-.07.58-.12.87-.03.11-.04.28-.04.53-.03.08-.03.18-.02.28.01.11.02.23.02.37v.81c0,.27.03.51.08.73l.08.49c.05.27.1.53.14.79.04.26.12.49.22.71.27.65.59,1.26.95,1.83.37.57.82,1.04,1.36,1.42.13.08.26.15.37.2.11.05.23.12.36.2.22.14.45.25.71.34s.53.18.83.26c.13.05.26.07.39.06.12-.01.25,0,.38.02.08.03.25.05.51.08.26.03.45.01.59-.04.11-.03.22-.03.33-.02.11.01.22,0,.32-.06.22-.05.43-.1.65-.14.22-.04.42-.1.61-.18.92-.38,1.66-.91,2.23-1.58.57-.68,1.04-1.47,1.42-2.39.13-.33.22-.67.26-1.04.04-.37.11-.74.22-1.12Z"/>
        <path class="cls-1" d="M282.12,91.06c.05.16.08.41.08.75s-.01.58-.04.71v.41c-.03.22-.05.41-.06.59-.01.18-.03.37-.06.59-.05.16-.09.32-.1.49-.01.16-.05.33-.1.49-.11.35-.2.7-.28,1.05s-.19.68-.32.97c-.57,1.3-1.33,2.39-2.27,3.27-.95.88-2.11,1.55-3.49,2.01-.3.11-.62.19-.95.24-.34.05-.68.11-1.03.16-.16.03-.33.05-.51.06s-.34.02-.51.02c-.11.03-.26.04-.47.04s-.34-.01-.43-.04c-.11-.03-.22-.03-.32-.02-.11.01-.2,0-.28-.02h-.24l-.97-.12c-.38-.11-.74-.22-1.1-.32-.35-.11-.69-.23-1.01-.37-1.22-.54-2.22-1.24-3-2.11-.78-.87-1.43-1.92-1.95-3.16-.14-.27-.24-.54-.3-.81-.07-.27-.13-.55-.18-.85-.05-.11-.07-.2-.06-.26s0-.16-.02-.26c-.05-.22-.09-.44-.1-.67-.01-.23-.05-.45-.1-.67v-.34c0-.09-.01-.21-.04-.35-.03-.13-.04-.37-.04-.71s.03-.59.08-.75c.05-.19.07-.38.04-.57-.03-.19-.01-.38.04-.57.03-.14.05-.25.06-.35.01-.09.03-.21.06-.34.08-.32.16-.65.22-.97.07-.32.17-.63.3-.93.41-1,.9-1.9,1.48-2.7.58-.8,1.29-1.47,2.13-2.01.32-.22.66-.4,1.01-.55.35-.15.72-.3,1.09-.47.33-.13.68-.22,1.05-.26s.76-.11,1.14-.22c.19,0,.37,0,.55-.02s.35-.03.51-.06c2.41-.03,4.41.47,6,1.5,1.6,1.03,2.75,2.37,3.45,4.02.13.27.24.54.32.81.08.27.18.55.28.85.08.3.15.62.2.95.05.34.12.68.2,1.03.03.14.03.28.02.43s0,.29.02.43ZM278.51,93.38c.05-.19.07-.41.06-.65-.01-.24-.02-.47-.02-.69,0-1.05-.1-1.95-.28-2.68-.08-.22-.15-.43-.2-.65-.05-.22-.12-.42-.2-.61-.76-1.76-1.96-2.97-3.61-3.65-.19-.08-.39-.14-.61-.18-.22-.04-.43-.09-.65-.14-.22-.05-.45-.08-.69-.08h-.73l-.73.12c-.27.05-.52.12-.75.18-.23.07-.45.16-.67.26-.19.05-.37.14-.53.24s-.31.22-.45.32c-.65.46-1.18,1.01-1.58,1.66-.41.65-.76,1.41-1.05,2.27-.08.27-.14.55-.16.83-.03.28-.07.58-.12.87-.03.11-.04.28-.04.53-.03.08-.03.18-.02.28.01.11.02.23.02.37v.81c0,.27.03.51.08.73l.08.49c.05.27.1.53.14.79.04.26.12.49.22.71.27.65.59,1.26.95,1.83.37.57.82,1.04,1.36,1.42.13.08.26.15.37.2.11.05.23.12.36.2.22.14.45.25.71.34s.53.18.83.26c.13.05.26.07.39.06.12-.01.25,0,.38.02.08.03.25.05.51.08.26.03.45.01.59-.04.11-.03.22-.03.33-.02.11.01.22,0,.32-.06.22-.05.43-.1.65-.14.22-.04.42-.1.61-.18.92-.38,1.66-.91,2.23-1.58.57-.68,1.04-1.47,1.42-2.39.13-.33.22-.67.26-1.04.04-.37.11-.74.22-1.12Z"/>
        <path class="cls-1" d="M287.6,73.54c.38,0,.78,0,1.2.02s.71.13.87.34c.11.14.17.31.18.53s.02.46.02.73v12.5c0,.14,0,.28-.02.43-.01.15,0,.29.02.43v.32c0,.27.04.5.12.69.03.08.07.14.12.18.05.04.11.09.16.14.24.03.43,0,.55-.1.12-.09.25-.2.38-.3.13-.11.24-.22.33-.32.08-.11.17-.2.28-.28.22-.13.41-.29.57-.47.16-.18.34-.36.53-.55.13-.13.26-.26.39-.37.12-.11.25-.23.38-.37.08-.05.16-.12.22-.2.07-.08.13-.15.18-.2s.09-.09.12-.1c.03-.01.07-.05.12-.1.11-.13.22-.25.32-.34.11-.09.23-.2.37-.3.05-.08.12-.16.2-.24l.24-.24c.24-.19.47-.39.67-.61.2-.22.43-.42.67-.61.08-.08.16-.17.24-.26.08-.09.16-.18.24-.26.35-.27.66-.57.93-.89.27-.33.59-.61.97-.85.22-.13.49-.22.83-.26.34-.04.71-.06,1.12-.06.13,0,.28,0,.43-.02.15-.01.28,0,.38.02h.45c.22.05.39.1.53.14.14.04.2.18.2.43-.05.05-.09.12-.1.2s-.05.15-.1.2c-.05.08-.13.16-.22.24s-.18.15-.26.2c-.05.05-.09.09-.1.12s-.05.07-.1.12c-.11.05-.2.13-.28.22-.08.09-.16.17-.24.22-.08.08-.16.16-.24.22s-.15.14-.2.22c-.22.16-.42.34-.61.53s-.39.37-.61.53l-.2.2c-.08.08-.15.16-.2.24-.27.19-.51.4-.73.63-.22.23-.46.44-.73.63-.05.08-.12.16-.2.22s-.15.14-.2.22c-.14.11-.26.22-.37.33s-.23.22-.36.32c-.14.11-.26.22-.39.34s-.22.25-.3.39c-.05.05-.12.15-.2.28-.08.13-.1.27-.04.41.05.3.16.54.3.73.15.19.29.39.43.61.22.3.42.6.61.91.19.31.38.62.57.91.76,1.11,1.5,2.21,2.23,3.29.73,1.08,1.46,2.19,2.19,3.33.16.22.31.43.45.65.13.22.28.43.45.65.11.16.22.32.32.47.11.15.2.32.28.51.11.22.15.41.12.59-.03.18-.15.29-.37.34-.14.05-.3.08-.49.08h-.53c-.38,0-.76,0-1.16.02-.39.01-.71-.03-.95-.14-.35-.16-.67-.48-.95-.95-.28-.47-.54-.86-.75-1.16-.62-.95-1.23-1.87-1.83-2.78-.6-.91-1.2-1.82-1.83-2.74-.24-.38-.48-.75-.71-1.12-.23-.37-.48-.74-.75-1.12-.08-.11-.2-.23-.35-.37-.15-.13-.33-.17-.55-.12-.22.05-.4.16-.55.3s-.3.29-.47.43c-.14.11-.26.23-.39.36-.12.14-.25.26-.38.37-.3.22-.55.45-.75.71-.2.26-.34.59-.43.99,0,.11,0,.22-.02.33s-.02.22-.02.32c-.03.14-.03.3-.02.49.01.19.02.37.02.53v4.42c0,.38-.07.68-.2.89-.14.19-.37.29-.69.3-.32.01-.66.02-1.01.02h-.45c-.14,0-.27-.03-.41-.08-.32-.11-.51-.34-.55-.69-.04-.35-.06-.76-.06-1.22v-24.75c0-.3,0-.61-.02-.93s.05-.58.18-.77c.11-.19.31-.33.61-.41.05-.03.11-.03.16-.02.05.01.11,0,.16-.02Z"/>
        <path class="cls-1" d="M306.42,81.53c.35,0,.76,0,1.22-.02.46-.01.8.05,1.01.18.22.14.37.31.47.53.09.22.2.45.3.69.13.35.26.7.37,1.06.11.35.23.7.37,1.05.13.32.26.66.37.99.11.34.23.67.37.99.13.3.24.61.32.93s.19.65.32.97c.33.79.62,1.6.89,2.43.27.84.57,1.65.89,2.43.05.11.08.21.08.3s.03.18.08.26c.16.38.31.76.45,1.16.13.39.27.78.41,1.16.08.19.16.39.24.59.08.2.22.33.41.39.22.08.38,0,.51-.22.12-.23.21-.41.26-.55.22-.46.39-.95.53-1.46.13-.51.3-1.01.49-1.5.24-.62.46-1.25.65-1.89.19-.63.42-1.25.69-1.85.03-.13.07-.31.12-.53.11-.24.2-.49.28-.75.08-.26.16-.49.24-.71.05-.13.09-.26.12-.37.03-.11.07-.23.12-.37.13-.32.25-.66.34-.99.09-.34.21-.67.34-.99.05-.14.09-.26.12-.37.03-.11.07-.23.12-.37.11-.24.2-.49.28-.75.08-.26.16-.51.24-.75.08-.22.16-.44.22-.67.07-.23.17-.43.3-.59.19-.24.45-.38.79-.41.34-.03.71-.04,1.12-.04.22,0,.43,0,.63.02.2.01.37.06.51.14.24.16.31.42.2.77-.11.35-.2.62-.28.81-.03.05-.05.11-.06.16-.01.05-.03.11-.06.16-.3.76-.59,1.52-.89,2.29s-.59,1.54-.89,2.29c-.08.22-.15.41-.2.59-.05.18-.12.36-.2.55-.22.54-.43,1.09-.63,1.64-.2.55-.41,1.1-.63,1.64-.79,1.87-1.51,3.75-2.19,5.64-.68,1.89-1.41,3.77-2.19,5.64-.05.13-.1.28-.14.43-.04.15-.09.3-.14.47-.43,1-.89,1.99-1.38,2.98s-1.16,1.75-2.03,2.29c-.3.16-.6.29-.89.38-.3.09-.64.18-1.01.26-.14.05-.28.07-.43.04-.15-.03-.3-.03-.47,0-.22.05-.43.05-.65,0-.11-.03-.24-.04-.41-.04-.22-.05-.43-.11-.63-.16-.2-.05-.36-.16-.47-.32-.14-.16-.21-.36-.22-.59s-.02-.48-.02-.75c0-.19,0-.37.02-.55.01-.18.06-.32.14-.43.19-.3.51-.38.97-.24.3.05.62.08.97.08s.66-.05.93-.16c.41-.14.74-.34.99-.61.26-.27.48-.58.67-.91s.36-.7.51-1.08c.15-.38.3-.76.47-1.14.11-.24.22-.54.34-.89.12-.35.13-.72.02-1.09-.14-.43-.28-.84-.43-1.22-.15-.38-.3-.76-.47-1.14-.24-.57-.47-1.14-.69-1.7-.22-.57-.43-1.12-.65-1.66-.16-.38-.31-.74-.45-1.1-.14-.35-.27-.72-.41-1.1-.49-1.19-.97-2.38-1.44-3.57-.47-1.19-.95-2.38-1.44-3.57-.27-.62-.51-1.22-.73-1.81-.22-.58-.45-1.17-.69-1.76-.05-.16-.14-.39-.24-.67-.11-.28-.09-.52.04-.71.08-.13.24-.23.49-.28.05-.03.11-.03.18-.02.07.01.13,0,.18-.02Z"/>
        <path class="cls-1" d="M345.33,81.04c1.95-.03,3.58.2,4.91.67,1.33.47,2.35,1.3,3.08,2.5.19.3.34.6.45.91.11.31.22.66.32,1.03.05.19.07.39.04.59-.03.2-.07.36-.12.47-.05.05-.12.1-.2.14-.08.04-.15.09-.2.14-.14.05-.27.07-.41.04-.14-.03-.27-.03-.41,0-.22.05-.5.06-.85.02-.35-.04-.59-.1-.73-.18-.22-.13-.36-.32-.43-.55-.07-.23-.17-.45-.3-.67-.24-.43-.58-.83-1.01-1.18-.3-.22-.62-.38-.97-.49-.35-.11-.73-.22-1.14-.33-.14-.05-.27-.07-.41-.06-.14.01-.27,0-.41-.02-.16-.05-.37-.08-.61-.08s-.45.03-.61.08h-.24c-.14.03-.27.05-.41.06-.14.01-.27.03-.41.06-.7.16-1.29.39-1.74.69-.46.3-.77.8-.93,1.5-.05.19-.06.38-.02.57.04.19.09.35.14.49.16.41.36.7.59.87s.52.37.87.59c.43.27.92.47,1.46.59.54.12,1.08.26,1.62.43.35.11.7.19,1.05.24.35.05.7.14,1.05.24.57.16,1.12.32,1.66.47s1.08.33,1.62.55c.14.05.27.11.41.16.13.05.27.12.41.2.54.32,1.01.69,1.42,1.09s.74.92,1.01,1.54c.05.19.11.45.16.77.05.19.09.39.1.59.01.2.02.43.02.67v.41c-.05.19-.08.38-.08.57s-.03.38-.08.57c-.08.3-.18.58-.28.85-.11.27-.23.51-.37.73-.43.7-.99,1.26-1.66,1.68-.68.42-1.43.78-2.27,1.08-.24.08-.49.14-.75.18-.26.04-.51.1-.75.18-.27.05-.54.08-.81.08s-.54.03-.81.08h-.41c-.14.03-.33.04-.57.04s-.43-.01-.57-.04h-.45c-.16-.05-.34-.07-.53-.06s-.35,0-.49-.06c-.14-.03-.31-.04-.53-.04-.22-.05-.43-.1-.63-.14-.2-.04-.41-.1-.63-.18-.84-.27-1.57-.61-2.19-1.01s-1.16-.93-1.62-1.58c-.24-.35-.45-.72-.61-1.1-.16-.38-.31-.8-.45-1.26-.05-.16-.08-.36-.06-.59.01-.23.05-.41.1-.55.08-.11.22-.22.41-.32.14-.05.33-.09.57-.1s.49,0,.73.02.48.06.71.1c.23.04.39.09.47.14.19.14.32.33.38.59.07.26.16.49.26.71.27.6.64,1.05,1.1,1.38.32.24.69.43,1.1.57.41.14.84.27,1.3.41l.85.12h.24c.19.05.44.08.75.08s.58-.03.79-.08c.19,0,.34-.01.45-.04.16-.03.32-.05.49-.06s.31-.03.45-.06c.78-.22,1.41-.5,1.87-.85s.78-.95.97-1.79c.05-.13.07-.28.04-.45-.03-.16-.05-.28-.08-.37-.14-.51-.33-.9-.57-1.16-.24-.26-.55-.49-.93-.71-.24-.16-.51-.3-.81-.41-.3-.11-.6-.22-.89-.33-.08-.03-.16-.04-.22-.04s-.14-.03-.22-.08c-.92-.3-1.87-.52-2.86-.67-.99-.15-1.91-.4-2.78-.75-.27-.11-.53-.2-.77-.28-.24-.08-.47-.19-.69-.33-.51-.3-.99-.63-1.42-1.01s-.77-.85-1.01-1.42c-.08-.19-.14-.38-.18-.57-.04-.19-.09-.39-.14-.61-.08-.32-.11-.7-.08-1.12.03-.42.07-.78.12-1.07.05-.14.09-.25.1-.35.01-.09.05-.2.1-.3.24-.62.57-1.16.99-1.62.42-.46.9-.87,1.44-1.22.41-.24.85-.44,1.34-.59.49-.15,1-.29,1.54-.43.19-.03.37-.05.55-.08.18-.03.37-.05.59-.08.08-.03.19-.03.33,0,.13.03.23.01.28-.04Z"/>
        <path class="cls-1" d="M360.5,73.54c.38,0,.78,0,1.2.02s.71.13.87.34c.11.14.17.31.18.53s.02.46.02.73v12.5c0,.14,0,.28-.02.43-.01.15,0,.29.02.43v.32c0,.27.04.5.12.69.03.08.07.14.12.18.05.04.11.09.16.14.24.03.43,0,.55-.1.12-.09.25-.2.38-.3.13-.11.24-.22.33-.32.08-.11.17-.2.28-.28.22-.13.41-.29.57-.47.16-.18.34-.36.53-.55.13-.13.26-.26.39-.37.12-.11.25-.23.38-.37.08-.05.16-.12.22-.2.07-.08.13-.15.18-.2s.09-.09.12-.1c.03-.01.07-.05.12-.1.11-.13.22-.25.32-.34.11-.09.23-.2.37-.3.05-.08.12-.16.2-.24l.24-.24c.24-.19.47-.39.67-.61.2-.22.43-.42.67-.61.08-.08.16-.17.24-.26.08-.09.16-.18.24-.26.35-.27.66-.57.93-.89.27-.33.59-.61.97-.85.22-.13.49-.22.83-.26.34-.04.71-.06,1.12-.06.13,0,.28,0,.43-.02.15-.01.28,0,.38.02h.45c.22.05.39.1.53.14.14.04.2.18.2.43-.05.05-.09.12-.1.2s-.05.15-.1.2c-.05.08-.13.16-.22.24s-.18.15-.26.2c-.05.05-.09.09-.1.12s-.05.07-.1.12c-.11.05-.2.13-.28.22-.08.09-.16.17-.24.22-.08.08-.16.16-.24.22s-.15.14-.2.22c-.22.16-.42.34-.61.53s-.39.37-.61.53l-.2.2c-.08.08-.15.16-.2.24-.27.19-.51.4-.73.63-.22.23-.46.44-.73.63-.05.08-.12.16-.2.22s-.15.14-.2.22c-.14.11-.26.22-.37.33s-.23.22-.36.32c-.14.11-.26.22-.39.34s-.22.25-.3.39c-.05.05-.12.15-.2.28-.08.13-.1.27-.04.41.05.3.16.54.3.73.15.19.29.39.43.61.22.3.42.6.61.91.19.31.38.62.57.91.76,1.11,1.5,2.21,2.23,3.29.73,1.08,1.46,2.19,2.19,3.33.16.22.31.43.45.65.13.22.28.43.45.65.11.16.22.32.32.47.11.15.2.32.28.51.11.22.15.41.12.59-.03.18-.15.29-.37.34-.14.05-.3.08-.49.08h-.53c-.38,0-.76,0-1.16.02-.39.01-.71-.03-.95-.14-.35-.16-.67-.48-.95-.95-.28-.47-.54-.86-.75-1.16-.62-.95-1.23-1.87-1.83-2.78-.6-.91-1.2-1.82-1.83-2.74-.24-.38-.48-.75-.71-1.12-.23-.37-.48-.74-.75-1.12-.08-.11-.2-.23-.35-.37-.15-.13-.33-.17-.55-.12-.22.05-.4.16-.55.3s-.3.29-.47.43c-.14.11-.26.23-.39.36-.12.14-.25.26-.38.37-.3.22-.55.45-.75.71-.2.26-.34.59-.43.99,0,.11,0,.22-.02.33s-.02.22-.02.32c-.03.14-.03.3-.02.49.01.19.02.37.02.53v4.42c0,.38-.07.68-.2.89-.14.19-.37.29-.69.3-.32.01-.66.02-1.01.02h-.45c-.14,0-.27-.03-.41-.08-.32-.11-.51-.34-.55-.69-.04-.35-.06-.76-.06-1.22v-24.75c0-.3,0-.61-.02-.93s.05-.58.18-.77c.11-.19.31-.33.61-.41.05-.03.11-.03.16-.02.05.01.11,0,.16-.02Z"/>
        <path class="cls-1" d="M381.36,81.53h1.18c.41,0,.69.11.85.32.14.22.21.49.22.81.01.33.02.65.02.97v11.83c0,.64.07,1.18.2,1.64.43,1.22,1.24,2.07,2.43,2.56.59.24,1.31.33,2.15.26.84-.07,1.51-.21,2.03-.43.89-.38,1.6-.86,2.13-1.44.53-.58.94-1.34,1.24-2.29.08-.22.13-.43.16-.65.03-.22.07-.45.12-.69.03-.13.03-.26.02-.37-.01-.11,0-.23.06-.37v-.85c.05-.22.07-.47.04-.75-.03-.28-.04-.55-.04-.79v-7.46c0-.32,0-.67-.02-1.03-.01-.37.05-.66.18-.87.11-.13.24-.22.39-.26.15-.04.33-.09.55-.14h.61c.32,0,.62.01.87.04.26.03.45.15.59.37.14.14.2.33.2.59v18.11c0,.33,0,.63-.02.91s-.12.49-.3.63c-.11.08-.27.14-.49.18-.22.04-.45.07-.71.08s-.5,0-.73-.02c-.23-.03-.4-.08-.51-.16-.14-.11-.26-.28-.37-.53-.03-.11-.05-.26-.06-.45-.01-.19-.03-.37-.06-.55-.03-.18-.08-.32-.16-.43-.08-.11-.2-.15-.36-.12-.22.05-.43.21-.65.47-.22.26-.42.45-.61.59-.6.43-1.27.81-2.03,1.14-.3.13-.6.22-.91.26-.31.04-.63.1-.95.18-.13.03-.28.03-.43,0-.15-.03-.29-.01-.43.04-.27.05-.51.05-.73,0h-.41c-.14-.05-.29-.08-.47-.08s-.33-.01-.47-.04c-.11-.05-.21-.08-.3-.06-.1.01-.21,0-.34-.06-.22-.05-.43-.11-.63-.16-.2-.05-.41-.14-.63-.24-.7-.3-1.29-.7-1.76-1.2-.47-.5-.86-1.1-1.16-1.81-.11-.24-.19-.49-.24-.75-.05-.26-.11-.52-.16-.79-.05-.16-.08-.32-.06-.47.01-.15,0-.32-.06-.51-.03-.05-.04-.13-.04-.22s-.01-.18-.04-.26v-.41c-.03-.11-.03-.24-.02-.39.01-.15.02-.29.02-.43v-12.42c0-.24.05-.45.16-.61.11-.19.31-.32.61-.41.05-.03.11-.03.16-.02.05.01.11,0,.16-.02Z"/>
        <path class="cls-1" d="M404.2,73.54h1.12c.39,0,.68.09.87.28.13.19.21.44.22.75.01.31.02.63.02.95v25.64c0,.38-.07.68-.2.89-.08.14-.2.22-.34.24-.15.03-.33.07-.55.12h-.57c-.3,0-.58,0-.85-.02-.27-.01-.47-.1-.61-.26-.14-.22-.21-.49-.22-.81-.01-.33-.02-.66-.02-1.01v-24.59c0-.3,0-.62-.02-.95-.01-.34.05-.6.18-.79.11-.16.31-.3.61-.41.05-.03.11-.03.18-.02.07.01.13,0,.18-.02Z"/>
        <path class="cls-1" d="M413.2,73.54h1.12c.39,0,.68.09.87.28.13.19.21.44.22.75.01.31.02.63.02.95v25.64c0,.38-.07.68-.2.89-.08.14-.2.22-.34.24-.15.03-.33.07-.55.12h-.57c-.3,0-.58,0-.85-.02-.27-.01-.47-.1-.61-.26-.14-.22-.21-.49-.22-.81-.01-.33-.02-.66-.02-1.01v-24.59c0-.3,0-.62-.02-.95-.01-.34.05-.6.18-.79.11-.16.31-.3.61-.41.05-.03.11-.03.18-.02.07.01.13,0,.18-.02Z"/>
        <path class="cls-1" d="M427.24,81.04c1.95-.03,3.58.2,4.91.67,1.33.47,2.35,1.3,3.08,2.5.19.3.34.6.45.91.11.31.22.66.32,1.03.05.19.07.39.04.59-.03.2-.07.36-.12.47-.05.05-.12.1-.2.14-.08.04-.15.09-.2.14-.14.05-.27.07-.41.04-.14-.03-.27-.03-.41,0-.22.05-.5.06-.85.02-.35-.04-.59-.1-.73-.18-.22-.13-.36-.32-.43-.55-.07-.23-.17-.45-.3-.67-.24-.43-.58-.83-1.01-1.18-.3-.22-.62-.38-.97-.49-.35-.11-.73-.22-1.14-.33-.14-.05-.27-.07-.41-.06-.14.01-.27,0-.41-.02-.16-.05-.37-.08-.61-.08s-.45.03-.61.08h-.24c-.14.03-.27.05-.41.06-.14.01-.27.03-.41.06-.7.16-1.29.39-1.74.69-.46.3-.77.8-.93,1.5-.05.19-.06.38-.02.57.04.19.09.35.14.49.16.41.36.7.59.87s.52.37.87.59c.43.27.92.47,1.46.59.54.12,1.08.26,1.62.43.35.11.7.19,1.05.24.35.05.7.14,1.05.24.57.16,1.12.32,1.66.47s1.08.33,1.62.55c.14.05.27.11.41.16.13.05.27.12.41.2.54.32,1.01.69,1.42,1.09s.74.92,1.01,1.54c.05.19.11.45.16.77.05.19.09.39.1.59.01.2.02.43.02.67v.41c-.05.19-.08.38-.08.57s-.03.38-.08.57c-.08.3-.18.58-.28.85-.11.27-.23.51-.37.73-.43.7-.99,1.26-1.66,1.68-.68.42-1.43.78-2.27,1.08-.24.08-.49.14-.75.18-.26.04-.51.1-.75.18-.27.05-.54.08-.81.08s-.54.03-.81.08h-.41c-.14.03-.33.04-.57.04s-.43-.01-.57-.04h-.45c-.16-.05-.34-.07-.53-.06s-.35,0-.49-.06c-.14-.03-.31-.04-.53-.04-.22-.05-.43-.1-.63-.14-.2-.04-.41-.1-.63-.18-.84-.27-1.57-.61-2.19-1.01s-1.16-.93-1.62-1.58c-.24-.35-.45-.72-.61-1.1-.16-.38-.31-.8-.45-1.26-.05-.16-.08-.36-.06-.59.01-.23.05-.41.1-.55.08-.11.22-.22.41-.32.14-.05.33-.09.57-.1s.49,0,.73.02.48.06.71.1c.23.04.39.09.47.14.19.14.32.33.38.59.07.26.16.49.26.71.27.6.64,1.05,1.1,1.38.32.24.69.43,1.1.57.41.14.84.27,1.3.41l.85.12h.24c.19.05.44.08.75.08s.58-.03.79-.08c.19,0,.34-.01.45-.04.16-.03.32-.05.49-.06s.31-.03.45-.06c.78-.22,1.41-.5,1.87-.85s.78-.95.97-1.79c.05-.13.07-.28.04-.45-.03-.16-.05-.28-.08-.37-.14-.51-.33-.9-.57-1.16-.24-.26-.55-.49-.93-.71-.24-.16-.51-.3-.81-.41-.3-.11-.6-.22-.89-.33-.08-.03-.16-.04-.22-.04s-.14-.03-.22-.08c-.92-.3-1.87-.52-2.86-.67-.99-.15-1.91-.4-2.78-.75-.27-.11-.53-.2-.77-.28-.24-.08-.47-.19-.69-.33-.51-.3-.99-.63-1.42-1.01s-.77-.85-1.01-1.42c-.08-.19-.14-.38-.18-.57-.04-.19-.09-.39-.14-.61-.08-.32-.11-.7-.08-1.12.03-.42.07-.78.12-1.07.05-.14.09-.25.1-.35.01-.09.05-.2.1-.3.24-.62.57-1.16.99-1.62.42-.46.9-.87,1.44-1.22.41-.24.85-.44,1.34-.59.49-.15,1-.29,1.54-.43.19-.03.37-.05.55-.08.18-.03.37-.05.59-.08.08-.03.19-.03.33,0,.13.03.23.01.28-.04Z"/>
        <path class="cls-1" d="M5.03,123.88c.41,0,.81,0,1.22.02.41.01.69.13.85.34.13.16.21.39.22.67.01.28.02.58.02.87v2.35c0,.22,0,.44-.02.67-.01.23,0,.43.06.59.11.38.35.62.73.73.13.03.26.04.39.04h.38c.3,0,.66,0,1.1-.02s.74.02.93.1c.24.16.41.33.49.49.05.11.08.23.08.37v.41c0,.3-.01.58-.04.83-.03.26-.12.45-.28.59-.16.14-.39.21-.67.22s-.58.01-.89,0c-.31-.01-.62-.02-.91-.02s-.55.04-.77.12c-.19.08-.32.22-.41.41-.08.19-.14.41-.16.67-.03.26-.04.53-.02.81.01.28.02.56.02.83v8.03c0,.6,0,1.22-.02,1.89-.01.66.1,1.17.34,1.52.13.22.31.37.53.45.22.08.47.15.77.2.08.03.17.03.26.02.09-.01.18,0,.26.02h.53c.27,0,.52.02.75.06.23.04.4.14.51.3.05.08.1.22.14.43.04.2.07.41.08.63.01.22,0,.43-.02.63-.03.2-.08.36-.16.47-.11.19-.31.32-.61.41-.22.05-.46.08-.73.06-.27-.01-.51-.02-.73-.02-.16,0-.32,0-.49.02-.16.01-.31,0-.45-.02h-.49c-.14-.03-.26-.05-.39-.06-.12-.01-.25-.02-.38-.02-.54-.14-1.01-.28-1.4-.45-.39-.16-.72-.45-.99-.85-.38-.54-.6-1.22-.65-2.05-.05-.82-.08-1.71-.08-2.66v-10.63c-.08-.35-.16-.61-.22-.77s-.26-.3-.59-.41c-.11-.03-.22-.03-.32,0-.11.03-.22.01-.33-.04h-.65c-.35,0-.64-.03-.87-.1-.23-.07-.38-.22-.47-.47-.05-.11-.09-.23-.1-.37-.01-.14-.02-.27-.02-.41,0-.38.03-.7.08-.95.05-.26.22-.45.49-.59.3-.11.68-.13,1.16-.08.47.05.87.03,1.2-.08.24-.13.43-.32.57-.57.05-.16.08-.37.08-.61v-3.88c0-.23.03-.43.08-.59.11-.22.31-.39.61-.53.08,0,.16,0,.22-.02.07-.01.13-.02.18-.02Z"/>
        <path class="cls-1" d="M34.53,139.75c.05.16.08.41.08.75s-.01.58-.04.71v.41c-.03.22-.05.41-.06.59-.01.18-.03.37-.06.59-.05.16-.09.32-.1.49-.01.16-.05.33-.1.49-.11.35-.2.7-.28,1.05s-.19.68-.32.97c-.57,1.3-1.33,2.39-2.27,3.27-.95.88-2.11,1.55-3.49,2.01-.3.11-.62.19-.95.24-.34.05-.68.11-1.03.16-.16.03-.33.05-.51.06s-.34.02-.51.02c-.11.03-.26.04-.47.04s-.34-.01-.43-.04c-.11-.03-.22-.03-.32-.02-.11.01-.2,0-.28-.02h-.24l-.97-.12c-.38-.11-.74-.22-1.1-.32-.35-.11-.69-.23-1.01-.37-1.22-.54-2.22-1.24-3-2.11-.78-.87-1.43-1.92-1.95-3.16-.14-.27-.24-.54-.3-.81-.07-.27-.13-.55-.18-.85-.05-.11-.07-.2-.06-.26s0-.16-.02-.26c-.05-.22-.09-.44-.1-.67-.01-.23-.05-.45-.1-.67v-.34c0-.09-.01-.21-.04-.35-.03-.13-.04-.37-.04-.71s.03-.59.08-.75c.05-.19.07-.38.04-.57-.03-.19-.01-.38.04-.57.03-.14.05-.25.06-.35.01-.09.03-.21.06-.34.08-.32.16-.65.22-.97.07-.32.17-.63.3-.93.41-1,.9-1.9,1.48-2.7.58-.8,1.29-1.47,2.13-2.01.32-.22.66-.4,1.01-.55.35-.15.72-.3,1.09-.47.33-.13.68-.22,1.05-.26s.76-.11,1.14-.22c.19,0,.37,0,.55-.02s.35-.03.51-.06c2.41-.03,4.41.47,6,1.5,1.6,1.03,2.75,2.37,3.45,4.02.13.27.24.54.32.81.08.27.18.55.28.85.08.3.15.62.2.95.05.34.12.68.2,1.03.03.14.03.28.02.43s0,.29.02.43ZM30.91,142.06c.05-.19.07-.41.06-.65-.01-.24-.02-.47-.02-.69,0-1.05-.1-1.95-.28-2.68-.08-.22-.15-.43-.2-.65-.05-.22-.12-.42-.2-.61-.76-1.76-1.96-2.97-3.61-3.65-.19-.08-.39-.14-.61-.18-.22-.04-.43-.09-.65-.14-.22-.05-.45-.08-.69-.08h-.73l-.73.12c-.27.05-.52.12-.75.18-.23.07-.45.16-.67.26-.19.05-.37.14-.53.24s-.31.22-.45.32c-.65.46-1.18,1.01-1.58,1.66-.41.65-.76,1.41-1.05,2.27-.08.27-.14.55-.16.83-.03.28-.07.58-.12.87-.03.11-.04.28-.04.53-.03.08-.03.18-.02.28.01.11.02.23.02.37v.81c0,.27.03.51.08.73l.08.49c.05.27.1.53.14.79.04.26.12.49.22.71.27.65.59,1.26.95,1.83.37.57.82,1.04,1.36,1.42.13.08.26.15.37.2.11.05.23.12.36.2.22.14.45.25.71.34s.53.18.83.26c.13.05.26.07.39.06.12-.01.25,0,.38.02.08.03.25.05.51.08.26.03.45.01.59-.04.11-.03.22-.03.33-.02.11.01.22,0,.32-.06.22-.05.43-.1.65-.14.22-.04.42-.1.61-.18.92-.38,1.66-.91,2.23-1.58.57-.68,1.04-1.47,1.42-2.39.13-.33.22-.67.26-1.04.04-.37.11-.74.22-1.12Z"/>
        <path class="cls-1" d="M51.28,122.22c.38,0,.78,0,1.2.02s.71.13.87.34c.11.14.17.31.18.53s.02.46.02.73v12.5c0,.14,0,.28-.02.43-.01.15,0,.29.02.43v.32c0,.27.04.5.12.69.03.08.07.14.12.18.05.04.11.09.16.14.24.03.43,0,.55-.1.12-.09.25-.2.38-.3.13-.11.24-.22.33-.32.08-.11.17-.2.28-.28.22-.13.41-.29.57-.47.16-.18.34-.36.53-.55.13-.13.26-.26.39-.37.12-.11.25-.23.38-.37.08-.05.16-.12.22-.2.07-.08.13-.15.18-.2s.09-.09.12-.1c.03-.01.07-.05.12-.1.11-.13.22-.25.32-.34.11-.09.23-.2.37-.3.05-.08.12-.16.2-.24l.24-.24c.24-.19.47-.39.67-.61.2-.22.43-.42.67-.61.08-.08.16-.17.24-.26.08-.09.16-.18.24-.26.35-.27.66-.57.93-.89.27-.33.59-.61.97-.85.22-.13.49-.22.83-.26.34-.04.71-.06,1.12-.06.13,0,.28,0,.43-.02.15-.01.28,0,.38.02h.45c.22.05.39.1.53.14.14.04.2.18.2.43-.05.05-.09.12-.1.2s-.05.15-.1.2c-.05.08-.13.16-.22.24s-.18.15-.26.2c-.05.05-.09.09-.1.12s-.05.07-.1.12c-.11.05-.2.13-.28.22-.08.09-.16.17-.24.22-.08.08-.16.16-.24.22s-.15.14-.2.22c-.22.16-.42.34-.61.53s-.39.37-.61.53l-.2.2c-.08.08-.15.16-.2.24-.27.19-.51.4-.73.63-.22.23-.46.44-.73.63-.05.08-.12.16-.2.22s-.15.14-.2.22c-.14.11-.26.22-.37.33s-.23.22-.36.32c-.14.11-.26.22-.39.34s-.22.25-.3.39c-.05.05-.12.15-.2.28-.08.13-.1.27-.04.41.05.3.16.54.3.73.15.19.29.39.43.61.22.3.42.6.61.91.19.31.38.62.57.91.76,1.11,1.5,2.21,2.23,3.29.73,1.08,1.46,2.19,2.19,3.33.16.22.31.43.45.65.13.22.28.43.45.65.11.16.22.32.32.47.11.15.2.32.28.51.11.22.15.41.12.59-.03.18-.15.29-.37.34-.14.05-.3.08-.49.08h-.53c-.38,0-.76,0-1.16.02-.39.01-.71-.03-.95-.14-.35-.16-.67-.48-.95-.95-.28-.47-.54-.86-.75-1.16-.62-.95-1.23-1.87-1.83-2.78-.6-.91-1.2-1.82-1.83-2.74-.24-.38-.48-.75-.71-1.12-.23-.37-.48-.74-.75-1.12-.08-.11-.2-.23-.35-.37-.15-.13-.33-.17-.55-.12-.22.05-.4.16-.55.3s-.3.29-.47.43c-.14.11-.26.23-.39.36-.12.14-.25.26-.38.37-.3.22-.55.45-.75.71-.2.26-.34.59-.43.99,0,.11,0,.22-.02.33s-.02.22-.02.32c-.03.14-.03.3-.02.49.01.19.02.37.02.53v4.42c0,.38-.07.68-.2.89-.14.19-.37.29-.69.3-.32.01-.66.02-1.01.02h-.45c-.14,0-.27-.03-.41-.08-.32-.11-.51-.34-.55-.69-.04-.35-.06-.76-.06-1.22v-24.75c0-.3,0-.61-.02-.93s.05-.58.18-.77c.11-.19.31-.33.61-.41.05-.03.11-.03.16-.02.05.01.11,0,.16-.02Z"/>
        <path class="cls-1" d="M89.13,139.83c.05.27.06.58.02.91-.04.34-.13.57-.26.71-.14.11-.33.18-.59.22-.26.04-.55.06-.87.06s-.65,0-.97-.02c-.32-.01-.61-.02-.85-.02h-10.39c-.22,0-.43,0-.65.02-.22.01-.39.06-.53.14-.11.05-.22.16-.33.32-.05.08-.11.2-.16.35-.05.15-.05.29,0,.43.03.14.04.26.04.37s.01.22.04.32c.05.22.11.44.16.67.05.23.14.45.24.67.62,1.46,1.65,2.5,3.08,3.12.16.08.34.15.53.2.19.05.38.11.57.16.08.03.22.04.41.04.38.11.88.16,1.5.16s1.12-.05,1.5-.16c.38-.11.72-.22,1.04-.34.31-.12.6-.28.87-.47.3-.19.55-.41.77-.67.22-.26.41-.53.57-.83.16-.27.3-.55.43-.85.12-.3.33-.51.63-.65.11-.05.28-.09.53-.12s.49-.03.73-.02.47.03.69.06c.22.03.37.08.45.16.27.19.34.5.2.93-.22.73-.5,1.38-.85,1.95-.54.87-1.16,1.58-1.85,2.13-.69.55-1.56,1.01-2.62,1.36-.27.11-.54.18-.81.22-.27.04-.55.09-.85.14-.14.03-.26.04-.38.04s-.25.01-.39.04h-.41c-.14.03-.29.04-.47.04s-.32-.01-.43-.04h-.37c-.14-.03-.26-.04-.37-.04s-.22-.01-.33-.04c-.13-.03-.28-.05-.45-.06-.16-.01-.31-.03-.45-.06-.24-.05-.49-.12-.73-.18-.24-.07-.47-.14-.69-.22-.11-.05-.2-.09-.28-.1s-.18-.05-.28-.1c-.41-.19-.84-.42-1.3-.69-.78-.51-1.45-1.14-2.01-1.89-.55-.74-1.02-1.58-1.4-2.5-.14-.3-.24-.61-.3-.93-.07-.32-.16-.65-.26-.97-.03-.11-.04-.2-.04-.28s-.01-.19-.04-.32c-.05-.22-.09-.45-.12-.69s-.07-.49-.12-.73v-.57c-.03-.11-.05-.26-.06-.47-.01-.2,0-.37.02-.51v-.45c.05-.13.07-.28.06-.43-.01-.15,0-.29.02-.43.11-.43.2-.87.26-1.3s.18-.84.34-1.22c.14-.3.26-.6.39-.91.12-.31.26-.61.43-.91.59-.95,1.27-1.76,2.03-2.46.76-.69,1.69-1.26,2.8-1.72.32-.14.66-.24.99-.3.34-.07.7-.14,1.08-.22.13-.03.26-.05.37-.06.11-.01.23-.02.37-.02.05-.03.12-.03.2,0,.08.03.15.01.2-.04,1.14-.03,2.12.09,2.96.34.84.26,1.6.6,2.27,1.03.13.05.24.13.33.22.08.09.17.17.28.22.22.16.44.35.67.57.23.22.43.43.59.65.43.57.8,1.11,1.1,1.62.19.3.34.62.45.97.11.35.23.7.37,1.05.13.35.24.72.3,1.09.07.38.16.76.26,1.14.03.19.05.38.06.57.01.19.03.38.06.57ZM85.2,138.45c.08-.11.15-.25.2-.43.05-.18.05-.36,0-.55-.16-.59-.39-1.15-.69-1.66-.38-.62-.8-1.15-1.26-1.58s-1.05-.8-1.79-1.1c-.19-.05-.38-.1-.57-.14-.19-.04-.39-.09-.61-.14-.22-.05-.45-.08-.69-.08h-.69c-.08.05-.18.08-.28.06-.11-.01-.2,0-.28.02-.22.05-.43.1-.63.14-.2.04-.4.09-.59.14-.79.32-1.41.73-1.89,1.22-.47.49-.9,1.1-1.28,1.83-.08.14-.16.3-.24.51-.08.2-.15.43-.2.67-.05.24-.07.47-.04.69.03.22.12.38.28.49.22.16.59.24,1.12.22s.98-.02,1.36-.02h6.17c.41,0,.89,0,1.46.02s.95-.09,1.14-.3Z"/>
        <path class="cls-1" d="M110.92,139.83c.05.27.06.58.02.91-.04.34-.13.57-.26.71-.14.11-.33.18-.59.22-.26.04-.55.06-.87.06s-.65,0-.97-.02c-.32-.01-.61-.02-.85-.02h-10.39c-.22,0-.43,0-.65.02-.22.01-.39.06-.53.14-.11.05-.22.16-.33.32-.05.08-.11.2-.16.35-.05.15-.05.29,0,.43.03.14.04.26.04.37s.01.22.04.32c.05.22.11.44.16.67.05.23.14.45.24.67.62,1.46,1.65,2.5,3.08,3.12.16.08.34.15.53.2.19.05.38.11.57.16.08.03.22.04.41.04.38.11.88.16,1.5.16s1.12-.05,1.5-.16c.38-.11.72-.22,1.04-.34.31-.12.6-.28.87-.47.3-.19.55-.41.77-.67.22-.26.41-.53.57-.83.16-.27.3-.55.43-.85.12-.3.33-.51.63-.65.11-.05.28-.09.53-.12s.49-.03.73-.02.47.03.69.06c.22.03.37.08.45.16.27.19.34.5.2.93-.22.73-.5,1.38-.85,1.95-.54.87-1.16,1.58-1.85,2.13-.69.55-1.56,1.01-2.62,1.36-.27.11-.54.18-.81.22-.27.04-.55.09-.85.14-.14.03-.26.04-.38.04s-.25.01-.39.04h-.41c-.14.03-.29.04-.47.04s-.32-.01-.43-.04h-.37c-.14-.03-.26-.04-.37-.04s-.22-.01-.33-.04c-.13-.03-.28-.05-.45-.06-.16-.01-.31-.03-.45-.06-.24-.05-.49-.12-.73-.18-.24-.07-.47-.14-.69-.22-.11-.05-.2-.09-.28-.1s-.18-.05-.28-.1c-.41-.19-.84-.42-1.3-.69-.78-.51-1.45-1.14-2.01-1.89-.55-.74-1.02-1.58-1.4-2.5-.14-.3-.24-.61-.3-.93-.07-.32-.16-.65-.26-.97-.03-.11-.04-.2-.04-.28s-.01-.19-.04-.32c-.05-.22-.09-.45-.12-.69s-.07-.49-.12-.73v-.57c-.03-.11-.05-.26-.06-.47-.01-.2,0-.37.02-.51v-.45c.05-.13.07-.28.06-.43-.01-.15,0-.29.02-.43.11-.43.2-.87.26-1.3s.18-.84.34-1.22c.14-.3.26-.6.39-.91.12-.31.26-.61.43-.91.59-.95,1.27-1.76,2.03-2.46.76-.69,1.69-1.26,2.8-1.72.32-.14.66-.24.99-.3.34-.07.7-.14,1.08-.22.13-.03.26-.05.37-.06.11-.01.23-.02.37-.02.05-.03.12-.03.2,0,.08.03.15.01.2-.04,1.14-.03,2.12.09,2.96.34.84.26,1.6.6,2.27,1.03.13.05.24.13.33.22.08.09.17.17.28.22.22.16.44.35.67.57.23.22.43.43.59.65.43.57.8,1.11,1.1,1.62.19.3.34.62.45.97.11.35.23.7.37,1.05.13.35.24.72.3,1.09.07.38.16.76.26,1.14.03.19.05.38.06.57.01.19.03.38.06.57ZM106.98,138.45c.08-.11.15-.25.2-.43.05-.18.05-.36,0-.55-.16-.59-.39-1.15-.69-1.66-.38-.62-.8-1.15-1.26-1.58s-1.05-.8-1.79-1.1c-.19-.05-.38-.1-.57-.14-.19-.04-.39-.09-.61-.14-.22-.05-.45-.08-.69-.08h-.69c-.08.05-.18.08-.28.06-.11-.01-.2,0-.28.02-.22.05-.43.1-.63.14-.2.04-.4.09-.59.14-.79.32-1.41.73-1.89,1.22-.47.49-.9,1.1-1.28,1.83-.08.14-.16.3-.24.51-.08.2-.15.43-.2.67-.05.24-.07.47-.04.69.03.22.12.38.28.49.22.16.59.24,1.12.22s.98-.02,1.36-.02h6.17c.41,0,.89,0,1.46.02s.95-.09,1.14-.3Z"/>
        <path class="cls-1" d="M134.53,140.11c.03.14.04.31.04.53s-.01.39-.04.53c-.05.14-.07.26-.04.39.03.12.03.24,0,.34,0,.19-.01.34-.04.45-.05.24-.09.49-.1.73-.01.24-.05.49-.1.73-.05.22-.11.43-.16.63-.05.2-.12.41-.2.63-.32,1-.77,1.91-1.34,2.72-.16.24-.34.48-.53.71-.19.23-.39.44-.61.63l-.2.2c-.19.14-.37.27-.53.41s-.35.27-.57.41c-.3.22-.63.4-.99.55-.36.15-.74.29-1.12.43-.22.05-.43.09-.63.12-.2.03-.41.07-.63.12-.05,0-.1,0-.14.02-.04.01-.09.02-.14.02-.24.05-.6.09-1.08.1s-.85,0-1.12-.06h-.2c-.19-.03-.37-.05-.53-.06s-.32-.05-.49-.1c-.46-.13-.89-.26-1.3-.37-.41-.11-.78-.27-1.14-.49-.43-.24-.81-.5-1.14-.77-.11-.08-.27-.2-.49-.35-.22-.15-.42-.16-.61-.02-.11.08-.16.19-.16.32s-.03.28-.08.45c-.03.08-.03.17,0,.26.03.09.03.2,0,.3-.05.16-.08.34-.06.55.01.2.02.38.02.55v6.04c0,.41-.08.72-.24.93-.14.19-.35.29-.65.3-.3.01-.59.02-.89.02h-.65c-.19-.05-.35-.11-.47-.16-.12-.05-.22-.15-.3-.28-.14-.19-.2-.49-.18-.89.01-.41.02-.76.02-1.05v-24.34c0-.33,0-.66.02-.99.01-.34.09-.62.22-.83.08-.11.26-.2.55-.26.28-.07.59-.09.91-.08s.63.05.91.12c.28.07.47.16.55.26.11.14.17.3.18.49.01.19.06.38.14.57.05.08.1.14.14.18.04.04.09.09.14.14.3.03.55-.07.75-.28.2-.22.4-.39.59-.53.7-.49,1.54-.87,2.51-1.14.24-.05.49-.09.75-.12.26-.03.52-.07.79-.12.11-.03.24-.03.41,0,.16.03.27.01.33-.04,1.16-.03,2.19.09,3.08.34.89.26,1.69.62,2.39,1.08.14.11.27.21.41.3.13.09.27.2.41.3.05.05.1.1.14.14s.09.09.14.14c.13.14.28.28.45.45.16.16.31.33.45.49.32.46.66.96,1.01,1.5.22.35.4.74.55,1.18s.29.87.43,1.3c.05.22.1.45.14.69.04.24.09.47.14.69,0,.11,0,.21.02.3.01.1.02.18.02.26.05.14.07.28.06.45s0,.31.06.45v.41ZM130.92,141.21c.05-.13.07-.3.04-.51-.03-.2-.04-.39-.04-.55,0-.46-.02-.89-.06-1.3-.04-.41-.13-.8-.26-1.18-.05-.16-.1-.33-.14-.51-.04-.18-.1-.34-.18-.51-.3-.73-.76-1.43-1.4-2.11-.64-.68-1.24-1.14-1.81-1.38-.22-.11-.44-.19-.67-.24-.23-.05-.47-.12-.71-.2-.24-.05-.52-.08-.83-.08h-.91c-.05.05-.16.07-.3.06-.15-.01-.28,0-.39.02-.24.05-.48.11-.71.16-.23.05-.45.14-.67.24-.87.38-1.58.93-2.13,1.64-.55.72-.98,1.55-1.28,2.5-.11.3-.18.59-.22.89-.04.3-.09.59-.14.89-.03.11-.04.21-.04.3s-.01.2-.04.3v.32c-.03.14-.04.33-.04.59s.01.45.04.59v.32c.03.11.04.22.04.33s.01.2.04.28c.03.08.04.16.04.24s.01.18.04.28c.05.22.1.43.14.65.04.22.09.43.14.65.3.92.71,1.72,1.24,2.41s1.22,1.22,2.09,1.6c.51.22,1.04.38,1.58.49.11.05.22.08.32.06s.22,0,.33.02h.32c.19.05.38.05.57,0h.32c.3-.05.58-.09.85-.12s.54-.09.81-.2c.84-.35,1.52-.82,2.05-1.4s.97-1.29,1.32-2.13c.14-.38.24-.76.3-1.16s.16-.8.26-1.24c.03-.14.04-.26.04-.37s.01-.23.04-.37v-.33Z"/>
        <path class="cls-1" d="M149.01,130.21c.35,0,.76,0,1.22-.02.46-.01.8.05,1.01.18.22.14.37.31.47.53.09.22.2.45.3.69.13.35.26.7.37,1.06.11.35.23.7.37,1.05.13.32.26.66.37.99.11.34.23.67.37.99.13.3.24.61.32.93s.19.65.32.97c.33.79.62,1.6.89,2.43.27.84.57,1.65.89,2.43.05.11.08.21.08.3s.03.18.08.26c.16.38.31.76.45,1.16.13.39.27.78.41,1.16.08.19.16.39.24.59.08.2.22.33.41.39.22.08.38,0,.51-.22.12-.23.21-.41.26-.55.22-.46.39-.95.53-1.46.13-.51.3-1.01.49-1.5.24-.62.46-1.25.65-1.89.19-.63.42-1.25.69-1.85.03-.13.07-.31.12-.53.11-.24.2-.49.28-.75.08-.26.16-.49.24-.71.05-.13.09-.26.12-.37.03-.11.07-.23.12-.37.13-.32.25-.66.34-.99.09-.34.21-.67.34-.99.05-.14.09-.26.12-.37.03-.11.07-.23.12-.37.11-.24.2-.49.28-.75.08-.26.16-.51.24-.75.08-.22.16-.44.22-.67.07-.23.17-.43.3-.59.19-.24.45-.38.79-.41.34-.03.71-.04,1.12-.04.22,0,.43,0,.63.02.2.01.37.06.51.14.24.16.31.42.2.77-.11.35-.2.62-.28.81-.03.05-.05.11-.06.16-.01.05-.03.11-.06.16-.3.76-.59,1.52-.89,2.29s-.59,1.54-.89,2.29c-.08.22-.15.41-.2.59-.05.18-.12.36-.2.55-.22.54-.43,1.09-.63,1.64-.2.55-.41,1.1-.63,1.64-.79,1.87-1.51,3.75-2.19,5.64-.68,1.89-1.41,3.77-2.19,5.64-.05.13-.1.28-.14.43-.04.15-.09.3-.14.47-.43,1-.89,1.99-1.38,2.98s-1.16,1.75-2.03,2.29c-.3.16-.6.29-.89.38-.3.09-.64.18-1.01.26-.14.05-.28.07-.43.04-.15-.03-.3-.03-.47,0-.22.05-.43.05-.65,0-.11-.03-.24-.04-.41-.04-.22-.05-.43-.11-.63-.16-.2-.05-.36-.16-.47-.32-.14-.16-.21-.36-.22-.59s-.02-.48-.02-.75c0-.19,0-.37.02-.55.01-.18.06-.32.14-.43.19-.3.51-.38.97-.24.3.05.62.08.97.08s.66-.05.93-.16c.41-.14.74-.34.99-.61.26-.27.48-.58.67-.91s.36-.7.51-1.08c.15-.38.3-.76.47-1.14.11-.24.22-.54.34-.89.12-.35.13-.72.02-1.09-.14-.43-.28-.84-.43-1.22-.15-.38-.3-.76-.47-1.14-.24-.57-.47-1.14-.69-1.7-.22-.57-.43-1.12-.65-1.66-.16-.38-.31-.74-.45-1.1-.14-.35-.27-.72-.41-1.1-.49-1.19-.97-2.38-1.44-3.57-.47-1.19-.95-2.38-1.44-3.57-.27-.62-.51-1.22-.73-1.81-.22-.58-.45-1.17-.69-1.76-.05-.16-.14-.39-.24-.67-.11-.28-.09-.52.04-.71.08-.13.24-.23.49-.28.05-.03.11-.03.18-.02.07.01.13,0,.18-.02Z"/>
        <path class="cls-1" d="M189.34,139.75c.05.16.08.41.08.75s-.01.58-.04.71v.41c-.03.22-.05.41-.06.59-.01.18-.03.37-.06.59-.05.16-.09.32-.1.49-.01.16-.05.33-.1.49-.11.35-.2.7-.28,1.05s-.19.68-.32.97c-.57,1.3-1.33,2.39-2.27,3.27-.95.88-2.11,1.55-3.49,2.01-.3.11-.62.19-.95.24-.34.05-.68.11-1.03.16-.16.03-.33.05-.51.06s-.34.02-.51.02c-.11.03-.26.04-.47.04s-.34-.01-.43-.04c-.11-.03-.22-.03-.32-.02-.11.01-.2,0-.28-.02h-.24l-.97-.12c-.38-.11-.74-.22-1.1-.32-.35-.11-.69-.23-1.01-.37-1.22-.54-2.22-1.24-3-2.11-.78-.87-1.43-1.92-1.95-3.16-.14-.27-.24-.54-.3-.81-.07-.27-.13-.55-.18-.85-.05-.11-.07-.2-.06-.26s0-.16-.02-.26c-.05-.22-.09-.44-.1-.67-.01-.23-.05-.45-.1-.67v-.34c0-.09-.01-.21-.04-.35-.03-.13-.04-.37-.04-.71s.03-.59.08-.75c.05-.19.07-.38.04-.57-.03-.19-.01-.38.04-.57.03-.14.05-.25.06-.35.01-.09.03-.21.06-.34.08-.32.16-.65.22-.97.07-.32.17-.63.3-.93.41-1,.9-1.9,1.48-2.7.58-.8,1.29-1.47,2.13-2.01.32-.22.66-.4,1.01-.55.35-.15.72-.3,1.09-.47.33-.13.68-.22,1.05-.26s.76-.11,1.14-.22c.19,0,.37,0,.55-.02s.35-.03.51-.06c2.41-.03,4.41.47,6,1.5,1.6,1.03,2.75,2.37,3.45,4.02.13.27.24.54.32.81.08.27.18.55.28.85.08.3.15.62.2.95.05.34.12.68.2,1.03.03.14.03.28.02.43s0,.29.02.43ZM185.73,142.06c.05-.19.07-.41.06-.65-.01-.24-.02-.47-.02-.69,0-1.05-.1-1.95-.28-2.68-.08-.22-.15-.43-.2-.65-.05-.22-.12-.42-.2-.61-.76-1.76-1.96-2.97-3.61-3.65-.19-.08-.39-.14-.61-.18-.22-.04-.43-.09-.65-.14-.22-.05-.45-.08-.69-.08h-.73l-.73.12c-.27.05-.52.12-.75.18-.23.07-.45.16-.67.26-.19.05-.37.14-.53.24s-.31.22-.45.32c-.65.46-1.18,1.01-1.58,1.66-.41.65-.76,1.41-1.05,2.27-.08.27-.14.55-.16.83-.03.28-.07.58-.12.87-.03.11-.04.28-.04.53-.03.08-.03.18-.02.28.01.11.02.23.02.37v.81c0,.27.03.51.08.73l.08.49c.05.27.1.53.14.79.04.26.12.49.22.71.27.65.59,1.26.95,1.83.37.57.82,1.04,1.36,1.42.13.08.26.15.37.2.11.05.23.12.36.2.22.14.45.25.71.34s.53.18.83.26c.13.05.26.07.39.06.12-.01.25,0,.38.02.08.03.25.05.51.08.26.03.45.01.59-.04.11-.03.22-.03.33-.02.11.01.22,0,.32-.06.22-.05.43-.1.65-.14.22-.04.42-.1.61-.18.92-.38,1.66-.91,2.23-1.58.57-.68,1.04-1.47,1.42-2.39.13-.33.22-.67.26-1.04.04-.37.11-.74.22-1.12Z"/>
        <path class="cls-1" d="M194.61,130.21h1.18c.41,0,.69.11.85.32.14.22.21.49.22.81.01.33.02.65.02.97v11.83c0,.64.07,1.18.2,1.64.43,1.22,1.24,2.07,2.43,2.56.59.24,1.31.33,2.15.26.84-.07,1.51-.21,2.03-.43.89-.38,1.6-.86,2.13-1.44.53-.58.94-1.34,1.24-2.29.08-.22.13-.43.16-.65.03-.22.07-.45.12-.69.03-.13.03-.26.02-.37-.01-.11,0-.23.06-.37v-.85c.05-.22.07-.47.04-.75-.03-.28-.04-.55-.04-.79v-7.46c0-.32,0-.67-.02-1.03-.01-.37.05-.66.18-.87.11-.13.24-.22.39-.26.15-.04.33-.09.55-.14h.61c.32,0,.62.01.87.04.26.03.45.15.59.37.14.14.2.33.2.59v18.11c0,.33,0,.63-.02.91s-.12.49-.3.63c-.11.08-.27.14-.49.18-.22.04-.45.07-.71.08s-.5,0-.73-.02c-.23-.03-.4-.08-.51-.16-.14-.11-.26-.28-.37-.53-.03-.11-.05-.26-.06-.45-.01-.19-.03-.37-.06-.55-.03-.18-.08-.32-.16-.43-.08-.11-.2-.15-.36-.12-.22.05-.43.21-.65.47-.22.26-.42.45-.61.59-.6.43-1.27.81-2.03,1.14-.3.13-.6.22-.91.26-.31.04-.63.1-.95.18-.13.03-.28.03-.43,0-.15-.03-.29-.01-.43.04-.27.05-.51.05-.73,0h-.41c-.14-.05-.29-.08-.47-.08s-.33-.01-.47-.04c-.11-.05-.21-.08-.3-.06-.1.01-.21,0-.34-.06-.22-.05-.43-.11-.63-.16-.2-.05-.41-.14-.63-.24-.7-.3-1.29-.7-1.76-1.2-.47-.5-.86-1.1-1.16-1.81-.11-.24-.19-.49-.24-.75-.05-.26-.11-.52-.16-.79-.05-.16-.08-.32-.06-.47.01-.15,0-.32-.06-.51-.03-.05-.04-.13-.04-.22s-.01-.18-.04-.26v-.41c-.03-.11-.03-.24-.02-.39.01-.15.02-.29.02-.43v-12.42c0-.24.05-.45.16-.61.11-.19.31-.32.61-.41.05-.03.11-.03.16-.02.05.01.11,0,.16-.02Z"/>
        <path class="cls-1" d="M225.77,129.73c.62,0,.97.16,1.06.47.08.31.12.76.12,1.36v.77c0,.24-.07.45-.2.61-.16.22-.39.33-.69.35s-.59.06-.89.14c-.38.08-.74.16-1.08.24s-.66.19-.95.33c-.79.35-1.42.83-1.91,1.44-.49.61-.91,1.31-1.26,2.09-.11.3-.19.6-.24.91-.05.31-.12.63-.2.95-.03.14-.03.27-.02.41.01.14,0,.27-.02.41-.08.32-.12.7-.1,1.12.01.42.02.82.02,1.2v5.92c0,.33-.01.64-.04.93-.03.3-.03.55-.02.77.01.22-.05.41-.18.57-.14.19-.34.3-.63.32-.28.03-.59.04-.91.04h-.73c-.14-.05-.26-.1-.38-.14-.12-.04-.21-.1-.26-.18-.14-.19-.21-.43-.22-.71s-.02-.57-.02-.87v-17.16c0-.3,0-.57.02-.83.01-.26.09-.48.22-.67.08-.11.22-.19.43-.24.2-.05.43-.09.67-.1.24-.01.49,0,.73.02.24.03.43.07.57.12.22.08.36.24.43.47.07.23.1.47.1.73v.81c0,.28.05.54.16.75.03.05.05.09.08.12.03.03.07.07.12.12.3,0,.54-.13.73-.38s.35-.47.49-.63l.24-.24c.24-.3.58-.61,1.01-.93.43-.32.84-.57,1.22-.73.24-.13.5-.24.77-.3s.55-.14.85-.22c.16-.03.32-.05.49-.06.16-.01.31-.03.45-.06Z"/>
        <path class="cls-1" d="M260.78,140.11c.03.14.04.31.04.53s-.01.39-.04.53c-.05.14-.07.26-.04.39.03.12.03.24,0,.34,0,.19-.01.34-.04.45-.05.24-.09.49-.1.73-.01.24-.05.49-.1.73-.05.22-.11.43-.16.63-.05.2-.12.41-.2.63-.32,1-.77,1.91-1.34,2.72-.16.24-.34.48-.53.71-.19.23-.39.44-.61.63l-.2.2c-.19.14-.37.27-.53.41s-.35.27-.57.41c-.3.22-.63.4-.99.55-.36.15-.74.29-1.12.43-.22.05-.43.09-.63.12-.2.03-.41.07-.63.12-.05,0-.1,0-.14.02-.04.01-.09.02-.14.02-.24.05-.6.09-1.08.1s-.85,0-1.12-.06h-.2c-.19-.03-.37-.05-.53-.06s-.32-.05-.49-.1c-.46-.13-.89-.26-1.3-.37-.41-.11-.78-.27-1.14-.49-.43-.24-.81-.5-1.14-.77-.11-.08-.27-.2-.49-.35-.22-.15-.42-.16-.61-.02-.11.08-.16.19-.16.32s-.03.28-.08.45c-.03.08-.03.17,0,.26.03.09.03.2,0,.3-.05.16-.08.34-.06.55.01.2.02.38.02.55v6.04c0,.41-.08.72-.24.93-.14.19-.35.29-.65.3-.3.01-.59.02-.89.02h-.65c-.19-.05-.35-.11-.47-.16-.12-.05-.22-.15-.3-.28-.14-.19-.2-.49-.18-.89.01-.41.02-.76.02-1.05v-24.34c0-.33,0-.66.02-.99.01-.34.09-.62.22-.83.08-.11.26-.2.55-.26.28-.07.59-.09.91-.08s.63.05.91.12c.28.07.47.16.55.26.11.14.17.3.18.49.01.19.06.38.14.57.05.08.1.14.14.18.04.04.09.09.14.14.3.03.55-.07.75-.28.2-.22.4-.39.59-.53.7-.49,1.54-.87,2.51-1.14.24-.05.49-.09.75-.12.26-.03.52-.07.79-.12.11-.03.24-.03.41,0,.16.03.27.01.33-.04,1.16-.03,2.19.09,3.08.34.89.26,1.69.62,2.39,1.08.14.11.27.21.41.3.13.09.27.2.41.3.05.05.1.1.14.14s.09.09.14.14c.13.14.28.28.45.45.16.16.31.33.45.49.32.46.66.96,1.01,1.5.22.35.4.74.55,1.18s.29.87.43,1.3c.05.22.1.45.14.69.04.24.09.47.14.69,0,.11,0,.21.02.3.01.1.02.18.02.26.05.14.07.28.06.45s0,.31.06.45v.41ZM257.17,141.21c.05-.13.07-.3.04-.51-.03-.2-.04-.39-.04-.55,0-.46-.02-.89-.06-1.3-.04-.41-.13-.8-.26-1.18-.05-.16-.1-.33-.14-.51-.04-.18-.1-.34-.18-.51-.3-.73-.76-1.43-1.4-2.11-.64-.68-1.24-1.14-1.81-1.38-.22-.11-.44-.19-.67-.24-.23-.05-.47-.12-.71-.2-.24-.05-.52-.08-.83-.08h-.91c-.05.05-.16.07-.3.06-.15-.01-.28,0-.39.02-.24.05-.48.11-.71.16-.23.05-.45.14-.67.24-.87.38-1.58.93-2.13,1.64-.55.72-.98,1.55-1.28,2.5-.11.3-.18.59-.22.89-.04.3-.09.59-.14.89-.03.11-.04.21-.04.3s-.01.2-.04.3v.32c-.03.14-.04.33-.04.59s.01.45.04.59v.32c.03.11.04.22.04.33s.01.2.04.28c.03.08.04.16.04.24s.01.18.04.28c.05.22.1.43.14.65.04.22.09.43.14.65.3.92.71,1.72,1.24,2.41s1.22,1.22,2.09,1.6c.51.22,1.04.38,1.58.49.11.05.22.08.32.06s.22,0,.33.02h.32c.19.05.38.05.57,0h.32c.3-.05.58-.09.85-.12s.54-.09.81-.2c.84-.35,1.52-.82,2.05-1.4s.97-1.29,1.32-2.13c.14-.38.24-.76.3-1.16s.16-.8.26-1.24c.03-.14.04-.26.04-.37s.01-.23.04-.37v-.33Z"/>
        <path class="cls-1" d="M284.03,139.75c.05.16.08.41.08.75s-.01.58-.04.71v.41c-.03.22-.05.41-.06.59-.01.18-.03.37-.06.59-.05.16-.09.32-.1.49-.01.16-.05.33-.1.49-.11.35-.2.7-.28,1.05s-.19.68-.32.97c-.57,1.3-1.33,2.39-2.27,3.27-.95.88-2.11,1.55-3.49,2.01-.3.11-.62.19-.95.24-.34.05-.68.11-1.03.16-.16.03-.33.05-.51.06s-.34.02-.51.02c-.11.03-.26.04-.47.04s-.34-.01-.43-.04c-.11-.03-.22-.03-.32-.02-.11.01-.2,0-.28-.02h-.24l-.97-.12c-.38-.11-.74-.22-1.1-.32-.35-.11-.69-.23-1.01-.37-1.22-.54-2.22-1.24-3-2.11-.78-.87-1.43-1.92-1.95-3.16-.14-.27-.24-.54-.3-.81-.07-.27-.13-.55-.18-.85-.05-.11-.07-.2-.06-.26s0-.16-.02-.26c-.05-.22-.09-.44-.1-.67-.01-.23-.05-.45-.1-.67v-.34c0-.09-.01-.21-.04-.35-.03-.13-.04-.37-.04-.71s.03-.59.08-.75c.05-.19.07-.38.04-.57-.03-.19-.01-.38.04-.57.03-.14.05-.25.06-.35.01-.09.03-.21.06-.34.08-.32.16-.65.22-.97.07-.32.17-.63.3-.93.41-1,.9-1.9,1.48-2.7.58-.8,1.29-1.47,2.13-2.01.32-.22.66-.4,1.01-.55.35-.15.72-.3,1.09-.47.33-.13.68-.22,1.05-.26s.76-.11,1.14-.22c.19,0,.37,0,.55-.02s.35-.03.51-.06c2.41-.03,4.41.47,6,1.5,1.6,1.03,2.75,2.37,3.45,4.02.13.27.24.54.32.81.08.27.18.55.28.85.08.3.15.62.2.95.05.34.12.68.2,1.03.03.14.03.28.02.43s0,.29.02.43ZM280.42,142.06c.05-.19.07-.41.06-.65-.01-.24-.02-.47-.02-.69,0-1.05-.1-1.95-.28-2.68-.08-.22-.15-.43-.2-.65-.05-.22-.12-.42-.2-.61-.76-1.76-1.96-2.97-3.61-3.65-.19-.08-.39-.14-.61-.18-.22-.04-.43-.09-.65-.14-.22-.05-.45-.08-.69-.08h-.73l-.73.12c-.27.05-.52.12-.75.18-.23.07-.45.16-.67.26-.19.05-.37.14-.53.24s-.31.22-.45.32c-.65.46-1.18,1.01-1.58,1.66-.41.65-.76,1.41-1.05,2.27-.08.27-.14.55-.16.83-.03.28-.07.58-.12.87-.03.11-.04.28-.04.53-.03.08-.03.18-.02.28.01.11.02.23.02.37v.81c0,.27.03.51.08.73l.08.49c.05.27.1.53.14.79.04.26.12.49.22.71.27.65.59,1.26.95,1.83.37.57.82,1.04,1.36,1.42.13.08.26.15.37.2.11.05.23.12.36.2.22.14.45.25.71.34s.53.18.83.26c.13.05.26.07.39.06.12-.01.25,0,.38.02.08.03.25.05.51.08.26.03.45.01.59-.04.11-.03.22-.03.33-.02.11.01.22,0,.32-.06.22-.05.43-.1.65-.14.22-.04.42-.1.61-.18.92-.38,1.66-.91,2.23-1.58.57-.68,1.04-1.47,1.42-2.39.13-.33.22-.67.26-1.04.04-.37.11-.74.22-1.12Z"/>
        <path class="cls-1" d="M288.82,126.16c-.22-.16-.33-.45-.35-.87-.01-.42-.02-.83-.02-1.24v-.69c0-.24.04-.45.12-.61.11-.22.33-.38.65-.49.05-.03.11-.03.18-.02.07.01.13,0,.18-.02.46,0,.89.01,1.3.04.41.03.68.19.81.49.08.16.12.36.12.59v.71c0,.49,0,.95-.02,1.38s-.2.72-.55.85c-.14.05-.28.08-.43.08h-1.32c-.27,0-.5-.07-.69-.2ZM291.82,149.16c0,.27,0,.55.02.83.01.28-.05.51-.18.67-.08.16-.2.26-.37.3-.16.04-.35.09-.57.14h-.61c-.35,0-.66-.02-.91-.06-.26-.04-.45-.17-.59-.39-.11-.16-.16-.37-.16-.63v-18.78c0-.28.07-.51.2-.67.08-.13.19-.22.33-.24.13-.03.28-.07.45-.12.05,0,.11,0,.18.02.07.01.13,0,.18-.02.35,0,.71,0,1.08.02.36.01.61.13.75.34.13.16.2.37.2.63v17.95Z"/>
        <path class="cls-1" d="M307.03,129.81c1.7-.05,3.07.18,4.1.69,1.03.51,1.85,1.29,2.47,2.31.16.27.29.56.39.87.09.31.18.63.26.95.13.51.22,1.07.24,1.66.03.59.04,1.2.04,1.83v10.67c0,.46,0,.92-.02,1.38s-.2.76-.55.89c-.14.05-.28.09-.43.1-.15.01-.3.02-.47.02-.35,0-.69,0-1.01-.02-.33-.01-.55-.13-.69-.35-.14-.19-.2-.43-.2-.73v-11c0-.73-.01-1.45-.04-2.17-.03-.72-.15-1.33-.37-1.85-.22-.54-.54-.98-.97-1.32-.43-.34-.93-.6-1.5-.79-.16-.05-.33-.09-.51-.1-.18-.01-.34-.05-.51-.1-.14-.03-.34-.03-.63-.02-.28.01-.48.04-.59.06-.11.05-.2.07-.28.06s-.18,0-.28.02c-.35.08-.68.17-.99.26-.31.09-.6.22-.87.39-.11.05-.2.11-.28.16-.08.05-.18.11-.28.16-.95.68-1.64,1.69-2.07,3.04-.08.22-.14.44-.16.67-.03.23-.07.45-.12.67-.05.14-.07.26-.04.38.03.12.01.24-.04.34v.85c-.03.08-.03.18-.02.28s.02.23.02.37v9.59c0,.31-.07.56-.2.75-.14.22-.37.33-.71.35-.34.01-.68.02-1.03.02-.22,0-.42-.01-.61-.04-.19-.03-.35-.09-.49-.2-.22-.13-.32-.39-.32-.77v-18.91c0-.24.05-.43.16-.57.08-.16.22-.27.41-.32.11-.03.26-.05.47-.08.2-.03.41-.04.63-.04s.43.01.63.04c.2.03.34.07.43.12.3.19.43.43.41.71-.03.28.01.6.12.95.05.16.16.3.33.41.32.03.59-.09.79-.36s.41-.49.63-.65c.38-.27.76-.52,1.16-.75.39-.23.84-.43,1.36-.59.22-.08.45-.13.71-.16.26-.03.51-.07.75-.12.13-.03.27-.04.41-.04h.41Z"/>
        <path class="cls-1" d="M322.16,123.88c.41,0,.81,0,1.22.02.41.01.69.13.85.34.13.16.21.39.22.67.01.28.02.58.02.87v2.35c0,.22,0,.44-.02.67-.01.23,0,.43.06.59.11.38.35.62.73.73.13.03.26.04.39.04h.38c.3,0,.66,0,1.1-.02s.74.02.93.1c.24.16.41.33.49.49.05.11.08.23.08.37v.41c0,.3-.01.58-.04.83-.03.26-.12.45-.28.59-.16.14-.39.21-.67.22s-.58.01-.89,0c-.31-.01-.62-.02-.91-.02s-.55.04-.77.12c-.19.08-.32.22-.41.41-.08.19-.14.41-.16.67-.03.26-.04.53-.02.81.01.28.02.56.02.83v8.03c0,.6,0,1.22-.02,1.89-.01.66.1,1.17.34,1.52.13.22.31.37.53.45.22.08.47.15.77.2.08.03.17.03.26.02.09-.01.18,0,.26.02h.53c.27,0,.52.02.75.06.23.04.4.14.51.3.05.08.1.22.14.43.04.2.07.41.08.63.01.22,0,.43-.02.63-.03.2-.08.36-.16.47-.11.19-.31.32-.61.41-.22.05-.46.08-.73.06-.27-.01-.51-.02-.73-.02-.16,0-.32,0-.49.02-.16.01-.31,0-.45-.02h-.49c-.14-.03-.26-.05-.39-.06-.12-.01-.25-.02-.38-.02-.54-.14-1.01-.28-1.4-.45-.39-.16-.72-.45-.99-.85-.38-.54-.6-1.22-.65-2.05-.05-.82-.08-1.71-.08-2.66v-10.63c-.08-.35-.16-.61-.22-.77s-.26-.3-.59-.41c-.11-.03-.22-.03-.32,0-.11.03-.22.01-.33-.04h-.65c-.35,0-.64-.03-.87-.1-.23-.07-.38-.22-.47-.47-.05-.11-.09-.23-.1-.37-.01-.14-.02-.27-.02-.41,0-.38.03-.7.08-.95.05-.26.22-.45.49-.59.3-.11.68-.13,1.16-.08.47.05.87.03,1.2-.08.24-.13.43-.32.57-.57.05-.16.08-.37.08-.61v-3.88c0-.23.03-.43.08-.59.11-.22.31-.39.61-.53.08,0,.16,0,.22-.02.07-.01.13-.02.18-.02Z"/>
        <path class="cls-1" d="M338.96,129.73c1.95-.03,3.58.2,4.91.67,1.33.47,2.35,1.3,3.08,2.5.19.3.34.6.45.91.11.31.22.66.32,1.03.05.19.07.39.04.59-.03.2-.07.36-.12.47-.05.05-.12.1-.2.14-.08.04-.15.09-.2.14-.14.05-.27.07-.41.04-.14-.03-.27-.03-.41,0-.22.05-.5.06-.85.02-.35-.04-.59-.1-.73-.18-.22-.13-.36-.32-.43-.55-.07-.23-.17-.45-.3-.67-.24-.43-.58-.83-1.01-1.18-.3-.22-.62-.38-.97-.49-.35-.11-.73-.22-1.14-.33-.14-.05-.27-.07-.41-.06-.14.01-.27,0-.41-.02-.16-.05-.37-.08-.61-.08s-.45.03-.61.08h-.24c-.14.03-.27.05-.41.06-.14.01-.27.03-.41.06-.7.16-1.29.39-1.74.69-.46.3-.77.8-.93,1.5-.05.19-.06.38-.02.57.04.19.09.35.14.49.16.41.36.7.59.87s.52.37.87.59c.43.27.92.47,1.46.59.54.12,1.08.26,1.62.43.35.11.7.19,1.05.24.35.05.7.14,1.05.24.57.16,1.12.32,1.66.47s1.08.33,1.62.55c.14.05.27.11.41.16.13.05.27.12.41.2.54.32,1.01.69,1.42,1.09s.74.92,1.01,1.54c.05.19.11.45.16.77.05.19.09.39.1.59.01.2.02.43.02.67v.41c-.05.19-.08.38-.08.57s-.03.38-.08.57c-.08.3-.18.58-.28.85-.11.27-.23.51-.37.73-.43.7-.99,1.26-1.66,1.68-.68.42-1.43.78-2.27,1.08-.24.08-.49.14-.75.18-.26.04-.51.1-.75.18-.27.05-.54.08-.81.08s-.54.03-.81.08h-.41c-.14.03-.33.04-.57.04s-.43-.01-.57-.04h-.45c-.16-.05-.34-.07-.53-.06s-.35,0-.49-.06c-.14-.03-.31-.04-.53-.04-.22-.05-.43-.1-.63-.14-.2-.04-.41-.1-.63-.18-.84-.27-1.57-.61-2.19-1.01s-1.16-.93-1.62-1.58c-.24-.35-.45-.72-.61-1.1-.16-.38-.31-.8-.45-1.26-.05-.16-.08-.36-.06-.59.01-.23.05-.41.1-.55.08-.11.22-.22.41-.32.14-.05.33-.09.57-.1s.49,0,.73.02.48.06.71.1c.23.04.39.09.47.14.19.14.32.33.38.59.07.26.16.49.26.71.27.6.64,1.05,1.1,1.38.32.24.69.43,1.1.57.41.14.84.27,1.3.41l.85.12h.24c.19.05.44.08.75.08s.58-.03.79-.08c.19,0,.34-.01.45-.04.16-.03.32-.05.49-.06s.31-.03.45-.06c.78-.22,1.41-.5,1.87-.85s.78-.95.97-1.79c.05-.13.07-.28.04-.45-.03-.16-.05-.28-.08-.37-.14-.51-.33-.9-.57-1.16-.24-.26-.55-.49-.93-.71-.24-.16-.51-.3-.81-.41-.3-.11-.6-.22-.89-.33-.08-.03-.16-.04-.22-.04s-.14-.03-.22-.08c-.92-.3-1.87-.52-2.86-.67-.99-.15-1.91-.4-2.78-.75-.27-.11-.53-.2-.77-.28-.24-.08-.47-.19-.69-.33-.51-.3-.99-.63-1.42-1.01s-.77-.85-1.01-1.42c-.08-.19-.14-.38-.18-.57-.04-.19-.09-.39-.14-.61-.08-.32-.11-.7-.08-1.12.03-.42.07-.78.12-1.07.05-.14.09-.25.1-.35.01-.09.05-.2.1-.3.24-.62.57-1.16.99-1.62.42-.46.9-.87,1.44-1.22.41-.24.85-.44,1.34-.59.49-.15,1-.29,1.54-.43.19-.03.37-.05.55-.08.18-.03.37-.05.59-.08.08-.03.19-.03.33,0,.13.03.23.01.28-.04Z"/>
        <path class="cls-1" d="M370.52,129.73c1.95-.03,3.58.2,4.91.67,1.33.47,2.35,1.3,3.08,2.5.19.3.34.6.45.91.11.31.22.66.32,1.03.05.19.07.39.04.59-.03.2-.07.36-.12.47-.05.05-.12.1-.2.14-.08.04-.15.09-.2.14-.14.05-.27.07-.41.04-.14-.03-.27-.03-.41,0-.22.05-.5.06-.85.02-.35-.04-.59-.1-.73-.18-.22-.13-.36-.32-.43-.55-.07-.23-.17-.45-.3-.67-.24-.43-.58-.83-1.01-1.18-.3-.22-.62-.38-.97-.49-.35-.11-.73-.22-1.14-.33-.14-.05-.27-.07-.41-.06-.14.01-.27,0-.41-.02-.16-.05-.37-.08-.61-.08s-.45.03-.61.08h-.24c-.14.03-.27.05-.41.06-.14.01-.27.03-.41.06-.7.16-1.29.39-1.74.69-.46.3-.77.8-.93,1.5-.05.19-.06.38-.02.57.04.19.09.35.14.49.16.41.36.7.59.87s.52.37.87.59c.43.27.92.47,1.46.59.54.12,1.08.26,1.62.43.35.11.7.19,1.05.24.35.05.7.14,1.05.24.57.16,1.12.32,1.66.47s1.08.33,1.62.55c.14.05.27.11.41.16.13.05.27.12.41.2.54.32,1.01.69,1.42,1.09s.74.92,1.01,1.54c.05.19.11.45.16.77.05.19.09.39.1.59.01.2.02.43.02.67v.41c-.05.19-.08.38-.08.57s-.03.38-.08.57c-.08.3-.18.58-.28.85-.11.27-.23.51-.37.73-.43.7-.99,1.26-1.66,1.68-.68.42-1.43.78-2.27,1.08-.24.08-.49.14-.75.18-.26.04-.51.1-.75.18-.27.05-.54.08-.81.08s-.54.03-.81.08h-.41c-.14.03-.33.04-.57.04s-.43-.01-.57-.04h-.45c-.16-.05-.34-.07-.53-.06s-.35,0-.49-.06c-.14-.03-.31-.04-.53-.04-.22-.05-.43-.1-.63-.14-.2-.04-.41-.1-.63-.18-.84-.27-1.57-.61-2.19-1.01s-1.16-.93-1.62-1.58c-.24-.35-.45-.72-.61-1.1-.16-.38-.31-.8-.45-1.26-.05-.16-.08-.36-.06-.59.01-.23.05-.41.1-.55.08-.11.22-.22.41-.32.14-.05.33-.09.57-.1s.49,0,.73.02.48.06.71.1c.23.04.39.09.47.14.19.14.32.33.38.59.07.26.16.49.26.71.27.6.64,1.05,1.1,1.38.32.24.69.43,1.1.57.41.14.84.27,1.3.41l.85.12h.24c.19.05.44.08.75.08s.58-.03.79-.08c.19,0,.34-.01.45-.04.16-.03.32-.05.49-.06s.31-.03.45-.06c.78-.22,1.41-.5,1.87-.85s.78-.95.97-1.79c.05-.13.07-.28.04-.45-.03-.16-.05-.28-.08-.37-.14-.51-.33-.9-.57-1.16-.24-.26-.55-.49-.93-.71-.24-.16-.51-.3-.81-.41-.3-.11-.6-.22-.89-.33-.08-.03-.16-.04-.22-.04s-.14-.03-.22-.08c-.92-.3-1.87-.52-2.86-.67-.99-.15-1.91-.4-2.78-.75-.27-.11-.53-.2-.77-.28-.24-.08-.47-.19-.69-.33-.51-.3-.99-.63-1.42-1.01s-.77-.85-1.01-1.42c-.08-.19-.14-.38-.18-.57-.04-.19-.09-.39-.14-.61-.08-.32-.11-.7-.08-1.12.03-.42.07-.78.12-1.07.05-.14.09-.25.1-.35.01-.09.05-.2.1-.3.24-.62.57-1.16.99-1.62.42-.46.9-.87,1.44-1.22.41-.24.85-.44,1.34-.59.49-.15,1-.29,1.54-.43.19-.03.37-.05.55-.08.18-.03.37-.05.59-.08.08-.03.19-.03.33,0,.13.03.23.01.28-.04Z"/>
        <path class="cls-1" d="M402.86,149.61c.08.43.04.79-.12,1.08-.16.28-.38.49-.65.63-.14.05-.28.08-.43.08s-.3.03-.47.08c-.6.13-1.18.1-1.76-.1-.58-.2-.98-.45-1.2-.75-.14-.19-.26-.41-.37-.67-.11-.26-.24-.47-.41-.63-.05-.05-.12-.11-.18-.16-.07-.05-.16-.07-.26-.04-.3.08-.58.23-.83.45-.26.22-.51.41-.75.57-.35.22-.73.41-1.14.59-.41.18-.84.33-1.3.47-.27.08-.56.14-.87.16-.31.03-.62.07-.91.12-.14.03-.25.04-.34.04h-.3c-.3.05-.58.05-.85,0h-.37c-.14-.03-.27-.04-.41-.04s-.26-.03-.37-.08c-.11-.03-.2-.03-.26-.02s-.14,0-.22-.02c-.22-.05-.43-.1-.65-.14-.22-.04-.42-.1-.61-.18-.81-.35-1.47-.75-1.97-1.2-.5-.45-.91-1.08-1.24-1.89-.24-.59-.37-1.31-.37-2.15v-.85c.03-.13.05-.28.06-.43.01-.15.03-.3.06-.47.11-.3.22-.59.32-.89.11-.3.24-.57.41-.81.49-.78,1.15-1.37,1.99-1.75.84-.38,1.76-.72,2.76-1.01.38-.11.77-.19,1.18-.24.41-.05.81-.12,1.22-.2.19-.05.37-.08.55-.08s.37-.03.59-.08c.19-.05.38-.09.57-.1s.39-.05.61-.1c.68-.16,1.31-.3,1.91-.43.59-.12,1.07-.43,1.42-.91.16-.22.3-.49.41-.83.11-.34.11-.71,0-1.12-.16-.65-.4-1.16-.71-1.54s-.75-.68-1.32-.89c-.32-.13-.71-.23-1.16-.28-.45-.05-.91-.08-1.4-.08s-.96.03-1.42.08c-.46.05-.85.14-1.18.24-.46.16-.91.39-1.34.69-.22.16-.41.37-.59.63-.18.26-.33.53-.47.83-.08.22-.16.45-.22.69-.07.24-.2.43-.39.57-.11.08-.29.14-.55.18-.26.04-.52.06-.79.06s-.53-.02-.79-.06c-.26-.04-.44-.1-.55-.18-.11-.08-.19-.22-.24-.41-.05-.19-.05-.39,0-.61.08-.35.17-.68.26-.99.09-.31.21-.62.34-.91.51-.95,1.16-1.68,1.95-2.21.78-.53,1.76-.95,2.92-1.28.27-.05.55-.09.83-.12s.57-.07.87-.12c.11-.03.28-.03.53-.02.24.01.39,0,.45-.06,1.89-.03,3.54.19,4.95.65s2.39,1.34,2.96,2.64c.24.54.39,1.17.43,1.89.04.72.06,1.47.06,2.25v8.97c0,.38.01.74.04,1.09.03.35.11.64.24.85.14.19.31.32.53.41.24.11.47.18.69.22.22.04.38.17.49.38.05.08.08.16.08.24s.01.19.04.32ZM397.06,145.1c.16-.38.25-.82.26-1.32.01-.5.02-1.02.02-1.56,0-.3-.01-.57-.04-.81-.03-.24-.13-.43-.32-.57-.08-.05-.27-.08-.57-.08-.05.05-.15.08-.28.08s-.26.03-.37.08c-.22.05-.46.11-.73.16-.27.05-.54.11-.81.16-.08,0-.17,0-.26.02s-.2.02-.3.02c-.41.11-.84.17-1.32.18-.47.01-.91.08-1.32.18-.22.05-.41.1-.59.14-.18.04-.37.09-.59.14-.43.14-.84.3-1.22.51-.38.2-.7.45-.97.75-.27.3-.47.66-.61,1.08-.14.42-.19.93-.16,1.52,0,.27.05.52.14.75.09.23.21.44.34.63.22.3.5.55.85.75.35.2.73.37,1.14.51.13.03.27.04.41.04s.27.01.41.04c.19.05.43.09.71.1.28.01.52,0,.71-.06.16-.05.32-.07.49-.06s.33,0,.49-.06c.22-.05.43-.09.63-.12.2-.03.4-.08.59-.16.78-.32,1.45-.72,2.01-1.18.55-.46.98-1.08,1.28-1.87Z"/>
        <path class="cls-1" d="M412.64,121.9c.49-.03,1-.03,1.54,0,.54.03.92.19,1.14.49.11.16.18.36.2.59.03.23.04.48.04.75,0,.35-.07.64-.2.85-.11.14-.26.22-.47.26-.2.04-.43.06-.67.06s-.49,0-.75-.02c-.26-.01-.48,0-.67.02-.76.22-1.25.56-1.48,1.03-.23.47-.34,1.18-.34,2.13,0,.19-.01.39-.04.59-.03.2-.01.39.04.55.08.41.26.69.53.85.22.08.49.12.83.12h1.56c.08.05.16.07.24.04.08-.03.16-.01.24.04.27.08.45.24.53.47.08.23.12.52.12.87-.03.11-.04.22-.04.33v.32c-.08.41-.26.68-.53.81-.35.14-.8.17-1.36.1-.55-.07-1.02-.05-1.4.06-.22.05-.38.16-.49.3-.11.15-.19.34-.24.59-.05.19-.07.41-.04.65.03.24.04.47.04.69v13.31c0,.16,0,.34.02.53s0,.35-.06.49v.33c-.03.11-.05.22-.08.32-.03.11-.07.2-.12.28-.14.19-.34.3-.61.32-.27.03-.57.04-.89.04h-.77c-.14-.05-.26-.1-.39-.14-.12-.04-.22-.13-.3-.26-.05-.08-.11-.26-.16-.53v-.28c-.05-.13-.07-.28-.06-.43.01-.15.02-.29.02-.43v-12.7c0-.3,0-.61.02-.93.01-.32.01-.63,0-.91-.01-.28-.07-.53-.16-.75s-.25-.37-.47-.45c-.16-.08-.34-.12-.55-.12h-1.26c-.2,0-.39-.03-.55-.08-.24-.11-.42-.34-.53-.69-.03-.13-.04-.26-.04-.37v-.37c0-.38.04-.68.12-.91.08-.23.26-.38.53-.47.19-.08.41-.11.67-.1.26.01.51.02.77.02s.49-.03.69-.08c.2-.05.37-.16.51-.32.19-.22.28-.55.26-1.01-.01-.46-.02-.89-.02-1.3,0-.54.03-1.05.1-1.52.07-.47.18-.9.34-1.28.3-.65.7-1.18,1.2-1.58.5-.41,1.1-.72,1.81-.93.16-.05.33-.09.51-.1s.36-.05.55-.1c.05-.03.15-.03.28-.02.13.01.23,0,.28-.02Z"/>
        <path class="cls-1" d="M436.29,139.83c.05.27.06.58.02.91-.04.34-.13.57-.26.71-.14.11-.33.18-.59.22-.26.04-.55.06-.87.06s-.65,0-.97-.02c-.32-.01-.61-.02-.85-.02h-10.39c-.22,0-.43,0-.65.02-.22.01-.39.06-.53.14-.11.05-.22.16-.33.32-.05.08-.11.2-.16.35-.05.15-.05.29,0,.43.03.14.04.26.04.37s.01.22.04.32c.05.22.11.44.16.67.05.23.14.45.24.67.62,1.46,1.65,2.5,3.08,3.12.16.08.34.15.53.2.19.05.38.11.57.16.08.03.22.04.41.04.38.11.88.16,1.5.16s1.12-.05,1.5-.16c.38-.11.72-.22,1.04-.34.31-.12.6-.28.87-.47.3-.19.55-.41.77-.67.22-.26.41-.53.57-.83.16-.27.3-.55.43-.85.12-.3.33-.51.63-.65.11-.05.28-.09.53-.12s.49-.03.73-.02.47.03.69.06c.22.03.37.08.45.16.27.19.34.5.2.93-.22.73-.5,1.38-.85,1.95-.54.87-1.16,1.58-1.85,2.13-.69.55-1.56,1.01-2.62,1.36-.27.11-.54.18-.81.22-.27.04-.55.09-.85.14-.14.03-.26.04-.38.04s-.25.01-.39.04h-.41c-.14.03-.29.04-.47.04s-.32-.01-.43-.04h-.37c-.14-.03-.26-.04-.37-.04s-.22-.01-.33-.04c-.13-.03-.28-.05-.45-.06-.16-.01-.31-.03-.45-.06-.24-.05-.49-.12-.73-.18-.24-.07-.47-.14-.69-.22-.11-.05-.2-.09-.28-.1s-.18-.05-.28-.1c-.41-.19-.84-.42-1.3-.69-.78-.51-1.45-1.14-2.01-1.89-.55-.74-1.02-1.58-1.4-2.5-.14-.3-.24-.61-.3-.93-.07-.32-.16-.65-.26-.97-.03-.11-.04-.2-.04-.28s-.01-.19-.04-.32c-.05-.22-.09-.45-.12-.69s-.07-.49-.12-.73v-.57c-.03-.11-.05-.26-.06-.47-.01-.2,0-.37.02-.51v-.45c.05-.13.07-.28.06-.43-.01-.15,0-.29.02-.43.11-.43.2-.87.26-1.3s.18-.84.34-1.22c.14-.3.26-.6.39-.91.12-.31.26-.61.43-.91.59-.95,1.27-1.76,2.03-2.46.76-.69,1.69-1.26,2.8-1.72.32-.14.66-.24.99-.3.34-.07.7-.14,1.08-.22.13-.03.26-.05.37-.06.11-.01.23-.02.37-.02.05-.03.12-.03.2,0,.08.03.15.01.2-.04,1.14-.03,2.12.09,2.96.34.84.26,1.6.6,2.27,1.03.13.05.24.13.33.22.08.09.17.17.28.22.22.16.44.35.67.57.23.22.43.43.59.65.43.57.8,1.11,1.1,1.62.19.3.34.62.45.97.11.35.23.7.37,1.05.13.35.24.72.3,1.09.07.38.16.76.26,1.14.03.19.05.38.06.57.01.19.03.38.06.57ZM432.35,138.45c.08-.11.15-.25.2-.43.05-.18.05-.36,0-.55-.16-.59-.39-1.15-.69-1.66-.38-.62-.8-1.15-1.26-1.58s-1.05-.8-1.79-1.1c-.19-.05-.38-.1-.57-.14-.19-.04-.39-.09-.61-.14-.22-.05-.45-.08-.69-.08h-.69c-.08.05-.18.08-.28.06-.11-.01-.2,0-.28.02-.22.05-.43.1-.63.14-.2.04-.4.09-.59.14-.79.32-1.41.73-1.89,1.22-.47.49-.9,1.1-1.28,1.83-.08.14-.16.3-.24.51-.08.2-.15.43-.2.67-.05.24-.07.47-.04.69.03.22.12.38.28.49.22.16.59.24,1.12.22s.98-.02,1.36-.02h6.17c.41,0,.89,0,1.46.02s.95-.09,1.14-.3Z"/>
        <path class="cls-1" d="M441.81,146.69c.24,0,.51,0,.81-.02.3-.01.59-.01.87,0s.55.04.79.08c.24.04.43.12.57.22.05.05.1.14.14.24.04.11.09.23.14.37v.2c.03.13.03.28.02.43s-.02.29-.02.43v1.28c0,.47-.11.8-.32.99-.19.14-.43.2-.71.2h-2.11c-.42,0-.74-.08-.95-.24-.11-.08-.19-.22-.24-.43-.05-.2-.09-.43-.1-.69-.01-.26-.01-.51,0-.77.01-.26.02-.48.02-.67v-.53c0-.16.03-.31.08-.45.11-.3.3-.49.57-.57.08,0,.23-.03.45-.08Z"/>
      </g>
    </g>
  </g>
</svg>