<?xml version="1.0" encoding="UTF-8"?>
<svg xmlns="http://www.w3.org/2000/svg" version="1.1" viewBox="0 0 173.35 180.58">
  <defs>
    <style>
      .cls-1, .cls-2, .cls-3, .cls-4, .cls-5 {
        fill: #fff;
      }

      .cls-6, .cls-7, .cls-8 {
        fill: #232323;
      }

      .cls-9 {
        fill: #3d3d3d;
      }

      .cls-2 {
        opacity: .29;
      }

      .cls-3, .cls-7 {
        opacity: .49;
      }

      .cls-10 {
        fill: #707070;
      }

      .cls-11 {
        isolation: isolate;
      }

      .cls-4, .cls-5, .cls-12 {
        mix-blend-mode: overlay;
      }

      .cls-4, .cls-12 {
        opacity: .61;
      }

      .cls-5 {
        opacity: .23;
      }

      .cls-8 {
        opacity: .43;
      }

      .cls-13 {
        fill: #6e6e6e;
      }
    </style>
  </defs>
  <!-- Generator: Adobe Illustrator 28.6.0, SVG Export Plug-In . SVG Version: 1.2.0 Build 709)  -->
  <g class="cls-11">
    <g id="Layer_1">
      <g>
        <g>
          <path class="cls-6" d="M173.17,85.24l-.02-4.95h-.13c-.9-15.59-6.05-30.41-15.04-43.24l.2-.12-2.48-3.2C139.7,13.06,115.42.84,89.1.21c-.26,0-.53,0-.79-.01h-.66c-.23-.02-.46-.02-.69-.02h-.18C63.94.18,42.41,8.87,26.15,24.63,10.75,39.55,1.74,59.2.52,80.29h-.15v16.11c0,46.2,38.76,83.79,86.4,83.79s86.4-37.59,86.4-83.79v-11.05s0-.1,0-.1ZM86.77,172.89c-43.62,0-79.11-34.32-79.11-76.5v-12.41C8.33,41.8,43.81,7.47,86.76,7.47h.2c.18,0,.36,0,.54,0h.73c.23.02.45.02.69.03,22.76.54,43.84,10.52,58.45,27.53h-.02s2.48,3.21,2.48,3.21c10.24,13.25,15.79,29.07,16.05,45.74v12.41c.01,42.18-35.47,76.5-79.1,76.5Z"/>
          <g>
            <path class="cls-9" d="M170.49,84.41c-4.39-59.06-40.32-69.06-83.99-69.06S6.85,24.72,2.5,84.41h-.44v12.71c0,45.16,37.8,81.78,84.44,81.78s84.44-36.62,84.44-81.78v-12.71h-.45Z"/>
            <path class="cls-6" d="M86.65,175.38C40.02,175.38,2.17,138.7,1.67,93.27c-.01.94-.03,1.88-.03,2.85,0,45.85,38.06,83.02,85.01,83.02s85.01-37.17,85.01-83.02c0-.96-.01-1.9-.02-2.84-.51,45.43-38.35,82.1-84.98,82.1Z"/>
            <path class="cls-13" d="M170.94,85.69c0,45.85-37.8,83.03-84.44,83.03S2.06,131.54,2.06,85.69,39.86,2.67,86.49,2.67s84.44,37.17,84.44,83.02Z"/>
            <path class="cls-5" d="M86.49,2.67C39.86,2.67,2.06,39.84,2.06,85.69c0,1.01.04,2.01.08,3.01,21.51,18.97,51.12,30.69,83.82,30.69s63.34-12.14,84.94-31.7c.02-.67.05-1.33.05-2,0-45.85-37.8-83.02-84.44-83.02Z"/>
            <path class="cls-5" d="M153.89,35.45C138.46,15.53,114.1,2.67,86.68,2.67S34.51,15.72,19.1,35.9c19.09,11.59,42.16,18.38,67.03,18.38s48.53-6.96,67.76-18.83Z"/>
            <path class="cls-4" d="M86.5,7.42c45.82,0,83.09,35.89,84.38,80.64.02-.79.06-1.58.06-2.38,0-45.85-37.81-83.02-84.44-83.02S2.06,39.84,2.06,85.69c0,.8.04,1.59.06,2.38C3.4,43.32,40.67,7.42,86.5,7.42Z"/>
            <path class="cls-4" d="M86.49,165.2c-46.03,0-83.44-36.23-84.39-81.27,0,.59-.04,1.17-.04,1.76,0,45.85,37.8,83.03,84.44,83.03s84.44-37.17,84.44-83.03c0-.59-.03-1.17-.05-1.76-.95,45.04-38.36,81.27-84.4,81.27Z"/>
            <path class="cls-9" d="M155.39,85.69c0,37.41-30.84,67.74-68.9,67.74S17.6,123.1,17.6,85.69,48.45,17.95,86.49,17.95s68.9,30.33,68.9,67.73Z"/>
            <path class="cls-6" d="M86.49,26.36c36.57,0,66.47,28.01,68.74,63.4.09-1.43.15-2.88.15-4.33,0-37.41-30.84-67.74-68.9-67.74S17.6,48.02,17.6,85.43c0,1.46.06,2.9.16,4.33,2.28-35.38,32.17-63.4,68.74-63.4Z"/>
            <path class="cls-10" d="M86.49,149.72c-37.38,0-67.79-29.28-68.84-65.79-.02.65-.05,1.3-.05,1.95,0,37.41,30.85,67.74,68.89,67.74s68.9-30.33,68.9-67.74c0-.65-.03-1.3-.05-1.95-1.05,36.51-31.46,65.79-68.85,65.79Z"/>
          </g>
          <g>
            <path class="cls-6" d="M51.08,9.04s2.34,7.02-6.75,12.95c-9.09,5.92-13.91,0-13.91,0l20.66-12.95Z"/>
            <path class="cls-13" d="M38.09,20.96h-4.48l-2.39,1.79s2.79,3.14,8.75,1.34c5.97-1.79,8.88-5.58,9.8-7.49.92-1.92-7.86,4.35-11.68,4.35Z"/>
          </g>
          <g>
            <path class="cls-6" d="M68.61,2.99s.29,3.76-4.94,5.57c-5.23,1.81-6.88-1.72-6.88-1.72l11.81-3.85Z"/>
            <path class="cls-13" d="M60.72,7.28c-1.89-.47-2.21-.55-2.21-.55l-1.41.59s.99,1.9,4.16,1.74c3.17-.15,5.08-1.66,5.77-2.49.69-.83-4.42,1.18-6.31.71Z"/>
          </g>
          <g>
            <path class="cls-9" d="M106.37,168.7s-.89-5.42,6.46-8.68c7.35-3.27,10.18,1.63,10.18,1.63l-16.64,7.05Z"/>
            <path class="cls-6" d="M114.29,160.22s-3.26,2.95-3.67,3.93c-.41.98-.83,1.55-2.07,1.91-1.24.36-1.98.38-1.98.38,0,0,1.36-4.21,4.72-5.86,3.35-1.65,5.78-1.69,5.78-1.69l-2.79,1.33Z"/>
          </g>
          <g>
            <path class="cls-6" d="M168.7,59.26s-5.47.31-7.58-4.44c-2.11-4.75,3.16-6.31,3.16-6.31l4.43,10.74Z"/>
            <path class="cls-4" d="M161.55,53.92c1.51,2.14,3.91,2.6,3.91,2.6,0,0-.16.2.01.99.17.79.17,1.33.17,1.33,0,0-3.07-.85-4.19-3.03-1.11-2.18-.79-3.7-.79-3.7,0,0,.6,1.4.89,1.81Z"/>
          </g>
          <path class="cls-6" d="M57.03,171.76s2.37-4.95,10.27-3.41c7.89,1.54,7.4,7.17,7.4,7.17l-17.67-3.76Z"/>
          <g>
            <path class="cls-9" d="M11.72,127.94s3.59-2.1,7.51,2.99c3.91,5.09,1.11,8.62,1.11,8.62l-8.62-11.61Z"/>
            <path class="cls-6" d="M19.4,132.15s-2.78-1.87-3.56-1.96c-.78-.08-1.27-.27-1.8-1.18-.53-.91-.71-1.5-.71-1.5,0,0,3.25.02,5.15,2.31,1.9,2.29,2.47,4.23,2.47,4.23l-1.55-1.91Z"/>
          </g>
          <g>
            <path class="cls-6" d="M31.52,135.44c-2-1.79-3.72-3.76-5.38-5.77-1.65-2.03-3.19-4.12-4.64-6.28-1.45-2.15-2.82-4.37-4.08-6.65-1.25-2.29-2.42-4.63-3.33-7.16,2,1.79,3.73,3.75,5.39,5.77,1.65,2.03,3.19,4.12,4.64,6.28,1.45,2.15,2.81,4.37,4.08,6.65,1.24,2.29,2.43,4.63,3.33,7.15Z"/>
            <path class="cls-4" d="M32.32,136.1s-8.77-8.59-12.61-15.46c-3.84-6.88-5.63-11.71-5.63-11.71,0,0,1.88,7.72,5.24,13.63,3.37,5.91,13,13.54,13,13.54Z"/>
            <path class="cls-6" d="M27.17,129.76s-5.38-9.27-6.25-10.64c-.88-1.37-4.52-6.32-4.52-6.32,0,0,3.86,10.81,10.78,16.96Z"/>
          </g>
          <g>
            <path class="cls-6" d="M160.24,139.01l-6.54,1.31h-3.62s2.45.42,3.34.62c.9.21,3.8.32,4.07,1.09.27.77-1.17,3.66-.56,3.25.62-.41,3.31-6.27,3.31-6.27Z"/>
            <path class="cls-4" d="M153.42,140.94l-3.51-.43s3.1.88,3.27.91c.17.03,3.89.51,4.08.34.19-.18-3.84-.82-3.84-.82Z"/>
          </g>
          <g>
            <g>
              <path class="cls-6" d="M2.81,64.3l9.34,8.85,5.9,3.71s-4.42-1.84-6.09-2.42c-1.67-.58-6.53-3.38-7.76-2.39-1.23.97-1.84,7.18-2.43,5.87-.59-1.31,1.03-13.63,1.03-13.63Z"/>
              <path class="cls-4" d="M11.96,74.44l6.17,2.91s-5.96-1.75-6.28-1.87c-.32-.12-6.88-3.15-7.01-3.64-.12-.48,7.11,2.6,7.11,2.6Z"/>
            </g>
            <path class="cls-9" d="M5.65,61.28s5.63,8.42,6.3,9.17c.67.74,6.1,6.41,6.1,6.41l-5.9-3.71-8.05-6.08,1.55-5.79Z"/>
          </g>
          <g>
            <g>
              <path class="cls-6" d="M112.96,175.58l2.15-10.21-.2-5.54s.93,3.69,1.38,5.03c.45,1.34.83,5.77,2.32,6.08,1.49.31,6.97-2.32,6.21-1.31-.76,1.01-11.85,5.96-11.85,5.96Z"/>
              <path class="cls-4" d="M115.45,166.01l-1.32-5.32s2.16,4.62,2.23,4.88c.08.26,1.21,5.89.88,6.2-.33.31-1.79-5.76-1.79-5.76Z"/>
            </g>
            <path class="cls-6" d="M107.83,176.56s3.85-7.65,4.1-8.44c.24-.79,2.21-7.43,2.21-7.43l.55,5.75-1.2,8.29-5.65,1.83Z"/>
          </g>
        </g>
        <g>
          <path class="cls-6" d="M132.25,53.58c-4.83-9.92-12.58-17.22-23.04-21.68-7.31-3.12-14.64-4.27-20.09-4.64v-.2l-2.52.07-2.52-.06v.19c-5.45.37-12.78,1.51-20.09,4.64-10.46,4.47-18.21,11.76-23.04,21.68-4.42,9.08-6.41,18.03-5.75,25.89.46,5.52,2.11,9.57,3.8,11.98-1.04,2.86-.33,6.34.37,8.89.92,3.34,4.73,7.54,10.22,9.44-.1.76.18,2.54,4.02,12.98,2.82,7.65,4.68,12.06,5.53,13.09,1.57,1.92,9.06,8.4,13.1,9.46,1.91.5,5.61.62,8.81.62,2.61,0,4.89-.08,5.56-.11,1.49.06,10.89.39,14.37-.51,4.05-1.06,11.53-7.54,13.1-9.46,1.25-1.52,4.59-10.15,5.58-12.76,4.17-10.93,4.16-12.55,4-13.33,5.47-1.9,9.26-6.07,10.18-9.43,1.01-3.7,1.12-6.61.32-8.82,1.7-2.38,3.36-6.42,3.84-11.94.48-5.5-.14-14.48-5.74-25.99ZM94.98,82.25c1.51-2.94,4.92-4.68,9.6-4.9,6.71-.31,11.05.86,11.91,3.22.51,1.39.85,5.34-1.33,8.66-2.02,3.07-5.67,4.78-10.83,5.08-3.77.22-6.98-1.25-8.79-4.03-1.62-2.48-1.83-5.55-.57-8.02ZM77.63,90.28c-1.81,2.78-5.01,4.25-8.79,4.03-5.16-.29-8.81-2-10.83-5.08-2.18-3.31-1.84-7.26-1.33-8.66h0c.77-2.11,4.31-3.27,9.84-3.27.66,0,1.35.02,2.07.05,4.69.22,8.1,1.96,9.6,4.9,1.26,2.47,1.05,5.54-.57,8.02Z"/>
          <path class="cls-9" d="M130.12,54.61c-10.54-21.65-33.25-24.76-43.37-25.11h0c-.05,0-.1,0-.16,0-.05,0-.11,0-.16,0h0c-10.12.36-32.83,3.47-43.37,25.12-9.85,20.24-4.45,33.35-1.27,36.53-1.53,2.09-.96,5.65-.16,8.56.83,3.02,4.91,7.04,10.34,8.3.04.87.05,1.63-.05,2.06-.24,1.02,7.6,22.55,9.02,24.28,1.42,1.73,8.55,7.8,11.87,8.67,3.32.87,13.77.43,13.77.43,0,0,10.45.43,13.77-.43,3.32-.87,10.45-6.94,11.87-8.67,1.42-1.73,9.97-23.85,9.02-24.28-.27-.12-.3-.96-.25-2.01,5.54-1.21,9.7-5.29,10.54-8.35.79-2.89,1.3-6.42-.21-8.51,3.17-3.1,8.68-16.24-1.22-36.58ZM104.48,74.99c7.18-.34,12.82.87,14.25,4.77,1.42,3.9.95,16.04-14.25,16.91-15.19.87-18.52-20.81,0-21.68ZM54.46,79.76c1.42-3.9,7.07-5.11,14.25-4.77,18.52.87,15.19,22.55,0,21.68-15.19-.87-15.67-13.01-14.25-16.91Z"/>
          <g>
            <path class="cls-13" d="M124.89,88.13c-2.85-1.73-2.37-4.77-.47-8.67,1.9-3.9-1.9-15.61-.47-16.04,1.42-.43,5.7,12.14,4.27,16.91-1.42,4.77-.47,4.77,1.9,4.77s11.4-13.87,0-37.29c-10.54-21.65-33.25-24.76-43.37-25.11h0c-.05,0-.1,0-.16,0-.05,0-.11,0-.16,0h0c-10.12.36-32.83,3.47-43.37,25.12-11.4,23.41-2.37,37.29,0,37.29s3.32,0,1.9-4.77c-1.42-4.77,2.85-17.34,4.27-16.91,1.42.43-2.37,12.14-.47,16.04s2.37,6.94-.47,8.67c-2.85,1.73-7.6,1.3-6.65,4.77.95,3.47,6.17,8.24,12.82,8.67,6.65.43,10.45,8.67,10.92,11.27.47,2.6,3.32,4.34,3.8,3.9.47-.43,1.42-4.34,1.42-4.34,0,0,0,4.77.47,5.2.47.43,6.17,1.3,6.65.87.47-.43.95-6.07.95-6.07,0,0,.47,5.64.47,6.07s2.37,1.3,4.27,1.3,2.37-.43,2.37-.43l.79-6.24.79,6.24s.47.43,2.37.43,4.27-.87,4.27-1.3.47-6.07.47-6.07c0,0,.47,5.64.95,6.07.47.43,6.17-.43,6.65-.87.47-.43.47-5.2.47-5.2,0,0,.95,3.9,1.42,4.34.47.43,3.32-1.3,3.8-3.9.47-2.6,4.27-10.84,10.92-11.27,6.65-.43,11.87-5.2,12.82-8.67.95-3.47-3.8-3.04-6.65-4.77ZM68.7,89.86c-15.19-.87-15.67-13.01-14.25-16.91s7.07-5.11,14.25-4.77c18.52.87,15.19,22.55,0,21.68ZM94.03,103.31c-1.9,1.73-4.27.87-5.7,0-.55-.34-1.34-.82-1.81-4.37-.47,3.54-1.12,4.04-1.67,4.37-1.42.87-3.8,1.73-5.7,0-1.9-1.73.95-5.2,2.85-6.94,1.9-1.73.95-3.47,1.9-5.2.71-1.3,1.94-1.42,2.54-1.35.08,0,.24,0,.31,0,.59-.07,1.82.05,2.54,1.35.95,1.73,0,3.47,1.9,5.2,1.9,1.73,4.75,5.2,2.85,6.94ZM104.48,89.86c-15.19.87-18.52-20.81,0-21.68,7.18-.34,12.82.87,14.25,4.77,1.42,3.9.95,16.04-14.25,16.91Z"/>
            <path class="cls-13" d="M121.25,103.26c-.95-.43-3.8-.43-5.7,3.9s-8.07,17.34-9.5,17.34,0-3.9-.95-3.9-2.37,1.3-3.32,1.73c-.95.43-1.42,3.9-1.42,3.9,0,0-.47-2.6-.95-3.04-.47-.43-1.42-.87-2.85-.87s-2.85.87-2.85,1.3-.95,4.34-.95,4.34c0,0,0-3.9-.47-4.34-.47-.43-1.9-.43-2.85-.43h-1.9l-.95,4.77-.95-4.77h-1.9c-.95,0-2.37,0-2.85.43s-.47,4.34-.47,4.34c0,0-.95-3.9-.95-4.34s-1.42-1.3-2.85-1.3-2.37.43-2.85.87c-.47.43-.95,3.04-.95,3.04,0,0-.47-3.47-1.42-3.9-.95-.43-2.37-1.73-3.32-1.73s.47,3.9-.95,3.9-7.6-13.01-9.5-17.34c-1.9-4.34-4.75-4.34-5.7-3.9-.95.43,7.6,22.55,9.02,24.28,1.42,1.73,8.55,7.8,11.87,8.67,3.32.87,13.77.43,13.77.43,0,0,10.45.43,13.77-.43,3.32-.87,10.45-6.94,11.87-8.67,1.42-1.73,9.97-23.85,9.02-24.28Z"/>
          </g>
          <g class="cls-12">
            <path class="cls-1" d="M94.03,103.31c-1.56,1.42-3.43,1.1-4.84.45.4,1.12.86,1.4,1.21,1.62,1.42.87,3.8,1.73,5.7,0,1.9-1.73-.95-5.2-2.85-6.94-1.9-1.73-.95-3.47-1.9-5.2-.47-.86-1.18-1.21-1.77-1.32.43,1.48-.03,2.97,1.6,4.45,1.9,1.73,4.75,5.2,2.85,6.94Z"/>
            <path class="cls-1" d="M126.02,65.49c-.14.04-.23.19-.28.43,1.66,3.83,3.48,11.05,2.48,14.41-1.33,4.45-.59,4.75,1.44,4.77.08-.66.28-1.54.63-2.7,1.42-4.77-2.85-17.34-4.27-16.91Z"/>
            <path class="cls-1" d="M86.52,98.93c-.47,3.54-1.12,4.04-1.67,4.37-1.08.66-2.69,1.31-4.24.84.04.46.23.88.61,1.23,1.9,1.73,4.27.87,5.7,0,.41-.25.87-.59,1.27-2.16-.54-.35-1.23-1.03-1.67-4.28Z"/>
            <path class="cls-1" d="M104.15,116.75c.17-.06.81-.17,1.02-.3-.29-1.02-2.5-4.14-2.5-4.14,0,0,.59,3.85,1.48,4.44Z"/>
            <path class="cls-1" d="M50.36,90.2c2.85-1.73,2.37-4.77.47-8.67-1.9-3.9,1.9-15.61.47-16.04-.54-.16-1.49,1.54-2.38,3.98-.57,3.62-1.18,7.91-.16,9.99,1.9,3.9,2.37,6.94-.47,8.67-2.85,1.73-7.6,1.3-6.65,4.77.43,1.58,1.75,3.43,3.69,5.02-.81-1-1.37-2.02-1.62-2.95-.95-3.47,3.8-3.04,6.65-4.77Z"/>
            <path class="cls-1" d="M45.13,49.88c10.54-21.65,33.25-24.76,43.37-25.11h0c.05,0,.1,0,.16,0,.05,0,.11,0,.16,0h0c7.75.28,22.89,2.16,34.29,12.76-11.57-12.43-28.13-14.54-36.36-14.83h0c-.05,0-.1,0-.16,0-.05,0-.11,0-.16,0h0c-10.12.36-32.83,3.47-43.37,25.12-10.99,22.59-2.99,36.3-.28,37.23-3.09-4.72-6.45-17.1,2.35-35.16Z"/>
            <path class="cls-1" d="M104.48,89.86c-3.44.2-6.27-.76-8.37-2.37,2.13,2.8,5.71,4.72,10.44,4.45,15.19-.87,15.67-13.01,14.25-16.91-.44-1.21-1.28-2.15-2.45-2.88.15.26.27.52.38.81,1.42,3.9.95,16.04-14.25,16.91Z"/>
            <path class="cls-1" d="M126.97,90.2c1.41.86,3.27,1.18,4.69,1.71-.16-2.3-3.84-2.25-6.39-3.58.31.73.86,1.35,1.7,1.86Z"/>
            <path class="cls-1" d="M68.06,116.49c-.28-.47-.51-1-.61-1.57-.33-1.81-2.28-6.36-5.67-9.1,2.12,2.58,3.35,5.62,3.6,7.03.31,1.72,1.66,3.06,2.68,3.64Z"/>
            <path class="cls-1" d="M78.71,112.31s.3,5.92.59,6.51c.28.11,1.5.55,1.85.64-.13-1.76-2.44-7.15-2.44-7.15Z"/>
            <path class="cls-1" d="M70.72,112.31s-.3,1.78.3,5.33c.3.08,1.37.39,1.8.47-.14-1.54-2.09-5.8-2.09-5.8Z"/>
            <path class="cls-1" d="M86.69,113.2l.59,6.21c.28.06,1.46.33,1.96.36l-2.55-6.57Z"/>
            <path class="cls-1" d="M94.39,112.31s.59,5.33.89,6.21c.23,0,1.47.06,1.76.04-.26-1.78-2.65-6.25-2.65-6.25Z"/>
            <path class="cls-1" d="M68.7,89.86c-4.56-.26-7.8-1.54-10.05-3.3,2.17,2.79,5.92,5.02,12.12,5.37,12.1.69,16.67-12.92,8.68-18.93,4.9,6.59.11,17.48-10.75,16.86Z"/>
            <path class="cls-1" d="M89.44,123.2h-1.9l-1.14,4.79.3,1.18.99-4.38s2.87.48,3.82.48c.34,0,.75,0,1.15.02-.07-.79-.18-1.49-.37-1.66-.47-.43-1.9-.43-2.85-.43Z"/>
            <path class="cls-1" d="M96.56,122.34c-1.42,0-2.85.87-2.85,1.3,0,.17-.15.91-.34,1.72-.17,1.45-.96,3.04-.76,3.22.47.43.96-4.07,1.26-4.38.38-.38,3.33.2,4.76.2.51,0,.96.06,1.34.15-.16-.6-.37-1.17-.57-1.35-.47-.43-1.42-.87-2.85-.87Z"/>
            <path class="cls-1" d="M76.62,122.34c-1.42,0-2.37.43-2.85.87-.17.16-.35.6-.5,1.11-.78,3.09-.19,3.68-.19,3.68,0,0-.31-2.76.17-3.2.47-.43,4.01-.39,5.44-.39.32,0,.63.04.93.12-.09-.44-.15-.78-.15-.89,0-.43-1.42-1.3-2.85-1.3Z"/>
            <path class="cls-1" d="M83.74,123.2c-.95,0-2.37,0-2.85.43-.15.14-.25.62-.32,1.22-.38,1.36-.09,2.91-.09,3.13,0,.43.59,1.48.59,1.48,0,0-.63-3.65-.16-4.09.47-.43,3.95-.11,4.9-.11h.24l-.41-2.07h-1.9Z"/>
            <path class="cls-1" d="M116.95,104.84c-.49.58-.97,1.34-1.4,2.32-1.5,3.43-6.67,14.91-9.33,17.28.22.94.74,2.13,1.91,2.13,1.42,0,7.6-13.01,9.5-17.34.97-2.22,2.2-3.3,3.28-3.77.24-.85.39-1.5.41-1.86-.31-.46-1.02-.47-1.2-.46-1.41.09-2.37.89-3.17,1.7Z"/>
            <path class="cls-1" d="M105.11,120.6c-.95,0-2.37,1.3-3.32,1.73-.53.24-.91,1.43-1.15,2.43-.34.86-.34,1.75-.34,1.75l.89-.59s-.61-2.16.34-2.6c.44-.2,3.3.5,3.85.14-.06-1.16.35-2.86-.28-2.86Z"/>
            <path class="cls-1" d="M71.39,122.34c-.95-.43-2.37-1.73-3.32-1.73-.89,0,.3,3.41-.71,3.85.81,1.3,1.47,2.12,1.83,2.12,1.42,0,0-3.9.95-3.9.59,0,1.36.5,2.08.98-.22-.63-.49-1.16-.83-1.32Z"/>
            <path class="cls-1" d="M54,105.33c.52-.24,1.63-.35,2.84.34-.91-1.41-1.92-2.11-2.81-2.4-.18-.04-.37-.09-.55-.14-.66-.11-1.22-.02-1.55.13-.95.43,7.6,22.55,9.02,24.28.36.44,1.07,1.14,2,1.97-1.62-2.33-9.88-23.76-8.95-24.18Z"/>
          </g>
          <g class="cls-12">
            <path class="cls-3" d="M57.4,62.61c4.44,2.96,34.32,7.1,48.82-4.14,14.5-11.24,13.31-27.18,0-28.97-13.52-1.82-19.53-7.12-39.05,2.64-19.53,9.76-24.26,27.81-24.56,29.29-.3,1.48,10.36-1.78,14.79,1.18Z"/>
            <path class="cls-2" d="M120.13,89.83c-4.12.11-5.08,3.74-11.41,3.8-6.34.05-9.89-2.61-10.78-1.72-.89.89,1.48,15.68,5.03,15.98,3.55.3,8.88-7.1,15.68-8.88,6.8-1.78,12.72-9.47,1.48-9.17Z"/>
            <path class="cls-2" d="M77.52,93.38c-1.32,1.32-3.2,1.79-5.03,1.85-2.37-1.44-12.47-1.26-13.02-5.1-.89-6.21-15.98,4.73-12.43,7.1,1.94,1.29,6.52,2.76,11.58,3.05,0,0,.01,0,.02,0,6.28.99,10,7.89,15.62,9.96,5.62,2.07-.59-7.99,3.25-12.43,3.85-4.44,3.55-7.99,0-4.44Z"/>
          </g>
        </g>
        <g>
          <polygon class="cls-4" points="23.55 57.86 24.05 65.48 35.59 69.97 25.15 63.2 24.27 55.51 11.55 46.93 23.55 57.86"/>
          <g>
            <polygon class="cls-6" points="11.55 46.93 26.07 52.86 26.07 61.56 36.69 68.23 49.12 63.5 60.57 68.68 59.96 78.1 56.3 70.5 47.18 66.55 37.43 71.2 25.26 63.06 24.27 55.51 11.55 46.93"/>
            <polygon class="cls-4" points="38.3 70.78 47.14 66.64 56.22 70.6 58.92 75.95 55.04 71.48 47.05 67.64 38.3 70.78"/>
            <g>
              <g>
                <path class="cls-8" d="M118.33,38.81c-1.39,2.09-2.97,3.95-4.61,5.75-1.65,1.79-3.37,3.49-5.16,5.11-1.79,1.62-3.64,3.17-5.57,4.62-1.94,1.44-3.93,2.84-6.13,3.98,1.38-2.09,2.97-3.95,4.61-5.75,1.65-1.79,3.37-3.49,5.16-5.11,1.79-1.62,3.65-3.17,5.58-4.62,1.95-1.44,3.94-2.83,6.13-3.98Z"/>
                <path class="cls-4" d="M118.83,37.98s-6.76,9.27-12.57,13.7c-5.81,4.42-10.01,6.68-10.01,6.68,0,0,6.82-2.68,11.81-6.55,4.99-3.86,10.77-13.83,10.77-13.83Z"/>
                <path class="cls-6" d="M113.68,43.58s-7.8,6.16-8.95,7.14c-1.14.98-5.22,5.01-5.22,5.01,0,0,9.4-4.91,14.17-12.15Z"/>
              </g>
              <path class="cls-6" d="M60.87,114.5c-.25-.04-6.76,7.04-6.76,7.04l1.21,6.74s-10.96,5.76-9.6,5.76,13.23-3.61,13.23-3.61l-1.48-1.23-.58-7.26,3.97-7.44Z"/>
              <polygon class="cls-4" points="57.95 129.18 58.42 122.23 60.87 114.5 56.91 121.94 57.95 129.18"/>
              <polygon class="cls-7" points="46.75 133.61 45.86 133.91 53.85 127.11 54.43 118.11 60.95 114.38 55.63 121.78 56.03 129.18 46.75 133.61"/>
              <path class="cls-6" d="M69.37,51.19c.25-.04,31.53,17.34,31.53,17.34l-1.13,7.69s10.96,5.76,9.6,5.76-13.23-3.61-13.23-3.61l1.48-1.23.58-7.26-28.82-18.68Z"/>
              <polygon class="cls-4" points="97.15 77.11 96.67 70.16 69.37 51.19 98.19 69.87 97.15 77.11"/>
              <polygon class="cls-7" points="108.34 81.54 109.23 81.84 101.24 75.03 102.67 68.23 69.29 51.07 99.47 69.71 99.06 77.11 108.34 81.54"/>
            </g>
          </g>
        </g>
      </g>
    </g>
  </g>
</svg>