<?xml version="1.0" encoding="UTF-8"?>
<svg xmlns="http://www.w3.org/2000/svg" version="1.1" xmlns:xlink="http://www.w3.org/1999/xlink" viewBox="0 0 172.79 180">
  <defs>
    <style>
      .cls-1 {
        opacity: .32;
      }

      .cls-1, .cls-2, .cls-3, .cls-4, .cls-5 {
        fill: #7c3600;
      }

      .cls-2 {
        opacity: .33;
      }

      .cls-6 {
        fill: #fde490;
      }

      .cls-7 {
        fill: url(#linear-gradient-2);
      }

      .cls-8 {
        opacity: .6;
      }

      .cls-8, .cls-9, .cls-10, .cls-11, .cls-12, .cls-13, .cls-14, .cls-15 {
        mix-blend-mode: overlay;
      }

      .cls-8, .cls-10, .cls-12, .cls-13, .cls-14, .cls-15 {
        fill: #fcf9ca;
      }

      .cls-16 {
        fill: #fffbc5;
      }

      .cls-17 {
        fill: #a74700;
      }

      .cls-18 {
        fill: url(#linear-gradient-4);
      }

      .cls-9 {
        opacity: .34;
      }

      .cls-9, .cls-11 {
        fill: #fff;
      }

      .cls-19 {
        fill: url(#linear-gradient-3);
      }

      .cls-20 {
        isolation: isolate;
      }

      .cls-10 {
        opacity: .44;
      }

      .cls-21 {
        fill: #fffc92;
      }

      .cls-12 {
        opacity: .18;
      }

      .cls-4 {
        opacity: .35;
      }

      .cls-22 {
        fill: #ffd800;
      }

      .cls-13 {
        opacity: .22;
      }

      .cls-23 {
        fill: #682700;
      }

      .cls-24 {
        fill: #c86500;
      }

      .cls-14 {
        opacity: .75;
      }

      .cls-25 {
        fill: url(#linear-gradient);
      }

      .cls-15 {
        opacity: .63;
      }

      .cls-5 {
        opacity: .46;
      }
    </style>
    <linearGradient id="linear-gradient" x1="86.39" y1="-33.03" x2="86.39" y2="176.34" gradientUnits="userSpaceOnUse">
      <stop offset="0" stop-color="#e87d00"/>
      <stop offset="1" stop-color="#ffe600"/>
    </linearGradient>
    <linearGradient id="linear-gradient-2" x1="86.4" y1="38.92" x2="86.4" y2="164.8" gradientUnits="userSpaceOnUse">
      <stop offset="0" stop-color="#fab400"/>
      <stop offset="1" stop-color="#e87d00"/>
    </linearGradient>
    <linearGradient id="linear-gradient-3" x1="108.47" y1="117.62" x2="108.47" y2="60.08" gradientUnits="userSpaceOnUse">
      <stop offset="0" stop-color="#e57d00"/>
      <stop offset="1" stop-color="#fde403"/>
    </linearGradient>
    <linearGradient id="linear-gradient-4" x1="62.89" y1="109.37" x2="62.89" y2="68.33" xlink:href="#linear-gradient-3"/>
  </defs>
  <!-- Generator: Adobe Illustrator 28.6.0, SVG Export Plug-In . SVG Version: 1.2.0 Build 709)  -->
  <g class="cls-20">
    <g id="Layer_1">
      <g>
        <g>
          <g>
            <path class="cls-3" d="M172.79,85.06l-.02-4.95h-.13c-.9-15.6-6.05-30.41-15.04-43.24l.2-.12-2.48-3.2C139.32,12.88,115.04.66,88.72.03c-.26,0-.53,0-.79-.01h-.67c-.23-.01-.46-.02-.69-.02h-.18c-22.83,0-44.36,8.68-60.63,24.45C10.38,39.37,1.36,59.02.15,80.11h-.15v16.1c0,46.2,38.76,83.79,86.4,83.79s86.4-37.59,86.4-83.79v-11.15ZM86.4,172.71c-43.62,0-79.11-34.32-79.11-76.5v-11.38l.02-1.03C7.95,41.62,43.43,7.29,86.38,7.29h.08s.12,0,.12,0c.18,0,.36,0,.54,0h.73c.23.01.45.02.69.02,22.76.55,43.83,10.52,58.45,27.53h-.02s2.48,3.22,2.48,3.22c10.24,13.25,15.79,29.07,16.04,45.74v12.4c.01,42.18-35.47,76.5-79.09,76.5Z"/>
            <g>
              <path class="cls-24" d="M168.7,83.75c-4.3-57.88-39.51-67.68-82.31-67.68S8.34,25.26,4.08,83.75h-.44v12.46c0,44.26,37.05,80.14,82.75,80.14s82.75-35.88,82.75-80.14v-12.46h-.44Z"/>
              <path class="cls-2" d="M86.55,172.91c-45.7,0-82.79-35.95-83.29-80.47-.01.92-.02,1.85-.02,2.79,0,44.94,37.3,81.36,83.31,81.36s83.31-36.43,83.31-81.36c0-.94-.01-1.86-.02-2.78-.5,44.52-37.58,80.46-83.28,80.46Z"/>
              <path class="cls-25" d="M169.15,85.01c0,44.94-37.05,81.36-82.75,81.36S3.64,129.94,3.64,85.01,40.69,3.65,86.4,3.65s82.75,36.43,82.75,81.36Z"/>
              <path class="cls-15" d="M86.4,3.65C40.69,3.65,3.64,40.07,3.64,85.01c0,.99.04,1.97.08,2.95,21.08,18.59,50.1,30.08,82.14,30.08s62.07-11.9,83.24-31.07c.02-.65.05-1.3.05-1.96,0-44.93-37.05-81.36-82.75-81.36Z"/>
              <path class="cls-14" d="M152.44,35.77C137.32,16.25,113.45,3.65,86.57,3.65S35.45,16.44,20.35,36.21c18.71,11.36,41.32,18.01,65.69,18.01s47.56-6.82,66.4-18.45Z"/>
              <path class="cls-16" d="M86.4,8.31c44.9,0,81.43,35.18,82.69,79.03.02-.78.06-1.55.06-2.33,0-44.93-37.05-81.36-82.75-81.36S3.65,40.07,3.65,85.01c0,.78.04,1.55.06,2.33C4.96,43.48,41.49,8.31,86.4,8.31Z"/>
              <path class="cls-21" d="M86.4,162.93c-45.11,0-81.77-35.5-82.71-79.64-.01.57-.04,1.14-.04,1.72,0,44.94,37.05,81.36,82.75,81.36s82.75-36.43,82.75-81.36c0-.58-.03-1.15-.04-1.72-.93,44.14-37.59,79.64-82.71,79.64Z"/>
              <path class="cls-7" d="M153.91,85c0,36.67-30.23,66.38-67.52,66.38S18.88,121.67,18.88,85,49.11,18.62,86.4,18.62s67.52,29.72,67.52,66.38Z"/>
              <path class="cls-17" d="M86.4,26.87c35.84,0,65.13,27.45,67.36,62.13.09-1.41.15-2.82.15-4.25,0-36.66-30.23-66.38-67.52-66.38S18.88,48.09,18.88,84.75c0,1.43.06,2.84.15,4.25,2.23-34.68,31.53-62.13,67.36-62.13Z"/>
              <path class="cls-21" d="M86.4,147.76c-36.64,0-66.44-28.7-67.46-64.47-.02.64-.05,1.27-.05,1.91,0,36.67,30.23,66.39,67.51,66.39s67.52-29.72,67.52-66.39c0-.64-.03-1.27-.05-1.91-1.03,35.78-30.83,64.47-67.47,64.47Z"/>
            </g>
            <g>
              <path class="cls-3" d="M51.68,9.9s2.29,6.88-6.61,12.69c-8.91,5.8-13.63,0-13.63,0l20.25-12.69Z"/>
              <path class="cls-17" d="M38.96,21.57h-4.39l-2.35,1.76s2.73,3.08,8.58,1.32c5.85-1.76,8.7-5.47,9.6-7.34.9-1.88-7.71,4.27-11.45,4.27Z"/>
            </g>
            <g>
              <path class="cls-3" d="M68.87,3.96s.28,3.69-4.84,5.46c-5.12,1.77-6.74-1.68-6.74-1.68l11.58-3.77Z"/>
              <path class="cls-17" d="M61.14,8.17c-1.85-.46-2.17-.54-2.17-.54l-1.38.58s.97,1.86,4.08,1.71c3.11-.15,4.98-1.63,5.66-2.45.68-.82-4.34,1.16-6.19.7Z"/>
            </g>
            <g>
              <path class="cls-24" d="M105.88,166.36s-.87-5.31,6.33-8.51c7.2-3.2,9.98,1.6,9.98,1.6l-16.31,6.91Z"/>
              <path class="cls-2" d="M113.63,158.05s-3.19,2.89-3.59,3.85c-.4.96-.81,1.52-2.03,1.87-1.21.35-1.94.37-1.94.37,0,0,1.33-4.13,4.62-5.74,3.29-1.61,5.67-1.66,5.67-1.66l-2.73,1.31Z"/>
            </g>
            <g>
              <path class="cls-3" d="M167.72,58.51s-5.26,1.1-7.99-3.21c-2.73-4.3,2.15-6.57,2.15-6.57l5.85,9.78Z"/>
              <path class="cls-22" d="M160.01,54.37c1.77,1.86,4.17,1.96,4.17,1.96,0,0-.12.22.15.96.28.74.35,1.27.35,1.27,0,0-3.1-.38-4.5-2.33-1.4-1.95-1.3-3.47-1.3-3.47,0,0,.78,1.27,1.12,1.62Z"/>
            </g>
            <g>
              <path class="cls-3" d="M55.75,173.62s2.33-4.85,10.06-3.34c7.74,1.51,7.26,7.03,7.26,7.03l-17.32-3.69Z"/>
              <path class="cls-23" d="M66.87,171.26s-4.27.53-5.15,1.09c-.88.56-1.53.78-2.73.37-1.2-.41-1.81-.81-1.81-.81,0,0,3.46-2.61,7.08-2.05,3.62.56,5.6,1.89,5.6,1.89l-2.99-.5Z"/>
            </g>
            <g>
              <path class="cls-24" d="M13.12,126.41s3.52-2.06,7.36,2.93c3.84,4.99,1.09,8.45,1.09,8.45l-8.45-11.38Z"/>
              <path class="cls-2" d="M20.64,130.54s-2.73-1.83-3.49-1.92c-.76-.08-1.24-.27-1.76-1.15-.52-.89-.69-1.47-.69-1.47,0,0,3.18.02,5.04,2.26,1.86,2.24,2.42,4.15,2.42,4.15l-1.52-1.87Z"/>
            </g>
            <g>
              <path class="cls-1" d="M159.52,119.23c-1.78,1.93-3.73,3.6-5.73,5.2-2.01,1.59-4.08,3.07-6.21,4.47-2.13,1.4-4.32,2.7-6.57,3.91-2.26,1.19-4.57,2.32-7.06,3.17,1.77-1.94,3.73-3.6,5.72-5.2,2.01-1.59,4.08-3.07,6.21-4.46,2.13-1.39,4.32-2.7,6.57-3.91,2.27-1.19,4.57-2.32,7.05-3.17Z"/>
              <path class="cls-6" d="M160.18,118.46s-8.53,8.49-15.32,12.16c-6.79,3.67-11.55,5.36-11.55,5.36,0,0,7.59-1.74,13.42-4.96,5.84-3.22,13.44-12.56,13.44-12.56Z"/>
              <path class="cls-3" d="M153.9,123.42s-9.15,5.15-10.5,5.99c-1.35.84-6.26,4.35-6.26,4.35,0,0,10.64-3.64,16.76-10.34Z"/>
            </g>
            <g>
              <path class="cls-3" d="M158.66,137.26l-6.41,1.28h-3.54s2.4.41,3.28.61c.88.2,3.72.31,3.99,1.07.27.75-1.15,3.59-.54,3.18.61-.4,3.24-6.14,3.24-6.14Z"/>
              <path class="cls-22" d="M151.98,139.15l-3.44-.42s3.04.86,3.21.89c.17.03,3.81.51,4,.33.18-.17-3.76-.8-3.76-.8Z"/>
            </g>
            <g>
              <g>
                <path class="cls-3" d="M4.38,64.04l9.15,8.68,5.79,3.64s-4.33-1.8-5.97-2.37c-1.64-.57-6.4-3.31-7.6-2.35-1.21.96-1.8,7.04-2.38,5.76-.58-1.28,1.01-13.35,1.01-13.35Z"/>
                <path class="cls-22" d="M13.35,73.99l6.05,2.85s-5.84-1.72-6.15-1.84c-.31-.12-6.75-3.09-6.87-3.56-.12-.47,6.96,2.55,6.96,2.55Z"/>
              </g>
              <path class="cls-24" d="M7.17,61.09s5.52,8.26,6.18,8.99c.66.73,5.98,6.28,5.98,6.28l-5.79-3.64-7.88-5.96,1.52-5.67Z"/>
            </g>
            <g>
              <g>
                <path class="cls-3" d="M111.52,174.23l2.1-10.01-.2-5.43s.91,3.62,1.35,4.93c.44,1.31.81,5.65,2.28,5.95,1.46.3,6.83-2.28,6.08-1.29-.74.99-11.62,5.84-11.62,5.84Z"/>
                <path class="cls-22" d="M114.77,163.72l-1.3-5.21s2.12,4.53,2.19,4.79c.08.25,1.19,5.77.86,6.08-.32.3-1.76-5.65-1.76-5.65Z"/>
              </g>
              <path class="cls-4" d="M107.3,174.06s3.77-7.5,4.01-8.27c.24-.77,2.16-7.28,2.16-7.28l.54,5.64-1.18,8.13-5.54,1.79Z"/>
            </g>
          </g>
          <g>
            <polygon class="cls-17" points="91.46 67.66 91.46 61.09 100.38 60.84 92.76 62.98 91.46 67.66"/>
            <polygon class="cls-15" points="92.76 62.98 92.5 63.92 93.18 65.05 93.43 63.84 101.07 60.6 92.76 62.98"/>
          </g>
          <g>
            <polygon class="cls-3" points="40.86 92.2 40.86 85.63 49.78 85.38 42.16 87.52 40.86 92.2"/>
            <polygon class="cls-15" points="42.6 87.39 43.46 88.25 50.48 85.15 42.6 87.39"/>
          </g>
          <g>
            <polygon class="cls-17" points="39.42 37.08 39.42 44.88 63.52 48.73 43.92 41.94 39.42 37.08"/>
            <polygon class="cls-14" points="39.42 44.88 68.88 49.58 37.75 47.23 39.42 44.88"/>
          </g>
          <path class="cls-12" d="M97.99,37.08s13.13,38.88,17.24,37.7c4.11-1.19,11.46-3.65,19.89-3.01,8.42.65,4.7-17.48-2.94-25.02-7.64-7.54-36.36-20.03-34.19-9.67Z"/>
          <path class="cls-12" d="M75.46,36.55s-1.31,10.78-5.01,11.37c-3.7.59-23-5.88-23.1-6.27-.1-.39,8.62-5.87,17.44-7.98,8.82-2.11,10.21-.93,10.68,2.88Z"/>
          <g>
            <path class="cls-12" d="M66.17,51.54s-22.84-7.25-29.4,0c-6.56,7.25-9.99,12.7-15.58,31.33-5.58,18.63,11.26,36.36,17.24,38.81,5.98,2.45,10.68-12.73,7.64-17.93-3.04-5.19-18.32-18.26-20.38-21.77-2.06-3.51.69-12.81,7.54-11.93,6.86.88,13.93.69,18.23.29,4.3-.39,5.41,10.24,8.31,7.22,2.91-3.02,13.45-26.03,6.38-26.03Z"/>
            <path class="cls-12" d="M58.12,113.06s25.99,25.66,27.74,26.93c1.75,1.28-7.26,6.01-19.31,3.45-12.05-2.56-17.63-7.01-17.63-9.68s9.21-20.7,9.21-20.7Z"/>
          </g>
        </g>
        <g>
          <path class="cls-3" d="M80.67,67.02l-7.68-7.17-9.51,10.93-10.51-12.32-18.66,16.72,12.38,13.71-12.7,13.38,16.88,17.19,11.34-12.48,10.72,12.41,17.2-14.14,3.54,19.96h1.17s.09.01.19.01c1.65,0,12.82-.14,20.03-3.87h0c1.04-.47,2.02-.98,2.91-1.5,2.37-1.41,4.4-3.03,6.05-4.83.68-.75,1.33-1.55,1.92-2.37,1.35-1.62,2.14-3.56,2.32-4.03.46-.88,3.34-6.91,1.14-15.13-.45-1.69-1.19-3.3-2.18-4.79-1.11-1.83-2.6-3.44-4.44-4.8h13.49v-30.66h-55.6v13.8ZM77.72,87.54l2.96-3.35v6.64l-2.96-3.28Z"/>
          <g>
            <g>
              <g>
                <g>
                  <path class="cls-24" d="M99.53,117.87l-1.71-9.63c2.28-.14,4.34-.47,6.17-1,.78-.22,1.55-.5,2.31-.83.76-.33,1.45-.73,2.06-1.19.61-.46,1.12-.99,1.52-1.61.4-.61.65-1.32.73-2.13.11-1.22-.15-2.2-.77-2.94-.63-.74-1.52-1.29-2.67-1.67-1.15-.38-2.51-.61-4.07-.71-1.56-.1-3.2-.13-4.94-.08-1.74.04-3.5.11-5.3.21-1.79.1-3.51.15-5.15.15v-36.11h41.49v16.56h-28.36v8.88c4.25,0,7.76.3,10.51.9,2.75.6,4.96,1.44,6.61,2.52,1.65,1.08,2.85,2.38,3.59,3.9.74,1.52,1.22,3.2,1.44,5.07.14,1.25.1,2.57-.1,3.96-.21,1.39-.65,2.78-1.31,4.17-.67,1.39-1.59,2.73-2.77,4.02-1.18,1.29-2.66,2.47-4.44,3.52-1.78,1.06-3.9,1.94-6.36,2.65-2.46.71-5.29,1.17-8.49,1.4Z"/>
                  <path class="cls-24" d="M94.86,123.86l-3.7-20.86,6.32-.38c1.86-.11,3.52-.38,4.95-.79.04-.01.07-.02.11-.03-1.33-.08-2.75-.1-4.23-.06-1.67.04-3.4.11-5.13.2-1.87.1-3.71.15-5.45.15h-5.64v-47.4h52.78v27.84h-17.61c1.42.55,2.68,1.2,3.82,1.94,2.51,1.65,4.38,3.72,5.57,6.15,1.01,2.08,1.67,4.38,1.97,6.86v.05c.2,1.73.15,3.55-.13,5.42-.29,1.94-.9,3.89-1.81,5.78-.9,1.88-2.14,3.69-3.69,5.39-1.55,1.7-3.48,3.23-5.73,4.57-2.18,1.3-4.77,2.38-7.68,3.22-2.83.82-6.08,1.36-9.66,1.6l-5.06.35ZM110.94,92.35c1.26.66,2.33,1.51,3.21,2.54,1.13,1.33,2.4,3.64,2.09,7.1v.07c-.16,1.49-.6,2.87-1.31,4.11.67-.77,1.19-1.56,1.56-2.34.42-.88.7-1.74.82-2.57.13-.89.16-1.73.08-2.48-.15-1.22-.45-2.31-.91-3.25-.28-.59-.81-1.12-1.61-1.65-.66-.43-1.86-1.03-3.94-1.55ZM93.37,65.97v24.65c.62-.03,1.24-.06,1.85-.08v-19.3h28.36v-5.27h-30.21Z"/>
                </g>
                <polygon class="cls-10" points="82.09 54.68 87.73 59.98 129.22 59.98 134.86 54.68 82.09 54.68"/>
                <path class="cls-10" d="M111.84,80.58l-10.97,4.94s13.23,2.55,16.58,4.65c3.35,2.1,4.64,10.51,4.91,11.8s-.38,3.19-.38,3.19l5,2.91s3.28-5.91,1.07-14.19c-2.8-10.5-16.21-13.31-16.21-13.31Z"/>
                <polygon class="cls-5" points="100.86 76.63 117.26 82.53 134.86 82.53 129.22 76.63 100.86 76.63"/>
                <path class="cls-3" d="M94.86,123.86s12.14.12,19.55-3.71c7.41-3.83,9.07-6.71,10.44-8.36,1.37-1.64,2.12-3.72,2.12-3.72l-5-2.91-21.9,11.77-5.21,6.92Z"/>
                <g>
                  <path class="cls-19" d="M99.53,117.62l-1.71-9.63c2.28-.14,4.34-.47,6.17-1,.78-.22,1.55-.5,2.31-.83.76-.33,1.45-.73,2.06-1.19.61-.46,1.12-.99,1.52-1.61.4-.61.65-1.32.73-2.13.11-1.22-.15-2.2-.77-2.94-.63-.74-1.52-1.29-2.67-1.67-1.15-.38-2.51-.61-4.07-.71-1.56-.1-3.2-.13-4.94-.08-1.74.04-3.5.11-5.3.21-1.79.1-3.51.15-5.15.15v-36.11h41.49v16.56h-28.36v8.88c4.25,0,7.76.3,10.51.9,2.75.6,4.96,1.44,6.61,2.52,1.65,1.08,2.85,2.38,3.59,3.9.74,1.52,1.22,3.2,1.44,5.07.14,1.25.1,2.57-.1,3.96-.21,1.39-.65,2.78-1.31,4.17-.67,1.39-1.59,2.73-2.77,4.02-1.18,1.29-2.66,2.47-4.44,3.52-1.78,1.06-3.9,1.94-6.36,2.65-2.46.71-5.29,1.17-8.49,1.4Z"/>
                  <path class="cls-11" d="M109.89,103.27c-.4.61-.91,1.15-1.52,1.61-.61.46-1.3.85-2.06,1.19-.76.33-1.54.61-2.31.83-1.84.53-3.89.86-6.17,1l.58,3.27c2.16-.15,4.12-.47,5.87-.98.78-.22,1.55-.5,2.31-.83.76-.33,1.45-.73,2.06-1.19.61-.46,1.12-.99,1.52-1.61.4-.61.65-1.32.73-2.13.09-.98-.06-1.8-.44-2.46-.13.47-.31.91-.57,1.3Z"/>
                  <path class="cls-11" d="M121.29,92.83c-.74-1.52-1.93-2.81-3.59-3.9-1.65-1.08-3.86-1.92-6.61-2.52-2.69-.58-6.1-.88-10.23-.9v3.29c4.25,0,7.76.3,10.51.9,2.75.6,4.96,1.44,6.61,2.52,1.65,1.08,2.85,2.38,3.59,3.9.56,1.15.97,2.4,1.23,3.75.02-.68,0-1.34-.08-1.98-.22-1.86-.7-3.55-1.44-5.07Z"/>
                  <path class="cls-11" d="M87.73,96.1c.09,0,.19,0,.28,0l1.75-32.82h39.46v-3.29h-41.49v36.11Z"/>
                </g>
              </g>
              <path class="cls-3" d="M87.73,96.19l-5.64,5.89,20.05-.32.29.05,8.14-1.68s0-3.77-6.84-4.27c-6.84-.49-16,.32-16,.32Z"/>
              <path class="cls-10" d="M91.16,102.99l6.66,5s4.29-.07,7.99-1.72c3.7-1.66,4.22-3.06,4.65-4.3.43-1.24.11-1.84.11-1.84,0,0-7.56,1.78-10.3,2.17-2,.28-9.12.69-9.12.69Z"/>
            </g>
            <path class="cls-9" d="M87.73,85.23c3.31-1.37,7.74-2.82,13.14-3.74v-4.86h28.36v-16.56h-41.49v25.15Z"/>
          </g>
          <g>
            <g>
              <g>
                <g>
                  <path class="cls-24" d="M73.77,109.62l-11.43-13.22-11.68,12.84-6.88-7.01,12.51-13.18-12.01-13.3,8.01-7.17,11.13,13.05,10.09-11.59,5.63,5.25-10.88,12.34,13.72,15.22-8.22,6.76Z"/>
                  <polygon class="cls-24" points="73.1 117.47 62.24 104.91 50.83 117.46 35.94 102.3 48.61 88.96 36.3 75.33 52.84 60.52 63.47 72.99 73.1 61.93 87.01 74.92 75.83 87.6 90.13 103.47 73.1 117.47"/>
                </g>
                <path class="cls-18" d="M73.77,109.37l-11.43-13.22-11.68,12.84-6.88-7.01,12.51-13.18-12.01-13.3,8.01-7.17,11.13,13.05,10.09-11.59,5.63,5.25-10.88,12.34,13.72,15.22-8.22,6.76Z"/>
                <polygon class="cls-11" points="77.69 76.71 79.15 75.04 73.52 69.79 63.43 81.38 52.3 68.33 44.29 75.5 46.06 77.46 52.58 71.62 63.71 84.67 73.8 73.08 77.69 76.71"/>
                <polygon class="cls-11" points="68.47 90.59 80.37 103.79 81.91 102.52 68.27 87.39 68.47 90.59"/>
                <polygon class="cls-11" points="43.87 101.89 45.61 103.66 56.67 92.01 56.3 88.81 43.87 101.89"/>
                <polygon class="cls-10" points="35.94 102.3 43.79 101.89 56.3 88.81 48.61 88.96 35.94 102.3"/>
                <polygon class="cls-3" points="50.67 109.24 50.83 117.46 62.22 104.92 62.22 96.29 50.67 109.24"/>
                <polygon class="cls-5" points="62.35 96.15 62.22 96.29 62.22 104.92 62.24 104.91 73.1 117.47 73.21 115.92 73.77 109.37 62.35 96.15"/>
                <polygon class="cls-3" points="81.99 102.52 73.77 109.37 73.77 109.37 73.1 117.47 90.13 103.47 81.99 102.52"/>
                <polygon class="cls-10" points="68.27 87.39 75.83 87.6 90.13 103.47 81.79 102.3 68.27 87.39"/>
                <polygon class="cls-8" points="36.3 75.33 44.29 75.51 52.3 68.33 52.3 68.34 52.84 60.52 36.3 75.33"/>
                <polygon class="cls-8" points="63.43 81.39 73.53 69.84 73.1 61.93 63.47 72.99 63.43 81.38 63.43 81.39"/>
                <polygon class="cls-13" points="63.43 81.39 63.43 81.38 63.47 72.99 52.84 60.52 52.3 68.34 63.43 81.39 63.43 81.39"/>
              </g>
              <polygon class="cls-13" points="79.15 75.04 73.52 70.04 73.1 61.93 87.01 74.92 79.15 75.04"/>
            </g>
            <path class="cls-9" d="M49.3,107.6c1.76-9.99,9.92-17.77,20.1-18.95l-1.13-1.26,10.88-12.34-5.63-5.25-10.09,11.59-11.13-13.05-8.01,7.17,12.01,13.3-12.51,13.18,5.51,5.61Z"/>
          </g>
        </g>
      </g>
    </g>
  </g>
</svg>