<?xml version="1.0" encoding="UTF-8"?>
<svg xmlns="http://www.w3.org/2000/svg" version="1.1" viewBox="0 0 173.35 180.58">
  <defs>
    <style>
      .cls-1 {
        fill: #fc953c;
      }

      .cls-2 {
        opacity: .65;
      }

      .cls-2, .cls-3, .cls-4 {
        fill: #4c0d00;
      }

      .cls-5 {
        isolation: isolate;
      }

      .cls-6 {
        fill: #fff;
        mix-blend-mode: overlay;
        opacity: .2;
      }

      .cls-3 {
        opacity: .33;
      }

      .cls-7 {
        fill: #a45406;
      }

      .cls-8 {
        fill: #6d1804;
      }
    </style>
  </defs>
  <!-- Generator: Adobe Illustrator 28.6.0, SVG Export Plug-In . SVG Version: 1.2.0 Build 709)  -->
  <g class="cls-5">
    <g id="Layer_1">
      <g>
        <g>
          <g>
            <path class="cls-4" d="M173.35,85.33l-.02-4.96h-.13c-.9-15.65-6.07-30.51-15.09-43.38l.2-.12-2.49-3.21C139.77,12.92,115.41.66,89.01.03c-.26,0-.53,0-.79-.01h-.67c-.23-.01-.46-.02-.69-.02h-.18c-22.91,0-44.51,8.71-60.82,24.53C10.41,39.5,1.36,59.21.15,80.36h-.15v16.16c0,46.35,38.88,84.06,86.67,84.06s86.67-37.71,86.67-84.06v-11.19ZM86.67,173.26c-43.76,0-79.36-34.43-79.36-76.74v-11.41l.02-1.03C7.98,41.75,43.57,7.31,86.66,7.31h.08s.12,0,.12,0c.18,0,.36,0,.55,0h.73c.23.01.45.02.69.02,22.83.55,43.97,10.56,58.64,27.62h-.02s2.48,3.23,2.48,3.23c10.27,13.29,15.84,29.16,16.1,45.89v12.44c.01,42.32-35.59,76.74-79.35,76.74Z"/>
            <g>
              <path class="cls-8" d="M169.24,84.02c-4.32-58.07-39.64-67.9-82.57-67.9S8.37,25.34,4.09,84.02h-.44v12.5c0,44.4,37.17,80.4,83.02,80.4s83.02-36,83.02-80.4v-12.5h-.44Z"/>
              <path class="cls-3" d="M86.82,173.46c-45.85,0-83.06-36.06-83.55-80.72-.01.92-.02,1.85-.02,2.8,0,45.08,37.42,81.62,83.58,81.62s83.57-36.55,83.57-81.62c0-.94-.01-1.87-.02-2.79-.5,44.66-37.7,80.72-83.55,80.72Z"/>
              <path class="cls-7" d="M169.69,85.28c0,45.08-37.17,81.62-83.02,81.62S3.65,130.36,3.65,85.28,40.82,3.66,86.67,3.66s83.02,36.54,83.02,81.62Z"/>
              <path class="cls-1" d="M86.67,8.33c45.05,0,81.69,35.29,82.95,79.28.02-.78.06-1.55.06-2.34,0-45.08-37.17-81.62-83.02-81.62S3.66,40.2,3.66,85.28c0,.78.04,1.56.06,2.34C4.98,43.62,41.62,8.33,86.67,8.33Z"/>
              <path class="cls-1" d="M86.67,163.45c-45.26,0-82.04-35.62-82.97-79.9-.01.58-.04,1.15-.04,1.73,0,45.08,37.17,81.62,83.02,81.62s83.02-36.54,83.02-81.62c0-.58-.03-1.15-.04-1.73-.94,44.28-37.71,79.9-82.97,79.9Z"/>
              <path class="cls-8" d="M154.4,85.28c0,36.78-30.32,66.6-67.73,66.6S18.94,122.06,18.94,85.28,49.27,18.68,86.67,18.68s67.73,29.81,67.73,66.59Z"/>
              <path class="cls-1" d="M86.67,148.23c-36.75,0-66.65-28.79-67.68-64.68-.02.64-.05,1.27-.05,1.91,0,36.78,30.33,66.6,67.73,66.6s67.73-29.81,67.73-66.6c0-.64-.03-1.28-.05-1.91-1.03,35.89-30.93,64.68-67.68,64.68Z"/>
            </g>
          </g>
          <path class="cls-4" d="M58.61,7.87l10.2-3.08s4.39,8.27,4.55,10.05c.16,1.78.97-11.18.97-11.18,0,0,17.19-1.14,21.56-1.14s20.44,6.45,22.29,7.23,2.13,5.57,2.38,5.68c.25.11,2.08,13.42,2.08,13.42l4.43-16.23s-3.31-5.31-22.59-8.95C85.2.01,72.45-.23,66.07,3.66c-6.38,3.89-7.45,4.21-7.45,4.21Z"/>
          <path class="cls-4" d="M38.49,16.75l-3.18,24.87-2.3-18.61-2.88,2.13s-7.42,6.93-8.51,8.02c-1.09,1.09-4.74,5.23-4.74,5.23,0,0-1.58,21.88-1.58,23.59s-.97,9.76-.97,11.51v7.46l-1.17-33.6v-3.73s6.28-10.09,12.67-17.39c6.39-7.3,12.67-9.48,12.67-9.48Z"/>
          <path class="cls-6" d="M23.31,89.98c-.1-6.82,4.18-25.76,6.4-25.29,2.22.47,4.57,14.36,4.57,14.36,0,0,2.22.12,4.18-9.26,1.96-9.38,4.44-22.48,7.18-25.96,2.74-3.48,6.53-7.64,6.53-7.64,0,0,.26,41.79,0,42.5-.26.71,9.66-47.15,9.66-47.15,0,0,14.23-2.23,16.58-1.88,2.35.36,4.57,70.87,4.57,70.87l5.77-67.89s1.71-3.82,3.32-3.82,12.18,1.31,12.18,1.31l4.13,57.81,5.66-53.66s3.39-4.27,4.57-.59c1.17,3.68,1.09,31.7,1.26,29.68.17-2.02,2.68-24.34,3.25-24.22.57.12,6.32,3.8,6.45,4.63.13.83-4.29,51.16-4.29,51.16,0,0-5.89-15.67-6.28-13.53-.39,2.14.13,46.77-1.31,50.81-1.44,4.04,2.74,7.36-4.44,8.01-7.18.65-15,.77-16.57-.89-1.57-1.66-3.1-6.05-3.1-6.05,0,0-3.83,9.5-9.96,9.97-6.14.47-13.45,1.31-13.71,0-.26-1.31-7.18-67.19-7.18-67.19,0,0-3.79,59-4.18,59.59-.39.59-4.11.83-8.58-2.37-4.47-3.21-10.46-38.7-10.46-38.7,0,0-4.64,24.1-6.18,22.44-1.54-1.66-9.89-18.4-10.02-27.07Z"/>
          <g>
            <path class="cls-1" d="M28.29,115.36s3.18,15.44,3.36,16.67c.17,1.23-.77,9.11.53,11.07,1.3,1.97,12.43,10.12,11.66,9.65-.76-.47-9.62-2.47-11.91-6.12-.29-.46-.27,3.41-.46,5.24-.1.89-1.39,8.25-1.39,8.25l-.21-20.5-1.57-24.26Z"/>
            <polygon class="cls-4" points="28.55 115.82 29.91 144.51 29.23 156.81 23.31 150 20.99 145.82 24.65 135.41 26.49 112.18 28.55 115.82"/>
            <path class="cls-8" d="M25.35,109.9s-3.04,15.59-3.12,18.75c-.08,3.16-1.23,17.18-1.23,17.18,0,0,4.32-10.32,4.07-11.33-.25-1.01,1.43-22.31,1.43-22.31l-1.15-2.28Z"/>
          </g>
          <path class="cls-2" d="M134.44,37.81v-.52l-2.43-11.79-.14,9.92c-6.14-5.42-13.3-9.74-21.16-12.67l-1.31-10.62-2.59,9.29c-6.36-1.94-13.12-2.99-20.14-2.99-37.4,0-67.73,29.81-67.73,66.59,0,1.43.06,2.85.15,4.26.86-13.33,5.71-25.6,13.38-35.66l2.51,19,2.33-24.67c4.8-5.03,10.39-9.32,16.57-12.69.55,5.36,1.41,14.27,1.15,15.28-.36,1.46-1.58,17.51-1.58,17.51l7.02-35.93c5.94-2.45,12.3-4.09,18.95-4.79,1.12,2.05,3.24,6.07,3.33,7.41.12,1.82.85,33.31.85,33.31l2.45-41.09c.2,0,.4,0,.6,0,6.57,0,12.92.92,18.93,2.64.88,1.72,2.29,4.8,2.46,7.21.24,3.53,1.82,25.65,1.82,25.65l1.78-30.82c7.39,2.89,14.15,7.02,20,12.14-.44,6.73-2.09,32.27-2.09,34.49,0,2.22,3.69-24.84,4.64-32.14,11.49,11.14,18.95,26.3,20.04,43.16.09-1.41.15-2.83.15-4.26,0-18.45-7.63-35.15-19.96-47.21Z"/>
          <polygon class="cls-1" points="74.28 4.56 73.44 19.7 77.11 6.05 74.28 4.56"/>
          <polygon class="cls-1" points="42.1 19.7 35.31 41.61 38.2 19.01 42.1 19.7"/>
          <polygon class="cls-1" points="19.85 36.68 14.32 80.33 16.52 41.61 19.85 36.68"/>
          <polygon class="cls-4" points="147.94 128.15 145.81 142.56 148.26 153.77 151.66 134.49 149.88 108.7 147.94 128.15"/>
          <polygon class="cls-1" points="150.85 105.62 153.2 131.23 148.99 149.64 151.1 134.39 149.72 108.3 150.85 105.62"/>
          <path class="cls-4" d="M154.4,35.28c.02-.18,2.12,30.3,1.8,33.86-.32,3.57-1.8,43.04-1.8,43.04,0,0,4.07-39.96,4.55-42.71.49-2.76,0-25.61,0-25.61l-4.55-8.58Z"/>
          <polygon class="cls-1" points="162.04 52.77 161.07 69.96 154.64 109.9 159.13 66.55 158.99 45.64 162.04 52.77"/>
          <path class="cls-4" d="M93.84,176.21s-1.22-11.86-.61-14.29c.61-2.43.61-14.02.61-14.02l-2.67-11.87s.36-38.66-.97-47.42c-1.34-8.75-.85-20.3-.85-20.3l9.73,69.45v2.53l-2.92,8.75,2.31,16.16-3.65,13.21-.97-2.19Z"/>
          <polygon class="cls-1" points="100.64 163.86 95.9 149.02 98.21 165.19 95.01 176.77 100.64 163.86"/>
          <polygon class="cls-8" points="93.59 147.89 91.44 164.79 93.91 176.62 93.59 147.89"/>
          <polygon class="cls-8" points="149.61 110.12 147.74 151.41 145.42 140.8 148.65 112.18 149.61 110.12"/>
          <polygon class="cls-8" points="34.54 17.76 33.01 23 35.17 40.54 34.54 17.76"/>
          <polygon class="cls-8" points="14.32 38.29 13.15 47.34 14.16 76.44 14.32 38.29"/>
          <polygon class="cls-8" points="122.73 8.07 118.71 10.1 122.61 28.57 122.73 8.07"/>
          <polygon class="cls-8" points="70.63 1.82 69.24 5.61 73.44 14.64 70.63 1.82"/>
          <path class="cls-4" d="M55.53,35.28s-3.27,39.11-3.28,40.14c-.01,1.03,4.82,54.41,4.82,54.41l-1.54-94.55Z"/>
          <polygon class="cls-7" points="55.79 33.16 57.27 128.64 58.87 65.93 55.79 33.16"/>
          <polygon class="cls-4" points="119.73 35.28 119.73 99.71 128.12 134.49 119.73 35.28"/>
          <polygon class="cls-7" points="127.34 96.52 119.48 35.28 127.87 134.49 127.34 96.52"/>
        </g>
        <g>
          <g>
            <polygon class="cls-4" points="83.34 42.04 76.97 59.67 84.86 44.02 83.34 42.04"/>
            <polygon class="cls-8" points="83.75 43.61 83.22 42.38 77.12 59.25 83.75 43.61"/>
            <polygon class="cls-1" points="85.54 44.96 77.12 59.25 84.78 44.19 85.54 44.96"/>
          </g>
          <g>
            <polygon class="cls-4" points="75.05 119.67 78.83 125.23 86.95 130.09 79.95 120.74 66.22 109.69 75.05 119.67"/>
            <polygon class="cls-1" points="57.86 101.76 79.38 118.27 85.54 128.39 78.88 120.28 65.19 108.89 57.86 101.76"/>
            <polygon class="cls-8" points="65.19 108.89 86 130.29 78.83 125.23 67.39 111.92 65.19 108.89"/>
          </g>
        </g>
      </g>
    </g>
  </g>
</svg>