<?xml version="1.0" encoding="UTF-8"?>
<svg xmlns="http://www.w3.org/2000/svg" version="1.1" xmlns:xlink="http://www.w3.org/1999/xlink" viewBox="0 0 172.96 180.17">
  <defs>
    <style>
      .cls-1 {
        opacity: .32;
      }

      .cls-1, .cls-2, .cls-3, .cls-4, .cls-5 {
        fill: #7c3600;
      }

      .cls-2 {
        opacity: .33;
      }

      .cls-6 {
        fill: #fde490;
      }

      .cls-7 {
        fill: url(#linear-gradient-2);
      }

      .cls-8 {
        opacity: .6;
      }

      .cls-8, .cls-9, .cls-10, .cls-11, .cls-12, .cls-13, .cls-14, .cls-15 {
        mix-blend-mode: overlay;
      }

      .cls-8, .cls-10, .cls-12, .cls-13, .cls-14, .cls-15 {
        fill: #fcf9ca;
      }

      .cls-16 {
        fill: #fffbc5;
      }

      .cls-17 {
        fill: #a74700;
      }

      .cls-18 {
        fill: url(#linear-gradient-4);
      }

      .cls-9 {
        opacity: .34;
      }

      .cls-9, .cls-11 {
        fill: #fff;
      }

      .cls-19 {
        fill: url(#linear-gradient-3);
      }

      .cls-20 {
        isolation: isolate;
      }

      .cls-10 {
        opacity: .44;
      }

      .cls-21 {
        fill: #fffc92;
      }

      .cls-12 {
        opacity: .18;
      }

      .cls-4 {
        opacity: .35;
      }

      .cls-22 {
        fill: #ffd800;
      }

      .cls-13 {
        opacity: .22;
      }

      .cls-23 {
        fill: #682700;
      }

      .cls-24 {
        fill: #c86500;
      }

      .cls-14 {
        opacity: .75;
      }

      .cls-25 {
        fill: url(#linear-gradient);
      }

      .cls-15 {
        opacity: .63;
      }

      .cls-5 {
        opacity: .46;
      }
    </style>
    <linearGradient id="linear-gradient" x1="86.48" y1="-33.06" x2="86.48" y2="176.51" gradientUnits="userSpaceOnUse">
      <stop offset="0" stop-color="#e87d00"/>
      <stop offset="1" stop-color="#ffe600"/>
    </linearGradient>
    <linearGradient id="linear-gradient-2" x1="86.48" y1="38.96" x2="86.48" y2="164.95" gradientUnits="userSpaceOnUse">
      <stop offset="0" stop-color="#fab400"/>
      <stop offset="1" stop-color="#e87d00"/>
    </linearGradient>
    <linearGradient id="linear-gradient-3" x1="107.51" y1="110.86" x2="107.51" y2="53.68" gradientUnits="userSpaceOnUse">
      <stop offset="0" stop-color="#e57d00"/>
      <stop offset="1" stop-color="#fde403"/>
    </linearGradient>
    <linearGradient id="linear-gradient-4" x1="62.95" y1="108.82" x2="62.95" y2="67.75" xlink:href="#linear-gradient-3"/>
  </defs>
  <!-- Generator: Adobe Illustrator 28.6.0, SVG Export Plug-In . SVG Version: 1.2.0 Build 709)  -->
  <g class="cls-20">
    <g id="Layer_1">
      <g>
        <g>
          <g>
            <path class="cls-3" d="M172.96,85.14l-.02-4.95h-.13c-.9-15.61-6.05-30.44-15.05-43.28l.2-.12-2.48-3.21C139.45,12.89,115.15.66,88.81.03c-.26,0-.53,0-.79-.01h-.67c-.23-.01-.46-.02-.69-.02h-.18c-22.85,0-44.41,8.69-60.68,24.47C10.39,39.41,1.36,59.07.15,80.18h-.15v16.12c0,46.25,38.79,83.87,86.48,83.87s86.48-37.62,86.48-83.87v-11.17ZM86.48,172.87c-43.66,0-79.18-34.35-79.18-76.57v-11.39l.02-1.03C7.96,41.65,43.48,7.3,86.46,7.3h.08s.12,0,.12,0c.18,0,.36,0,.54,0h.73c.23.01.45.02.69.02,22.78.55,43.87,10.53,58.5,27.56h-.02s2.48,3.22,2.48,3.22c10.25,13.26,15.8,29.1,16.06,45.78v12.42c.01,42.22-35.51,76.57-79.17,76.57Z"/>
            <g>
              <path class="cls-24" d="M168.86,83.83c-4.31-57.94-39.55-67.74-82.39-67.74S8.35,25.28,4.08,83.83h-.44v12.47c0,44.3,37.08,80.22,82.83,80.22s82.83-35.92,82.83-80.22v-12.47h-.44Z"/>
              <path class="cls-2" d="M86.63,173.07c-45.75,0-82.87-35.98-83.36-80.54-.01.92-.02,1.85-.02,2.79,0,44.98,37.33,81.44,83.39,81.44s83.39-36.46,83.39-81.44c0-.94-.01-1.87-.02-2.78-.5,44.56-37.62,80.53-83.36,80.53Z"/>
              <path class="cls-25" d="M169.31,85.09c0,44.98-37.08,81.44-82.83,81.44S3.65,130.06,3.65,85.09,40.73,3.65,86.48,3.65s82.83,36.46,82.83,81.44Z"/>
              <path class="cls-15" d="M86.48,3.65C40.73,3.65,3.65,40.11,3.65,85.09c0,.99.04,1.97.08,2.95,21.1,18.61,50.15,30.11,82.22,30.11s62.13-11.91,83.32-31.1c.02-.65.05-1.3.05-1.96,0-44.98-37.08-81.44-82.83-81.44Z"/>
              <path class="cls-14" d="M152.58,35.8C137.45,16.27,113.56,3.65,86.66,3.65S35.48,16.46,20.37,36.25c18.72,11.37,41.36,18.02,65.75,18.02s47.6-6.83,66.47-18.47Z"/>
              <path class="cls-16" d="M86.48,8.31c44.95,0,81.51,35.21,82.77,79.11.02-.78.06-1.55.06-2.33,0-44.98-37.08-81.44-82.83-81.44S3.65,40.11,3.65,85.09c0,.78.04,1.56.06,2.33C4.97,43.52,41.53,8.31,86.48,8.31Z"/>
              <path class="cls-21" d="M86.48,163.08c-45.16,0-81.85-35.54-82.79-79.72-.01.57-.04,1.14-.04,1.72,0,44.98,37.08,81.44,82.83,81.44s82.83-36.46,82.83-81.44c0-.58-.03-1.15-.04-1.72-.94,44.18-37.63,79.72-82.78,79.72Z"/>
              <path class="cls-7" d="M154.06,85.08c0,36.7-30.26,66.45-67.58,66.45S18.9,121.78,18.9,85.08,49.16,18.64,86.48,18.64s67.58,29.75,67.58,66.44Z"/>
              <path class="cls-17" d="M86.48,26.89c35.87,0,65.2,27.48,67.43,62.19.09-1.41.15-2.82.15-4.25,0-36.7-30.26-66.44-67.58-66.44S18.9,48.13,18.9,84.83c0,1.43.06,2.84.15,4.25,2.23-34.71,31.56-62.19,67.43-62.19Z"/>
              <path class="cls-21" d="M86.48,147.9c-36.67,0-66.5-28.72-67.53-64.54-.02.64-.05,1.27-.05,1.91,0,36.7,30.26,66.45,67.58,66.45s67.58-29.75,67.58-66.45c0-.64-.03-1.27-.05-1.91-1.03,35.81-30.86,64.54-67.53,64.54Z"/>
            </g>
            <g>
              <path class="cls-3" d="M51.73,9.91s2.3,6.89-6.62,12.7c-8.92,5.81-13.65,0-13.65,0l20.27-12.7Z"/>
              <path class="cls-17" d="M39,21.59h-4.39l-2.35,1.76s2.74,3.08,8.59,1.32c5.85-1.76,8.71-5.47,9.61-7.35.9-1.88-7.71,4.27-11.46,4.27Z"/>
            </g>
            <g>
              <path class="cls-3" d="M68.94,3.97s.29,3.69-4.84,5.46c-5.13,1.77-6.75-1.69-6.75-1.69l11.59-3.78Z"/>
              <path class="cls-17" d="M61.2,8.18c-1.85-.46-2.17-.54-2.17-.54l-1.38.58s.97,1.86,4.08,1.71c3.11-.15,4.98-1.63,5.66-2.45.68-.82-4.34,1.16-6.2.7Z"/>
            </g>
            <g>
              <path class="cls-24" d="M105.98,166.52s-.87-5.31,6.33-8.52c7.21-3.21,9.99,1.6,9.99,1.6l-16.32,6.92Z"/>
              <path class="cls-2" d="M113.73,158.2s-3.19,2.89-3.6,3.85c-.41.96-.81,1.52-2.03,1.88-1.22.35-1.94.37-1.94.37,0,0,1.33-4.13,4.63-5.75,3.29-1.62,5.68-1.66,5.68-1.66l-2.74,1.31Z"/>
            </g>
            <g>
              <path class="cls-3" d="M167.87,58.57s-5.27,1.1-8-3.21c-2.73-4.31,2.15-6.58,2.15-6.58l5.85,9.79Z"/>
              <path class="cls-22" d="M160.16,54.42c1.78,1.86,4.17,1.96,4.17,1.96,0,0-.12.22.15.96.28.75.35,1.27.35,1.27,0,0-3.1-.38-4.5-2.34-1.4-1.95-1.3-3.48-1.3-3.48,0,0,.78,1.27,1.13,1.63Z"/>
            </g>
            <g>
              <path class="cls-3" d="M55.8,173.78s2.33-4.85,10.07-3.35c7.74,1.51,7.26,7.04,7.26,7.04l-17.34-3.69Z"/>
              <path class="cls-23" d="M66.93,171.42s-4.27.54-5.16,1.09c-.88.56-1.54.78-2.74.37-1.2-.41-1.81-.81-1.81-.81,0,0,3.46-2.62,7.09-2.05,3.63.56,5.6,1.89,5.6,1.89l-2.99-.5Z"/>
            </g>
            <g>
              <path class="cls-24" d="M13.13,126.53s3.52-2.06,7.36,2.93c3.84,4.99,1.09,8.46,1.09,8.46l-8.46-11.39Z"/>
              <path class="cls-2" d="M20.66,130.67s-2.73-1.84-3.49-1.92c-.76-.08-1.24-.27-1.76-1.15-.52-.89-.69-1.47-.69-1.47,0,0,3.18.02,5.05,2.27,1.86,2.24,2.42,4.15,2.42,4.15l-1.52-1.87Z"/>
            </g>
            <g>
              <path class="cls-1" d="M159.67,119.34c-1.78,1.94-3.73,3.6-5.73,5.21-2.01,1.59-4.08,3.07-6.21,4.47-2.13,1.4-4.32,2.71-6.58,3.91-2.27,1.19-4.57,2.32-7.06,3.17,1.78-1.94,3.73-3.61,5.73-5.21,2.01-1.59,4.08-3.07,6.22-4.47,2.13-1.4,4.32-2.7,6.58-3.91,2.27-1.19,4.57-2.32,7.06-3.18Z"/>
              <path class="cls-6" d="M160.33,118.57s-8.54,8.5-15.33,12.17c-6.8,3.67-11.56,5.37-11.56,5.37,0,0,7.59-1.74,13.44-4.96,5.84-3.22,13.45-12.57,13.45-12.57Z"/>
              <path class="cls-3" d="M154.05,123.54s-9.16,5.16-10.51,6c-1.35.84-6.26,4.35-6.26,4.35,0,0,10.65-3.65,16.77-10.35Z"/>
            </g>
            <g>
              <path class="cls-3" d="M158.81,137.39l-6.42,1.28h-3.55s2.4.41,3.28.61c.88.2,3.72.31,3.99,1.07.27.75-1.15,3.59-.54,3.19.61-.41,3.24-6.15,3.24-6.15Z"/>
              <path class="cls-22" d="M152.13,139.28l-3.44-.42s3.04.86,3.21.89c.17.03,3.82.51,4,.33.18-.17-3.76-.8-3.76-.8Z"/>
            </g>
            <g>
              <g>
                <path class="cls-3" d="M4.38,64.1l9.16,8.68,5.79,3.64s-4.34-1.8-5.98-2.37c-1.64-.57-6.4-3.31-7.61-2.35-1.21.96-1.81,7.05-2.38,5.76-.58-1.28,1.02-13.37,1.02-13.37Z"/>
                <path class="cls-22" d="M13.36,74.06l6.06,2.85s-5.84-1.72-6.15-1.84c-.31-.12-6.75-3.09-6.87-3.56-.12-.47,6.97,2.55,6.97,2.55Z"/>
              </g>
              <path class="cls-24" d="M7.18,61.15s5.52,8.26,6.18,8.99c.66.73,5.98,6.29,5.98,6.29l-5.79-3.64-7.89-5.96,1.52-5.68Z"/>
            </g>
            <g>
              <g>
                <path class="cls-3" d="M111.62,174.39l2.11-10.02-.2-5.43s.91,3.62,1.35,4.94c.44,1.32.81,5.66,2.28,5.96,1.46.3,6.84-2.28,6.09-1.29-.74.99-11.63,5.84-11.63,5.84Z"/>
                <path class="cls-22" d="M114.88,163.88l-1.3-5.22s2.12,4.54,2.19,4.79c.08.25,1.19,5.77.86,6.08-.32.31-1.76-5.65-1.76-5.65Z"/>
              </g>
              <path class="cls-4" d="M107.4,174.23s3.78-7.51,4.02-8.28c.24-.77,2.17-7.29,2.17-7.29l.54,5.64-1.18,8.13-5.54,1.79Z"/>
            </g>
          </g>
          <g>
            <polygon class="cls-17" points="91.54 67.72 91.54 61.15 100.47 60.9 92.85 63.04 91.54 67.72"/>
            <polygon class="cls-15" points="92.85 63.04 92.58 63.98 93.27 65.11 93.52 63.9 101.17 60.66 92.85 63.04"/>
          </g>
          <g>
            <polygon class="cls-3" points="40.9 92.29 40.9 85.71 49.83 85.46 42.2 87.6 40.9 92.29"/>
            <polygon class="cls-15" points="42.64 87.47 43.5 88.33 50.52 85.23 42.64 87.47"/>
          </g>
          <g>
            <polygon class="cls-17" points="39.46 37.11 39.46 44.93 63.58 48.78 43.96 41.98 39.46 37.11"/>
            <polygon class="cls-14" points="39.46 44.93 68.94 49.63 37.78 47.28 39.46 44.93"/>
          </g>
          <path class="cls-12" d="M98.08,37.11s13.14,38.92,17.26,37.73c4.12-1.19,11.47-3.66,19.9-3.01,8.43.65,4.71-17.49-2.94-25.04-7.65-7.55-36.39-20.05-34.22-9.68Z"/>
          <path class="cls-12" d="M75.53,36.59s-1.31,10.79-5.02,11.38c-3.71.59-23.02-5.88-23.12-6.28-.1-.39,8.63-5.88,17.45-7.99,8.82-2.11,10.22-.93,10.69,2.89Z"/>
          <g>
            <path class="cls-12" d="M66.23,51.59s-22.86-7.26-29.43,0c-6.57,7.26-10,12.71-15.59,31.36-5.59,18.65,11.28,36.39,17.26,38.84,5.98,2.45,10.69-12.75,7.65-17.94-3.04-5.2-18.34-18.28-20.39-21.79-2.06-3.51.69-12.82,7.55-11.94,6.86.88,13.95.69,18.25.29,4.3-.39,5.41,10.25,8.32,7.23,2.91-3.02,13.46-26.05,6.39-26.05Z"/>
            <path class="cls-12" d="M58.17,113.17s26.01,25.68,27.76,26.96c1.75,1.28-7.27,6.02-19.33,3.45-12.06-2.57-17.65-7.02-17.65-9.69s9.22-20.72,9.22-20.72Z"/>
          </g>
        </g>
        <g>
          <path class="cls-3" d="M50.92,118.92l11.36-12.49,10.73,12.42,11.86-9.76v9.03h48.51l-.4-24.39h-3.6c.69-.92,1.37-1.87,2.03-2.85,1.29-1.91,2.41-3.92,3.34-5.97.98-2.18,1.71-4.45,2.16-6.73.5-2.54.57-5.11.2-7.63-.48-3.29-1.31-6.21-2.44-8.7-1.15-2.53-2.57-4.74-4.21-6.57-.21-.23-.44-.48-.69-.74l-.03-.04c-.29-.29-.59-.59-.93-.9l-.07-.06c-.05-.05-.1-.1-.16-.14-.11-.1-.21-.19-.32-.28l-.07-.06c-.09-.07-.17-.15-.26-.22-.11-.09-.23-.19-.34-.28-.11-.09-.22-.18-.34-.26-.11-.08-.22-.16-.33-.24-.13-.09-.25-.18-.38-.27l-.04-.03c-.09-.06-.17-.12-.26-.18-.15-.1-.3-.2-.45-.3l-.08-.05c-.06-.04-.12-.08-.18-.11-.24-.15-.48-.29-.72-.43-1.9-1.08-3.89-1.92-5.93-2.51-1.92-.55-3.87-.92-5.8-1.1-1.71-.16-3.36-.24-4.91-.24-2.47,0-4.89.23-7.19.67-2.18.42-4.28.98-6.23,1.66-1.96.68-3.8,1.47-5.49,2.35-1.6.83-12.33,8.01-13.55,8.82l-.88.59-1.76-1.65-9.52,10.94-10.52-12.33-18.68,16.74,12.39,13.72-12.72,13.39,16.9,17.21ZM108.55,80.12c-.18.79-.56,1.64-1.11,2.53-.72,1.16-1.61,2.3-2.64,3.39-1.1,1.17-2.32,2.28-3.63,3.31-1.35,1.05-2.71,1.99-4.04,2.77-1.29.76-2.54,1.38-3.72,1.84-1.16.46-1.83.57-2.13.6l-6.14.57-7.35-8.15,8.26-9.37,7.28,10.4,5.95-5.7c.97-.93,2.09-1.79,3.33-2.55.65-.4,1.32-.75,1.99-1.04,1.48-.58,2.38-.73,2.86-.77.14,0,.27,0,.4,0,.06,0,.1,0,.14.02.07.08.14.16.21.23.07.08.13.17.19.25l.07.11s.03.05.04.08l.02.03s.02.04.03.08c0,.01.01.03.01.03.11.44.1.85-.01,1.34Z"/>
          <g>
            <g>
              <path class="cls-24" d="M126.2,111.11h-34.27v-9.47c1.2-.11,2.55-.47,4.07-1.06,1.52-.6,3.08-1.37,4.7-2.32,1.61-.95,3.22-2.05,4.82-3.3,1.6-1.25,3.07-2.59,4.42-4.03,1.35-1.43,2.51-2.93,3.49-4.49.97-1.56,1.64-3.12,2-4.67.36-1.56.36-3.09,0-4.59-.36-1.5-1.21-2.92-2.55-4.26-1.09-1.11-2.41-1.75-3.99-1.92-1.57-.17-3.21,0-4.93.5-1.71.5-3.4,1.27-5.07,2.3-1.67,1.03-3.17,2.18-4.51,3.46l-9.64-13.77c.28-.39.77-.9,1.46-1.52.7-.63,1.57-1.29,2.63-2,1.06-.71,2.28-1.43,3.67-2.15,1.39-.72,2.91-1.37,4.55-1.94,1.64-.57,3.39-1.04,5.26-1.4,1.86-.36,3.81-.54,5.84-.54,1.34,0,2.75.07,4.26.21,1.5.14,3.01.42,4.51.86,1.5.43,2.96,1.05,4.38,1.86,1.42.81,2.71,1.86,3.88,3.17,1.17,1.31,2.18,2.91,3.05,4.8.86,1.89,1.49,4.16,1.88,6.8.25,1.73.2,3.47-.15,5.24-.35,1.77-.9,3.5-1.67,5.2-.77,1.7-1.68,3.34-2.75,4.93-1.07,1.59-2.18,3.08-3.32,4.47-2.7,3.28-5.84,6.41-9.43,9.39h13.23l.17,10.27Z"/>
              <path class="cls-24" d="M131.94,116.76h-45.66v-20.27l5.13-.48c.45-.04,1.26-.2,2.52-.69,1.24-.49,2.56-1.14,3.91-1.94,1.39-.81,2.8-1.78,4.2-2.87,1.37-1.07,2.65-2.23,3.79-3.45,1.09-1.16,2.03-2.37,2.81-3.61.64-1.02,1.07-2.02,1.29-2.96.16-.71.17-1.34.01-1.99-.14-.58-.65-1.18-1.05-1.58l-.05-.05c-.14-.14-.24-.22-.54-.25-.84-.09-1.74.01-2.74.31-1.22.36-2.46.92-3.69,1.68-1.32.81-2.52,1.74-3.56,2.73l-4.76,4.56-17.05-24.35s11.84-7.93,13.41-8.74c1.63-.85,3.41-1.61,5.3-2.27,1.89-.66,3.92-1.2,6.04-1.61,2.21-.43,4.54-.65,6.92-.65,1.5,0,3.11.08,4.78.23,1.85.17,3.71.53,5.55,1.05,1.93.55,3.82,1.35,5.62,2.38,1.95,1.11,3.73,2.56,5.3,4.32,1.54,1.73,2.88,3.82,3.97,6.22,1.08,2.37,1.86,5.17,2.33,8.32.34,2.36.28,4.77-.19,7.15-.43,2.18-1.12,4.35-2.06,6.43-.89,1.98-1.98,3.92-3.22,5.76-1.17,1.73-2.39,3.37-3.63,4.89-.04.05-.09.11-.13.16h5.12l.35,21.56ZM116.9,68.95c2.06,2.07,3.42,4.39,4.02,6.91.57,2.36.57,4.78.01,7.19-.09.38-.19.76-.3,1.13.08-.12.16-.23.24-.35.89-1.31,1.66-2.69,2.29-4.09.58-1.29,1.01-2.63,1.28-3.97.23-1.15.26-2.24.1-3.34-.31-2.09-.79-3.87-1.43-5.27-.62-1.36-1.34-2.5-2.12-3.38-.76-.86-1.57-1.52-2.46-2.03-1.02-.58-2.08-1.03-3.15-1.34-1.16-.33-2.32-.55-3.47-.66-1.32-.12-2.58-.18-3.74-.18-1.66,0-3.26.15-4.77.44-1.59.31-3.1.71-4.48,1.19-1.38.48-2.65,1.02-3.8,1.62-1.06.55-2,1.09-2.81,1.62l3.32,4.74c.1-.06.2-.13.31-.19,2.09-1.29,4.26-2.27,6.45-2.91,2.41-.71,4.81-.94,7.11-.7,2.85.3,5.41,1.54,7.41,3.57Z"/>
            </g>
            <path class="cls-5" d="M133.38,62.48c-1.1-2.4-2.43-4.49-3.97-6.22-.22-.24-.44-.48-.66-.71l-4.86,3.66s-3.39,0-1.55,2.82c1.84,2.82,5.65,14.47,3.39,20.83-2.26,6.35-12.89,17.64-12.89,17.64l13.63-5.3c.04-.05.09-.11.13-.16,1.24-1.52,2.47-3.16,3.63-4.89,1.24-1.84,2.33-3.78,3.22-5.76.94-2.08,1.63-4.24,2.06-6.43.47-2.39.54-4.79.19-7.15-.47-3.15-1.25-5.95-2.33-8.32Z"/>
            <path class="cls-8" d="M102.26,55.55c.85,0,21.63,3.66,21.63,3.66l4.86-3.66c-1.4-1.44-2.96-2.65-4.64-3.61-1.8-1.02-3.69-1.82-5.62-2.38-1.83-.53-3.7-.88-5.55-1.05-1.67-.15-3.28-.23-4.78-.23-2.38,0-4.71.22-6.92.65-2.12.41-4.15.95-6.04,1.61-1.89.66-3.67,1.42-5.3,2.27-1.57.82-13.41,8.74-13.41,8.74l.77.12,7.49,1.48s16.66-7.6,17.51-7.59Z"/>
            <polygon class="cls-5" points="94.39 77.01 84.75 63.14 76.5 61.54 93.54 85.9 94.39 77.01"/>
            <polygon class="cls-5" points="131.59 95.19 126.03 100.5 126.03 110.86 131.94 116.76 131.59 95.19"/>
            <path class="cls-3" d="M126.2,111.11s-34.55-.34-34.27-.34l-5.65,5.99h45.66l-5.74-5.65Z"/>
            <path class="cls-10" d="M103.55,102.15c1.48-.56,10.8-7.35,12.14-8.76s2.61-13.41,2.54-13.84c-.07-.42-4.66-7.67-4.66-7.67l-4.29,5.47c.29.35.56.75.65,1.15.16.65.15,1.29-.01,1.99-.22.94-.65,1.94-1.29,2.96-.77,1.24-1.72,2.45-2.81,3.61-1.15,1.22-2.42,2.38-3.79,3.45-1.4,1.09-2.81,2.06-4.2,2.87-1.36.8-2.67,1.45-3.91,1.94-1.26.5-2.06.65-2.52.69l-5.13.48,5.65,4.8s10.14,1.41,11.62.85Z"/>
            <path class="cls-3" d="M109.28,77.35l3.6-4.68s-2.37-2.78-7.28-1.8c-4.91.98-8.05,3.56-8.05,3.56l-3.16,2.58-.85,8.89s6.14-6.48,9.02-7.8c6.32-2.89,6.72-.75,6.72-.75Z"/>
            <polygon class="cls-10" points="131.59 95.19 126.03 100.5 112.83 100.5 126.47 95.19 131.59 95.19"/>
            <path class="cls-19" d="M126.2,110.86h-34.27v-9.47c1.2-.11,2.55-.47,4.07-1.06,1.52-.6,3.08-1.37,4.7-2.32,1.61-.95,3.22-2.05,4.82-3.3,1.6-1.25,3.07-2.59,4.42-4.03,1.35-1.43,2.51-2.93,3.49-4.49.97-1.56,1.64-3.12,2-4.67.36-1.56.36-3.09,0-4.59-.36-1.5-1.21-2.92-2.55-4.26-1.09-1.11-2.41-1.75-3.99-1.92-1.57-.17-3.21,0-4.93.5-1.71.5-3.4,1.27-5.07,2.3-1.67,1.03-3.17,2.18-4.51,3.46l-9.64-13.77c.28-.39.77-.9,1.46-1.52.7-.63,1.57-1.29,2.63-2,1.06-.71,2.28-1.43,3.67-2.15,1.39-.72,2.91-1.37,4.55-1.94,1.64-.57,3.39-1.04,5.26-1.4,1.86-.36,3.81-.54,5.84-.54,1.34,0,2.75.07,4.26.21,1.5.14,3.01.42,4.51.86,1.5.43,2.96,1.05,4.38,1.86,1.42.81,2.71,1.86,3.88,3.17,1.17,1.31,2.18,2.91,3.05,4.8.86,1.89,1.49,4.16,1.88,6.8.25,1.73.2,3.47-.15,5.24-.35,1.77-.9,3.5-1.67,5.2-.77,1.7-1.68,3.34-2.75,4.93-1.07,1.59-2.18,3.08-3.32,4.47-2.7,3.28-5.84,6.41-9.43,9.39h13.23l.17,10.27Z"/>
            <path class="cls-11" d="M126.03,100.5h-13.2c-1.18,1.12-2.42,2.22-3.72,3.29h16.97l-.05-3.29Z"/>
            <path class="cls-11" d="M86.49,64.91c.7-.63,1.57-1.29,2.63-2,1.06-.71,2.28-1.43,3.67-2.15,1.39-.72,2.91-1.37,4.55-1.94,1.64-.57,3.39-1.04,5.26-1.4,1.86-.36,3.81-.54,5.84-.54,1.34,0,2.75.07,4.26.21,1.5.14,3.01.42,4.51.86,1.5.43,2.96,1.05,4.38,1.86,1.42.81,2.71,1.86,3.88,3.17,1.17,1.31,2.18,2.91,3.05,4.8.77,1.7,1.35,3.7,1.75,6,.02-.83-.03-1.66-.15-2.49-.39-2.64-1.02-4.91-1.88-6.8-.86-1.89-1.88-3.49-3.05-4.8-1.17-1.31-2.46-2.36-3.88-3.17-1.42-.81-2.88-1.43-4.38-1.86-1.5-.43-3.01-.72-4.51-.86-1.5-.14-2.92-.21-4.26-.21-2.03,0-3.98.18-5.84.54-1.86.36-3.62.83-5.26,1.4-1.64.57-3.16,1.22-4.55,1.94-1.39.72-2.62,1.44-3.67,2.15-1.06.71-1.93,1.38-2.63,2-.7.63-1.18,1.13-1.46,1.52l1.44,2.05c.1-.09.2-.18.31-.28Z"/>
            <path class="cls-11" d="M115.71,80.13c-.01-.06-.04-.12-.05-.18-.04.49-.12.98-.23,1.48-.36,1.56-1.03,3.12-2,4.67-.97,1.56-2.14,3.05-3.49,4.49-1.35,1.43-2.82,2.78-4.42,4.03-1.6,1.25-3.21,2.35-4.82,3.3-1.61.95-3.18,1.72-4.7,2.32-1.52.6-2.87.95-4.07,1.06v9.47h.28v-6.18c1.2-.11,2.55-.47,4.07-1.06,1.52-.6,3.08-1.37,4.7-2.32,1.61-.95,3.22-2.05,4.82-3.3,1.6-1.25,3.07-2.59,4.42-4.03,1.35-1.43,2.51-2.93,3.49-4.49.97-1.56,1.64-3.12,2-4.67.36-1.56.36-3.09,0-4.59Z"/>
            <path class="cls-9" d="M98.9,73.54c1.67-1.03,3.36-1.79,5.07-2.3,1.71-.5,3.35-.67,4.93-.5,1.57.17,2.9.81,3.99,1.92,1.34,1.34,2.18,2.75,2.55,4.26.3,1.25.35,2.52.15,3.81,4.54-.51,8.93-.24,12.88.72.69-1.59,1.19-3.2,1.52-4.85.35-1.77.4-3.51.15-5.24-.39-2.64-1.02-4.91-1.88-6.8-.86-1.89-1.88-3.49-3.05-4.8-1.17-1.31-2.46-2.36-3.88-3.17-1.42-.81-2.88-1.43-4.38-1.86-1.5-.43-3.01-.72-4.51-.86-1.5-.14-2.92-.21-4.26-.21-2.03,0-3.98.18-5.84.54-1.86.36-3.62.83-5.26,1.4-1.64.57-3.16,1.22-4.55,1.94-1.39.72-2.62,1.44-3.67,2.15-1.06.71-1.93,1.38-2.63,2-.7.63-1.18,1.13-1.46,1.52l9.64,13.77c1.34-1.28,2.84-2.43,4.51-3.46Z"/>
          </g>
          <g>
            <g>
              <g>
                <path class="cls-24" d="M73.84,109.07l-11.44-13.23-11.69,12.86-6.89-7.01,12.52-13.19-12.02-13.32,8.01-7.18,11.14,13.06,10.1-11.6,5.63,5.26-10.89,12.36,13.73,15.24-8.22,6.76Z"/>
                <polygon class="cls-24" points="73.17 116.94 62.3 104.35 50.88 116.92 35.98 101.75 48.66 88.4 36.34 74.76 52.89 59.93 63.53 72.41 73.17 61.34 87.09 74.34 75.9 87.03 90.22 102.92 73.17 116.94"/>
              </g>
              <path class="cls-18" d="M73.84,108.82l-11.44-13.23-11.69,12.86-6.89-7.01,12.52-13.19-12.02-13.32,8.01-7.18,11.14,13.06,10.1-11.6,5.63,5.26-10.89,12.36,13.73,15.24-8.22,6.76Z"/>
              <polygon class="cls-11" points="77.76 76.13 79.23 74.47 73.59 69.21 63.49 80.81 52.35 67.75 44.33 74.92 46.1 76.89 52.63 71.04 63.77 84.1 73.87 72.5 77.76 76.13"/>
              <polygon class="cls-11" points="68.53 90.02 80.44 103.23 81.99 101.97 68.33 86.82 68.53 90.02"/>
              <polygon class="cls-11" points="43.92 101.34 45.65 103.1 56.72 91.44 56.35 88.24 43.92 101.34"/>
              <polygon class="cls-10" points="35.98 101.75 43.83 101.34 56.35 88.24 48.66 88.4 35.98 101.75"/>
              <polygon class="cls-3" points="50.72 108.7 50.88 116.92 62.28 104.37 62.28 95.73 50.72 108.7"/>
              <polygon class="cls-5" points="62.4 95.59 62.28 95.73 62.28 104.37 62.3 104.35 73.17 116.94 73.28 115.38 73.84 108.82 62.4 95.59"/>
              <polygon class="cls-3" points="82.06 101.97 73.84 108.82 73.84 108.82 73.17 116.94 90.22 102.92 82.06 101.97"/>
              <polygon class="cls-10" points="68.33 86.82 75.9 87.03 90.22 102.92 81.87 101.75 68.33 86.82"/>
              <polygon class="cls-8" points="36.34 74.76 44.33 74.93 52.35 67.75 52.35 67.75 52.89 59.93 36.34 74.76"/>
              <polygon class="cls-8" points="63.49 80.81 73.6 69.25 73.17 61.34 63.53 72.41 63.49 80.81 63.49 80.81"/>
              <polygon class="cls-13" points="63.49 80.81 63.49 80.81 63.53 72.41 52.89 59.93 52.35 67.75 63.49 80.81 63.49 80.81"/>
            </g>
            <polygon class="cls-13" points="79.23 74.47 73.59 69.46 73.17 61.34 87.09 74.34 79.23 74.47"/>
          </g>
        </g>
      </g>
    </g>
  </g>
</svg>