<?xml version="1.0" encoding="UTF-8"?>
<svg xmlns="http://www.w3.org/2000/svg" version="1.1" xmlns:xlink="http://www.w3.org/1999/xlink" viewBox="0 0 173 180.22">
  <defs>
    <style>
      .cls-1 {
        opacity: .32;
      }

      .cls-1, .cls-2, .cls-3, .cls-4, .cls-5 {
        fill: #7c3600;
      }

      .cls-2 {
        opacity: .33;
      }

      .cls-6 {
        fill: #fde490;
      }

      .cls-7 {
        fill: url(#linear-gradient-2);
      }

      .cls-8 {
        opacity: .6;
      }

      .cls-8, .cls-9, .cls-10, .cls-11, .cls-12, .cls-13, .cls-14, .cls-15 {
        mix-blend-mode: overlay;
      }

      .cls-8, .cls-10, .cls-12, .cls-13, .cls-14, .cls-15 {
        fill: #fcf9ca;
      }

      .cls-16 {
        fill: #fffbc5;
      }

      .cls-17 {
        fill: #a74700;
      }

      .cls-18 {
        fill: url(#linear-gradient-4);
      }

      .cls-9 {
        opacity: .34;
      }

      .cls-9, .cls-11 {
        fill: #fff;
      }

      .cls-19 {
        fill: url(#linear-gradient-3);
      }

      .cls-20 {
        isolation: isolate;
      }

      .cls-10 {
        opacity: .44;
      }

      .cls-21 {
        fill: #fffc92;
      }

      .cls-12 {
        opacity: .18;
      }

      .cls-4 {
        opacity: .35;
      }

      .cls-22 {
        fill: #ffd800;
      }

      .cls-13 {
        opacity: .22;
      }

      .cls-23 {
        fill: #682700;
      }

      .cls-24 {
        fill: #c86500;
      }

      .cls-14 {
        opacity: .75;
      }

      .cls-25 {
        fill: url(#linear-gradient);
      }

      .cls-15 {
        opacity: .63;
      }

      .cls-5 {
        opacity: .46;
      }
    </style>
    <linearGradient id="linear-gradient" x1="86.5" y1="-33.07" x2="86.5" y2="176.55" gradientUnits="userSpaceOnUse">
      <stop offset="0" stop-color="#e87d00"/>
      <stop offset="1" stop-color="#ffe600"/>
    </linearGradient>
    <linearGradient id="linear-gradient-2" x1="86.5" y1="38.97" x2="86.5" y2="164.99" gradientUnits="userSpaceOnUse">
      <stop offset="0" stop-color="#fab400"/>
      <stop offset="1" stop-color="#e87d00"/>
    </linearGradient>
    <linearGradient id="linear-gradient-3" x1="108.61" y1="111.56" x2="108.61" y2="54.02" gradientUnits="userSpaceOnUse">
      <stop offset="0" stop-color="#e57d00"/>
      <stop offset="1" stop-color="#fde403"/>
    </linearGradient>
    <linearGradient id="linear-gradient-4" x1="62.96" y1="108.85" x2="62.96" y2="67.77" xlink:href="#linear-gradient-3"/>
  </defs>
  <!-- Generator: Adobe Illustrator 28.6.0, SVG Export Plug-In . SVG Version: 1.2.0 Build 709)  -->
  <g class="cls-20">
    <g id="Layer_1">
      <g>
        <g>
          <g>
            <path class="cls-3" d="M173,85.16l-.02-4.96h-.13c-.9-15.62-6.06-30.45-15.06-43.29l.2-.12-2.48-3.21C139.49,12.89,115.18.66,88.83.03c-.26,0-.53,0-.79-.01h-.67c-.23-.01-.46-.02-.69-.02h-.18c-22.86,0-44.42,8.69-60.7,24.48C10.39,39.42,1.36,59.09.15,80.2h-.15v16.12c0,46.26,38.8,83.89,86.5,83.89s86.5-37.63,86.5-83.89v-11.17ZM86.5,172.92c-43.67,0-79.2-34.36-79.2-76.59v-11.39l.02-1.03C7.96,41.67,43.49,7.3,86.48,7.3h.08s.12,0,.12,0c.18,0,.36,0,.54,0h.73c.23.01.45.02.69.02,22.78.55,43.89,10.54,58.52,27.57h-.02s2.48,3.22,2.48,3.22c10.25,13.27,15.81,29.1,16.06,45.8v12.42c.01,42.23-35.52,76.59-79.19,76.59Z"/>
            <g>
              <path class="cls-24" d="M168.91,83.85c-4.31-57.95-39.56-67.76-82.41-67.76S8.35,25.29,4.08,83.85h-.44v12.47c0,44.32,37.09,80.24,82.85,80.24s82.85-35.92,82.85-80.24v-12.47h-.44Z"/>
              <path class="cls-2" d="M86.65,173.11c-45.76,0-82.89-35.99-83.39-80.56-.01.92-.02,1.85-.02,2.79,0,44.99,37.34,81.46,83.41,81.46s83.41-36.47,83.41-81.46c0-.94-.01-1.87-.02-2.78-.5,44.57-37.63,80.56-83.38,80.56Z"/>
              <path class="cls-25" d="M169.35,85.11c0,44.99-37.09,81.46-82.85,81.46S3.65,130.1,3.65,85.11,40.74,3.65,86.5,3.65s82.85,36.47,82.85,81.46Z"/>
              <path class="cls-15" d="M86.5,3.65C40.74,3.65,3.65,40.12,3.65,85.11c0,.99.04,1.97.08,2.95,21.11,18.61,50.16,30.12,82.24,30.12s62.15-11.91,83.34-31.11c.02-.65.05-1.3.05-1.96,0-44.99-37.09-81.46-82.85-81.46Z"/>
              <path class="cls-14" d="M152.62,35.81C137.49,16.27,113.59,3.65,86.68,3.65S35.49,16.46,20.38,36.26c18.73,11.37,41.37,18.03,65.76,18.03s47.62-6.83,66.48-18.47Z"/>
              <path class="cls-16" d="M86.5,8.32c44.96,0,81.53,35.22,82.79,79.13.02-.78.06-1.55.06-2.33,0-44.99-37.09-81.46-82.85-81.46S3.65,40.12,3.65,85.11c0,.78.04,1.56.06,2.33C4.97,43.54,41.54,8.32,86.5,8.32Z"/>
              <path class="cls-21" d="M86.5,163.12c-45.17,0-81.87-35.55-82.81-79.74-.01.57-.04,1.14-.04,1.72,0,44.99,37.09,81.46,82.85,81.46s82.85-36.47,82.85-81.46c0-.58-.03-1.15-.04-1.72-.94,44.19-37.64,79.74-82.81,79.74Z"/>
              <path class="cls-7" d="M154.09,85.11c0,36.71-30.26,66.46-67.6,66.46S18.9,121.82,18.9,85.11,49.17,18.65,86.5,18.65s67.6,29.76,67.6,66.46Z"/>
              <path class="cls-17" d="M86.5,26.9c35.88,0,65.21,27.49,67.44,62.2.09-1.41.15-2.82.15-4.25,0-36.71-30.26-66.46-67.6-66.46S18.9,48.15,18.9,84.85c0,1.43.06,2.85.15,4.25,2.23-34.72,31.57-62.2,67.44-62.2Z"/>
              <path class="cls-21" d="M86.5,147.94c-36.68,0-66.51-28.73-67.54-64.55-.02.64-.05,1.27-.05,1.91,0,36.71,30.27,66.46,67.6,66.46s67.6-29.76,67.6-66.46c0-.64-.03-1.27-.05-1.91-1.03,35.82-30.87,64.55-67.55,64.55Z"/>
            </g>
            <g>
              <path class="cls-3" d="M51.74,9.91s2.3,6.89-6.62,12.7c-8.92,5.81-13.65,0-13.65,0l20.27-12.7Z"/>
              <path class="cls-17" d="M39.01,21.6h-4.39l-2.35,1.76s2.74,3.08,8.59,1.32c5.85-1.76,8.71-5.47,9.62-7.35.9-1.88-7.71,4.27-11.46,4.27Z"/>
            </g>
            <g>
              <path class="cls-3" d="M68.96,3.97s.29,3.69-4.85,5.47c-5.13,1.77-6.75-1.69-6.75-1.69l11.6-3.78Z"/>
              <path class="cls-17" d="M61.21,8.18c-1.85-.46-2.17-.54-2.17-.54l-1.38.58s.97,1.86,4.09,1.71c3.11-.15,4.99-1.63,5.66-2.45.68-.82-4.34,1.16-6.2.7Z"/>
            </g>
            <g>
              <path class="cls-24" d="M106,166.56s-.87-5.31,6.34-8.52c7.21-3.21,9.99,1.6,9.99,1.6l-16.33,6.92Z"/>
              <path class="cls-2" d="M113.76,158.24s-3.19,2.89-3.6,3.85c-.41.96-.81,1.52-2.03,1.88-1.22.35-1.94.37-1.94.37,0,0,1.33-4.13,4.63-5.75,3.3-1.62,5.68-1.66,5.68-1.66l-2.74,1.31Z"/>
            </g>
            <g>
              <path class="cls-3" d="M167.92,58.58s-5.27,1.1-8-3.21c-2.73-4.31,2.15-6.58,2.15-6.58l5.85,9.79Z"/>
              <path class="cls-22" d="M160.2,54.43c1.78,1.86,4.17,1.96,4.17,1.96,0,0-.12.22.15.96.28.75.35,1.27.35,1.27,0,0-3.1-.38-4.5-2.34-1.4-1.95-1.3-3.48-1.3-3.48,0,0,.78,1.27,1.13,1.63Z"/>
            </g>
            <g>
              <path class="cls-3" d="M55.82,173.83s2.33-4.85,10.08-3.35c7.75,1.51,7.27,7.04,7.27,7.04l-17.34-3.69Z"/>
              <path class="cls-23" d="M66.95,171.47s-4.27.54-5.16,1.09c-.88.56-1.54.78-2.74.37-1.2-.41-1.81-.81-1.81-.81,0,0,3.46-2.62,7.09-2.05,3.63.56,5.6,1.89,5.6,1.89l-2.99-.5Z"/>
            </g>
            <g>
              <path class="cls-24" d="M13.13,126.57s3.53-2.06,7.36,2.93c3.84,4.99,1.09,8.46,1.09,8.46l-8.46-11.39Z"/>
              <path class="cls-2" d="M20.67,130.7s-2.73-1.84-3.49-1.92c-.76-.08-1.24-.27-1.76-1.16-.52-.89-.69-1.47-.69-1.47,0,0,3.19.02,5.05,2.27,1.86,2.24,2.42,4.15,2.42,4.15l-1.52-1.87Z"/>
            </g>
            <g>
              <path class="cls-1" d="M159.71,119.37c-1.78,1.94-3.73,3.6-5.73,5.21-2.01,1.59-4.08,3.07-6.21,4.47-2.13,1.4-4.32,2.71-6.58,3.91-2.27,1.19-4.58,2.32-7.06,3.17,1.78-1.94,3.73-3.61,5.73-5.21,2.01-1.59,4.08-3.07,6.22-4.47,2.13-1.4,4.32-2.71,6.58-3.91,2.27-1.19,4.58-2.32,7.06-3.18Z"/>
              <path class="cls-6" d="M160.37,118.6s-8.54,8.5-15.33,12.17c-6.8,3.67-11.56,5.37-11.56,5.37,0,0,7.59-1.74,13.44-4.97,5.85-3.23,13.46-12.58,13.46-12.58Z"/>
              <path class="cls-3" d="M154.09,123.57s-9.16,5.16-10.51,6c-1.35.84-6.27,4.36-6.27,4.36,0,0,10.65-3.65,16.78-10.35Z"/>
            </g>
            <g>
              <path class="cls-3" d="M158.85,137.43l-6.42,1.28h-3.55s2.4.41,3.28.61c.88.2,3.73.31,3.99,1.07.27.75-1.15,3.59-.54,3.19.61-.41,3.24-6.15,3.24-6.15Z"/>
              <path class="cls-22" d="M152.16,139.32l-3.45-.42s3.04.86,3.21.89c.17.03,3.82.51,4,.33.18-.17-3.76-.8-3.76-.8Z"/>
            </g>
            <g>
              <g>
                <path class="cls-3" d="M4.38,64.12l9.16,8.69,5.8,3.64s-4.34-1.8-5.98-2.37c-1.64-.57-6.4-3.31-7.61-2.35-1.21.96-1.81,7.05-2.38,5.76-.58-1.29,1.02-13.37,1.02-13.37Z"/>
                <path class="cls-22" d="M13.36,74.08l6.06,2.85s-5.85-1.72-6.16-1.84c-.31-.12-6.76-3.09-6.87-3.57-.12-.47,6.97,2.55,6.97,2.55Z"/>
              </g>
              <path class="cls-24" d="M7.18,61.16s5.52,8.27,6.18,9c.66.73,5.98,6.29,5.98,6.29l-5.8-3.64-7.89-5.96,1.52-5.68Z"/>
            </g>
            <g>
              <g>
                <path class="cls-3" d="M111.65,174.44l2.11-10.02-.2-5.44s.91,3.62,1.35,4.94c.44,1.32.81,5.66,2.28,5.96,1.47.3,6.84-2.28,6.09-1.29-.74.99-11.63,5.85-11.63,5.85Z"/>
                <path class="cls-22" d="M114.91,163.92l-1.3-5.22s2.12,4.54,2.19,4.79c.08.25,1.19,5.78.86,6.08-.32.31-1.76-5.65-1.76-5.65Z"/>
              </g>
              <path class="cls-4" d="M107.43,174.27s3.78-7.51,4.02-8.28c.24-.77,2.17-7.29,2.17-7.29l.54,5.64-1.18,8.14-5.54,1.79Z"/>
            </g>
          </g>
          <g>
            <polygon class="cls-17" points="91.57 67.74 91.57 61.16 100.5 60.91 92.87 63.05 91.57 67.74"/>
            <polygon class="cls-15" points="92.87 63.05 92.61 64 93.3 65.13 93.54 63.91 101.19 60.68 92.87 63.05"/>
          </g>
          <g>
            <polygon class="cls-3" points="40.91 92.31 40.91 85.73 49.84 85.48 42.21 87.62 40.91 92.31"/>
            <polygon class="cls-15" points="42.65 87.5 43.51 88.35 50.54 85.25 42.65 87.5"/>
          </g>
          <g>
            <polygon class="cls-17" points="39.47 37.12 39.47 44.94 63.6 48.79 43.97 41.99 39.47 37.12"/>
            <polygon class="cls-14" points="39.47 44.94 68.96 49.64 37.79 47.29 39.47 44.94"/>
          </g>
          <path class="cls-12" d="M98.1,37.12s13.14,38.93,17.26,37.74c4.12-1.19,11.47-3.66,19.91-3.01,8.43.65,4.71-17.5-2.94-25.05-7.65-7.55-36.4-20.05-34.23-9.68Z"/>
          <path class="cls-12" d="M75.55,36.6s-1.31,10.79-5.02,11.38c-3.71.59-23.03-5.88-23.13-6.28-.1-.39,8.63-5.88,17.46-7.99,8.83-2.11,10.22-.93,10.69,2.89Z"/>
          <g>
            <path class="cls-12" d="M66.24,51.61s-22.87-7.26-29.44,0c-6.57,7.26-10,12.72-15.59,31.37-5.59,18.65,11.28,36.4,17.26,38.85,5.98,2.45,10.69-12.75,7.65-17.95-3.04-5.2-18.34-18.28-20.4-21.79-2.06-3.51.69-12.83,7.55-11.95,6.87.88,13.95.69,18.25.29,4.3-.39,5.42,10.25,8.32,7.23,2.91-3.03,13.46-26.06,6.39-26.06Z"/>
            <path class="cls-12" d="M58.19,113.2s26.02,25.69,27.77,26.97c1.75,1.28-7.27,6.02-19.33,3.45-12.06-2.57-17.65-7.02-17.65-9.7s9.22-20.72,9.22-20.72Z"/>
          </g>
        </g>
        <g>
          <polygon class="cls-3" points="131.21 78.39 130.96 47.16 108.17 47.16 87.12 72.37 73.08 59.27 63.56 70.21 53.04 57.88 34.35 74.61 46.74 88.34 34.02 101.74 50.93 118.95 62.29 106.46 73.02 118.88 92.28 103.04 91.86 102.58 104.87 102.58 104.87 118.82 131.02 118.82 131.02 102.32 140.08 102.32 140.08 78.39 131.21 78.39"/>
          <g>
            <g>
              <path class="cls-24" d="M133.02,85.5v9.81h-9.06v16.49h-12.02v-16.24h-27.64l-.08-8.64,27.26-32.65h12.48l.25,31.23h8.81ZM101.75,86.26l11.02.08.5-14.61-11.52,14.53Z"/>
              <path class="cls-24" d="M129.61,117.46h-23.32v-16.24h-27.58l-.16-16.32,30.29-36.27h20.73l.25,31.23h8.85v21.11h-9.06v16.49ZM117.58,106.16h.72v-16.49h.28l-.05-6.72-.31,9.09h-.64s0,14.13,0,14.13ZM89.89,89.92h1.74l23.79-29.99h-1.3l-24.24,29.02v.97Z"/>
            </g>
            <path class="cls-19" d="M133.02,85.25v9.81h-9.06v16.49h-12.02v-16.24h-27.64l-.08-8.64,27.26-32.65h12.48l.25,31.23h8.81ZM101.75,86.01l11.02.08.5-14.61-11.52,14.53Z"/>
            <polygon class="cls-11" points="124.46 85.16 124.49 88.46 133.02 88.46 133.02 85.16 124.46 85.16"/>
            <polygon class="cls-11" points="113.55 74.76 113.14 75.28 112.77 86.08 101.7 86.02 99.1 89.29 113.05 89.37 113.55 74.76"/>
            <rect class="cls-11" x="111.93" y="95.34" width=".28" height="16.13"/>
            <polygon class="cls-11" points="84.55 95.22 84.49 89.87 111.76 57.23 123.98 57.23 123.96 53.93 111.47 53.93 84.21 86.58 84.29 95.22 84.55 95.22"/>
            <polygon class="cls-13" points="78.7 101.22 84.29 95.57 84.21 86.58 78.54 84.9 78.7 101.22"/>
            <polygon class="cls-8" points="129.56 48.62 108.83 48.62 111.52 54.27 123.96 54.02 129.56 48.62"/>
            <polygon class="cls-10" points="78.54 84.9 84.21 86.58 111.47 54.27 111.52 54.27 108.83 48.62 78.54 84.9"/>
            <polygon class="cls-5" points="84.29 95.34 78.7 101.22 106.28 101.22 112.22 95.34 84.29 95.34"/>
            <polygon class="cls-3" points="106.28 117.46 129.61 117.46 123.96 111.56 111.93 111.56 106.28 117.46"/>
            <polygon class="cls-5" points="123.96 95.07 129.61 100.97 138.67 100.97 133.02 95.07 123.96 95.07"/>
            <polygon class="cls-10" points="138.67 79.85 133.02 85.16 124.21 85.16 129.81 79.85 138.67 79.85"/>
            <polygon class="cls-5" points="123.96 95.32 129.61 100.97 129.61 117.46 123.96 111.56 123.96 95.32"/>
            <path class="cls-9" d="M103.68,86.02l-2.03-.02,11.52-14.53-.35,10.34c.3-.09.59-.18.89-.26,3.5-.96,6.99-1.38,10.36-1.32l-.21-26.21h-12.48l-27.26,32.65.08,8.64h10.01c2.33-3.58,5.55-6.77,9.47-9.3Z"/>
          </g>
          <g>
            <g>
              <g>
                <g>
                  <path class="cls-24" d="M73.86,109.1l-11.44-13.23-11.69,12.86-6.89-7.01,12.53-13.19-12.02-13.32,8.02-7.18,11.15,13.07,10.1-11.61,5.64,5.26-10.9,12.36,13.74,15.24-8.22,6.76Z"/>
                  <polygon class="cls-24" points="73.19 116.96 62.31 104.38 50.89 116.95 35.99 101.78 48.67 88.42 36.35 74.77 52.9 59.95 63.55 72.43 73.19 61.36 87.12 74.36 75.92 87.05 90.24 102.94 73.19 116.96"/>
                </g>
                <path class="cls-18" d="M73.86,108.85l-11.44-13.23-11.69,12.86-6.89-7.01,12.53-13.19-12.02-13.32,8.02-7.18,11.15,13.07,10.1-11.61,5.64,5.26-10.9,12.36,13.74,15.24-8.22,6.76Z"/>
                <polygon class="cls-11" points="77.78 76.15 79.25 74.48 73.61 69.22 63.51 80.83 52.36 67.76 44.34 74.94 46.11 76.91 52.64 71.06 63.79 84.13 73.89 72.52 77.78 76.15"/>
                <polygon class="cls-11" points="68.55 90.05 80.46 103.26 82.01 101.99 68.35 86.85 68.55 90.05"/>
                <polygon class="cls-11" points="43.93 101.36 45.66 103.13 56.74 91.47 56.37 88.27 43.93 101.36"/>
                <polygon class="cls-10" points="35.99 101.78 43.84 101.36 56.37 88.27 48.67 88.42 35.99 101.78"/>
                <polygon class="cls-3" points="50.73 108.72 50.89 116.95 62.3 104.4 62.3 95.75 50.73 108.72"/>
                <polygon class="cls-5" points="62.42 95.61 62.3 95.75 62.3 104.4 62.31 104.38 73.19 116.96 73.3 115.41 73.86 108.85 62.42 95.61"/>
                <polygon class="cls-3" points="82.09 101.99 73.86 108.85 73.86 108.85 73.19 116.96 90.24 102.94 82.09 101.99"/>
                <polygon class="cls-10" points="68.35 86.85 75.92 87.05 90.24 102.94 81.89 101.78 68.35 86.85"/>
                <polygon class="cls-8" points="36.35 74.77 44.34 74.95 52.36 67.77 52.36 67.77 52.9 59.95 36.35 74.77"/>
                <polygon class="cls-8" points="63.51 80.83 73.62 69.27 73.19 61.36 63.55 72.43 63.51 80.83 63.51 80.83"/>
                <polygon class="cls-13" points="63.51 80.83 63.51 80.83 63.55 72.43 52.9 59.95 52.36 67.77 63.51 80.83 63.51 80.83"/>
              </g>
              <polygon class="cls-13" points="79.25 74.48 73.61 69.48 73.19 61.36 87.12 74.36 79.25 74.48"/>
            </g>
            <path class="cls-9" d="M49.36,107.08c1.76-10,9.93-17.79,20.12-18.98l-1.13-1.26,10.9-12.36-5.64-5.26-10.1,11.61-11.15-13.07-8.02,7.18,12.02,13.32-12.53,13.19,5.52,5.62Z"/>
          </g>
        </g>
      </g>
    </g>
  </g>
</svg>