<?xml version="1.0" encoding="UTF-8"?>
<svg xmlns="http://www.w3.org/2000/svg" version="1.1" xmlns:xlink="http://www.w3.org/1999/xlink" viewBox="0 0 172.79 180">
  <defs>
    <style>
      .cls-1 {
        opacity: .32;
      }

      .cls-1, .cls-2, .cls-3, .cls-4, .cls-5 {
        fill: #7c3600;
      }

      .cls-2 {
        opacity: .33;
      }

      .cls-6 {
        fill: #fde490;
      }

      .cls-7 {
        fill: url(#linear-gradient-2);
      }

      .cls-8 {
        opacity: .6;
      }

      .cls-8, .cls-9, .cls-10, .cls-11, .cls-12, .cls-13, .cls-14, .cls-15 {
        mix-blend-mode: overlay;
      }

      .cls-8, .cls-10, .cls-12, .cls-13, .cls-14, .cls-15 {
        fill: #fcf9ca;
      }

      .cls-16 {
        opacity: .3;
      }

      .cls-17 {
        fill: #fffbc5;
      }

      .cls-18 {
        fill: #a74700;
      }

      .cls-19 {
        fill: url(#linear-gradient-4);
      }

      .cls-9 {
        opacity: .34;
      }

      .cls-9, .cls-11 {
        fill: #fff;
      }

      .cls-20 {
        fill: url(#linear-gradient-3);
      }

      .cls-21 {
        isolation: isolate;
      }

      .cls-10 {
        opacity: .44;
      }

      .cls-22 {
        fill: #fffc92;
      }

      .cls-12 {
        opacity: .18;
      }

      .cls-4 {
        opacity: .35;
      }

      .cls-23 {
        fill: #ffd800;
      }

      .cls-13 {
        opacity: .22;
      }

      .cls-24 {
        fill: #682700;
      }

      .cls-25 {
        fill: #c86500;
      }

      .cls-14 {
        opacity: .75;
      }

      .cls-26 {
        fill: url(#linear-gradient);
      }

      .cls-15 {
        opacity: .63;
      }

      .cls-5 {
        opacity: .46;
      }
    </style>
    <linearGradient id="linear-gradient" x1="86.39" y1="-33.03" x2="86.39" y2="176.34" gradientUnits="userSpaceOnUse">
      <stop offset="0" stop-color="#e87d00"/>
      <stop offset="1" stop-color="#ffe600"/>
    </linearGradient>
    <linearGradient id="linear-gradient-2" x1="86.4" y1="38.92" x2="86.4" y2="164.8" gradientUnits="userSpaceOnUse">
      <stop offset="0" stop-color="#fab400"/>
      <stop offset="1" stop-color="#e87d00"/>
    </linearGradient>
    <linearGradient id="linear-gradient-3" x1="107" y1="115.18" x2="107" y2="57.69" gradientUnits="userSpaceOnUse">
      <stop offset="0" stop-color="#e57d00"/>
      <stop offset="1" stop-color="#fde403"/>
    </linearGradient>
    <linearGradient id="linear-gradient-4" x1="62.89" y1="107.32" x2="62.89" y2="66.28" xlink:href="#linear-gradient-3"/>
  </defs>
  <!-- Generator: Adobe Illustrator 28.6.0, SVG Export Plug-In . SVG Version: 1.2.0 Build 709)  -->
  <g class="cls-21">
    <g id="Layer_1">
      <g>
        <g>
          <g>
            <path class="cls-3" d="M172.79,85.06l-.02-4.95h-.13c-.9-15.6-6.05-30.41-15.04-43.24l.2-.12-2.48-3.2C139.32,12.88,115.04.66,88.72.03c-.26,0-.53,0-.79-.01h-.67c-.23-.01-.46-.02-.69-.02h-.18c-22.83,0-44.36,8.68-60.63,24.45C10.38,39.37,1.36,59.02.15,80.11h-.15v16.1c0,46.2,38.76,83.79,86.4,83.79s86.4-37.59,86.4-83.79v-11.15ZM86.4,172.71c-43.62,0-79.11-34.32-79.11-76.5v-11.38l.02-1.03C7.95,41.62,43.43,7.29,86.38,7.29h.08s.12,0,.12,0c.18,0,.36,0,.54,0h.73c.23.01.45.02.69.02,22.76.55,43.83,10.52,58.45,27.53h-.02s2.48,3.22,2.48,3.22c10.24,13.25,15.79,29.07,16.04,45.74v12.4c.01,42.18-35.47,76.5-79.09,76.5Z"/>
            <g>
              <path class="cls-25" d="M168.7,83.75c-4.3-57.88-39.51-67.68-82.31-67.68S8.34,25.26,4.08,83.75h-.44v12.46c0,44.26,37.05,80.14,82.75,80.14s82.75-35.88,82.75-80.14v-12.46h-.44Z"/>
              <path class="cls-2" d="M86.55,172.91c-45.7,0-82.79-35.95-83.29-80.47-.01.92-.02,1.85-.02,2.79,0,44.94,37.3,81.36,83.31,81.36s83.31-36.43,83.31-81.36c0-.94-.01-1.86-.02-2.78-.5,44.52-37.58,80.46-83.28,80.46Z"/>
              <path class="cls-26" d="M169.15,85.01c0,44.94-37.05,81.36-82.75,81.36S3.64,129.94,3.64,85.01,40.69,3.65,86.4,3.65s82.75,36.43,82.75,81.36Z"/>
              <path class="cls-15" d="M86.4,3.65C40.69,3.65,3.64,40.07,3.64,85.01c0,.99.04,1.97.08,2.95,21.08,18.59,50.1,30.08,82.14,30.08s62.07-11.9,83.24-31.07c.02-.65.05-1.3.05-1.96,0-44.93-37.05-81.36-82.75-81.36Z"/>
              <path class="cls-14" d="M152.44,35.77C137.32,16.25,113.45,3.65,86.57,3.65S35.45,16.44,20.35,36.21c18.71,11.36,41.32,18.01,65.69,18.01s47.56-6.82,66.4-18.45Z"/>
              <path class="cls-17" d="M86.4,8.31c44.9,0,81.43,35.18,82.69,79.03.02-.78.06-1.55.06-2.33,0-44.93-37.05-81.36-82.75-81.36S3.65,40.07,3.65,85.01c0,.78.04,1.55.06,2.33C4.96,43.48,41.49,8.31,86.4,8.31Z"/>
              <path class="cls-22" d="M86.4,162.93c-45.11,0-81.77-35.5-82.71-79.64-.01.57-.04,1.14-.04,1.72,0,44.94,37.05,81.36,82.75,81.36s82.75-36.43,82.75-81.36c0-.58-.03-1.15-.04-1.72-.93,44.14-37.59,79.64-82.71,79.64Z"/>
              <path class="cls-7" d="M153.91,85c0,36.67-30.23,66.38-67.52,66.38S18.88,121.67,18.88,85,49.11,18.62,86.4,18.62s67.52,29.72,67.52,66.38Z"/>
              <path class="cls-18" d="M86.4,26.87c35.84,0,65.13,27.45,67.36,62.13.09-1.41.15-2.82.15-4.25,0-36.66-30.23-66.38-67.52-66.38S18.88,48.09,18.88,84.75c0,1.43.06,2.84.15,4.25,2.23-34.68,31.53-62.13,67.36-62.13Z"/>
              <path class="cls-22" d="M86.4,147.76c-36.64,0-66.44-28.7-67.46-64.47-.02.64-.05,1.27-.05,1.91,0,36.67,30.23,66.39,67.51,66.39s67.52-29.72,67.52-66.39c0-.64-.03-1.27-.05-1.91-1.03,35.78-30.83,64.47-67.47,64.47Z"/>
            </g>
            <g>
              <path class="cls-3" d="M51.68,9.9s2.29,6.88-6.61,12.69c-8.91,5.8-13.63,0-13.63,0l20.25-12.69Z"/>
              <path class="cls-18" d="M38.96,21.57h-4.39l-2.35,1.76s2.73,3.08,8.58,1.32c5.85-1.76,8.7-5.47,9.6-7.34.9-1.88-7.71,4.27-11.45,4.27Z"/>
            </g>
            <g>
              <path class="cls-3" d="M68.87,3.96s.28,3.69-4.84,5.46c-5.12,1.77-6.74-1.68-6.74-1.68l11.58-3.77Z"/>
              <path class="cls-18" d="M61.14,8.17c-1.85-.46-2.17-.54-2.17-.54l-1.38.58s.97,1.86,4.08,1.71c3.11-.15,4.98-1.63,5.66-2.45.68-.82-4.34,1.16-6.19.7Z"/>
            </g>
            <g>
              <path class="cls-25" d="M105.88,166.36s-.87-5.31,6.33-8.51c7.2-3.2,9.98,1.6,9.98,1.6l-16.31,6.91Z"/>
              <path class="cls-2" d="M113.63,158.05s-3.19,2.89-3.59,3.85c-.4.96-.81,1.52-2.03,1.87-1.21.35-1.94.37-1.94.37,0,0,1.33-4.13,4.62-5.74,3.29-1.61,5.67-1.66,5.67-1.66l-2.73,1.31Z"/>
            </g>
            <g>
              <path class="cls-3" d="M167.72,58.51s-5.26,1.1-7.99-3.21c-2.73-4.3,2.15-6.57,2.15-6.57l5.85,9.78Z"/>
              <path class="cls-23" d="M160.01,54.37c1.77,1.86,4.17,1.96,4.17,1.96,0,0-.12.22.15.96.28.74.35,1.27.35,1.27,0,0-3.1-.38-4.5-2.33-1.4-1.95-1.3-3.47-1.3-3.47,0,0,.78,1.27,1.12,1.62Z"/>
            </g>
            <g>
              <path class="cls-3" d="M55.75,173.62s2.33-4.85,10.06-3.34c7.74,1.51,7.26,7.03,7.26,7.03l-17.32-3.69Z"/>
              <path class="cls-24" d="M66.87,171.26s-4.27.53-5.15,1.09c-.88.56-1.53.78-2.73.37-1.2-.41-1.81-.81-1.81-.81,0,0,3.46-2.61,7.08-2.05,3.62.56,5.6,1.89,5.6,1.89l-2.99-.5Z"/>
            </g>
            <g>
              <path class="cls-25" d="M13.12,126.41s3.52-2.06,7.36,2.93c3.84,4.99,1.09,8.45,1.09,8.45l-8.45-11.38Z"/>
              <path class="cls-2" d="M20.64,130.54s-2.73-1.83-3.49-1.92c-.76-.08-1.24-.27-1.76-1.15-.52-.89-.69-1.47-.69-1.47,0,0,3.18.02,5.04,2.26,1.86,2.24,2.42,4.15,2.42,4.15l-1.52-1.87Z"/>
            </g>
            <g>
              <path class="cls-1" d="M159.52,119.23c-1.78,1.93-3.73,3.6-5.73,5.2-2.01,1.59-4.08,3.07-6.21,4.47-2.13,1.4-4.32,2.7-6.57,3.91-2.26,1.19-4.57,2.32-7.06,3.17,1.77-1.94,3.73-3.6,5.72-5.2,2.01-1.59,4.08-3.07,6.21-4.46,2.13-1.39,4.32-2.7,6.57-3.91,2.27-1.19,4.57-2.32,7.05-3.17Z"/>
              <path class="cls-6" d="M160.18,118.46s-8.53,8.49-15.32,12.16c-6.79,3.67-11.55,5.36-11.55,5.36,0,0,7.59-1.74,13.42-4.96,5.84-3.22,13.44-12.56,13.44-12.56Z"/>
              <path class="cls-3" d="M153.9,123.42s-9.15,5.15-10.5,5.99c-1.35.84-6.26,4.35-6.26,4.35,0,0,10.64-3.64,16.76-10.34Z"/>
            </g>
            <g>
              <path class="cls-3" d="M158.66,137.26l-6.41,1.28h-3.54s2.4.41,3.28.61c.88.2,3.72.31,3.99,1.07.27.75-1.15,3.59-.54,3.18.61-.4,3.24-6.14,3.24-6.14Z"/>
              <path class="cls-23" d="M151.98,139.15l-3.44-.42s3.04.86,3.21.89c.17.03,3.81.51,4,.33.18-.17-3.76-.8-3.76-.8Z"/>
            </g>
            <g>
              <g>
                <path class="cls-3" d="M4.38,64.04l9.15,8.68,5.79,3.64s-4.33-1.8-5.97-2.37c-1.64-.57-6.4-3.31-7.6-2.35-1.21.96-1.8,7.04-2.38,5.76-.58-1.28,1.01-13.35,1.01-13.35Z"/>
                <path class="cls-23" d="M13.35,73.99l6.05,2.85s-5.84-1.72-6.15-1.84c-.31-.12-6.75-3.09-6.87-3.56-.12-.47,6.96,2.55,6.96,2.55Z"/>
              </g>
              <path class="cls-25" d="M7.17,61.09s5.52,8.26,6.18,8.99c.66.73,5.98,6.28,5.98,6.28l-5.79-3.64-7.88-5.96,1.52-5.67Z"/>
            </g>
            <g>
              <g>
                <path class="cls-3" d="M111.52,174.23l2.1-10.01-.2-5.43s.91,3.62,1.35,4.93c.44,1.31.81,5.65,2.28,5.95,1.46.3,6.83-2.28,6.08-1.29-.74.99-11.62,5.84-11.62,5.84Z"/>
                <path class="cls-23" d="M114.77,163.72l-1.3-5.21s2.12,4.53,2.19,4.79c.08.25,1.19,5.77.86,6.08-.32.3-1.76-5.65-1.76-5.65Z"/>
              </g>
              <path class="cls-4" d="M107.3,174.06s3.77-7.5,4.01-8.27c.24-.77,2.16-7.28,2.16-7.28l.54,5.64-1.18,8.13-5.54,1.79Z"/>
            </g>
          </g>
          <g>
            <polygon class="cls-18" points="91.46 67.66 91.46 61.09 100.38 60.84 92.76 62.98 91.46 67.66"/>
            <polygon class="cls-15" points="92.76 62.98 92.5 63.92 93.18 65.05 93.43 63.84 101.07 60.6 92.76 62.98"/>
          </g>
          <g>
            <polygon class="cls-3" points="40.86 92.2 40.86 85.63 49.78 85.38 42.16 87.52 40.86 92.2"/>
            <polygon class="cls-15" points="42.6 87.39 43.46 88.25 50.48 85.15 42.6 87.39"/>
          </g>
          <g>
            <polygon class="cls-18" points="39.42 37.08 39.42 44.88 63.52 48.73 43.92 41.94 39.42 37.08"/>
            <polygon class="cls-14" points="39.42 44.88 68.88 49.58 37.75 47.23 39.42 44.88"/>
          </g>
          <path class="cls-12" d="M97.99,37.08s13.13,38.88,17.24,37.7c4.11-1.19,11.46-3.65,19.89-3.01,8.42.65,4.7-17.48-2.94-25.02-7.64-7.54-36.36-20.03-34.19-9.67Z"/>
          <path class="cls-12" d="M75.46,36.55s-1.31,10.78-5.01,11.37c-3.7.59-23-5.88-23.1-6.27-.1-.39,8.62-5.87,17.44-7.98,8.82-2.11,10.21-.93,10.68,2.88Z"/>
          <g>
            <path class="cls-12" d="M66.17,51.54s-22.84-7.25-29.4,0c-6.56,7.25-9.99,12.7-15.58,31.33-5.58,18.63,11.26,36.36,17.24,38.81,5.98,2.45,10.68-12.73,7.64-17.93-3.04-5.19-18.32-18.26-20.38-21.77-2.06-3.51.69-12.81,7.54-11.93,6.86.88,13.93.69,18.23.29,4.3-.39,5.41,10.24,8.31,7.22,2.91-3.02,13.45-26.03,6.38-26.03Z"/>
            <path class="cls-12" d="M58.12,113.06s25.99,25.66,27.74,26.93c1.75,1.28-7.26,6.01-19.31,3.45s-17.63-7.01-17.63-9.68,9.21-20.7,9.21-20.7Z"/>
          </g>
        </g>
        <g>
          <path class="cls-3" d="M136,68.13v-.02c-.04-.16-1.02-4.07-4.7-8.12-.48-.54-.98-1.04-1.47-1.5-1.46-1.35-3.09-2.51-4.83-3.47-2.37-1.32-5.04-2.34-7.93-3.02-.06-.01-.12-.03-.18-.04l-.09-.02c-1.31-.31-2.63-.55-3.92-.71-1.47-.2-2.96-.32-4.42-.35-.64-.02-1.16-.04-1.64-.04-2.33,0-4.66.25-6.92.75-.7.15-1.44.34-2.27.57-5.94,1.59-10.58,4.37-13.55,6.32l-.04.02c-.77.5-1.48.98-2.09,1.42-1.37.96-2.61,1.88-3.71,2.77l-5.24-4.89-9.51,10.93-10.51-12.32-18.66,16.72,12.38,13.71-12.7,13.38,16.88,17.19,11.35-12.48,10.72,12.41,8.57-7.05-.26.45,4.15,3.83c2.43,2.24,5.18,4.03,8.19,5.3,2.88,1.22,5.87,2.01,8.88,2.35,1.24.14,2.5.21,3.75.21h.04c1.71,0,3.42-.13,5.08-.4,2.95-.47,5.73-1.34,8.24-2.58,2.66-1.31,4.98-3.02,6.88-5.09.38-.41.76-.86,1.16-1.4l1-1.32-.1-.05c1.02-1.63,1.77-3.4,2.24-5.29l.02-.07c.36-1.49.53-2.97.51-4.4v-.02c0-4.41-1.77-7.55-2.97-9.15,1-.83,1.98-1.74,2.91-2.72,1.29-1.36,2.42-2.88,3.34-4.53.96-1.71,1.68-3.59,2.15-5.59.51-2.17.62-4.49.32-6.89-.21-1.67-.56-3.28-1.05-4.79ZM89.92,95.78l-1.15,1.97-11.06-12.27,5.4-6.12,6.68,10.53.07.11.06,5.78Z"/>
          <g>
            <g>
              <path class="cls-25" d="M90.18,109.44l4.67-8.05c1.86,1.2,3.59,2.09,5.19,2.69,1.6.6,3.05.97,4.36,1.13,1.31.15,2.47.13,3.48-.08,1.01-.21,1.86-.51,2.52-.92.67-.4,1.16-.86,1.48-1.36.32-.5.45-.99.4-1.46-.14-.97-.5-1.79-1.08-2.44-.58-.65-1.31-1.17-2.17-1.56-.86-.39-1.83-.68-2.9-.88-1.07-.19-2.15-.33-3.25-.4-1.1-.07-2.16-.1-3.19-.1h-2.71l-.08-8.63c3.36,0,6.26-.29,8.67-.88,2.42-.58,4.3-1.36,5.65-2.31,1.35-.96,2.16-2.06,2.44-3.29.28-1.24-.01-2.51-.88-3.82-.75-1.11-1.84-1.82-3.27-2.13-1.43-.31-3.07-.26-4.92.13-1.85.39-3.82,1.09-5.92,2.11-2.1,1.02-4.16,2.29-6.19,3.82l-8.63-13.59c.33-.28.88-.7,1.63-1.27.75-.57,1.67-1.2,2.77-1.9,1.1-.69,2.34-1.42,3.71-2.17,1.38-.75,2.86-1.43,4.44-2.04,1.58-.61,3.26-1.11,5.02-1.5,1.77-.39,3.57-.58,5.4-.58,1.31,0,2.75.08,4.34.23,1.58.15,3.19.45,4.82.88,1.63.43,3.22,1.02,4.8,1.77,1.57.75,3,1.72,4.27,2.9,1.28,1.18,2.36,2.6,3.25,4.25.89,1.65,1.47,3.61,1.75,5.86.19,1.58.13,3.06-.19,4.42-.32,1.36-.8,2.61-1.44,3.75-.64,1.14-1.4,2.18-2.29,3.11-.89.93-1.81,1.77-2.75,2.52-2.25,1.72-4.87,3.16-7.84,4.3,1.97.7,3.66,1.63,5.05,2.79.58.5,1.14,1.08,1.67,1.73.53.65.97,1.39,1.31,2.21.35.82.56,1.73.65,2.73.08,1-.01,2.09-.29,3.25-.47,1.89-1.37,3.55-2.69,4.98-1.32,1.43-2.93,2.61-4.82,3.54-1.89.93-3.97,1.58-6.23,1.94-2.27.36-4.57.41-6.92.15-2.35-.26-4.66-.88-6.92-1.83-2.27-.96-4.32-2.29-6.15-3.98Z"/>
              <path class="cls-25" d="M106.2,121.07c-1.19,0-2.38-.07-3.58-.2-2.88-.32-5.73-1.08-8.49-2.25-2.86-1.21-5.48-2.9-7.78-5.04l-3.32-3.07,8.3-14.31-.07-7.23-.28.21-14.57-22.94,3.81-3.17c.4-.34.98-.79,1.82-1.43.89-.67,1.95-1.4,3.17-2.17,1.19-.76,2.55-1.55,4.03-2.35,1.59-.86,3.3-1.66,5.11-2.35,1.84-.71,3.81-1.3,5.84-1.75,2.16-.48,4.38-.72,6.62-.72,1.47,0,3.11.09,4.88.26,1.88.18,3.81.53,5.72,1.04,1.96.52,3.9,1.24,5.78,2.14,2.07.99,3.98,2.29,5.67,3.84,1.73,1.6,3.21,3.53,4.39,5.72,1.22,2.27,2.02,4.9,2.38,7.84.28,2.24.18,4.4-.29,6.4-.44,1.87-1.12,3.63-2.01,5.22-.87,1.55-1.92,2.97-3.13,4.24-1.06,1.11-2.18,2.14-3.32,3.04l-.08.06c-.17.13-.34.26-.51.38.11.13.23.27.34.41.86,1.06,1.57,2.26,2.12,3.56.58,1.37.94,2.87,1.08,4.47.13,1.59-.01,3.28-.43,5.03l-.02.07c-.7,2.81-2.05,5.31-4.02,7.44-1.79,1.94-3.96,3.55-6.47,4.78-2.39,1.18-5.03,2-7.84,2.45-1.6.26-3.22.38-4.86.38ZM117.74,99.85c.05.24.1.49.13.74l.02.14c.21,1.77-.22,3.55-1.24,5.15-.22.34-.46.67-.73.99.42-.33.81-.69,1.17-1.08.67-.72,1.11-1.54,1.36-2.5.13-.56.18-1.06.15-1.45-.03-.4-.11-.73-.22-1-.14-.34-.31-.62-.51-.87-.04-.05-.08-.1-.12-.15ZM107.5,69.11c1.11,0,2.17.11,3.19.32,2.86.61,5.2,2.16,6.77,4.49l.04.05c2.16,3.28,2.1,6.24,1.67,8.16-.14.61-.36,1.31-.71,2.06.51-.32.99-.66,1.45-1.01.73-.58,1.45-1.24,2.14-1.97.57-.59,1.04-1.24,1.45-1.97.38-.67.67-1.44.87-2.28.17-.71.19-1.53.08-2.44-.19-1.54-.57-2.84-1.12-3.87-.6-1.11-1.29-2.02-2.11-2.78-.87-.8-1.81-1.44-2.88-1.95-1.25-.6-2.53-1.07-3.81-1.41-1.32-.35-2.64-.59-3.91-.71-1.4-.13-2.68-.2-3.79-.2-1.42,0-2.83.15-4.19.45-1.48.33-2.9.75-4.21,1.26-1.35.52-2.62,1.1-3.77,1.73-1.18.64-2.25,1.27-3.19,1.86l2.72,4.28c.67-.38,1.35-.73,2.03-1.06,2.5-1.21,4.93-2.06,7.21-2.55,1.41-.3,2.78-.45,4.08-.45ZM105.72,80.61c-.53.11-1.09.27-1.67.46.07-.02.14-.03.2-.05.56-.14,1.05-.27,1.47-.41ZM108.42,80.5h0,0ZM108.31,79.29h0Z"/>
            </g>
            <path class="cls-25" d="M121.23,109.38l-31.05-.28-7.15,1.42,3.32,3.07c2.31,2.13,4.92,3.83,7.78,5.04,2.76,1.17,5.61,1.92,8.49,2.25,1.2.13,2.39.2,3.58.2,1.64,0,3.26-.13,4.86-.38,2.81-.45,5.45-1.27,7.84-2.45,2.51-1.23,4.68-2.84,6.47-4.78.42-.46.81-.93,1.17-1.42l-5.32-2.66Z"/>
            <path class="cls-3" d="M94.18,118.62c2.76,1.17,5.61,1.92,8.49,2.25,1.2.13,2.39.2,3.58.2,1.64,0,3.26-.13,4.86-.38,2.81-.45,5.45-1.27,7.84-2.45,2.51-1.23,4.68-2.84,6.47-4.78.38-.41.73-.85,1.07-1.29l-5.22-2.78-31.05-.28-7.15,1.42,3.32,3.07c2.31,2.13,4.92,3.83,7.78,5.04Z"/>
            <path class="cls-8" d="M76.42,66.25l7.42.91s7.39-6.1,14.48-8.15c7.09-2.05,13.59-1.82,19.53.27,5.93,2.09,8.47,5.33,9.67,6.99,1.2,1.66,2.05,4.68,2.05,4.68l5.05-2.46s-2.77-11.52-17.88-15.07c-15.11-3.55-25.77,2.26-31.92,6.3-6.15,4.04-8.41,6.52-8.41,6.52Z"/>
            <g class="cls-16">
              <polygon class="cls-10" points="83.03 110.52 90.18 109.1 94.85 101.14 91.34 96.21 83.03 110.52"/>
              <polygon class="cls-10" points="92.48 80.75 83.84 67.16 76.42 66.25 90.99 89.19 92.48 80.75"/>
              <polygon class="cls-10" points="96.9 87.13 91.27 88.98 91.34 96.21 96.98 95.76 96.9 87.13"/>
            </g>
            <path class="cls-8" d="M126.3,92.5l-10.76-.82s4.88,1.45,7.13,5.07c2.25,3.62,1.65,7.63.36,10.05-1.18,2.21-1.8,2.58-1.8,2.58l5.32,2.66s3.33-4.14,3.33-10.18c0-5.98-3.58-9.36-3.58-9.36Z"/>
            <path class="cls-5" d="M90.99,89.19s5.14-5.51,13.26-8.17c8.12-2.65,9.31-.02,9.31-.02,0,0,1.58-2.07,1.28-2.91-.29-.85-1.21-4.37-2.9-5.01-1.69-.63-.92-2.19-8.46-.71s-11,8.38-11,8.38l-1.49,8.44Z"/>
            <path class="cls-5" d="M91.34,96.21l5.22,2.69s11.2,1.51,13.26,2.61c2.06,1.1,2.4,1.58,2.4,1.58,0,0,2.16-.74,1.82-2.64-.34-1.9,2.13-4.58-3.02-5.71-5.15-1.13-13.79,1.03-13.79,1.03l-5.89.45Z"/>
            <path class="cls-20" d="M90.18,109.19l4.67-8.05c1.86,1.2,3.59,2.09,5.19,2.69,1.6.6,3.05.97,4.36,1.13,1.31.15,2.47.13,3.48-.08,1.01-.21,1.86-.51,2.52-.92.67-.4,1.16-.85,1.48-1.36.32-.5.45-.99.4-1.46-.14-.97-.5-1.79-1.08-2.44-.58-.65-1.31-1.17-2.17-1.56-.86-.39-1.83-.68-2.9-.88-1.07-.19-2.15-.33-3.25-.4-1.1-.07-2.16-.1-3.19-.1h-2.71l-.08-8.63c3.36,0,6.26-.29,8.67-.88,2.42-.58,4.3-1.36,5.65-2.31,1.35-.96,2.16-2.06,2.44-3.29.28-1.24-.01-2.51-.88-3.82-.75-1.11-1.84-1.82-3.27-2.13-1.43-.31-3.07-.26-4.92.13-1.85.39-3.82,1.09-5.92,2.11-2.1,1.02-4.16,2.29-6.19,3.82l-8.63-13.59c.33-.28.88-.7,1.63-1.27.75-.57,1.67-1.2,2.77-1.9,1.1-.69,2.34-1.42,3.71-2.17,1.38-.75,2.86-1.43,4.44-2.04,1.58-.61,3.26-1.11,5.02-1.5,1.77-.39,3.57-.58,5.4-.58,1.31,0,2.75.08,4.34.23,1.58.15,3.19.45,4.82.88,1.63.43,3.22,1.02,4.8,1.77,1.57.75,3,1.72,4.27,2.9,1.28,1.18,2.36,2.6,3.25,4.25.89,1.65,1.47,3.61,1.75,5.86.19,1.58.13,3.06-.19,4.42-.32,1.36-.8,2.61-1.44,3.75-.64,1.14-1.4,2.18-2.29,3.11-.89.93-1.81,1.77-2.75,2.52-2.25,1.72-4.87,3.16-7.84,4.3,1.97.7,3.66,1.63,5.05,2.79.58.5,1.14,1.08,1.67,1.73.53.65.97,1.39,1.31,2.21.35.82.56,1.73.65,2.73.08,1-.01,2.08-.29,3.25-.47,1.89-1.37,3.55-2.69,4.98-1.32,1.43-2.93,2.61-4.82,3.54-1.89.93-3.97,1.58-6.23,1.94-2.27.36-4.57.41-6.92.15-2.35-.26-4.66-.88-6.92-1.83-2.27-.96-4.32-2.29-6.15-3.98Z"/>
            <g>
              <path class="cls-11" d="M123.56,98.4c-.35-.82-.79-1.56-1.31-2.21-.53-.65-1.08-1.23-1.67-1.73-.43-.36-2.89-2.24-5.05-2.78-1.07.55-.84,2.46.28,3.28,1.97.7,3.66,1.63,5.05,2.79.58.5,1.14,1.08,1.67,1.73.53.65.97,1.39,1.31,2.21.14.33.25.68.35,1.04.05-.55.06-1.09.01-1.6-.08-1-.3-1.91-.65-2.73Z"/>
              <path class="cls-11" d="M111.22,83.94c-1.35.96-3.23,1.73-5.65,2.31-2.42.58-5.31.88-8.67.88l.08,8.63h.25l-.05-5.34c3.36,0,6.26-.29,8.67-.88,2.42-.58,4.3-1.36,5.65-2.31,1.35-.96,2.16-2.06,2.44-3.29.21-.96.08-1.94-.38-2.94-.35,1.09-1.12,2.07-2.34,2.94Z"/>
              <path class="cls-11" d="M130.05,73.59c-.28-2.25-.86-4.2-1.75-5.86-.89-1.65-1.97-3.07-3.25-4.25-1.28-1.18-2.7-2.15-4.27-2.9-1.57-.75-3.17-1.34-4.8-1.77-1.63-.43-3.23-.72-4.82-.88-1.58-.15-3.03-.23-4.34-.23-1.83,0-3.64.19-5.4.58-1.77.39-3.44.89-5.02,1.5-1.58.61-3.07,1.29-4.44,2.04-1.38.75-2.61,1.47-3.71,2.17-1.1.7-2.02,1.33-2.77,1.9-.75.57-1.29.99-1.63,1.27l1.49,2.34c.13-.1.27-.21.42-.32.75-.57,1.67-1.2,2.77-1.9,1.1-.69,2.34-1.42,3.71-2.17,1.38-.75,2.86-1.43,4.44-2.04,1.58-.61,3.26-1.11,5.02-1.5,1.77-.39,3.57-.58,5.4-.58,1.31,0,2.75.08,4.34.23,1.58.15,3.19.45,4.82.88,1.63.43,3.22,1.02,4.8,1.77,1.57.75,3,1.72,4.27,2.9,1.28,1.18,2.36,2.6,3.25,4.25.73,1.36,1.25,2.93,1.57,4.69.02-.69-.01-1.39-.1-2.13Z"/>
              <path class="cls-11" d="M111.91,102.48s-.01.02-.02.04c-.32.5-.81.95-1.48,1.36-.67.4-1.51.71-2.52.92-1.02.21-2.18.24-3.48.08-1.31-.15-2.76-.53-4.36-1.13-1.6-.6-3.33-1.49-5.19-2.69l-4.67,8.05c.48.44.97.85,1.47,1.24l3.48-6c1.86,1.2,3.59,2.09,5.19,2.69,1.6.6,3.05.97,4.36,1.13,1.31.15,2.47.13,3.48-.08,1.01-.21,1.86-.51,2.52-.92.67-.4,1.16-.86,1.48-1.36.32-.5.45-.99.4-1.46-.1-.71-.32-1.33-.66-1.87Z"/>
            </g>
            <path class="cls-9" d="M98.67,76.94c2.1-1.01,4.07-1.72,5.92-2.11,1.85-.39,3.49-.43,4.92-.13,1.43.31,2.52,1.02,3.27,2.13.86,1.31,1.15,2.58.88,3.82-.13.57-.37,1.1-.72,1.61,4.55.11,8.86,1.26,12.53,3.27.22-.22.44-.44.66-.67.89-.93,1.65-1.97,2.29-3.11.64-1.14,1.12-2.39,1.44-3.75.32-1.36.38-2.84.19-4.42-.28-2.25-.86-4.2-1.75-5.86-.89-1.65-1.97-3.07-3.25-4.25-1.28-1.18-2.7-2.15-4.27-2.9-1.57-.75-3.17-1.34-4.8-1.77-1.63-.43-3.23-.72-4.82-.88-1.58-.15-3.03-.23-4.34-.23-1.83,0-3.64.19-5.4.58-1.77.39-3.44.89-5.02,1.5-1.58.61-3.07,1.29-4.44,2.04-1.38.75-2.61,1.47-3.71,2.17-1.1.7-2.02,1.33-2.77,1.9-.75.57-1.29.99-1.63,1.27l8.63,13.59c2.03-1.53,4.09-2.8,6.19-3.82Z"/>
          </g>
          <g>
            <g>
              <g>
                <path class="cls-25" d="M73.77,107.57l-11.43-13.22-11.68,12.84-6.88-7.01,12.51-13.18-12.01-13.3,8.01-7.17,11.13,13.05,10.09-11.59,5.63,5.25-10.88,12.34,13.72,15.22-8.22,6.76Z"/>
                <polygon class="cls-25" points="73.1 115.42 62.24 102.85 50.83 115.41 35.94 100.25 48.61 86.91 36.3 73.28 52.84 58.47 63.47 70.94 73.1 59.88 87.01 72.86 75.83 85.55 90.13 101.42 73.1 115.42"/>
              </g>
              <path class="cls-19" d="M73.77,107.32l-11.43-13.22-11.68,12.84-6.88-7.01,12.51-13.18-12.01-13.3,8.01-7.17,11.13,13.05,10.09-11.59,5.63,5.25-10.88,12.34,13.72,15.22-8.22,6.76Z"/>
              <polygon class="cls-11" points="77.69 74.65 79.15 72.99 73.52 67.74 63.43 79.33 52.3 66.28 44.29 73.45 46.06 75.41 52.58 69.57 63.71 82.62 73.8 71.03 77.69 74.65"/>
              <polygon class="cls-11" points="68.47 88.54 80.37 101.74 81.91 100.47 68.27 85.34 68.47 88.54"/>
              <polygon class="cls-11" points="43.87 99.84 45.61 101.61 56.67 89.96 56.3 86.76 43.87 99.84"/>
              <polygon class="cls-10" points="35.94 100.25 43.79 99.84 56.3 86.76 48.61 86.91 35.94 100.25"/>
              <polygon class="cls-3" points="50.67 107.19 50.83 115.41 62.22 102.87 62.22 94.24 50.67 107.19"/>
              <polygon class="cls-5" points="62.35 94.1 62.22 94.24 62.22 102.87 62.24 102.85 73.1 115.42 73.21 113.87 73.77 107.31 62.35 94.1"/>
              <polygon class="cls-3" points="81.99 100.47 73.77 107.32 73.77 107.31 73.1 115.42 90.13 101.42 81.99 100.47"/>
              <polygon class="cls-10" points="68.27 85.34 75.83 85.55 90.13 101.42 81.79 100.25 68.27 85.34"/>
              <polygon class="cls-8" points="36.3 73.28 44.29 73.46 52.3 66.28 52.3 66.29 52.84 58.47 36.3 73.28"/>
              <polygon class="cls-8" points="63.43 79.34 73.53 67.79 73.1 59.88 63.47 70.94 63.43 79.33 63.43 79.34"/>
              <polygon class="cls-13" points="63.43 79.34 63.43 79.33 63.47 70.94 52.84 58.47 52.3 66.29 63.43 79.34 63.43 79.34"/>
            </g>
            <polygon class="cls-13" points="79.15 72.99 73.52 67.99 73.1 59.88 87.01 72.86 79.15 72.99"/>
          </g>
        </g>
      </g>
    </g>
  </g>
</svg>