<?xml version="1.0" encoding="UTF-8"?>
<svg xmlns="http://www.w3.org/2000/svg" version="1.1" xmlns:xlink="http://www.w3.org/1999/xlink" viewBox="0 0 272.52 76.69">
  <defs>
    <style>
      .cls-1 {
        opacity: .32;
      }

      .cls-1, .cls-2, .cls-3, .cls-4 {
        fill: #7c3600;
      }

      .cls-2 {
        opacity: .33;
      }

      .cls-5 {
        fill: #fde490;
      }

      .cls-6 {
        fill: url(#linear-gradient-2);
      }

      .cls-7 {
        fill: #fffbc5;
      }

      .cls-8 {
        fill: #a74700;
      }

      .cls-9 {
        isolation: isolate;
      }

      .cls-10 {
        fill: #a6352a;
        fill-rule: evenodd;
      }

      .cls-11 {
        fill: #fffc92;
      }

      .cls-12 {
        opacity: .18;
      }

      .cls-12, .cls-13, .cls-14 {
        fill: #fcf9ca;
        mix-blend-mode: overlay;
      }

      .cls-4 {
        opacity: .35;
      }

      .cls-15 {
        fill: #ffd800;
      }

      .cls-16 {
        fill: #682700;
      }

      .cls-17 {
        fill: #c86500;
      }

      .cls-13 {
        opacity: .75;
      }

      .cls-18 {
        fill: url(#linear-gradient);
      }

      .cls-14 {
        opacity: .63;
      }
    </style>
    <linearGradient id="linear-gradient" x1="48.09" y1="-14.07" x2="48.09" y2="75.13" gradientUnits="userSpaceOnUse">
      <stop offset="0" stop-color="#e87d00"/>
      <stop offset="1" stop-color="#ffe600"/>
    </linearGradient>
    <linearGradient id="linear-gradient-2" x1="48.09" y1="16.58" x2="48.09" y2="70.21" gradientUnits="userSpaceOnUse">
      <stop offset="0" stop-color="#fab400"/>
      <stop offset="1" stop-color="#e87d00"/>
    </linearGradient>
  </defs>
  <!-- Generator: Adobe Illustrator 28.6.0, SVG Export Plug-In . SVG Version: 1.2.0 Build 709)  -->
  <g class="cls-9">
    <g id="Layer_1">
      <path class="cls-10" d="M10.04,9.81h252.43c5.52,0,10.04,2.83,10.04,6.29v44.49c0,3.46-4.52,6.29-10.04,6.29H10.04c-5.52,0-10.04-2.83-10.04-6.29V16.1c0-3.46,4.52-6.29,10.04-6.29Z"/>
      <g>
        <g>
          <path class="cls-3" d="M84.89,36.24v-2.11h-.06c-.38-6.65-2.58-12.96-6.41-18.42l.08-.05-1.06-1.37C70.63,5.49,60.29.28,49.08.01c-.11,0-.22,0-.34,0h-.28c-.1,0-.2,0-.29,0h-.08c-9.73,0-18.9,3.7-25.83,10.42-6.56,6.36-10.4,14.73-10.92,23.71h-.06v6.86c0,19.68,16.51,35.7,36.81,35.7s36.81-16.01,36.81-35.7v-4.75ZM48.09,73.58c-18.58,0-33.7-14.62-33.7-32.59v-5.28C14.67,17.73,29.78,3.11,48.08,3.11h.03s.05,0,.05,0c.08,0,.15,0,.23,0h.31c.1,0,.19,0,.29,0,9.69.23,18.67,4.48,24.9,11.73h0s1.05,1.37,1.05,1.37c4.36,5.65,6.73,12.38,6.84,19.49v5.28c0,17.97-15.11,32.59-33.7,32.59Z"/>
          <g>
            <path class="cls-17" d="M83.15,35.68c-1.83-24.66-16.83-28.83-35.07-28.83S14.83,10.76,13.02,35.68h-.19v5.31c0,18.86,15.78,34.14,35.25,34.14s35.25-15.29,35.25-34.14v-5.31h-.19Z"/>
            <path class="cls-2" d="M48.15,73.66c-19.47,0-35.27-15.31-35.48-34.28,0,.39-.01.79-.01,1.19,0,19.14,15.89,34.66,35.49,34.66s35.49-15.52,35.49-34.66c0-.4,0-.79,0-1.18-.21,18.97-16.01,34.28-35.48,34.28Z"/>
            <path class="cls-18" d="M83.34,36.21c0,19.14-15.78,34.66-35.25,34.66S12.83,55.36,12.83,36.21,28.62,1.55,48.09,1.55s35.25,15.52,35.25,34.66Z"/>
            <path class="cls-14" d="M48.09,1.55C28.62,1.55,12.83,17.07,12.83,36.21c0,.42.02.84.03,1.26,8.98,7.92,21.34,12.81,34.99,12.81s26.45-5.07,35.46-13.24c0-.28.02-.55.02-.83,0-19.14-15.78-34.66-35.25-34.66Z"/>
            <path class="cls-13" d="M76.22,15.24C69.78,6.92,59.61,1.55,48.16,1.55s-21.78,5.45-28.21,13.88c7.97,4.84,17.6,7.67,27.98,7.67s20.26-2.91,28.29-7.86Z"/>
            <path class="cls-7" d="M48.09,3.54c19.13,0,34.69,14.99,35.23,33.67,0-.33.03-.66.03-.99,0-19.14-15.78-34.66-35.25-34.66S12.83,17.07,12.83,36.21c0,.33.02.66.02.99C13.39,18.53,28.95,3.54,48.09,3.54Z"/>
            <path class="cls-11" d="M48.09,69.41c-19.22,0-34.84-15.13-35.24-33.93,0,.24-.02.49-.02.73,0,19.14,15.78,34.66,35.25,34.66s35.25-15.52,35.25-34.66c0-.25-.01-.49-.02-.73-.4,18.8-16.01,33.93-35.24,33.93Z"/>
            <path class="cls-6" d="M76.85,36.21c0,15.62-12.88,28.28-28.76,28.28s-28.76-12.66-28.76-28.28S32.2,7.93,48.09,7.93s28.76,12.66,28.76,28.28Z"/>
            <path class="cls-8" d="M48.09,11.45c15.27,0,27.75,11.7,28.7,26.47.04-.6.06-1.2.06-1.81,0-15.62-12.88-28.28-28.76-28.28s-28.76,12.66-28.76,28.28c0,.61.03,1.21.07,1.81.95-14.77,13.43-26.47,28.7-26.47Z"/>
            <path class="cls-11" d="M48.09,62.95c-15.61,0-28.3-12.23-28.74-27.47,0,.27-.02.54-.02.81,0,15.62,12.88,28.28,28.76,28.28s28.76-12.66,28.76-28.28c0-.27-.01-.54-.02-.81-.44,15.24-13.13,27.47-28.74,27.47Z"/>
          </g>
          <g>
            <path class="cls-3" d="M33.3,4.22s.98,2.93-2.82,5.41c-3.8,2.47-5.81,0-5.81,0l8.63-5.41Z"/>
            <path class="cls-8" d="M27.88,9.19h-1.87l-1,.75s1.16,1.31,3.66.56c2.49-.75,3.71-2.33,4.09-3.13.38-.8-3.28,1.82-4.88,1.82Z"/>
          </g>
          <g>
            <path class="cls-3" d="M40.62,1.69s.12,1.57-2.06,2.33c-2.18.75-2.87-.72-2.87-.72l4.93-1.61Z"/>
            <path class="cls-8" d="M37.33,3.48c-.79-.2-.92-.23-.92-.23l-.59.25s.41.79,1.74.73c1.32-.06,2.12-.69,2.41-1.04.29-.35-1.85.49-2.64.3Z"/>
          </g>
          <g>
            <path class="cls-17" d="M56.39,70.87s-.37-2.26,2.7-3.63c3.07-1.37,4.25.68,4.25.68l-6.95,2.95Z"/>
            <path class="cls-2" d="M59.69,67.33s-1.36,1.23-1.53,1.64c-.17.41-.35.65-.86.8-.52.15-.83.16-.83.16,0,0,.57-1.76,1.97-2.45,1.4-.69,2.42-.71,2.42-.71l-1.16.56Z"/>
          </g>
          <g>
            <path class="cls-3" d="M82.73,24.93s-2.24.47-3.41-1.37c-1.16-1.83.91-2.8.91-2.8l2.49,4.17Z"/>
            <path class="cls-15" d="M79.45,23.16c.76.79,1.78.83,1.78.83,0,0-.05.09.07.41.12.32.15.54.15.54,0,0-1.32-.16-1.92-.99-.6-.83-.56-1.48-.56-1.48,0,0,.33.54.48.69Z"/>
          </g>
          <g>
            <path class="cls-3" d="M35.03,73.97s.99-2.07,4.29-1.42c3.3.64,3.09,3,3.09,3l-7.38-1.57Z"/>
            <path class="cls-16" d="M39.77,72.96s-1.82.23-2.19.46c-.38.24-.65.33-1.16.16-.51-.17-.77-.34-.77-.34,0,0,1.47-1.11,3.02-.87,1.54.24,2.38.81,2.38.81l-1.27-.21Z"/>
          </g>
          <g>
            <path class="cls-17" d="M16.87,53.86s1.5-.88,3.13,1.25c1.63,2.12.46,3.6.46,3.6l-3.6-4.85Z"/>
            <path class="cls-2" d="M20.07,55.62s-1.16-.78-1.49-.82c-.32-.03-.53-.11-.75-.49-.22-.38-.29-.63-.29-.63,0,0,1.36,0,2.15.96.79.95,1.03,1.77,1.03,1.77l-.65-.8Z"/>
          </g>
          <g>
            <path class="cls-1" d="M79.24,50.8c-.76.82-1.59,1.53-2.44,2.22-.85.68-1.74,1.31-2.64,1.9-.91.6-1.84,1.15-2.8,1.67-.96.51-1.95.99-3.01,1.35.76-.83,1.59-1.53,2.44-2.22.85-.68,1.74-1.31,2.65-1.9.91-.59,1.84-1.15,2.8-1.66.97-.51,1.95-.99,3-1.35Z"/>
            <path class="cls-5" d="M79.52,50.47s-3.63,3.62-6.53,5.18c-2.89,1.56-4.92,2.28-4.92,2.28,0,0,3.23-.74,5.72-2.11,2.49-1.37,5.73-5.35,5.73-5.35Z"/>
            <path class="cls-3" d="M76.85,52.58s-3.9,2.2-4.47,2.55c-.58.36-2.67,1.85-2.67,1.85,0,0,4.53-1.55,7.14-4.41Z"/>
          </g>
          <g>
            <path class="cls-3" d="M78.88,58.48l-2.73.55h-1.51s1.02.17,1.4.26c.37.09,1.59.13,1.7.45.11.32-.49,1.53-.23,1.36.26-.17,1.38-2.62,1.38-2.62Z"/>
            <path class="cls-15" d="M76.03,59.28l-1.47-.18s1.29.37,1.37.38c.07.01,1.62.22,1.7.14.08-.07-1.6-.34-1.6-.34Z"/>
          </g>
          <g>
            <g>
              <path class="cls-3" d="M13.14,27.28l3.9,3.7,2.47,1.55s-1.85-.77-2.54-1.01c-.7-.24-2.73-1.41-3.24-1-.51.41-.77,3-1.01,2.45-.25-.55.43-5.69.43-5.69Z"/>
              <path class="cls-15" d="M16.97,31.52l2.58,1.21s-2.49-.73-2.62-.78c-.13-.05-2.87-1.32-2.93-1.52-.05-.2,2.97,1.09,2.97,1.09Z"/>
            </g>
            <path class="cls-17" d="M14.33,26.03s2.35,3.52,2.63,3.83c.28.31,2.55,2.68,2.55,2.68l-2.47-1.55-3.36-2.54.65-2.42Z"/>
          </g>
          <g>
            <g>
              <path class="cls-3" d="M58.79,74.23l.9-4.26-.08-2.31s.39,1.54.58,2.1c.19.56.35,2.41.97,2.54.62.13,2.91-.97,2.59-.55-.32.42-4.95,2.49-4.95,2.49Z"/>
              <path class="cls-15" d="M60.18,69.75l-.55-2.22s.9,1.93.93,2.04c.03.11.51,2.46.37,2.59-.14.13-.75-2.41-.75-2.41Z"/>
            </g>
            <path class="cls-4" d="M56.99,74.16s1.61-3.2,1.71-3.52c.1-.33.92-3.1.92-3.1l.23,2.4-.5,3.46-2.36.76Z"/>
          </g>
        </g>
        <g>
          <polygon class="cls-8" points="50.24 28.82 50.24 26.03 54.04 25.92 50.8 26.83 50.24 28.82"/>
          <polygon class="cls-14" points="50.8 26.83 50.69 27.23 50.98 27.71 51.08 27.2 54.34 25.82 50.8 26.83"/>
        </g>
        <g>
          <polygon class="cls-3" points="28.69 39.28 28.69 36.48 32.49 36.37 29.24 37.28 28.69 39.28"/>
          <polygon class="cls-14" points="29.43 37.23 29.79 37.6 32.78 36.27 29.43 37.23"/>
        </g>
        <g>
          <polygon class="cls-8" points="28.07 15.8 28.07 19.12 38.34 20.76 29.99 17.87 28.07 15.8"/>
          <polygon class="cls-13" points="28.07 19.12 40.62 21.12 27.36 20.12 28.07 19.12"/>
        </g>
        <path class="cls-12" d="M53.02,15.8s5.59,16.57,7.34,16.06c1.75-.51,4.88-1.56,8.47-1.28,3.59.27,2-7.45-1.25-10.66-3.26-3.21-15.49-8.53-14.56-4.12Z"/>
        <path class="cls-12" d="M43.43,15.57s-.56,4.59-2.14,4.84c-1.58.25-9.8-2.5-9.84-2.67-.04-.17,3.67-2.5,7.43-3.4,3.76-.9,4.35-.4,4.55,1.23Z"/>
        <g>
          <path class="cls-12" d="M39.47,21.96s-9.73-3.09-12.53,0c-2.8,3.09-4.26,5.41-6.64,13.35-2.38,7.94,4.8,15.49,7.34,16.53,2.55,1.04,4.55-5.43,3.26-7.64-1.29-2.21-7.8-7.78-8.68-9.27-.88-1.49.29-5.46,3.21-5.08,2.92.38,5.94.29,7.77.13,1.83-.17,2.3,4.36,3.54,3.08,1.24-1.29,5.73-11.09,2.72-11.09Z"/>
          <path class="cls-12" d="M36.04,48.17s11.07,10.93,11.82,11.47c.75.54-3.09,2.56-8.23,1.47s-7.51-2.99-7.51-4.13,3.92-8.82,3.92-8.82Z"/>
        </g>
      </g>
    </g>
  </g>
</svg>