<?xml version="1.0" encoding="UTF-8"?>
<svg xmlns="http://www.w3.org/2000/svg" version="1.1" viewBox="0 0 103.82 102.76">
  <defs>
    <style>
      .cls-1 {
        fill: #b54f2a;
      }

      .cls-2 {
        fill: #d98f4e;
      }

      .cls-2, .cls-3, .cls-4, .cls-5, .cls-6 {
        fill-rule: evenodd;
      }

      .cls-3 {
        fill: #da9455;
      }

      .cls-4 {
        fill: #fff;
      }

      .cls-7, .cls-6 {
        fill: #c96d38;
      }

      .cls-5 {
        fill: #b4522b;
      }

      .cls-8 {
        fill: #e2a95f;
      }

      .cls-9 {
        fill: #7c181c;
      }

      .cls-10 {
        fill: #9c3a23;
      }
    </style>
  </defs>
  <!-- Generator: Adobe Illustrator 28.6.0, SVG Export Plug-In . SVG Version: 1.2.0 Build 709)  -->
  <g>
    <g id="Layer_1">
      <g>
        <g>
          <path class="cls-9" d="M4.32,31.42c20.75-51.84,85.49-30.67,96.88.13,8.71,31.62-6.25,49.57-15.27,58.55-7.37,7.34-29.05,17.3-51.44,10.24C12.1,93.28-9.43,65.77,4.32,31.42Z"/>
          <g>
            <path class="cls-6" d="M6.49,34.86c9.33-2.6,24.38-5.02,27.65-4.75,16.89,1.38,35.59-4.59,50.38-14.52,2.77,2.14,5.26,4.49,7.39,7-8.68.84-19.11,9.7-28.53,13.67-9.93,4.18-20.99,7.99-31.15,8.76-5.92.45-21.11,6.73-28.73,2.94.41-4.21,1.38-8.58,3-13.1Z"/>
            <path class="cls-2" d="M12.88,44.58c-3.19-.4-6.71-.53-9.15,1.35-.79,5.72-.56,11.13.48,16.17,2.93-2.44,8.11-7.24,15.08.48,2.01,4.88,11.03,1,20.81-1.31,10.44-2.47,21.18-8.82,24.56-9.59,5.81-1.31,28.68,4.88,35.75,1.38.35-5.96-.29-12.68-2.37-20.23-1.02-2.76-2.51-5.44-4.37-7.99-2.07-.2-4.27.23-5.78.81-14.83,5.8-30.92,19.05-44.73,14.84-10.25-3.13-22.11-3.01-30.29,4.08Z"/>
            <path class="cls-6" d="M4.94,65.14c5.98-6.06,14.33-4.05,21.49-1.65,14.82,4.96,26.51-7.37,42.22-5.66,9.62,1.05,25.42,5.51,31.06-7.65.26-.61.52-.95.78-1.08.15,9.19-2.01,16.72-5.03,22.83-5.41,2.27-11.62,3.8-14.09,5.56-18.03,12.83-41.03,4.27-61.15,8.85-.71.16-1.38.35-2.01.55-6.01-5.65-10.84-13.06-13.26-21.75Z"/>
            <path class="cls-5" d="M4.94,65.14c5.98-6.06,14.33-4.05,21.49-1.65,14.82,4.96,26.51-7.37,42.22-5.66,8.5.93,21.83,4.51,28.72-3.75.76,5.75-.1,9.92-3.73,10.75-8.86,2.02-18.75-1.66-27.18.27-15.01,3.42-25.76,10.49-42.21,4.82-6.15-2.11-10.44,3.18-14.91,5.75-1.85-3.24-3.35-6.76-4.4-10.52Z"/>
            <path class="cls-6" d="M98.57,63.94c-10.33-.82-24.18,12.26-32.04,14.67-17.11,5.26-28.78,6.62-45.86,10.45,4.59,3.77,9.72,6.57,14.89,8.21,5.25,1.66,10.45,2.31,15.41,2.26l24.5-6.11c3.57-1.85,6.41-3.89,8.27-5.74,4.86-4.85,11.58-12.48,14.84-23.74Z"/>
            <path class="cls-1" d="M18.49,87.16c.91-.57,1.72-1.12,2.33-1.53,12.46-8.19,26.25,4.67,38.3-6.46,5.82-5.36,25,1.83,14.97-1.71-6.78-2.39-12.52-7.05-19.01-1.31-9.94,8.8-20.47.51-31.18,1.46-2.12.19-6.81,2.87-10.91,3.53,1.68,2.18,3.53,4.2,5.5,6.02Z"/>
            <path class="cls-10" d="M24.73,64.88c3.97-.3,9.53-2.23,15.37-3.61,10.45-2.47,20.92-8.2,24.31-8.97,5.83-1.32,28.9,4.39,36,.78.12-2.07.12-4.23-.02-6.49-12.45,7.2-21.45-.68-30.5,1.64-14.51,3.71-24.6,6.94-34.15,9.19-11.77,2.76-13.41,5.53-11.01,7.46Z"/>
            <path class="cls-7" d="M63.68,35.83c-7.32,1.67-16.13,7.68-24.04,4.91-6.77-2.37-12.24-1.16-18.7.31-4.57,1.05-16.76,7.43-12.46,6.79l14.18-2.1c15.02-2.23,30.41,2.71,41.02-9.91Z"/>
            <path class="cls-3" d="M26.9,8.9c8.51.78,16.19-3.32,24.6-5.55,13.24.65,26.36,6.26,35.56,14.33-4.3,1.54-8.46,2.76-10.37,4.13-18.02,12.83-41.03,4.28-61.15,8.85-3.9.89-6.61,2.63-8.7,3.23.15-.39.3-.79.46-1.19,4.62-11.53,11.56-19.2,19.6-23.81Z"/>
            <path class="cls-10" d="M99.15,56.92c-3.86,15.2-19.01,28.04-24.26,29.37-26.01,6.63-40.62,13.79-69.74-22.34.09,1.12.24,2.21.43,3.27,5,15.11,17.34,26.05,29.97,30.04,20.97,6.62,41.28-2.71,48.18-9.59,5.57-5.55,13.56-14.75,16.02-28.88-.14-.63-.34-1.25-.6-1.88Z"/>
            <path class="cls-5" d="M14.11,20.37c3.22.28,12.33-1.54,15.54-2.44,19.69-5.55,21.44-4.62,36.24-.96,5.82,1.44,11.82.09,18.68-1.73.62.38-14.91,10.49-31.31,3.91-7.22-2.9-38.15,10.84-46.78,15.71.26-.71.52-1.43.81-2.15,1.9-4.76,4.2-8.84,6.81-12.34Z"/>
            <path class="cls-8" d="M6.49,34.86c9.33-2.6,24.38-5.02,27.65-4.75,16.89,1.38,35.59-4.59,50.38-14.52,1.24.96,2.43,1.97,3.56,3.01-2.29.31-4.57,1.3-6.91,2.53-16.55,8.72-24.89,8.96-43.53,11.6-6.61.94-26.3.56-32.59,6.75.41-1.52.89-3.06,1.44-4.61h0ZM3.62,46.77c.18.5.4,1.01.67,1.55-.27-.1-.54-.22-.8-.35.04-.4.08-.8.13-1.2Z"/>
            <path class="cls-7" d="M60.23,4.48c-4.03,1.32-8.14,2.07-12.02.72-2.44-.85-4.7-1.24-6.91-1.32-6.46,1.03-12.69,3.44-18.25,7.53l8.18-1.21c12.09-1.79,24.42,1.05,34.31-4.34-1.75-.54-3.52-.99-5.31-1.37Z"/>
          </g>
        </g>
        <path class="cls-4" d="M72.5,45.24h7.29c3.89,0,7.08,1.5,7.08,3.33v15.98c0,1.83-3.19,3.34-7.08,3.33l-7.29-.02v-2.97c4.46-.33,6.87-2.24,6.87-5.2,0-2.38-1.54-3.55-4.8-3.8,3.18-.55,4.75-1.96,4.75-4.3,0-2.65-2.22-3.82-6.82-3.83v-2.52h0ZM72.5,60.97c.83-.29,1.28-.86,1.28-1.66,0-.72-.43-1.2-1.28-1.44v3.1h0ZM72.5,53.74c.51-.26.76-.64.76-1.18,0-.57-.25-.96-.76-1.18v2.37ZM51.32,23.08h13.02c1.83,0,3.33,1.5,3.33,3.33v18.83h4.83v2.52h-.04c-1.59,0-3.35.15-5.27.42l-.77,3.75c1.66-.52,3.2-.79,4.52-.79.67,0,1.18.07,1.55.23v2.37c-.52.26-1.32.38-2.4.38-.62,0-1.32-.05-2.06-.12l-.15,3.85c1.37-.1,2.31-.17,2.83-.17.72,0,1.31.07,1.78.2v3.1c-.39.13-.86.21-1.4.21-1.49,0-3.26-.45-5.47-1.22l.15,4.18c1.69.55,3.43.8,5.29.8.5,0,.97-.02,1.43-.05v2.97l-21.18-.05v-23.42h3.4c.1-3.03.15-4.95.2-5.77l.22-4.4c.1-1.89.22-3.98.4-6.29h-4.22v-4.86ZM40.79,23.08h10.53v4.86h-.9l-3.03,1.79-.3,4.5,3.08-1.89-.35,7.6c-.02.62-.12,2.11-.3,4.45h1.79v23.42l-21.77-.05v-5.73h6.13l.15-3.63h-6.28v-.22c4.63-3.62,7.02-6.33,7.02-8.7,0-2.71-2.09-4.25-6.14-4.25-.28,0-.58,0-.88.01v-5.24l7.91.07v-13.68c0-1.83,1.5-3.33,3.33-3.33h0ZM29.55,52.4c1.01-1.13,1.5-2,1.5-2.52,0-.61-.5-.97-1.5-1.09v3.6ZM29.55,67.76h-5.24c-3.89-.02-7.08-1.51-7.08-3.34v-21.13c0-1.83,3.19-3.37,7.08-3.33l5.24.05v5.24c-1.51.06-3.27.25-5.23.58l-.67,3.83c2.31-.62,4.03-.9,5.17-.9.27,0,.51.01.73.03v3.6c-1.33,1.49-3.56,3.43-6.77,5.59l-.25,4.05h7.02v5.73h0ZM29.55,58.18l-.28.22h.28v-.22Z"/>
      </g>
    </g>
  </g>
</svg>