<?xml version="1.0" encoding="UTF-8"?>
<svg xmlns="http://www.w3.org/2000/svg" version="1.1" viewBox="0 0 249.66 134.31">
  <defs>
    <style>
      .cls-1 {
        fill: #d47d43;
      }

      .cls-2 {
        fill: #cc6f33;
      }

      .cls-3 {
        fill: #d27b2e;
      }

      .cls-4 {
        fill: #fff;
        font-family: GoodGirl, GoodGirl;
        font-size: 54px;
      }

      .cls-5 {
        fill: #c96d38;
      }

      .cls-6 {
        fill: #e1924b;
      }

      .cls-7 {
        fill: #7c181c;
      }

      .cls-8 {
        fill-rule: evenodd;
      }

      .cls-8, .cls-9 {
        fill: #9c3a23;
      }

      .cls-10 {
        fill: #ca7030;
      }

      .cls-11 {
        fill: #d99231;
      }
    </style>
  </defs>
  <!-- Generator: Adobe Illustrator 28.6.0, SVG Export Plug-In . SVG Version: 1.2.0 Build 709)  -->
  <g>
    <g id="Layer_1">
      <g>
        <path class="cls-7" d="M2.26,85.97c.03-2.81,2.24-7.48,2.09-7.87-2.54-6.52-4.02-33.86.41-38.25,1.71-1.7-2.35-5.53-2.29-10.86.06-6.2.75-13.01,2.24-18.57,6.64-2.15,12.8-5.86,27.93-6.31,26.47-.78,72.27,7.38,108.8,6.38,60.08-1.64,106.45-30.52,100.07,15.26,7.77.17,3.42,12.99,4.73,25.43,6.29,7.8,1.98,19.56,1.98,29.73,0,16.94,2.27,38.23-4.97,45.55-10.71,10.84-24.56,7.38-39.98,7.14-16.42-.24-36.65-3.36-43.17-2.75-41.04,3.9-108.89-2.08-152.28.33-2.77.59-4.66-3.81-4.88-11.62-6.11-23.2-.8-21.55-.67-33.6Z"/>
        <path class="cls-9" d="M228.38,45.47c-40.79,1.04-81.72-.54-122.07-7.96-8.66-1.6-17.34-3.2-25.9-5.84-17.96-5.48-36.34-9.77-54.63-11.12-6.03.14-12.2.4-18.2,2.28-.18,2-.27,4-.3,5.93-.02,1.44.33,2.75.77,3.92,5.79-3.77,11.86-6.18,17.87-7.74,4.5-1.36,10-2.47,14.14,1.26,1.68,1.6-12.31,6.52-13.87,7.04-5.84,1.62-12,3.48-17.79,6.93-.75,1.77-1.21,4.44-1.45,7.53,6.41-3.01,13.01-4.65,19.53-5.91,14.45-2.92,29.05-3.36,43.48-2.04,12.13,1.16,24.2,4.33,35.93,9.45,4.43,2.26,13.48,9.06,3.26,4.46-1.12-.51-2.24-.98-3.37-1.46-25.44-9.34-53.01-16.09-79.24-8.44-6.51,1.64-13.5,3.8-19.78,8.55-.06,5.59.43,11.65,1.2,15.93,5.04-3.69,10.36-6.39,15.66-7.68,1.14-.28,2.31-.51,3.46-.72,16.96-3.02,33.99,4.2,50.79,6.04,9.11.99,18.21,1.85,27.37,1.45,5.69-.35,11.37-1.17,17.05-2.26.94-.17-11.56,2.72-17.09,3.34-11.87,1.05-23.8,1.04-35.57-1.01-14.14-.5-28.23-6.19-42.45-4.11-5.84.95-12.98,2.48-18.52,8.09.14.48.28.91.43,1.25.14.35-1.99,4.53-2.02,7.03-.05,3.73-.65,8.69-1.19,14.02.47-.13.94-.33,1.36-.47,6.93-1.09,13.83-3.71,20.76-5.07,5.34-1.12,10.69-2.24,16.03-3.3,20.37-4.11,40.58-9.92,61.03-12.83,14.29-2.47,28.6-4.27,42.91-5.35,44.94-3.42,101.09,11.1,90.61,21.27-6.72,6.52-64.25,8.87-92.61,11.44-12.14,1.1,36.01-31.81,15.84-30.16-18.96,1.55-37.93,3.7-56.87,6.53-25.65,3.1-51.43,6.92-76.84,15.36-6.62,1.81-13.41,3.84-19.76,8.07-.56.38-1.11.87-1.67,1.25.55,2.31,1.43,6.09,2.97,5.72,3.54-.18,7.34-2.76,10.82-3.97,2.64-.91,5.29-1.71,7.93-2.43,24.3-7.98,48.79-9.55,73.17-15.44,1.03-.26,2.06-.5,3.09-.73,8.57-2.34,21.13-8.66,29.5-4.07.86.64-22.97,4.58-29.56,5.83l-18.89,3.26c-19.1,3.79-38.3,6.66-57.24,13.3-1.75.5-17.69,10.67-17.58,11.97.02.97.95,10.96,1.23,11.77,1.34,3.99,26.4-.38,61.93-1.86,24.9-1.04,60.97,3.04,89.32,1.1,25.97-1.77,63.22,11.84,77.54-7.8,3.61-4.95,1.54-40.47,1.78-50.73.36-14.99,2.04-21.32-14.29-20.9Z"/>
        <path class="cls-3" d="M234.38,51.94c-4.65-2.74-104.84-9.01-106.33-13.66-1.74-5.45,57.86,1.21,82.93-3.82,39.11-7.84,23.14-31.11,14.41-29.31-43.76,9-80.24,7.94-116.03,6.48-26.16-1.07-54.67.74-82.84-.64-5.44-.27-12.34,3.32-18.02,5.06-.75,3.84-1.13,8.03-1.22,11.98,6.01-3.5,12.33-5.24,18.54-5.99,1.29-.1,17.11,4.34,16.16,4.44-5.33.37-10.67,1.34-15.9,3.63-5.94,2.03-11.77,5.03-17.36,9.35-.26.47-.49,1.04-.69,1.69,4.27-1.58,13.76-5.38,18.21-6.35,3.03-.72,6.07-1.28,9.11-1.65,14.14-1.71,28.47-.84,42.45,2.18,9.54,2.1,18.81,6.25,28.25,9.31,1.89.7,3.79,1.33,5.7,1.82,51.29,13.24,63.71,10.14,115.64,10.66,6.08.06,23.27-2.7,6.99-5.2Z"/>
        <path class="cls-10" d="M239.32,27.46c-15.7,12.24-74.01,29.98-123.82,24.86-3.22-.34-6.45-.71-9.68-1.12-17.47-2.05-34.85-5.92-52.34-7.53-8.87-.78-18.03-1.19-26.88,1.83-4.41,1.24-9.15,2.8-13.14,6.81-3.84,3.96,11.9,1.67,13.41,1.48,3.98-.41,7.99-1.2,11.96-1.25,16.89.21,33.76,7.94,50.62,9.73,5.3.54,10.62.64,15.94.67,22.63-.09,45.29-2.1,67.87-.06,26.65,2.44,80.26-8.05,66.06-35.42Z"/>
        <path class="cls-2" d="M110.8,70.59c-18.3-.68-65.22-10.76-83.59-6.61-1.59.34-3.18.76-4.77,1.33-7.58,2.84-7.28,18.2.89,18.75,16.04.94,88.24-12.55,87.47-13.47Z"/>
        <path class="cls-1" d="M232.21,61.35c-27.48-8.5-90.04,17.26-104.25,19.93-7.81,1.45-15.61,3.01-23.4,4.72-18.85,3.36-37.68,7.3-56.53,10.67-6.54,1.17-13.16,3.44-19.54,6.58-14.23,5.34-16.14,8.99.18,5.54l.25-.06c25.02-5.73,50.14-8.71,75.24-11.78,6.38-.78-39.09,9.92-30.13,12.82,7.66,2.48,69.81-2.75,75.27-3.44,17.3-2.2,54.11,5.48,66.03,3.17,13.08-2.55,26.86-3.42,20.2-19.13-.41-.97-26.85,8.97-56.41,5.35-10.69-1.31-55.85,9.8-24.64-.2,44.66-14.31,45.24-6.53,67.6-5.78,14.03.6,30.8-22,10.14-28.39Z"/>
        <path class="cls-5" d="M233.72,72.28c-11.29-25.91-65.76-4.92-83.8-1.44-14.43,2.86-77.62,13.2-92.05,16.11-25.45,4.22-51.97,10.81-29.4,15.56-1,.26-2.01.53-3.01.8-5.52,1.52,1.35-.22,3.01-.6,25.18-6.74,50.61-8.28,75.89-11.46,1.25-.2,2.51-.4,3.75-.61,31.58-5.29,63.04-12.68,94.69-15.82,10.51-1,32.64,18.03,30.9-2.53Z"/>
        <path class="cls-11" d="M150.54,58.56c-.46-.43-.93-.85-1.4-1.28l-1.62-.15c1.01.43,2.02.89,3.02,1.43h0ZM147.52,57.13c-13.93-1.21-27.93-.4-41.86-1.78l-29.33-5.74c-16.14-5.02-32.34-7.37-48.81-2.91-.3.08-.59.17-.88.24-9.65,2.3-8.6,1.34-.05-1.39,5.54-2.25,11.22-4.11,16.86-5.01,20.99-3.14,41.67,8.22,62.32,11.66,2.71.49,5.44.84,8.17,1,11.15.62,22.71-.64,33.58,3.92Z"/>
        <path class="cls-5" d="M235.87,14.13c-1.24-5.58-6.58-9.77-10.47-8.97-43.76,9-80.24,7.94-116.03,6.48-26.16-1.07-54.67.74-82.84-.64-5.44-.27-12.34,3.32-18.02,5.06-.29,1.49-.53,3.04-.71,4.6,5.06-3.33,11.85-6.16,21.01-7.53,34.9-5.23,48.93,17.47,101.2,6.46,17.35-3.65,64.11,19.05,105.88-5.47Z"/>
        <path class="cls-6" d="M233.07,75.19c-12.67-28.25-87.29-8.33-107.07-4.31-7.02,1.5-14.04,2.97-21.06,4.47-25.61,4.47-51.45,8.65-76.77,18.1-45.97,13.74,51.7-9.8,57.24-10.74,6.48-1.12,12.94-2.86,19.41-4.15,17.78-4.3,35.7-4.56,53.53-7.99,59.22-11.4,75.2,6.04,74.71,4.63Z"/>
        <path class="cls-8" d="M217.88,26.69c4.9-5.5,21.85-7.5,14.31.48-13.85,14.66-42.28,12.89-52.25,13.47-16.44.95-28.78-5.46-41.8-6.28-11.14-.7-13.37-.14-25.89,2.89-1.17.29,9.2-6.98,11.68-7.82,20.78-7.05,43.29,13.83,63.84,4.55,11.31-5.1,18.19-5.34,30.1-7.29Z"/>
      </g>
      <text class="cls-4" transform="translate(77.23 83.54)"><tspan x="0" y="0">Skip</tspan></text>
    </g>
  </g>
</svg>