<?xml version="1.0" encoding="UTF-8"?>
<svg xmlns="http://www.w3.org/2000/svg" version="1.1" viewBox="0 0 544.55 161.23">
  <defs>
    <style>
      .cls-1 {
        fill: #552b00;
      }
    </style>
  </defs>
  <!-- Generator: Adobe Illustrator 28.6.0, SVG Export Plug-In . SVG Version: 1.2.0 Build 709)  -->
  <g>
    <g id="Layer_1">
      <g>
        <path class="cls-1" d="M112.32,13.51c0,4.08-.36,9.09-1.09,15.01l-.16,1.26c0,.05-.1.26-.28.61-.57,1.03-1.41,1.81-2.52,2.35-.95.49-2.29.82-4.02,1.01-.84.11-1.81.22-2.92.32-.87.08-1.31.12-1.34.12-3.06,0-4.98-.38-5.76-1.14-1.43-1.38-2.15-3.88-2.15-7.51,0-.46.04-1.7.12-3.73h-.08.04l.12-.04h3.65c1.54,0,2.69.22,3.45.65v.24c.03.38,0,.93-.06,1.66-.07.73-.1,1.26-.1,1.58,0,1.27.3,2.22.89,2.84.35.11.72.16,1.09.16,1.49,0,2.49-.58,3-1.75.32-.73.49-1.95.49-3.66,0-.7-.05-1.74-.14-3.11-.1-1.37-.14-2.38-.14-3.03-.03-2.47-.12-6.45-.28-11.95.38-.43,1.03-.64,1.95-.61,1.16.03,1.88-.01,2.15-.12h2.03c.87,0,1.38.26,1.54.77,0,.03.04.35.12.97.27,2.16.41,4.52.41,7.06Z"/>
        <path class="cls-1" d="M134.92,25.64c0,3.16-.46,5.59-1.38,7.26-.27.49-.47.8-.61.93-.14.14-.5.37-1.1.69-2.27,1.27-5.07,1.91-8.4,1.91s-5.69-.57-7.08-1.7c-1.39-1.14-2.39-2.8-2.98-4.99-.41-1.49-.61-3.49-.61-6v-10.14c0-3.25.38-5.83,1.14-7.75.19-.43.32-.7.41-.81.08-.11.32-.31.73-.61,1.54-1.14,3.5-1.7,5.88-1.7,2,0,4.12.3,6.37.89,2.65.7,4.53,1.62,5.64,2.76.81.81,1.26,2.26,1.34,4.34.05,1.05.12,2.64.2,4.75.03.87.11,2.57.24,5.11.13,2.11.2,3.8.2,5.07ZM127.33,21.16c0-2.71-.08-5.1-.24-7.16,0-.27-.03-.65-.08-1.14-.03-.11-.12-.3-.28-.57-.68-1.06-1.75-1.59-3.21-1.59-.6.49-.99.92-1.18,1.3.08,6.18.12,9.32.12,9.43,0,.38-.02.96-.06,1.75-.04.79-.06,1.37-.06,1.75,0,1.82.43,3.13,1.28,3.94.22.22.4.35.54.41.27.11.65.16,1.11.16.85,0,1.48-.28,1.9-.85.11-2.71.17-5.19.17-7.44Z"/>
        <path class="cls-1" d="M144.9,3.9c-.43,3.11-.65,7.09-.65,11.93v9.78c.03,1.24,0,3.1-.08,5.56l-.45.24-7.1.16c-.59-.38-.89-.97-.89-1.79,0-.35.05-.9.16-1.64.11-.74.16-1.32.16-1.72,0-.27.05-1.24.16-2.92.49-8.38.73-13.28.73-14.69,0-1.7-.05-3.3-.16-4.79.13-.22.63-.46,1.5-.73h4.02c1.11,0,1.97.2,2.6.61Z"/>
        <path class="cls-1" d="M171.15,2.48c0,.16-.07.72-.2,1.66-.16,1.08-.33,3.21-.49,6.37-.24,4.14-.37,8.76-.37,13.88,0,.51.05,5.65.16,15.42l-.81.69-7.48-.24-.61-.61c-1.22-4.41-3.66-11.13-7.32-20.16v1.01c0,2.06.14,4.5.42,7.34.22,1.84.49,4.56.8,8.15-.95.59-2.29.89-4.02.89-.49,0-1.22-.03-2.21-.1-.99-.07-1.71-.1-2.17-.1l-.57-.53c.46-7,.69-14.28.69-21.83,0-3.27-.04-6.56-.12-9.86.46-.49,1.18-.73,2.15-.73h1.58c.41,0,1.02-.07,1.85-.22.82-.15,1.44-.22,1.85-.22.35,0,.68.05.97.16.59.89,1.11,2.14,1.54,3.73.68,2.43,1.04,3.73,1.1,3.89.49,1.41.99,2.83,1.5,4.26.59,1.62,1.19,3,1.79,4.14.13-1.51.2-3.22.2-5.11,0-1.38-.05-3.44-.16-6.19s-.16-4.81-.16-6.19c0-.3.22-.54.65-.73.13-.03.35-.08.65-.16l.33-.12h8.15c.22.38.32.88.32,1.5Z"/>
        <path class="cls-1" d="M225.79,8l-.69.6-11.93-.49-.61.69c0,.38.04,4.4.12,12.05.09,4.71.32,8.68.69,11.93-.62.19-1.33.28-2.11.28-.43,0-1.08-.04-1.93-.12s-1.5-.12-1.93-.12-.81.03-1.14.08c-.14-.11-.55-.16-1.26-.16-.54,0-.89-.18-1.05-.53v-3.45c0-1.89-.11-4.92-.32-9.09-.19-3.92-.27-6.95-.24-9.09l-.85-.69h-11.13l-.36-.49c.11-.78.16-2.22.16-4.3,0-1.81.11-3.25.33-4.3.54-.22,1.16-.32,1.87-.32.46,0,1.1.08,1.91.23.95.22,1.57.34,1.87.38-.03,0,.46,0,1.46,0l3.57-.12c1.79,0,4.49.02,8.11.06,3.62.04,6.33.06,8.11.06h6.49l.85.48v6.42Z"/>
        <path class="cls-1" d="M247.5,34c0,.14-.14.29-.4.47-.27.18-.47.26-.61.26-3.36,0-5.61-.18-6.74-.53.05-1.03.08-2.14.08-3.33,0-1.76-.14-4.34-.41-7.75-.54-.38-1.22-.57-2.03-.57-.35,0-.86.04-1.52.12s-1.17.12-1.52.12c-.3,0-.58-.03-.85-.08-.3.57-.45,1.28-.45,2.15,0,.24.03.7.08,1.38.11,1.24.27,3.68.49,7.3l-.28.32c-.51.03-1,.04-1.46.04-2.19,0-3.81-.22-4.87-.65.35-3.76.53-7.84.53-12.25,0-3.57-.12-7.67-.37-12.29.68-.35,1.53-.53,2.56-.53.84,0,1.72.11,2.64.32.19.51.28,1.66.28,3.45,0,1.11.08,1.92.24,2.43,1.58.22,2.99.32,4.24.32.76,0,1.47-.04,2.12-.12.33-.41.49-1.6.49-3.57,0-.78,0-1.16,0-1.14-.2-1.05-.33-1.87-.37-2.43-.04-.57-.14-1.38-.28-2.43l.61-.49c1.38.11,2.6.16,3.65.16,1.38,0,2.46-.09,3.25-.28l.61.85c-.16,3.46-.24,7.09-.24,10.87,0,4.52.13,9.81.41,15.86.08,1.38.12,2.04.12,1.99Z"/>
        <path class="cls-1" d="M268.64,1.83l-.33,6.73c-.54.41-1.2.61-1.99.61-.35,0-.77-.05-1.26-.16-.95-.22-2-.32-3.17-.32-.54,0-1.34.01-2.39.04-1.05.03-1.85.04-2.39.04-.3.38-.45.84-.45,1.38,0,.3.05.75.16,1.36s.16,1.06.16,1.36c.78.49,1.81.73,3.08.73h-.08.12l.53-.05c.87-.07,1.64-.12,2.31-.15h.49c.81-.03,1.55.07,2.23.29l-.28,6.12-10.18.12c-.43.32-.65.82-.65,1.49,0,.21.03.53.1.94.07.42.1.72.1.9l.61.44h7.46c1.03,0,2.56-.03,4.58-.08.3.57.47,1.42.53,2.56-.03-.59-.04.27-.04,2.6,0,.38-.35.77-1.05,1.18-.89.05-1.83.08-2.8.08-1.68,0-4.19-.09-7.53-.26-3.34-.18-5.85-.26-7.53-.26l-.24-.41c.24-3.33.39-7.84.45-13.55.08-6.57.18-11.1.28-13.59l.45-.32c1,.05,2.05.08,3.16.08,1.54,0,3.94-.08,7.18-.24,3.14-.19,5.53-.27,7.18-.24h.85l.33.61Z"/>
        <path class="cls-1" d="M312.17,14.4c0,3.41-1.04,5.71-3.12,6.9-.81.46-2.57,1.1-5.27,1.91-1.22.35-3,.97-5.36,1.87l-.45.69c.05,1.73.11,3.45.16,5.15.11,2.06.32,3.76.65,5.11v.16c-.03.19,0,.45.08.79.08.34.12.59.12.75,0,.3-.11.55-.32.77-.73.11-1.56.16-2.48.16-.54,0-1.68-.04-3.41-.12-1.43-.08-2.58-.09-3.45-.04l-.45-.49v-17.28c0-6.49-.16-11.97-.49-16.43.43-.35,1.28-.53,2.56-.53.95,0,1.58-.05,1.91-.16,4.57.11,6.99.16,7.26.16,2.95.22,5.27.74,6.98,1.58,1.87.92,3.29,2.3,4.26,4.14.13.24.3.6.49,1.05.22.84.33,2.12.33,3.85ZM301.94,12.66c0-.76-.08-1.32-.22-1.68-.15-.37-.52-.85-1.12-1.44-.6-.59-1.08-.91-1.46-.95-.38-.04-.92-.09-1.62-.14l-.37-.04h-.08.04c-.8,0-1.41.18-1.83.53v7.06l.49.57c.33.03.65.04.98.04,1.61,0,3.06-.41,4.37-1.22.54-.7.82-1.61.82-2.72Z"/>
        <path class="cls-1" d="M345.56,36.4c0,.49-.03,1.19-.08,2.13-.05.93-.47,1.49-1.26,1.68-2.08-.27-5.27-.6-9.57-.97-.57-.51-.95-1.29-1.14-2.31l-.49-2.6c-.05-.24-.15-.61-.28-1.1-.19-.89-.38-1.79-.57-2.68-.22-1.03-.49-1.88-.81-2.56h-8.52l-.28.28-2.23,8.24c-.14.51-.51.77-1.14.77-.22,0-.53-.07-.93-.2-.41-.14-.69-.22-.85-.24-.95-.11-1.89-.23-2.84-.37-1.08-.24-1.8-.8-2.15-1.66.16-2.79.91-5.33,2.23-7.63.11-.14.24-.35.41-.65.05-.19.12-.46.2-.81.24-.84.62-1.84,1.14-3,.87-1.95,1.3-2.93,1.3-2.96.43-1.11,1.11-3.08,2.03-5.92,1.49-4.65,2.53-8.78,3.12-12.37.24-.41.69-.89,1.34-1.46l8.56.2c.89.73,1.53,1.76,1.91,3.09,0,.05.2,1.27.61,3.66.76,4.61,2.31,9.48,4.67,14.63.97,2.16,2.85,7.1,5.64,14.82ZM329.9,21.54c-1.08-3.27-1.85-5.73-2.31-7.38-1.33,3.3-2.27,5.8-2.84,7.51l5.15-.12Z"/>
        <path class="cls-1" d="M371.44,38.1c0,.16-.03.31-.08.45-1.08.62-2.41.93-3.98.93-1.06,0-2.37-.15-3.94-.45-.79-1.05-1.35-2.76-1.7-5.11-.41-2.68-.8-4.44-1.18-5.27-.79-1.7-2.19-2.76-4.22-3.16l-.57.53v1.3c-.03,3.3.16,6.82.57,10.55l-.32.57-9.33.24-.45-.45c.3-3.95.46-8.4.49-13.35v1.46l-.04-14.93c0-.76-.1-1.88-.3-3.37-.2-1.49-.3-2.61-.3-3.37l.61-.69h1.83c6.09-.05,11.06.38,14.93,1.3.46.11,1.12.3,1.99.57,1.43.54,2.61,1.65,3.53,3.33.87,1.54,1.3,3.14,1.3,4.79,0,2.89-1.24,5.07-3.73,6.53-.27.08-.64.22-1.12.41-.47.19-.7.46-.67.81v.16c1.49.87,2.49,2.26,3,4.18,0,.03.07.61.2,1.74l.45,3.53c.3,2.33.88,3.89,1.75,4.71.87.81,1.3,1.5,1.3,2.07ZM359.47,14.44c0-1.3-.22-2.19-.65-2.68-.33-.38-.83-.93-1.5-1.66-.27-.05-.74-.24-1.4-.55s-1.2-.47-1.6-.47c-.3,0-.57.07-.81.2l-.2,8.11.57.49c1.92-.13,3.17-.31,3.73-.53,1.24-.46,1.87-1.43,1.87-2.92Z"/>
        <path class="cls-1" d="M406.74,8l-.69.6-11.93-.49-.61.69c0,.38.04,4.4.12,12.05.09,4.71.32,8.68.69,11.93-.62.19-1.33.28-2.11.28-.43,0-1.08-.04-1.93-.12s-1.5-.12-1.93-.12-.81.03-1.14.08c-.14-.11-.55-.16-1.26-.16-.54,0-.89-.18-1.05-.53v-3.45c0-1.89-.11-4.92-.32-9.09-.19-3.92-.27-6.95-.24-9.09l-.85-.69h-11.13l-.36-.49c.11-.78.16-2.22.16-4.3,0-1.81.11-3.25.33-4.3.54-.22,1.16-.32,1.87-.32.46,0,1.1.08,1.91.23.95.22,1.57.34,1.87.38-.03,0,.46,0,1.46,0l3.57-.12c1.79,0,4.49.02,8.11.06,3.62.04,6.33.06,8.11.06h6.49l.85.48v6.42Z"/>
        <path class="cls-1" d="M435.5,4.54c0,.46-.26,1.16-.77,2.11-.19.35-.46.89-.81,1.62-.03.11-.07.26-.14.45-.07.19-.7,1.34-1.91,3.45-1.2,2.11-2.68,4.65-4.44,7.63-.41,5.82-.57,12.23-.49,19.23l-.49.49-9.78.32-.49-.45c.57-7.14.85-12.59.85-16.35,0-1.03-.01-2.04-.04-3.04-1.33-2.41-4.52-7.53-9.57-15.38-.16-.24-.24-.43-.24-.57,0-.35.51-.72,1.54-1.1l6.82-2.48c.84.43,1.58,1.3,2.23,2.6.35.73.88,1.84,1.58,3.33.35.7.88,1.74,1.58,3.12.32.68.83,1.68,1.5,3,2.38-3.49,4.21-6.56,5.48-9.21.11-.27.28-.66.53-1.18.24-.43.74-.65,1.5-.65,1,0,2.12.27,3.37.81,1.46.62,2.19,1.37,2.19,2.23Z"/>
        <path class="cls-1" d="M443.29,15.17c-.79.38-1.87.57-3.25.57h-2.07c-.81-.03-1.49-.03-2.03,0l-.41-.25v-3.9c0-1.18.09-2.12.28-2.83h6.94l.41.41.12,6ZM443.29,31.8c-.79.38-1.87.57-3.25.57h-2.07c-.81-.03-1.49-.03-2.03,0l-.41-.25v-3.9c0-1.18.09-2.12.28-2.83h6.94l.41.41.12,6Z"/>
        <path class="cls-1" d="M131.96,74.66c2.65-.05,4.88.37,6.67,1.28,1.8.91,3.2,2.16,4.2,3.75.27.43.49.85.67,1.24.17.39.34.86.51,1.4.05.14.11.32.16.55.05.23.04.44-.04.63-.05.16-.16.26-.3.3-.15.04-.3.09-.47.14h-.41c-.08.03-.18.04-.3.04h-.34c-.38,0-.72-.02-1.03-.06-.31-.04-.54-.17-.67-.39-.19-.27-.34-.58-.45-.93-.11-.35-.26-.68-.45-.97-.35-.59-.75-1.11-1.2-1.54-.45-.43-.97-.84-1.56-1.22-.32-.22-.68-.38-1.08-.49-.39-.11-.79-.22-1.2-.32-.3-.08-.64-.14-1.01-.18s-.78-.06-1.2-.06-.83.02-1.22.06c-.39.04-.72.1-.99.18-.27.05-.53.11-.77.16-.24.05-.49.14-.73.24-2.27.95-3.91,2.57-4.91,4.87-.19.38-.34.78-.47,1.2-.12.42-.25.85-.39,1.28-.05.16-.08.33-.08.51s-.03.35-.08.51c-.03.11-.04.2-.04.28s-.01.18-.04.28c-.05.3-.09.6-.1.91s-.02.63-.02.95c0,.19,0,.39-.02.59-.01.2,0,.39.02.55v.41c.05.19.07.38.06.57-.01.19,0,.38.06.57.05.16.07.32.06.49-.01.16,0,.31.06.45.08.35.16.7.22,1.03.07.34.16.67.26.99.46,1.35,1.05,2.51,1.79,3.47s1.69,1.75,2.88,2.37c.38.19.76.34,1.16.45.39.11.82.23,1.28.37.19.05.37.07.53.06.16-.01.35,0,.57.06.13.03.38.05.73.06.35.01.61,0,.77-.06h.28c.11-.03.22-.03.32-.02.11.01.22,0,.32-.06.27-.05.53-.1.79-.14.26-.04.51-.12.75-.22,2.11-.87,3.6-2.29,4.46-4.26.22-.49.42-1.07.61-1.75.05-.24.1-.49.14-.75.04-.26.13-.49.26-.71.13-.22.35-.34.65-.37s.62-.04.97-.04h.41c.13,0,.26.01.37.04h.28c.08.03.17.05.26.06.09.01.17.05.22.1.19.11.3.3.32.59.03.28,0,.56-.08.83-.16.62-.31,1.22-.45,1.79s-.34,1.11-.61,1.62c-.22.35-.41.69-.59,1.01-.18.32-.37.65-.59.97-.49.7-1.09,1.35-1.8,1.93-.72.58-1.5,1.06-2.33,1.44-.3.13-.59.24-.87.32-.28.08-.58.18-.87.28-.3.11-.6.18-.91.22-.31.04-.63.09-.95.14-.13.05-.26.07-.36.06-.11-.01-.22,0-.33.02-.16.03-.32.04-.49.04s-.34.01-.53.04c-.08.03-.26.03-.55.02-.28-.01-.47-.04-.55-.06-.14-.03-.26-.03-.39-.02-.12.01-.25,0-.38-.02h-.41c-.22-.05-.42-.09-.61-.1-.19-.01-.39-.05-.61-.1-.24-.05-.49-.1-.73-.14-.24-.04-.47-.1-.69-.18-.57-.16-1.08-.37-1.54-.61-1.7-.73-3.08-1.77-4.14-3.12-1.06-1.35-1.89-2.95-2.52-4.79-.11-.33-.2-.66-.26-1.02-.07-.35-.14-.72-.22-1.09-.05-.14-.07-.26-.06-.37s0-.23-.02-.37c-.05-.24-.09-.5-.1-.77-.01-.27-.05-.53-.1-.77v-.77c-.05-.13-.08-.37-.08-.69s.03-.55.08-.69c.03-.08.03-.17,0-.26-.03-.09-.03-.17,0-.22v-.37c.03-.22.05-.44.06-.67.01-.23.05-.45.1-.67.05-.16.08-.33.08-.51s.03-.36.08-.55c.13-.46.24-.91.32-1.34.08-.43.2-.84.37-1.22.13-.35.28-.71.43-1.08s.32-.7.51-.99c.41-.7.81-1.34,1.22-1.91.08-.14.18-.25.3-.34.12-.09.22-.21.3-.35.16-.22.33-.41.51-.57.18-.16.36-.32.55-.49.16-.13.32-.26.47-.39.15-.12.32-.25.51-.39.41-.3.83-.55,1.28-.77.45-.22.91-.43,1.4-.65.3-.13.62-.24.95-.3.34-.07.67-.16.99-.26.19-.03.37-.05.53-.08.16-.03.33-.05.49-.08.22-.03.43-.05.63-.06.2-.01.41-.03.63-.06.05-.03.12-.03.2,0,.08.03.15.03.2,0Z"/>
        <path class="cls-1" d="M168.07,92.83c.05.16.08.41.08.75s-.01.58-.04.71v.41c-.03.22-.05.41-.06.59s-.03.37-.06.59c-.05.16-.09.32-.1.49-.01.16-.05.33-.1.49-.11.35-.2.7-.28,1.05-.08.35-.19.68-.32.97-.57,1.3-1.33,2.39-2.27,3.27-.95.88-2.11,1.55-3.49,2.01-.3.11-.62.19-.95.24s-.68.11-1.03.16c-.16.03-.33.05-.51.06s-.34.02-.51.02c-.11.03-.26.04-.47.04s-.34-.01-.43-.04c-.11-.03-.22-.04-.32-.02-.11.01-.2,0-.28-.02h-.24l-.97-.12c-.38-.11-.74-.22-1.1-.33s-.69-.23-1.01-.37c-1.22-.54-2.22-1.24-3-2.11-.78-.87-1.43-1.92-1.95-3.16-.14-.27-.24-.54-.3-.81-.07-.27-.13-.55-.18-.85-.05-.11-.07-.2-.06-.26s0-.16-.02-.26c-.05-.22-.09-.44-.1-.67-.01-.23-.05-.45-.1-.67v-.34c0-.09-.01-.21-.04-.34-.03-.13-.04-.37-.04-.71s.03-.59.08-.75c.05-.19.07-.38.04-.57-.03-.19-.01-.38.04-.57.03-.14.05-.25.06-.34s.03-.21.06-.35c.08-.32.16-.65.22-.97.07-.33.17-.64.3-.93.41-1,.9-1.9,1.48-2.7.58-.8,1.29-1.47,2.13-2.01.32-.22.66-.4,1.01-.55.35-.15.72-.3,1.09-.47.33-.13.68-.22,1.05-.26s.76-.11,1.14-.22c.19,0,.37,0,.55-.02.18-.01.35-.03.51-.06,2.41-.03,4.41.47,6,1.5s2.75,2.37,3.45,4.02c.13.27.24.54.32.81.08.27.18.55.28.85.08.3.15.62.2.95.05.34.12.68.2,1.04.03.13.03.28.02.43s0,.29.02.43ZM164.46,95.14c.05-.19.07-.41.06-.65-.01-.24-.02-.47-.02-.69,0-1.05-.1-1.95-.28-2.68-.08-.22-.15-.43-.2-.65-.05-.22-.12-.42-.2-.61-.76-1.76-1.96-2.98-3.61-3.65-.19-.08-.39-.14-.61-.18-.22-.04-.43-.09-.65-.14-.22-.05-.45-.08-.69-.08h-.73l-.73.12c-.27.05-.52.12-.75.18-.23.07-.45.16-.67.26-.19.05-.37.14-.53.24-.16.11-.31.22-.45.32-.65.46-1.18,1.01-1.58,1.66-.41.65-.76,1.41-1.05,2.27-.08.27-.14.55-.16.83-.03.28-.07.57-.12.87-.03.11-.04.28-.04.53-.03.08-.03.18-.02.28.01.11.02.23.02.37v.81c0,.27.03.51.08.73l.08.49c.05.27.1.53.14.79.04.26.12.49.22.71.27.65.59,1.26.95,1.83.37.57.82,1.04,1.36,1.42.13.08.26.15.37.2.11.05.23.12.36.2.22.14.45.25.71.34.26.1.53.18.83.26.13.05.26.07.39.06.12-.01.25,0,.38.02.08.03.25.05.51.08.26.03.45.01.59-.04.11-.03.22-.03.33-.02.11.01.22,0,.32-.06.22-.05.43-.1.65-.14.22-.04.42-.1.61-.18.92-.38,1.66-.91,2.23-1.58.57-.68,1.04-1.47,1.42-2.39.13-.32.22-.67.26-1.04.04-.37.11-.74.22-1.12Z"/>
        <path class="cls-1" d="M182.07,82.81c1.03-.03,1.9.08,2.62.33.72.24,1.37.59,1.97,1.05.22.14.4.32.55.55.15.23.32.44.51.63.05.05.13.12.24.2.11.08.24.11.41.08.27-.08.51-.25.71-.51.2-.26.41-.45.63-.59.38-.3.77-.56,1.18-.79.41-.23.85-.43,1.34-.59.22-.08.45-.14.71-.18.26-.04.51-.09.75-.14.13-.03.26-.04.38-.04h.39c.13-.05.32-.07.57-.06.24.01.42.04.53.06.13.03.34.04.61.04.24.05.48.1.71.14.23.04.45.1.67.18.14.05.26.09.39.1.12.01.25.05.39.1,1.35.6,2.29,1.52,2.8,2.76.11.22.19.45.24.71.05.26.11.54.16.83.05.08.07.17.06.26-.01.1,0,.18.02.26v.37c.03.11.03.23.02.37-.01.13-.02.27-.02.41v11.89c0,.43,0,.95.02,1.54.01.6-.1.99-.35,1.18-.11.08-.28.14-.53.18-.24.04-.5.06-.77.06s-.53-.01-.79-.04c-.26-.03-.44-.08-.55-.16-.16-.08-.27-.24-.32-.49-.05-.16-.07-.33-.04-.51.03-.18.01-.34-.04-.51-.03-.13-.03-.29-.02-.47s.02-.35.02-.51v-9.57c0-.89-.02-1.74-.06-2.54-.04-.8-.24-1.47-.59-2.01-.41-.65-1.03-1.12-1.87-1.42-.16-.05-.33-.09-.51-.1-.18-.01-.36-.05-.55-.1-.11-.03-.28-.03-.53-.02-.24.01-.41.04-.49.06-.14.03-.27.03-.41.02-.14-.01-.27,0-.41.06-.38.08-.74.19-1.09.32-1.41.6-2.35,1.64-2.84,3.12-.13.46-.21.99-.22,1.58-.01.59-.02,1.2-.02,1.83v10.24c0,.34-.07.6-.2.79-.14.22-.37.34-.69.37-.32.03-.66.04-1.01.04-.46,0-.8-.05-1.01-.16-.24-.13-.39-.36-.43-.67-.04-.31-.06-.66-.06-1.03v-10.55c0-.87-.03-1.67-.08-2.41-.05-.74-.24-1.39-.57-1.93-.3-.49-.64-.84-1.01-1.07-.38-.23-.89-.41-1.54-.55-.11-.03-.22-.04-.35-.04h-.38c-.6,0-1.12.07-1.56.2-.45.14-.85.31-1.2.53-1.38.84-2.3,2.1-2.76,3.77-.11.35-.16.75-.14,1.2.01.45.02.89.02,1.32v10.14c0,.38-.08.68-.24.89-.14.19-.34.3-.61.33-.27.03-.55.04-.85.04h-.61c-.16-.05-.32-.09-.47-.12s-.28-.11-.38-.24c-.14-.16-.2-.37-.2-.63v-18.87c0-.26.05-.47.16-.63.08-.16.2-.27.37-.32.22-.08.56-.12,1.03-.12s.82.04,1.04.12c.22.11.37.24.45.41.05.13.09.3.1.49.01.19.03.37.06.53.03.16.08.3.16.41.08.11.22.16.41.16.05-.05.11-.08.18-.08s.13-.03.18-.08c.16-.13.32-.27.47-.41.15-.13.3-.27.47-.41.59-.43,1.27-.81,2.03-1.14.27-.11.54-.18.81-.22s.55-.1.85-.18c.16,0,.33,0,.51-.02.18-.01.34-.02.51-.02Z"/>
        <path class="cls-1" d="M226.78,93.2c.03.14.04.31.04.53s-.01.39-.04.53c-.05.14-.07.26-.04.39.03.12.03.24,0,.34,0,.19-.01.34-.04.45-.05.24-.09.49-.1.73-.01.24-.05.49-.1.73-.05.22-.11.43-.16.63-.05.2-.12.41-.2.63-.32,1-.77,1.91-1.34,2.72-.16.24-.34.48-.53.71-.19.23-.39.44-.61.63l-.2.2c-.19.14-.37.27-.53.41-.16.14-.35.27-.57.41-.3.22-.63.4-.99.55-.36.15-.74.29-1.12.43-.22.05-.43.09-.63.12-.2.03-.41.07-.63.12-.05,0-.1,0-.14.02-.04.01-.09.02-.14.02-.24.05-.6.09-1.08.1s-.85,0-1.12-.06h-.2c-.19-.03-.37-.05-.53-.06s-.32-.05-.49-.1c-.46-.13-.89-.26-1.3-.37-.41-.11-.78-.27-1.14-.49-.43-.24-.81-.5-1.14-.77-.11-.08-.27-.2-.49-.34-.22-.15-.42-.16-.61-.02-.11.08-.16.19-.16.33s-.03.28-.08.45c-.03.08-.03.17,0,.26.03.1.03.2,0,.3-.05.16-.08.34-.06.55.01.2.02.39.02.55v6.04c0,.41-.08.72-.24.93-.14.19-.35.29-.65.3-.3.01-.59.02-.89.02h-.65c-.19-.05-.35-.11-.47-.16-.12-.05-.22-.15-.3-.29-.14-.19-.2-.49-.18-.89.01-.41.02-.76.02-1.05v-24.34c0-.32,0-.66.02-.99.01-.34.09-.62.22-.83.08-.11.26-.2.55-.26.28-.07.59-.09.91-.08s.63.05.91.12c.28.07.47.16.55.26.11.14.17.3.18.49.01.19.06.38.14.57.05.08.1.14.14.18.04.04.09.09.14.14.3.03.55-.07.75-.28s.4-.39.59-.53c.7-.49,1.54-.87,2.51-1.14.24-.05.49-.09.75-.12.26-.03.52-.07.79-.12.11-.03.24-.03.41,0,.16.03.27.01.33-.04,1.16-.03,2.19.09,3.08.34.89.26,1.69.62,2.39,1.08.14.11.27.21.41.3.13.09.27.2.41.3.05.05.1.1.14.14.04.04.09.09.14.14.13.13.28.28.45.45.16.16.31.33.45.49.32.46.66.96,1.01,1.5.22.35.4.74.55,1.18s.29.87.43,1.3c.05.22.1.45.14.69.04.24.09.47.14.69,0,.11,0,.21.02.3.01.1.02.18.02.26.05.14.07.29.06.45s0,.31.06.45v.41ZM223.16,94.29c.05-.13.07-.3.04-.51-.03-.2-.04-.38-.04-.55,0-.46-.02-.89-.06-1.3-.04-.41-.13-.8-.26-1.18-.05-.16-.1-.33-.14-.51-.04-.18-.1-.34-.18-.51-.3-.73-.76-1.43-1.4-2.11-.64-.68-1.24-1.14-1.81-1.38-.22-.11-.44-.19-.67-.24-.23-.05-.47-.12-.71-.2-.24-.05-.52-.08-.83-.08h-.91c-.05.05-.16.07-.3.06-.15-.01-.28,0-.39.02-.24.05-.48.11-.71.16-.23.05-.45.14-.67.24-.87.38-1.58.93-2.13,1.64-.55.72-.98,1.55-1.28,2.5-.11.3-.18.6-.22.89-.04.3-.09.6-.14.89-.03.11-.04.21-.04.3s-.01.2-.04.3v.33c-.03.13-.04.33-.04.59s.01.45.04.59v.32c.03.11.04.22.04.33s.01.2.04.28c.03.08.04.16.04.24s.01.18.04.28c.05.22.1.43.14.65.04.22.09.43.14.65.3.92.71,1.72,1.24,2.41.53.69,1.22,1.22,2.09,1.6.51.22,1.04.38,1.58.49.11.05.22.08.32.06s.22,0,.33.02h.32c.19.05.38.05.57,0h.32c.3-.05.58-.09.85-.12.27-.03.54-.09.81-.2.84-.35,1.52-.82,2.05-1.4s.97-1.29,1.32-2.13c.14-.38.24-.76.3-1.16s.16-.8.26-1.24c.03-.13.04-.26.04-.37s.01-.23.04-.37v-.32Z"/>
        <path class="cls-1" d="M249.01,92.91c.05.27.06.58.02.91-.04.34-.13.57-.26.71-.14.11-.33.18-.59.22-.26.04-.55.06-.87.06s-.65,0-.97-.02c-.32-.01-.61-.02-.85-.02h-10.39c-.22,0-.43,0-.65.02-.22.01-.39.06-.53.14-.11.05-.22.16-.33.32-.05.08-.11.2-.16.35-.05.15-.05.29,0,.43.03.14.04.26.04.37s.01.22.04.32c.05.22.11.44.16.67.05.23.14.45.24.67.62,1.46,1.65,2.5,3.08,3.12.16.08.34.15.53.2s.38.11.57.16c.08.03.22.04.41.04.38.11.88.16,1.5.16s1.12-.05,1.5-.16.72-.22,1.04-.35c.31-.12.6-.28.87-.47.3-.19.55-.41.77-.67.22-.26.41-.54.57-.83.16-.27.3-.55.43-.85.12-.3.33-.51.63-.65.11-.05.28-.09.53-.12s.49-.03.73-.02c.24.01.47.03.69.06s.37.08.45.16c.27.19.34.5.2.93-.22.73-.5,1.38-.85,1.95-.54.87-1.16,1.58-1.85,2.13-.69.55-1.56,1.01-2.62,1.36-.27.11-.54.18-.81.22-.27.04-.55.09-.85.14-.14.03-.26.04-.38.04s-.25.01-.39.04h-.41c-.14.03-.29.04-.47.04s-.32-.01-.43-.04h-.37c-.14-.03-.26-.04-.37-.04s-.22-.01-.33-.04c-.13-.03-.28-.05-.45-.06-.16-.01-.31-.04-.45-.06-.24-.05-.49-.12-.73-.18-.24-.07-.47-.14-.69-.22-.11-.05-.2-.09-.28-.1s-.18-.05-.28-.1c-.41-.19-.84-.42-1.3-.69-.78-.51-1.45-1.14-2.01-1.89-.55-.74-1.02-1.58-1.4-2.5-.14-.3-.24-.61-.3-.93-.07-.33-.16-.65-.26-.97-.03-.11-.04-.2-.04-.28s-.01-.19-.04-.32c-.05-.22-.09-.45-.12-.69s-.07-.49-.12-.73v-.57c-.03-.11-.05-.26-.06-.47s0-.37.02-.51v-.45c.05-.13.07-.28.06-.43s0-.29.02-.43c.11-.43.2-.87.26-1.3s.18-.84.34-1.22c.14-.3.26-.6.39-.91.12-.31.26-.61.43-.91.59-.95,1.27-1.76,2.03-2.46.76-.69,1.69-1.26,2.8-1.72.32-.14.66-.24.99-.3.34-.07.7-.14,1.08-.22.13-.03.26-.05.37-.06.11-.01.23-.02.37-.02.05-.03.12-.03.2,0s.15.01.2-.04c1.14-.03,2.12.09,2.96.35.84.26,1.6.6,2.27,1.03.13.05.24.13.33.22.08.09.17.17.28.22.22.16.44.35.67.57.23.22.43.43.59.65.43.57.8,1.11,1.1,1.62.19.3.34.62.45.97.11.35.23.7.37,1.05.13.35.24.72.3,1.09.07.38.16.76.26,1.14.03.19.05.38.06.57.01.19.03.38.06.57ZM245.07,91.53c.08-.11.15-.25.2-.43.05-.18.05-.36,0-.55-.16-.6-.39-1.15-.69-1.66-.38-.62-.8-1.15-1.26-1.58-.46-.43-1.05-.8-1.79-1.1-.19-.05-.38-.1-.57-.14s-.39-.09-.61-.14-.45-.08-.69-.08h-.69c-.08.05-.18.08-.28.06-.11-.01-.2,0-.28.02-.22.05-.43.1-.63.14s-.4.09-.59.14c-.79.32-1.41.73-1.89,1.22-.47.49-.9,1.1-1.28,1.83-.08.14-.16.3-.24.51-.08.2-.15.43-.2.67-.05.24-.07.47-.04.69.03.22.12.38.28.49.22.16.59.24,1.12.22s.98-.02,1.36-.02h6.17c.41,0,.89,0,1.46.02s.95-.09,1.14-.3Z"/>
        <path class="cls-1" d="M255.09,76.97c.41,0,.81,0,1.22.02.41.01.69.13.85.34.13.16.21.39.22.67.01.28.02.58.02.87v2.35c0,.22,0,.44-.02.67-.01.23,0,.43.06.59.11.38.35.62.73.73.13.03.26.04.39.04h.38c.3,0,.66,0,1.1-.02s.74.02.93.1c.24.16.41.33.49.49.05.11.08.23.08.36v.41c0,.3-.01.58-.04.83-.03.26-.12.45-.28.59-.16.14-.39.21-.67.22-.28.01-.58.01-.89,0-.31-.01-.62-.02-.91-.02s-.55.04-.77.12c-.19.08-.32.22-.41.41-.08.19-.14.41-.16.67-.03.26-.04.53-.02.81.01.28.02.56.02.83v8.03c0,.6,0,1.22-.02,1.89-.01.66.1,1.17.34,1.52.13.22.31.37.53.45.22.08.47.15.77.2.08.03.17.04.26.02s.18,0,.26.02h.53c.27,0,.52.02.75.06.23.04.4.14.51.3.05.08.1.22.14.43.04.2.07.41.08.63.01.22,0,.43-.02.63-.03.2-.08.36-.16.47-.11.19-.31.32-.61.41-.22.05-.46.07-.73.06-.27-.01-.51-.02-.73-.02-.16,0-.32,0-.49.02-.16.01-.31,0-.45-.02h-.49c-.14-.03-.26-.05-.39-.06-.12-.01-.25-.02-.38-.02-.54-.13-1.01-.28-1.4-.45-.39-.16-.72-.45-.99-.85-.38-.54-.6-1.22-.65-2.05-.05-.82-.08-1.71-.08-2.66v-10.63c-.08-.35-.16-.61-.22-.77-.07-.16-.26-.3-.59-.41-.11-.03-.22-.03-.32,0-.11.03-.22.01-.33-.04h-.65c-.35,0-.64-.03-.87-.1-.23-.07-.38-.22-.47-.47-.05-.11-.09-.23-.1-.37-.01-.14-.02-.27-.02-.41,0-.38.03-.7.08-.95.05-.26.22-.45.49-.59.3-.11.68-.13,1.16-.08.47.05.87.03,1.2-.08.24-.13.43-.32.57-.57.05-.16.08-.37.08-.61v-3.87c0-.23.03-.43.08-.59.11-.22.31-.39.61-.53.08,0,.16,0,.22-.02.07-.01.13-.02.18-.02Z"/>
        <path class="cls-1" d="M283.57,92.91c.05.27.06.58.02.91-.04.34-.13.57-.26.71-.14.11-.33.18-.59.22-.26.04-.55.06-.87.06s-.65,0-.97-.02c-.32-.01-.61-.02-.85-.02h-10.39c-.22,0-.43,0-.65.02-.22.01-.39.06-.53.14-.11.05-.22.16-.33.32-.05.08-.11.2-.16.35-.05.15-.05.29,0,.43.03.14.04.26.04.37s.01.22.04.32c.05.22.11.44.16.67.05.23.14.45.24.67.62,1.46,1.65,2.5,3.08,3.12.16.08.34.15.53.2s.38.11.57.16c.08.03.22.04.41.04.38.11.88.16,1.5.16s1.12-.05,1.5-.16.72-.22,1.04-.35c.31-.12.6-.28.87-.47.3-.19.55-.41.77-.67.22-.26.41-.54.57-.83.16-.27.3-.55.43-.85.12-.3.33-.51.63-.65.11-.05.28-.09.53-.12s.49-.03.73-.02c.24.01.47.03.69.06s.37.08.45.16c.27.19.34.5.2.93-.22.73-.5,1.38-.85,1.95-.54.87-1.16,1.58-1.85,2.13-.69.55-1.56,1.01-2.62,1.36-.27.11-.54.18-.81.22-.27.04-.55.09-.85.14-.14.03-.26.04-.38.04s-.25.01-.39.04h-.41c-.14.03-.29.04-.47.04s-.32-.01-.43-.04h-.37c-.14-.03-.26-.04-.37-.04s-.22-.01-.33-.04c-.13-.03-.28-.05-.45-.06-.16-.01-.31-.04-.45-.06-.24-.05-.49-.12-.73-.18-.24-.07-.47-.14-.69-.22-.11-.05-.2-.09-.28-.1s-.18-.05-.28-.1c-.41-.19-.84-.42-1.3-.69-.78-.51-1.45-1.14-2.01-1.89-.55-.74-1.02-1.58-1.4-2.5-.14-.3-.24-.61-.3-.93-.07-.33-.16-.65-.26-.97-.03-.11-.04-.2-.04-.28s-.01-.19-.04-.32c-.05-.22-.09-.45-.12-.69s-.07-.49-.12-.73v-.57c-.03-.11-.05-.26-.06-.47s0-.37.02-.51v-.45c.05-.13.07-.28.06-.43s0-.29.02-.43c.11-.43.2-.87.26-1.3s.18-.84.34-1.22c.14-.3.26-.6.39-.91.12-.31.26-.61.43-.91.59-.95,1.27-1.76,2.03-2.46.76-.69,1.69-1.26,2.8-1.72.32-.14.66-.24.99-.3.34-.07.7-.14,1.08-.22.13-.03.26-.05.37-.06.11-.01.23-.02.37-.02.05-.03.12-.03.2,0s.15.01.2-.04c1.14-.03,2.12.09,2.96.35.84.26,1.6.6,2.27,1.03.13.05.24.13.33.22.08.09.17.17.28.22.22.16.44.35.67.57.23.22.43.43.59.65.43.57.8,1.11,1.1,1.62.19.3.34.62.45.97.11.35.23.7.37,1.05.13.35.24.72.3,1.09.07.38.16.76.26,1.14.03.19.05.38.06.57.01.19.03.38.06.57ZM279.64,91.53c.08-.11.15-.25.2-.43.05-.18.05-.36,0-.55-.16-.6-.39-1.15-.69-1.66-.38-.62-.8-1.15-1.26-1.58-.46-.43-1.05-.8-1.79-1.1-.19-.05-.38-.1-.57-.14s-.39-.09-.61-.14-.45-.08-.69-.08h-.69c-.08.05-.18.08-.28.06-.11-.01-.2,0-.28.02-.22.05-.43.1-.63.14s-.4.09-.59.14c-.79.32-1.41.73-1.89,1.22-.47.49-.9,1.1-1.28,1.83-.08.14-.16.3-.24.51-.08.2-.15.43-.2.67-.05.24-.07.47-.04.69.03.22.12.38.28.49.22.16.59.24,1.12.22s.98-.02,1.36-.02h6.17c.41,0,.89,0,1.46.02s.95-.09,1.14-.3Z"/>
        <path class="cls-1" d="M317,102.69c.08.43.04.79-.12,1.07-.16.28-.38.49-.65.63-.14.05-.28.08-.43.08s-.3.03-.47.08c-.6.13-1.18.1-1.76-.1-.58-.2-.98-.45-1.2-.75-.14-.19-.26-.41-.37-.67-.11-.26-.24-.47-.41-.63-.05-.05-.12-.11-.18-.16-.07-.05-.16-.07-.26-.04-.3.08-.58.23-.83.45-.26.22-.51.41-.75.57-.35.22-.73.41-1.14.59-.41.18-.84.33-1.3.47-.27.08-.56.13-.87.16-.31.03-.62.07-.91.12-.14.03-.25.04-.34.04h-.3c-.3.05-.58.05-.85,0h-.37c-.14-.03-.27-.04-.41-.04s-.26-.03-.37-.08c-.11-.03-.2-.04-.26-.02s-.14,0-.22-.02c-.22-.05-.43-.1-.65-.14-.22-.04-.42-.1-.61-.18-.81-.35-1.47-.75-1.97-1.2-.5-.45-.91-1.08-1.24-1.89-.24-.59-.37-1.31-.37-2.15v-.85c.03-.13.05-.28.06-.43s.03-.3.06-.47c.11-.3.22-.59.32-.89.11-.3.24-.57.41-.81.49-.78,1.15-1.37,1.99-1.75.84-.38,1.76-.72,2.76-1.01.38-.11.77-.19,1.18-.24.41-.05.81-.12,1.22-.2.19-.05.37-.08.55-.08s.37-.03.59-.08c.19-.05.38-.09.57-.1s.39-.05.61-.1c.68-.16,1.31-.3,1.91-.43.59-.12,1.07-.43,1.42-.91.16-.22.3-.49.41-.83.11-.34.11-.71,0-1.12-.16-.65-.4-1.16-.71-1.54s-.75-.68-1.32-.89c-.32-.14-.71-.23-1.16-.29-.45-.05-.91-.08-1.4-.08s-.96.03-1.42.08c-.46.05-.85.14-1.18.24-.46.16-.91.39-1.34.69-.22.16-.41.37-.59.63-.18.26-.33.53-.47.83-.08.22-.16.45-.22.69-.07.24-.2.43-.39.57-.11.08-.29.14-.55.18-.26.04-.52.06-.79.06s-.53-.02-.79-.06c-.26-.04-.44-.1-.55-.18-.11-.08-.19-.22-.24-.41-.05-.19-.05-.39,0-.61.08-.35.17-.68.26-.99.09-.31.21-.61.34-.91.51-.95,1.16-1.68,1.95-2.21.78-.53,1.76-.95,2.92-1.28.27-.05.55-.09.83-.12.28-.03.57-.07.87-.12.11-.03.28-.03.53-.02s.39,0,.45-.06c1.89-.03,3.54.19,4.95.65s2.39,1.34,2.96,2.64c.24.54.39,1.17.43,1.89.04.72.06,1.47.06,2.25v8.97c0,.38.01.74.04,1.09.03.35.11.64.24.85.14.19.31.33.53.41.24.11.47.18.69.22.22.04.38.17.49.39.05.08.08.16.08.24s.01.19.04.33ZM311.2,98.19c.16-.38.25-.82.26-1.32s.02-1.02.02-1.56c0-.3-.01-.57-.04-.81-.03-.24-.13-.43-.32-.57-.08-.05-.27-.08-.57-.08-.05.05-.15.08-.28.08s-.26.03-.37.08c-.22.05-.46.11-.73.16-.27.05-.54.11-.81.16-.08,0-.17,0-.26.02s-.2.02-.3.02c-.41.11-.84.17-1.32.18s-.91.07-1.32.18c-.22.05-.41.1-.59.14-.18.04-.37.09-.59.14-.43.13-.84.3-1.22.51-.38.2-.7.45-.97.75-.27.3-.47.66-.61,1.07-.14.42-.19.93-.16,1.52,0,.27.05.52.14.75.09.23.21.44.34.63.22.3.5.55.85.75.35.2.73.37,1.14.51.13.03.27.04.41.04s.27.01.41.04c.19.05.43.09.71.1.28.01.52,0,.71-.06.16-.05.32-.07.49-.06s.33,0,.49-.06c.22-.05.43-.09.63-.12.2-.03.4-.08.59-.16.78-.32,1.45-.72,2.01-1.18.55-.46.98-1.08,1.28-1.87Z"/>
        <path class="cls-1" d="M338.06,83.58c.19.14.29.34.3.61.01.27.02.55.02.85v18.58c-.05.14-.07.26-.04.39.03.12.01.25-.04.38-.05.27-.09.55-.1.83-.01.28-.06.56-.14.83-.08.3-.16.58-.22.85-.07.27-.17.54-.3.81-.27.7-.62,1.34-1.03,1.91-.42.57-.91,1.04-1.48,1.42-.46.32-.95.59-1.46.79-.51.2-1.07.4-1.66.59-.24.05-.49.09-.73.1-.24.01-.49.05-.73.1-.08,0-.16,0-.22.02s-.13.02-.18.02c-.13.03-.26.03-.38,0-.12-.03-.25-.01-.39.04-.19.05-.48.07-.87.06-.39-.01-.67-.05-.83-.1-.08,0-.16,0-.22-.02-.07-.01-.13-.02-.18-.02-.24-.05-.49-.09-.73-.1s-.47-.05-.69-.1c-.22-.05-.43-.12-.65-.18-.22-.07-.43-.14-.65-.22-.87-.35-1.59-.74-2.17-1.18-.58-.43-1.1-1.04-1.56-1.83-.05-.05-.09-.12-.1-.18-.01-.07-.05-.14-.1-.22-.08-.22-.17-.52-.26-.91-.1-.39-.02-.68.22-.87.16-.14.39-.2.67-.2h1.34c.15,0,.29.03.43.08.24.08.42.22.53.41.11.19.23.39.37.61.11.16.22.33.34.51.12.18.25.32.38.43.68.51,1.49.89,2.43,1.14.16.05.33.09.51.1.18.01.35.05.51.1h.24c.19.05.42.08.69.08s.51-.03.73-.08c.08-.03.19-.04.32-.04.27-.05.53-.1.77-.14.24-.04.47-.12.69-.22.78-.32,1.43-.76,1.93-1.32.5-.55.91-1.22,1.24-2.01.11-.24.18-.5.22-.77.04-.27.1-.55.18-.85.05-.14.08-.27.08-.41s.01-.27.04-.41c.03-.08.04-.22.04-.41.05-.22.05-.45,0-.69-.03-.14-.03-.26-.02-.37s0-.2-.06-.28c-.05-.05-.09-.09-.12-.1s-.07-.05-.12-.1c-.27,0-.47.08-.59.22-.12.15-.26.28-.43.39-.22.19-.43.37-.65.55-.22.18-.46.33-.73.47-.38.24-.85.44-1.42.59-.57.15-1.16.25-1.78.3-.62.05-1.25.05-1.87-.02-.62-.07-1.19-.18-1.7-.35-2.54-.84-4.33-2.45-5.36-4.83-.14-.27-.24-.53-.33-.79-.08-.26-.18-.53-.28-.83-.05-.14-.08-.26-.08-.37s-.03-.23-.08-.37c-.05-.19-.09-.39-.1-.59-.01-.2-.05-.4-.1-.59-.03-.11-.03-.21-.02-.3.01-.09,0-.2-.02-.3,0-.11,0-.22-.02-.33-.01-.11-.02-.21-.02-.32-.05-.32-.05-.66,0-1.01.03-.16.04-.32.04-.49v-.45c.03-.13.04-.25.04-.34s.01-.21.04-.34c.08-.3.14-.59.16-.87.03-.28.09-.57.2-.87.11-.33.21-.64.3-.95.09-.31.21-.61.34-.91.19-.43.41-.83.65-1.2.24-.37.5-.72.77-1.08.19-.3.43-.54.73-.73l.16-.16.16-.16c.13-.11.28-.22.43-.32.15-.11.3-.22.47-.33.35-.22.72-.41,1.12-.57.39-.16.82-.31,1.28-.45.27-.08.55-.13.83-.16.28-.03.57-.07.87-.12.11-.03.25-.03.43,0s.3.01.39-.04c.87-.03,1.64.05,2.33.24.69.19,1.3.46,1.85.81.19.11.37.23.53.37.16.14.32.27.49.41.13.11.26.22.38.34.12.12.32.18.59.18.05-.05.1-.1.14-.14.04-.04.09-.1.14-.18.08-.22.13-.43.14-.65.01-.21.09-.4.22-.57.08-.11.24-.2.49-.26s.5-.1.77-.1.53.03.79.08c.26.05.44.12.55.2ZM335.01,93.81c.03-.11.04-.25.04-.43s-.01-.32-.04-.43v-.65c-.05-.24-.09-.48-.12-.71-.03-.23-.07-.45-.12-.67-.05-.22-.1-.43-.14-.63-.04-.2-.1-.4-.18-.59-.3-.76-.68-1.43-1.16-2.03-.47-.59-1.08-1.04-1.81-1.34-.22-.11-.45-.2-.69-.26s-.5-.13-.77-.18c-.22-.05-.45-.07-.71-.06s-.51.02-.75.02c-.14.03-.26.04-.39.04s-.25.01-.38.04c-.51.13-.95.27-1.3.41-.92.38-1.64.95-2.15,1.7-.51.76-.92,1.64-1.22,2.64-.05.22-.09.43-.1.63s-.05.41-.1.63c-.05.08-.07.18-.06.28s0,.2-.02.28v1.8c0,.31.03.6.08.87,0,.05,0,.12.02.2.01.08.02.15.02.2.05.24.1.49.14.73.04.24.1.47.18.69.22.7.49,1.35.81,1.95.32.59.76,1.08,1.3,1.46.11.08.22.16.33.22.11.07.23.13.37.18.22.14.45.24.69.32.24.08.51.16.81.24.13.03.26.03.38.02.12-.01.25,0,.39.06.08.03.22.04.41.04s.32-.01.41-.04c.08-.03.17-.03.26-.02s.2,0,.3-.02c.24-.05.47-.11.69-.16.22-.05.43-.12.65-.2.92-.41,1.65-.97,2.19-1.71.54-.73.97-1.58,1.3-2.55.08-.24.14-.49.18-.75.04-.26.09-.51.14-.75.03-.11.04-.21.04-.3s.01-.2.04-.3c.05-.13.06-.28.02-.43-.04-.15-.03-.3.02-.47Z"/>
        <path class="cls-1" d="M362.07,102.69c.08.43.04.79-.12,1.07-.16.28-.38.49-.65.63-.14.05-.28.08-.43.08s-.3.03-.47.08c-.6.13-1.18.1-1.76-.1-.58-.2-.98-.45-1.2-.75-.14-.19-.26-.41-.37-.67-.11-.26-.24-.47-.41-.63-.05-.05-.12-.11-.18-.16-.07-.05-.16-.07-.26-.04-.3.08-.58.23-.83.45-.26.22-.51.41-.75.57-.35.22-.73.41-1.14.59-.41.18-.84.33-1.3.47-.27.08-.56.13-.87.16-.31.03-.62.07-.91.12-.14.03-.25.04-.34.04h-.3c-.3.05-.58.05-.85,0h-.37c-.14-.03-.27-.04-.41-.04s-.26-.03-.37-.08c-.11-.03-.2-.04-.26-.02s-.14,0-.22-.02c-.22-.05-.43-.1-.65-.14-.22-.04-.42-.1-.61-.18-.81-.35-1.47-.75-1.97-1.2-.5-.45-.91-1.08-1.24-1.89-.24-.59-.37-1.31-.37-2.15v-.85c.03-.13.05-.28.06-.43s.03-.3.06-.47c.11-.3.22-.59.32-.89.11-.3.24-.57.41-.81.49-.78,1.15-1.37,1.99-1.75.84-.38,1.76-.72,2.76-1.01.38-.11.77-.19,1.18-.24.41-.05.81-.12,1.22-.2.19-.05.37-.08.55-.08s.37-.03.59-.08c.19-.05.38-.09.57-.1s.39-.05.61-.1c.68-.16,1.31-.3,1.91-.43.59-.12,1.07-.43,1.42-.91.16-.22.3-.49.41-.83.11-.34.11-.71,0-1.12-.16-.65-.4-1.16-.71-1.54s-.75-.68-1.32-.89c-.32-.14-.71-.23-1.16-.29-.45-.05-.91-.08-1.4-.08s-.96.03-1.42.08c-.46.05-.85.14-1.18.24-.46.16-.91.39-1.34.69-.22.16-.41.37-.59.63-.18.26-.33.53-.47.83-.08.22-.16.45-.22.69-.07.24-.2.43-.39.57-.11.08-.29.14-.55.18-.26.04-.52.06-.79.06s-.53-.02-.79-.06c-.26-.04-.44-.1-.55-.18-.11-.08-.19-.22-.24-.41-.05-.19-.05-.39,0-.61.08-.35.17-.68.26-.99.09-.31.21-.61.34-.91.51-.95,1.16-1.68,1.95-2.21.78-.53,1.76-.95,2.92-1.28.27-.05.55-.09.83-.12.28-.03.57-.07.87-.12.11-.03.28-.03.53-.02s.39,0,.45-.06c1.89-.03,3.54.19,4.95.65s2.39,1.34,2.96,2.64c.24.54.39,1.17.43,1.89.04.72.06,1.47.06,2.25v8.97c0,.38.01.74.04,1.09.03.35.11.64.24.85.14.19.31.33.53.41.24.11.47.18.69.22.22.04.38.17.49.39.05.08.08.16.08.24s.01.19.04.33ZM356.27,98.19c.16-.38.25-.82.26-1.32s.02-1.02.02-1.56c0-.3-.01-.57-.04-.81-.03-.24-.13-.43-.32-.57-.08-.05-.27-.08-.57-.08-.05.05-.15.08-.28.08s-.26.03-.37.08c-.22.05-.46.11-.73.16-.27.05-.54.11-.81.16-.08,0-.17,0-.26.02s-.2.02-.3.02c-.41.11-.84.17-1.32.18s-.91.07-1.32.18c-.22.05-.41.1-.59.14-.18.04-.37.09-.59.14-.43.13-.84.3-1.22.51-.38.2-.7.45-.97.75-.27.3-.47.66-.61,1.07-.14.42-.19.93-.16,1.52,0,.27.05.52.14.75.09.23.21.44.34.63.22.3.5.55.85.75.35.2.73.37,1.14.51.13.03.27.04.41.04s.27.01.41.04c.19.05.43.09.71.1.28.01.52,0,.71-.06.16-.05.32-.07.49-.06s.33,0,.49-.06c.22-.05.43-.09.63-.12.2-.03.4-.08.59-.16.78-.32,1.45-.72,2.01-1.18.55-.46.98-1.08,1.28-1.87Z"/>
        <path class="cls-1" d="M366.01,79.24c-.22-.16-.33-.45-.35-.87-.01-.42-.02-.83-.02-1.24v-.69c0-.24.04-.45.12-.61.11-.22.33-.38.65-.49.05-.03.11-.03.18-.02.07.01.13,0,.18-.02.46,0,.89.01,1.3.04.41.03.68.19.81.49.08.16.12.36.12.59v.71c0,.49,0,.95-.02,1.38-.01.43-.2.72-.55.85-.14.05-.28.08-.43.08h-1.32c-.27,0-.5-.07-.69-.2ZM369.01,102.24c0,.27,0,.55.02.83.01.28-.05.51-.18.67-.08.16-.2.26-.37.3s-.35.09-.57.14h-.61c-.35,0-.66-.02-.91-.06s-.45-.17-.59-.38c-.11-.16-.16-.37-.16-.63v-18.79c0-.28.07-.51.2-.67.08-.13.19-.22.33-.24.13-.03.28-.07.45-.12.05,0,.11,0,.18.02.07.01.13,0,.18-.02.35,0,.71,0,1.08.02.36.01.61.13.75.34.13.16.2.37.2.63v17.95Z"/>
        <path class="cls-1" d="M384.23,82.89c1.7-.05,3.07.18,4.1.69,1.03.51,1.85,1.29,2.47,2.31.16.27.29.56.39.87.09.31.18.63.26.95.13.51.22,1.07.24,1.66.03.59.04,1.2.04,1.83v10.67c0,.46,0,.92-.02,1.38s-.2.76-.55.89c-.14.05-.28.09-.43.1-.15.01-.3.02-.47.02-.35,0-.69,0-1.01-.02-.33-.01-.55-.13-.69-.34-.14-.19-.2-.43-.2-.73v-10.99c0-.73-.01-1.45-.04-2.17-.03-.72-.15-1.33-.37-1.85-.22-.54-.54-.98-.97-1.32-.43-.34-.93-.6-1.5-.79-.16-.05-.33-.09-.51-.1-.18-.01-.34-.05-.51-.1-.14-.03-.34-.03-.63-.02-.28.01-.48.03-.59.06-.11.05-.2.07-.28.06s-.18,0-.28.02c-.35.08-.68.17-.99.26-.31.09-.6.22-.87.39-.11.05-.2.11-.28.16-.08.05-.18.11-.28.16-.95.68-1.64,1.69-2.07,3.04-.08.22-.14.44-.16.67-.03.23-.07.45-.12.67-.05.14-.07.26-.04.39.03.12.01.24-.04.34v.85c-.03.08-.03.18-.02.28.01.11.02.23.02.37v9.59c0,.31-.07.56-.2.75-.14.22-.37.33-.71.34-.34.01-.68.02-1.03.02-.22,0-.42-.01-.61-.04-.19-.03-.35-.09-.49-.2-.22-.13-.32-.39-.32-.77v-18.91c0-.24.05-.43.16-.57.08-.16.22-.27.41-.32.11-.03.26-.05.47-.08.2-.03.41-.04.63-.04s.43.01.63.04c.2.03.34.07.43.12.3.19.43.43.41.71-.03.28.01.6.12.95.05.16.16.3.33.41.32.03.59-.09.79-.37s.41-.49.63-.65c.38-.27.76-.52,1.16-.75.39-.23.84-.43,1.36-.59.22-.08.45-.13.71-.16.26-.03.51-.07.75-.12.13-.03.27-.04.41-.04h.41Z"/>
        <path class="cls-1" d="M403.37,82.81c1.95-.03,3.58.2,4.91.67,1.33.47,2.35,1.3,3.08,2.5.19.3.34.6.45.91.11.31.22.66.32,1.03.05.19.07.39.04.59-.03.2-.07.36-.12.47-.05.05-.12.1-.2.14-.08.04-.15.09-.2.14-.14.05-.27.07-.41.04-.14-.03-.27-.03-.41,0-.22.05-.5.06-.85.02-.35-.04-.59-.1-.73-.18-.22-.13-.36-.32-.43-.55-.07-.23-.17-.45-.3-.67-.24-.43-.58-.83-1.01-1.18-.3-.22-.62-.38-.97-.49-.35-.11-.73-.22-1.14-.32-.14-.05-.27-.07-.41-.06-.14.01-.27,0-.41-.02-.16-.05-.37-.08-.61-.08s-.45.03-.61.08h-.24c-.14.03-.27.05-.41.06-.14.01-.27.03-.41.06-.7.16-1.29.39-1.74.69-.46.3-.77.8-.93,1.5-.05.19-.06.38-.02.57.04.19.09.35.14.49.16.41.36.7.59.87s.52.37.87.59c.43.27.92.47,1.46.59.54.12,1.08.26,1.62.43.35.11.7.19,1.05.24.35.05.7.14,1.05.24.57.16,1.12.32,1.66.47.54.15,1.08.33,1.62.55.14.05.27.11.41.16.13.05.27.12.41.2.54.32,1.01.69,1.42,1.1.41.41.74.92,1.01,1.54.05.19.11.45.16.77.05.19.09.38.1.59.01.2.02.43.02.67v.41c-.05.19-.08.38-.08.57s-.03.38-.08.57c-.08.3-.18.58-.28.85-.11.27-.23.51-.37.73-.43.7-.99,1.27-1.66,1.68-.68.42-1.43.78-2.27,1.08-.24.08-.49.14-.75.18-.26.04-.51.1-.75.18-.27.05-.54.08-.81.08s-.54.03-.81.08h-.41c-.14.03-.33.04-.57.04s-.43-.01-.57-.04h-.45c-.16-.05-.34-.08-.53-.06s-.35,0-.49-.06c-.14-.03-.31-.04-.53-.04-.22-.05-.43-.1-.63-.14-.2-.04-.41-.1-.63-.18-.84-.27-1.57-.61-2.19-1.01-.62-.41-1.16-.93-1.62-1.58-.24-.35-.45-.72-.61-1.1-.16-.38-.31-.8-.45-1.26-.05-.16-.08-.36-.06-.59.01-.23.05-.41.1-.55.08-.11.22-.22.41-.33.14-.05.33-.09.57-.1.24-.01.49,0,.73.02s.48.06.71.1c.23.04.39.09.47.14.19.14.32.33.38.59.07.26.16.49.26.71.27.6.64,1.05,1.1,1.38.32.24.69.43,1.1.57.41.14.84.27,1.3.41l.85.12h.24c.19.05.44.08.75.08s.58-.03.79-.08c.19,0,.34-.01.45-.04.16-.03.32-.05.49-.06s.31-.03.45-.06c.78-.22,1.41-.5,1.87-.85s.78-.95.97-1.79c.05-.13.07-.28.04-.45-.03-.16-.05-.28-.08-.36-.14-.51-.33-.9-.57-1.16-.24-.26-.55-.49-.93-.71-.24-.16-.51-.3-.81-.41-.3-.11-.6-.22-.89-.33-.08-.03-.16-.04-.22-.04s-.14-.03-.22-.08c-.92-.3-1.87-.52-2.86-.67-.99-.15-1.91-.4-2.78-.75-.27-.11-.53-.2-.77-.28-.24-.08-.47-.19-.69-.33-.51-.3-.99-.63-1.42-1.01s-.77-.85-1.01-1.42c-.08-.19-.14-.38-.18-.57-.04-.19-.09-.39-.14-.61-.08-.32-.11-.7-.08-1.12.03-.42.07-.78.12-1.07.05-.13.09-.25.1-.35.01-.09.05-.2.1-.3.24-.62.57-1.16.99-1.62.42-.46.9-.87,1.44-1.22.41-.24.85-.44,1.34-.59.49-.15,1-.29,1.54-.43.19-.03.37-.05.55-.08.18-.03.37-.05.59-.08.08-.03.19-.03.33,0,.13.03.23.01.28-.04Z"/>
        <path class="cls-1" d="M419.64,76.97c.41,0,.81,0,1.22.02.41.01.69.13.85.34.13.16.21.39.22.67.01.28.02.58.02.87v2.35c0,.22,0,.44-.02.67-.01.23,0,.43.06.59.11.38.35.62.73.73.13.03.26.04.39.04h.38c.3,0,.66,0,1.1-.02s.74.02.93.1c.24.16.41.33.49.49.05.11.08.23.08.36v.41c0,.3-.01.58-.04.83-.03.26-.12.45-.28.59-.16.14-.39.21-.67.22-.28.01-.58.01-.89,0-.31-.01-.62-.02-.91-.02s-.55.04-.77.12c-.19.08-.32.22-.41.41-.08.19-.14.41-.16.67-.03.26-.04.53-.02.81.01.28.02.56.02.83v8.03c0,.6,0,1.22-.02,1.89-.01.66.1,1.17.34,1.52.13.22.31.37.53.45.22.08.47.15.77.2.08.03.17.04.26.02s.18,0,.26.02h.53c.27,0,.52.02.75.06.23.04.4.14.51.3.05.08.1.22.14.43.04.2.07.41.08.63.01.22,0,.43-.02.63-.03.2-.08.36-.16.47-.11.19-.31.32-.61.41-.22.05-.46.07-.73.06-.27-.01-.51-.02-.73-.02-.16,0-.32,0-.49.02-.16.01-.31,0-.45-.02h-.49c-.14-.03-.26-.05-.39-.06-.12-.01-.25-.02-.38-.02-.54-.13-1.01-.28-1.4-.45-.39-.16-.72-.45-.99-.85-.38-.54-.6-1.22-.65-2.05-.05-.82-.08-1.71-.08-2.66v-10.63c-.08-.35-.16-.61-.22-.77-.07-.16-.26-.3-.59-.41-.11-.03-.22-.03-.32,0-.11.03-.22.01-.33-.04h-.65c-.35,0-.64-.03-.87-.1-.23-.07-.38-.22-.47-.47-.05-.11-.09-.23-.1-.37-.01-.14-.02-.27-.02-.41,0-.38.03-.7.08-.95.05-.26.22-.45.49-.59.3-.11.68-.13,1.16-.08.47.05.87.03,1.2-.08.24-.13.43-.32.57-.57.05-.16.08-.37.08-.61v-3.87c0-.23.03-.43.08-.59.11-.22.31-.39.61-.53.08,0,.16,0,.22-.02.07-.01.13-.02.18-.02Z"/>
        <path class="cls-1" d="M9.28,124.19c.27,0,.53.02.77.06s.42.13.53.26c.16.22.24.49.24.83v25.58c0,.27,0,.55.02.83s-.03.51-.14.67c-.14.22-.33.35-.59.39s-.56.06-.91.06h-.61c-.22-.05-.41-.1-.57-.14-.16-.04-.3-.14-.41-.3s-.16-.37-.16-.63v-18.2c-.05-.24-.09-.45-.1-.63s-.1-.33-.26-.47c-.19-.13-.43-.21-.71-.22s-.59-.02-.91-.02h-3.08c-.46,0-.91,0-1.34-.02s-.73-.17-.89-.47c-.05-.08-.08-.17-.08-.26s-.01-.21-.04-.34c-.05-.33-.03-.62.06-.89.09-.27.24-.46.43-.57.22-.13.54-.2.97-.2s.8-.04,1.1-.12c.13-.03.28-.05.45-.06.16-.01.32-.05.49-.1.41-.13.8-.28,1.18-.43.38-.15.74-.33,1.1-.55.38-.24.7-.53.97-.85.27-.32.53-.68.77-1.05.16-.27.29-.57.39-.89.09-.33.22-.61.38-.85.14-.16.33-.27.57-.32.05-.03.12-.04.2-.04s.15-.01.2-.04Z"/>
        <path class="cls-1" d="M39.79,139.12c0,.22,0,.44.02.67.01.23,0,.44-.06.63v1.09c-.05.27-.08.55-.08.83s-.03.56-.08.83v.41c-.08.38-.13.75-.16,1.12s-.09.72-.2,1.08c-.05.22-.11.44-.16.67-.05.23-.11.45-.16.67-.11.27-.21.54-.3.79-.1.26-.2.51-.3.75-.27.59-.63,1.18-1.08,1.75-.45.57-.93,1.03-1.44,1.38-.14.11-.29.21-.47.3-.18.09-.35.2-.51.3-.22.14-.47.24-.77.33-.3.08-.58.16-.85.24-.3.11-.59.18-.89.2s-.61.07-.93.12c-.11.03-.22.03-.34.02-.12-.01-.24,0-.34.02-.11.03-.26.04-.45.04s-.33-.01-.41-.04c-.14-.05-.26-.07-.37-.04-.11.03-.2.03-.28,0h-.24c-.16-.05-.33-.09-.51-.1-.18-.01-.36-.03-.55-.06-.46-.13-.89-.27-1.3-.4-.41-.14-.8-.31-1.18-.53-.14-.11-.28-.2-.43-.26-.15-.07-.29-.16-.43-.26-.65-.49-1.19-1.08-1.62-1.79-.43-.7-.81-1.47-1.14-2.31-.16-.38-.28-.76-.37-1.16-.08-.39-.18-.8-.28-1.24-.05-.3-.1-.59-.12-.89-.03-.3-.07-.59-.12-.89-.03-.11-.03-.22-.02-.32.01-.11,0-.22-.02-.32-.03-.14-.04-.28-.04-.43v-.43c-.05-.14-.07-.28-.04-.43.03-.15.03-.29,0-.43-.03-.11-.03-.23,0-.37.03-.13.01-.27-.04-.41-.05-.19-.07-.4-.04-.63.03-.23.04-.45.04-.67,0-.24-.01-.52-.04-.83-.03-.31-.01-.57.04-.79v-.77l.12-1.7c.03-.27.05-.53.08-.79.03-.26.05-.52.08-.79.05-.13.07-.28.06-.43-.01-.15,0-.29.06-.43.13-.46.24-.91.32-1.36.08-.45.22-.87.41-1.28.51-1.24,1.12-2.26,1.8-3.04.69-.78,1.66-1.45,2.9-1.99.35-.14.71-.23,1.08-.29.37-.05.74-.12,1.12-.2.19-.03.37-.04.53-.04s.34-.01.53-.04c2.25-.05,4.06.34,5.44,1.2,1.38.85,2.41,2.05,3.08,3.59.13.32.26.66.36,1.01.11.35.23.72.37,1.1.05.22.1.44.14.67.04.23.09.45.14.67.08.3.13.59.14.89.01.3.05.59.1.89.05.14.07.26.06.37-.01.11,0,.22.02.33.03.13.03.28.02.43s0,.29.02.43v.37c.05.16.06.34.02.55-.04.2-.03.39.02.55.03.08.04.18.04.3v1.6ZM35.61,145.41c.27-.87.43-1.85.49-2.96.05-1.11.08-2.22.08-3.33s-.03-2.3-.08-3.41c-.05-1.11-.18-2.15-.37-3.12-.19-.97-.48-1.85-.87-2.62-.39-.77-.93-1.4-1.6-1.89-.43-.3-.92-.52-1.46-.67-.54-.15-1.2-.22-1.99-.22-.05.05-.15.07-.28.06-.13-.01-.24,0-.32.02-.22.05-.41.1-.59.14-.18.04-.36.1-.55.18-.73.32-1.32.78-1.76,1.36-.45.58-.82,1.25-1.12,2.01-.14.3-.24.62-.3.95-.07.34-.14.68-.22,1.04-.05.13-.08.28-.08.43s-.01.29-.04.43c-.03.24-.05.49-.08.75-.03.26-.05.52-.08.79,0,.22,0,.44-.02.67-.01.23-.02.45-.02.67v.49c-.03.08-.04.18-.04.28v1.58c0,.22,0,.44-.02.67-.01.23,0,.44.06.63v.73c0,.05,0,.13-.02.22-.01.1,0,.17.02.22.03.27.05.53.06.79s.03.53.06.83c.08.32.13.66.14.99.01.34.07.66.18.95.22.81.45,1.53.71,2.15.26.62.64,1.2,1.16,1.74.57.54,1.28.95,2.15,1.22.11.05.21.07.3.06s.21,0,.34.06c.11.03.3.05.59.08.28.03.51.01.67-.04.19-.05.38-.09.57-.1.19-.01.37-.05.53-.1.54-.16,1.03-.39,1.46-.69.08-.05.15-.11.2-.16.05-.05.11-.11.16-.16.11-.05.24-.16.41-.33.27-.38.5-.73.69-1.05.19-.33.38-.72.57-1.18.08-.19.14-.38.18-.57.04-.19.09-.39.14-.61Z"/>
        <path class="cls-1" d="M74.56,141.52c.05.16.08.41.08.75s-.01.57-.04.71v.41c-.03.22-.05.41-.06.59-.01.18-.03.37-.06.59-.05.16-.09.32-.1.49-.01.16-.05.32-.1.49-.11.35-.2.7-.28,1.05s-.19.68-.32.97c-.57,1.3-1.33,2.39-2.27,3.27-.95.88-2.11,1.55-3.49,2.01-.3.11-.62.19-.95.24s-.68.11-1.03.16c-.16.03-.33.05-.51.06s-.34.02-.51.02c-.11.03-.26.04-.47.04s-.34-.01-.43-.04c-.11-.03-.22-.03-.32-.02-.11.01-.2,0-.28-.02h-.24l-.97-.12c-.38-.11-.74-.22-1.1-.32s-.69-.23-1.01-.37c-1.22-.54-2.22-1.24-3-2.11s-1.43-1.92-1.95-3.16c-.14-.27-.24-.54-.3-.81-.07-.27-.13-.55-.18-.85-.05-.11-.07-.2-.06-.26.01-.07,0-.16-.02-.26-.05-.22-.09-.44-.1-.67-.01-.23-.05-.45-.1-.67v-.34c0-.09-.01-.21-.04-.35-.03-.13-.04-.37-.04-.71s.03-.59.08-.75c.05-.19.07-.38.04-.57-.03-.19-.01-.38.04-.57.03-.13.05-.25.06-.35.01-.09.03-.21.06-.34.08-.33.16-.65.22-.97.07-.32.17-.63.3-.93.41-1,.9-1.9,1.48-2.7.58-.8,1.29-1.47,2.13-2.01.32-.22.66-.4,1.01-.55.35-.15.72-.3,1.09-.47.33-.14.68-.22,1.05-.26.38-.04.76-.11,1.14-.22.19,0,.37,0,.55-.02s.35-.03.51-.06c2.41-.03,4.41.47,6,1.5s2.75,2.37,3.45,4.02c.13.27.24.54.32.81.08.27.18.55.28.85.08.3.15.62.2.95.05.34.12.68.2,1.03.03.14.03.28.02.43-.01.15,0,.29.02.43ZM70.95,143.83c.05-.19.07-.41.06-.65-.01-.24-.02-.47-.02-.69,0-1.05-.1-1.95-.28-2.68-.08-.22-.15-.43-.2-.65-.05-.22-.12-.42-.2-.61-.76-1.76-1.96-2.97-3.61-3.65-.19-.08-.39-.14-.61-.18-.22-.04-.43-.09-.65-.14-.22-.05-.45-.08-.69-.08h-.73l-.73.12c-.27.05-.52.12-.75.18-.23.07-.45.16-.67.26-.19.05-.37.13-.53.24s-.31.22-.45.32c-.65.46-1.18,1.01-1.58,1.66-.41.65-.76,1.41-1.05,2.27-.08.27-.14.55-.16.83-.03.29-.07.58-.12.87-.03.11-.04.28-.04.53-.03.08-.03.18-.02.28.01.11.02.23.02.37v.81c0,.27.03.51.08.73l.08.49c.05.27.1.53.14.79.04.26.12.49.22.71.27.65.59,1.26.95,1.83.37.57.82,1.04,1.36,1.42.13.08.26.15.37.2.11.05.23.12.36.2.22.14.45.25.71.34s.53.18.83.26c.13.05.26.08.39.06.12-.01.25,0,.38.02.08.03.25.05.51.08.26.03.45.01.59-.04.11-.03.22-.03.33-.02.11.01.22,0,.32-.06.22-.05.43-.1.65-.14.22-.04.42-.1.61-.18.92-.38,1.66-.91,2.23-1.58.57-.68,1.04-1.47,1.42-2.39.13-.33.22-.67.26-1.03.04-.37.11-.74.22-1.12Z"/>
        <path class="cls-1" d="M81.13,125.65c.41,0,.81,0,1.22.02.41.01.69.13.85.34.13.16.21.39.22.67.01.29.02.58.02.87v2.35c0,.22,0,.44-.02.67-.01.23,0,.43.06.59.11.38.35.62.73.73.13.03.26.04.39.04h.38c.3,0,.66,0,1.1-.02s.74.02.93.1c.24.16.41.32.49.49.05.11.08.23.08.37v.41c0,.3-.01.57-.04.83-.03.26-.12.45-.28.59-.16.13-.39.21-.67.22s-.58.01-.89,0c-.31-.01-.62-.02-.91-.02s-.55.04-.77.12c-.19.08-.32.22-.41.41s-.14.41-.16.67c-.03.26-.04.53-.02.81.01.28.02.56.02.83v8.03c0,.6,0,1.22-.02,1.89-.01.66.1,1.17.34,1.52.13.22.31.37.53.45.22.08.47.15.77.2.08.03.17.03.26.02.09-.01.18,0,.26.02h.53c.27,0,.52.02.75.06.23.04.4.14.51.3.05.08.1.22.14.43.04.2.07.41.08.63.01.22,0,.43-.02.63-.03.2-.08.36-.16.47-.11.19-.31.33-.61.41-.22.05-.46.08-.73.06-.27-.01-.51-.02-.73-.02-.16,0-.32,0-.49.02-.16.01-.31,0-.45-.02h-.49c-.14-.03-.26-.05-.39-.06-.12-.01-.25-.02-.38-.02-.54-.14-1.01-.28-1.4-.45-.39-.16-.72-.45-.99-.85-.38-.54-.6-1.22-.65-2.05-.05-.83-.08-1.71-.08-2.66v-10.63c-.08-.35-.16-.61-.22-.77s-.26-.3-.59-.41c-.11-.03-.22-.03-.32,0-.11.03-.22.01-.33-.04h-.65c-.35,0-.64-.03-.87-.1-.23-.07-.38-.22-.47-.47-.05-.11-.09-.23-.1-.37-.01-.13-.02-.27-.02-.41,0-.38.03-.7.08-.95.05-.26.22-.45.49-.59.3-.11.68-.13,1.16-.08.47.05.87.03,1.2-.08.24-.13.43-.33.57-.57.05-.16.08-.37.08-.61v-3.87c0-.23.03-.43.08-.59.11-.22.31-.39.61-.53.08,0,.16,0,.22-.02.07-.01.13-.02.18-.02Z"/>
        <path class="cls-1" d="M92.61,124.03c.38,0,.78,0,1.2.02.42.01.71.13.87.35.13.19.2.47.2.83v6.59c0,.11,0,.22-.02.32-.01.11,0,.22.02.32.03.08.03.18.02.29-.01.11,0,.2.02.28.05.22.09.42.1.61s.16.28.43.28c.05-.05.12-.09.18-.1.07-.01.13-.05.18-.1.16-.11.31-.22.45-.34.13-.12.28-.25.45-.39.3-.22.63-.41.99-.59.37-.18.74-.33,1.12-.47.22-.05.45-.1.69-.14.24-.04.47-.09.69-.14.11-.05.22-.07.32-.06s.23,0,.37-.02c.13-.05.36-.08.67-.08s.53.03.67.08h.39c.12,0,.25.01.38.04.22.05.43.1.65.12.22.03.43.07.65.12.13.05.24.09.32.1s.19.05.33.1c.3.13.58.28.85.43.27.15.54.32.81.51.27.24.53.53.77.85.16.24.31.49.45.73.13.24.27.51.41.81.08.19.14.38.18.57.04.19.09.39.14.61.05.14.08.27.08.41s.01.28.04.45c.05.14.07.27.06.41-.01.14,0,.27.06.41v.41c.03.13.03.28.02.45s-.02.31-.02.45v10.18c0,.22,0,.48.02.79.01.31.01.61,0,.89s-.05.55-.1.79c-.05.24-.14.41-.24.49-.19.16-.54.24-1.05.24h-1.04c-.34,0-.59-.11-.75-.33-.14-.19-.2-.41-.2-.67v-10.24c0-.73,0-1.51.02-2.33.01-.82-.08-1.53-.26-2.13-.33-.92-.87-1.6-1.62-2.03-.22-.13-.45-.25-.69-.34-.24-.09-.51-.17-.81-.22-.11-.03-.27-.04-.49-.04-.11-.03-.24-.05-.38-.08-.15-.03-.29-.01-.43.04-.11.03-.22.03-.32.02-.11-.01-.23,0-.37.02-.24.05-.49.1-.75.14-.26.04-.49.12-.71.22-.92.38-1.65.89-2.19,1.54-.54.65-.96,1.47-1.26,2.47-.05.19-.09.39-.12.61-.03.22-.07.43-.12.65-.03.08-.03.17-.02.26s0,.18-.02.26c-.03.13-.03.27,0,.41.03.14.03.27,0,.41v8.16c0,.22,0,.47.02.75.01.28.01.56,0,.83s-.03.53-.06.77c-.03.24-.08.42-.16.53-.11.14-.24.21-.39.22-.15.01-.32.05-.51.1h-.57c-.3,0-.58,0-.85-.02-.27-.01-.47-.1-.61-.26-.14-.22-.21-.48-.22-.79-.01-.31-.02-.64-.02-.99v-24.63c0-.3,0-.61-.02-.95-.01-.34.05-.6.18-.79.11-.19.31-.32.61-.41.05-.03.11-.03.16-.02.05.01.11,0,.16-.02Z"/>
        <path class="cls-1" d="M132.17,141.6c.05.27.06.58.02.91-.04.34-.13.58-.26.71-.14.11-.33.18-.59.22-.26.04-.55.06-.87.06s-.65,0-.97-.02c-.32-.01-.61-.02-.85-.02h-10.39c-.22,0-.43,0-.65.02-.22.01-.39.06-.53.14-.11.05-.22.16-.33.32-.05.08-.11.2-.16.34-.05.15-.05.29,0,.43.03.14.04.26.04.37s.01.22.04.33c.05.22.11.44.16.67.05.23.14.45.24.67.62,1.46,1.65,2.5,3.08,3.12.16.08.34.15.53.2s.38.11.57.16c.08.03.22.04.41.04.38.11.88.16,1.5.16s1.12-.05,1.5-.16c.38-.11.72-.22,1.04-.34.31-.12.6-.28.87-.47.3-.19.55-.41.77-.67.22-.26.41-.53.57-.83.16-.27.3-.55.43-.85.12-.3.33-.51.63-.65.11-.05.28-.09.53-.12.24-.03.49-.03.73-.02s.47.03.69.06c.22.03.37.08.45.16.27.19.34.5.2.93-.22.73-.5,1.38-.85,1.95-.54.87-1.16,1.58-1.85,2.13s-1.56,1.01-2.62,1.36c-.27.11-.54.18-.81.22-.27.04-.55.09-.85.14-.14.03-.26.04-.38.04s-.25.01-.39.04h-.41c-.14.03-.29.04-.47.04s-.32-.01-.43-.04h-.37c-.14-.03-.26-.04-.37-.04s-.22-.01-.33-.04c-.13-.03-.28-.05-.45-.06-.16-.01-.31-.03-.45-.06-.24-.05-.49-.12-.73-.18-.24-.07-.47-.14-.69-.22-.11-.05-.2-.09-.28-.1-.08-.01-.18-.05-.28-.1-.41-.19-.84-.42-1.3-.69-.78-.51-1.45-1.14-2.01-1.89-.55-.74-1.02-1.58-1.4-2.5-.14-.3-.24-.61-.3-.93-.07-.32-.16-.65-.26-.97-.03-.11-.04-.2-.04-.29s-.01-.19-.04-.32c-.05-.22-.09-.45-.12-.69-.03-.24-.07-.49-.12-.73v-.57c-.03-.11-.05-.26-.06-.47-.01-.2,0-.37.02-.51v-.45c.05-.13.07-.28.06-.43-.01-.15,0-.29.02-.43.11-.43.2-.87.26-1.3s.18-.84.34-1.22c.14-.3.26-.6.39-.91s.26-.62.43-.91c.59-.95,1.27-1.76,2.03-2.45.76-.69,1.69-1.26,2.8-1.72.32-.13.66-.24.99-.3.34-.07.7-.14,1.08-.22.13-.03.26-.05.37-.06.11-.01.23-.02.37-.02.05-.03.12-.03.2,0,.08.03.15.01.2-.04,1.14-.03,2.12.09,2.96.34.84.26,1.6.6,2.27,1.04.13.05.24.13.33.22.08.1.17.17.28.22.22.16.44.35.67.57.23.22.43.43.59.65.43.57.8,1.11,1.1,1.62.19.3.34.62.45.97.11.35.23.7.37,1.05.13.35.24.72.3,1.1s.16.76.26,1.14c.03.19.05.38.06.57.01.19.03.38.06.57ZM128.23,140.22c.08-.11.15-.25.2-.43.05-.18.05-.36,0-.55-.16-.59-.39-1.15-.69-1.66-.38-.62-.8-1.15-1.26-1.58s-1.05-.8-1.79-1.09c-.19-.05-.38-.1-.57-.14s-.39-.09-.61-.14c-.22-.05-.45-.08-.69-.08h-.69c-.08.05-.18.07-.28.06-.11-.01-.2,0-.28.02-.22.05-.43.1-.63.14s-.4.09-.59.14c-.79.32-1.41.73-1.89,1.22-.47.49-.9,1.1-1.28,1.83-.08.14-.16.3-.24.51-.08.2-.15.43-.2.67-.05.24-.07.47-.04.69.03.22.12.38.28.49.22.16.59.24,1.12.22.53-.01.98-.02,1.36-.02h6.17c.41,0,.89,0,1.46.02.57.01.95-.09,1.14-.3Z"/>
        <path class="cls-1" d="M145.55,131.5c.62,0,.97.16,1.06.47.08.31.12.76.12,1.36v.77c0,.24-.07.45-.2.61-.16.22-.39.33-.69.34s-.59.06-.89.14c-.38.08-.74.16-1.08.24-.34.08-.66.19-.95.32-.79.35-1.42.83-1.91,1.44-.49.61-.91,1.31-1.26,2.09-.11.3-.19.6-.24.91-.05.31-.12.63-.2.95-.03.14-.03.27-.02.41.01.14,0,.27-.02.41-.08.32-.12.7-.1,1.12.01.42.02.82.02,1.2v5.92c0,.32-.01.63-.04.93-.03.3-.03.55-.02.77.01.22-.05.41-.18.57-.14.19-.34.3-.63.32-.28.03-.59.04-.91.04h-.73c-.14-.05-.26-.1-.38-.14-.12-.04-.21-.1-.26-.18-.14-.19-.21-.43-.22-.71-.01-.28-.02-.57-.02-.87v-17.16c0-.3,0-.57.02-.83.01-.26.09-.48.22-.67.08-.11.22-.19.43-.24.2-.05.43-.09.67-.1.24-.01.49,0,.73.02.24.03.43.07.57.12.22.08.36.24.43.47.07.23.1.47.1.73v.81c0,.28.05.53.16.75.03.05.05.1.08.12.03.03.07.07.12.12.3,0,.54-.13.73-.39s.35-.47.49-.63l.24-.24c.24-.3.58-.61,1.01-.93.43-.32.84-.57,1.22-.73.24-.13.5-.24.77-.3s.55-.14.85-.22c.16-.03.32-.05.49-.06.16-.01.31-.03.45-.06Z"/>
        <path class="cls-1" d="M180.57,141.88c.03.14.04.31.04.53s-.01.39-.04.53c-.05.14-.07.26-.04.39.03.12.03.24,0,.34,0,.19-.01.34-.04.45-.05.24-.09.49-.1.73-.01.24-.05.49-.1.73-.05.22-.11.43-.16.63-.05.2-.12.41-.2.63-.32,1-.77,1.91-1.34,2.72-.16.24-.34.48-.53.71-.19.23-.39.44-.61.63l-.2.2c-.19.13-.37.27-.53.41s-.35.27-.57.41c-.3.22-.63.4-.99.55-.36.15-.74.29-1.12.43-.22.05-.43.09-.63.12s-.41.07-.63.12c-.05,0-.1,0-.14.02-.04.01-.09.02-.14.02-.24.05-.6.09-1.08.1s-.85,0-1.12-.06h-.2c-.19-.03-.37-.05-.53-.06-.16-.01-.32-.05-.49-.1-.46-.13-.89-.26-1.3-.37-.41-.11-.78-.27-1.14-.49-.43-.24-.81-.5-1.14-.77-.11-.08-.27-.2-.49-.35-.22-.15-.42-.15-.61-.02-.11.08-.16.19-.16.32s-.03.28-.08.45c-.03.08-.03.17,0,.26.03.09.03.2,0,.3-.05.16-.08.34-.06.55s.02.38.02.55v6.04c0,.41-.08.72-.24.93-.14.19-.35.29-.65.3s-.59.02-.89.02h-.65c-.19-.05-.35-.11-.47-.16-.12-.05-.22-.15-.3-.28-.14-.19-.2-.49-.18-.89.01-.41.02-.76.02-1.05v-24.34c0-.33,0-.66.02-.99.01-.34.09-.61.22-.83.08-.11.26-.2.55-.26.28-.07.59-.1.91-.08s.63.05.91.12c.28.07.47.16.55.26.11.14.17.3.18.49s.06.38.14.57c.05.08.1.14.14.18l.14.14c.3.03.55-.07.75-.29.2-.21.4-.39.59-.53.7-.49,1.54-.87,2.51-1.13.24-.05.49-.1.75-.12.26-.03.52-.07.79-.12.11-.03.24-.03.41,0,.16.03.27.01.33-.04,1.16-.03,2.19.09,3.08.35s1.69.62,2.39,1.07c.14.11.27.21.41.3.13.1.27.2.41.3.05.05.1.1.14.14.04.04.09.09.14.14.13.14.28.29.45.45s.31.32.45.49c.32.46.66.96,1.01,1.5.22.35.4.75.55,1.18.15.43.29.87.43,1.3.05.22.1.45.14.69.04.24.09.47.14.69,0,.11,0,.21.02.3s.02.18.02.26c.05.13.07.28.06.45s0,.31.06.45v.41ZM176.96,142.98c.05-.13.07-.3.04-.51-.03-.2-.04-.39-.04-.55,0-.46-.02-.89-.06-1.3-.04-.41-.13-.8-.26-1.18-.05-.16-.1-.33-.14-.51-.04-.18-.1-.34-.18-.51-.3-.73-.76-1.43-1.4-2.11s-1.24-1.14-1.81-1.38c-.22-.11-.44-.19-.67-.24-.23-.05-.47-.12-.71-.2-.24-.05-.52-.08-.83-.08h-.91c-.05.05-.16.08-.3.06-.15-.01-.28,0-.39.02-.24.05-.48.11-.71.16-.23.05-.45.14-.67.24-.87.38-1.58.93-2.13,1.64-.55.72-.98,1.55-1.28,2.5-.11.3-.18.59-.22.89-.04.3-.09.59-.14.89-.03.11-.04.21-.04.3s-.01.2-.04.3v.32c-.03.14-.04.33-.04.59s.01.45.04.59v.33c.03.11.04.22.04.32s.01.2.04.28c.03.08.04.16.04.24s.01.18.04.28c.05.22.1.43.14.65.04.22.09.43.14.65.3.92.71,1.72,1.24,2.41s1.22,1.22,2.09,1.6c.51.22,1.04.38,1.58.49.11.05.22.07.32.06s.22,0,.33.02h.32c.19.05.38.05.57,0h.32c.3-.05.58-.09.85-.12s.54-.09.81-.2c.84-.35,1.52-.82,2.05-1.4.53-.58.97-1.29,1.32-2.13.14-.38.24-.76.3-1.16.07-.39.16-.8.26-1.24.03-.14.04-.26.04-.37s.01-.23.04-.37v-.33Z"/>
        <path class="cls-1" d="M186.08,123.99h1.12c.39,0,.68.1.87.28.13.19.21.44.22.75s.02.63.02.95v25.64c0,.38-.07.68-.2.89-.08.13-.2.22-.34.24-.15.03-.33.07-.55.12h-.57c-.3,0-.58,0-.85-.02-.27-.01-.47-.1-.61-.26-.14-.21-.21-.49-.22-.81s-.02-.66-.02-1.01v-24.58c0-.3,0-.62-.02-.95-.01-.34.05-.6.18-.79.11-.16.31-.3.61-.41.05-.03.11-.03.18-.02.07.01.13,0,.18-.02Z"/>
        <path class="cls-1" d="M212.17,151.37c.08.43.04.79-.12,1.08-.16.28-.38.49-.65.63-.14.05-.28.08-.43.08s-.3.03-.47.08c-.6.13-1.18.1-1.76-.1-.58-.2-.98-.45-1.2-.75-.14-.19-.26-.41-.37-.67-.11-.26-.24-.47-.41-.63-.05-.05-.12-.11-.18-.16-.07-.05-.16-.07-.26-.04-.3.08-.58.23-.83.45-.26.22-.51.41-.75.57-.35.22-.73.41-1.14.59-.41.18-.84.33-1.3.47-.27.08-.56.14-.87.16-.31.03-.62.07-.91.12-.14.03-.25.04-.34.04h-.3c-.3.05-.58.05-.85,0h-.37c-.14-.03-.27-.04-.41-.04s-.26-.03-.37-.08c-.11-.03-.2-.03-.26-.02-.07.01-.14,0-.22-.02-.22-.05-.43-.1-.65-.14-.22-.04-.42-.1-.61-.18-.81-.35-1.47-.75-1.97-1.2-.5-.45-.91-1.08-1.24-1.89-.24-.59-.37-1.31-.37-2.15v-.85c.03-.13.05-.28.06-.43.01-.15.03-.3.06-.47.11-.3.22-.59.32-.89.11-.3.24-.57.41-.81.49-.78,1.15-1.37,1.99-1.74.84-.38,1.76-.72,2.76-1.01.38-.11.77-.19,1.18-.24s.81-.12,1.22-.2c.19-.05.37-.08.55-.08s.37-.03.59-.08c.19-.05.38-.09.57-.1s.39-.05.61-.1c.68-.16,1.31-.3,1.91-.43.59-.12,1.07-.43,1.42-.91.16-.22.3-.49.41-.83s.11-.71,0-1.12c-.16-.65-.4-1.16-.71-1.54s-.75-.68-1.32-.89c-.32-.13-.71-.23-1.16-.28s-.91-.08-1.4-.08-.96.03-1.42.08-.85.13-1.18.24c-.46.16-.91.39-1.34.69-.22.16-.41.37-.59.63-.18.26-.33.53-.47.83-.08.22-.16.45-.22.69-.07.24-.2.43-.39.57-.11.08-.29.14-.55.18-.26.04-.52.06-.79.06s-.53-.02-.79-.06c-.26-.04-.44-.1-.55-.18-.11-.08-.19-.22-.24-.41-.05-.19-.05-.39,0-.61.08-.35.17-.68.26-.99.09-.31.21-.62.34-.91.51-.95,1.16-1.68,1.95-2.21.78-.53,1.76-.95,2.92-1.28.27-.05.55-.09.83-.12s.57-.07.87-.12c.11-.03.28-.03.53-.02.24.01.39,0,.45-.06,1.89-.03,3.54.19,4.95.65s2.39,1.34,2.96,2.64c.24.54.39,1.17.43,1.89.04.72.06,1.47.06,2.25v8.97c0,.38.01.74.04,1.1.03.35.11.63.24.85.14.19.31.32.53.41.24.11.47.18.69.22.22.04.38.17.49.38.05.08.08.16.08.24s.01.19.04.32ZM206.37,146.87c.16-.38.25-.82.26-1.32.01-.5.02-1.02.02-1.56,0-.3-.01-.57-.04-.81-.03-.24-.13-.43-.32-.57-.08-.05-.27-.08-.57-.08-.05.05-.15.08-.28.08s-.26.03-.37.08c-.22.05-.46.11-.73.16-.27.05-.54.11-.81.16-.08,0-.17,0-.26.02-.09.01-.2.02-.3.02-.41.11-.84.17-1.32.18-.47.01-.91.08-1.32.18-.22.05-.41.1-.59.14-.18.04-.37.09-.59.14-.43.14-.84.3-1.22.51-.38.2-.7.45-.97.75-.27.3-.47.66-.61,1.08-.14.42-.19.93-.16,1.52,0,.27.05.52.14.75s.21.44.34.63c.22.3.5.55.85.75.35.2.73.37,1.14.51.13.03.27.04.41.04s.27.01.41.04c.19.05.43.09.71.1.28.01.52,0,.71-.06.16-.05.32-.07.49-.06s.33,0,.49-.06c.22-.05.43-.09.63-.12.2-.03.4-.08.59-.16.78-.32,1.45-.72,2.01-1.18.55-.46.98-1.08,1.28-1.87Z"/>
        <path class="cls-1" d="M214.56,131.98c.35,0,.76,0,1.22-.02s.8.05,1.01.18c.22.14.37.31.47.53.09.22.2.45.3.69.13.35.26.7.37,1.06.11.35.23.7.37,1.05.13.33.26.66.37.99.11.34.23.67.37.99.13.3.24.61.32.93s.19.65.32.97c.33.79.62,1.6.89,2.43s.57,1.65.89,2.43c.05.11.08.21.08.3s.03.18.08.26c.16.38.31.76.45,1.16.13.39.27.78.41,1.16.08.19.16.39.24.59.08.2.22.33.41.39.22.08.38,0,.51-.22.12-.23.21-.41.26-.55.22-.46.39-.95.53-1.46.13-.51.3-1.01.49-1.5.24-.62.46-1.25.65-1.89.19-.64.42-1.25.69-1.85.03-.13.07-.31.12-.53.11-.24.2-.49.28-.75.08-.26.16-.49.24-.71.05-.14.09-.26.12-.37.03-.11.07-.23.12-.37.13-.32.25-.66.34-.99.09-.34.21-.67.34-.99.05-.13.09-.26.12-.37.03-.11.07-.23.12-.37.11-.24.2-.49.28-.75.08-.26.16-.51.24-.75.08-.22.16-.44.22-.67.07-.23.17-.43.3-.59.19-.24.45-.38.79-.41s.71-.04,1.12-.04c.22,0,.43,0,.63.02.2.01.37.06.51.14.24.16.31.42.2.77-.11.35-.2.62-.28.81-.03.05-.05.11-.06.16-.01.05-.03.11-.06.16-.3.76-.59,1.52-.89,2.29-.3.77-.59,1.54-.89,2.29-.08.22-.15.41-.2.59-.05.18-.12.36-.2.55-.22.54-.43,1.09-.63,1.64-.2.55-.41,1.1-.63,1.64-.79,1.87-1.51,3.75-2.19,5.64-.68,1.89-1.41,3.77-2.19,5.64-.05.14-.1.28-.14.43-.04.15-.09.3-.14.47-.43,1-.89,1.99-1.38,2.98s-1.16,1.75-2.03,2.29c-.3.16-.6.29-.89.38-.3.09-.64.18-1.01.26-.14.05-.28.07-.43.04-.15-.03-.3-.03-.47,0-.22.05-.43.05-.65,0-.11-.03-.24-.04-.41-.04-.22-.05-.43-.11-.63-.16s-.36-.16-.47-.32c-.14-.16-.21-.36-.22-.59-.01-.23-.02-.48-.02-.75,0-.19,0-.37.02-.55s.06-.32.14-.43c.19-.3.51-.38.97-.24.3.05.62.08.97.08s.66-.05.93-.16c.41-.14.74-.34.99-.61.26-.27.48-.57.67-.91.19-.34.36-.7.51-1.08.15-.38.3-.76.47-1.13.11-.24.22-.54.34-.89.12-.35.13-.72.02-1.1-.14-.43-.28-.84-.43-1.22-.15-.38-.3-.76-.47-1.14-.24-.57-.47-1.14-.69-1.7-.22-.57-.43-1.12-.65-1.66-.16-.38-.31-.74-.45-1.1-.14-.35-.27-.72-.41-1.1-.49-1.19-.97-2.38-1.44-3.57-.47-1.19-.95-2.38-1.44-3.57-.27-.62-.51-1.22-.73-1.81-.22-.58-.45-1.17-.69-1.76-.05-.16-.14-.39-.24-.67-.11-.28-.09-.52.04-.71.08-.13.24-.23.49-.28.05-.03.11-.03.18-.02.07.01.13,0,.18-.02Z"/>
        <path class="cls-1" d="M253.88,141.6c.05.27.06.58.02.91-.04.34-.13.58-.26.71-.14.11-.33.18-.59.22-.26.04-.55.06-.87.06s-.65,0-.97-.02c-.32-.01-.61-.02-.85-.02h-10.39c-.22,0-.43,0-.65.02-.22.01-.39.06-.53.14-.11.05-.22.16-.33.32-.05.08-.11.2-.16.34-.05.15-.05.29,0,.43.03.14.04.26.04.37s.01.22.04.33c.05.22.11.44.16.67.05.23.14.45.24.67.62,1.46,1.65,2.5,3.08,3.12.16.08.34.15.53.2s.38.11.57.16c.08.03.22.04.41.04.38.11.88.16,1.5.16s1.12-.05,1.5-.16c.38-.11.72-.22,1.04-.34.31-.12.6-.28.87-.47.3-.19.55-.41.77-.67.22-.26.41-.53.57-.83.16-.27.3-.55.43-.85.12-.3.33-.51.63-.65.11-.05.28-.09.53-.12.24-.03.49-.03.73-.02s.47.03.69.06c.22.03.37.08.45.16.27.19.34.5.2.93-.22.73-.5,1.38-.85,1.95-.54.87-1.16,1.58-1.85,2.13s-1.56,1.01-2.62,1.36c-.27.11-.54.18-.81.22-.27.04-.55.09-.85.14-.14.03-.26.04-.38.04s-.25.01-.39.04h-.41c-.14.03-.29.04-.47.04s-.32-.01-.43-.04h-.37c-.14-.03-.26-.04-.37-.04s-.22-.01-.33-.04c-.13-.03-.28-.05-.45-.06-.16-.01-.31-.03-.45-.06-.24-.05-.49-.12-.73-.18-.24-.07-.47-.14-.69-.22-.11-.05-.2-.09-.28-.1-.08-.01-.18-.05-.28-.1-.41-.19-.84-.42-1.3-.69-.78-.51-1.45-1.14-2.01-1.89-.55-.74-1.02-1.58-1.4-2.5-.14-.3-.24-.61-.3-.93-.07-.32-.16-.65-.26-.97-.03-.11-.04-.2-.04-.29s-.01-.19-.04-.32c-.05-.22-.09-.45-.12-.69-.03-.24-.07-.49-.12-.73v-.57c-.03-.11-.05-.26-.06-.47-.01-.2,0-.37.02-.51v-.45c.05-.13.07-.28.06-.43-.01-.15,0-.29.02-.43.11-.43.2-.87.26-1.3s.18-.84.34-1.22c.14-.3.26-.6.39-.91s.26-.62.43-.91c.59-.95,1.27-1.76,2.03-2.45.76-.69,1.69-1.26,2.8-1.72.32-.13.66-.24.99-.3.34-.07.7-.14,1.08-.22.13-.03.26-.05.37-.06.11-.01.23-.02.37-.02.05-.03.12-.03.2,0,.08.03.15.01.2-.04,1.14-.03,2.12.09,2.96.34.84.26,1.6.6,2.27,1.04.13.05.24.13.33.22.08.1.17.17.28.22.22.16.44.35.67.57.23.22.43.43.59.65.43.57.8,1.11,1.1,1.62.19.3.34.62.45.97.11.35.23.7.37,1.05.13.35.24.72.3,1.1s.16.76.26,1.14c.03.19.05.38.06.57.01.19.03.38.06.57ZM249.94,140.22c.08-.11.15-.25.2-.43.05-.18.05-.36,0-.55-.16-.59-.39-1.15-.69-1.66-.38-.62-.8-1.15-1.26-1.58s-1.05-.8-1.79-1.09c-.19-.05-.38-.1-.57-.14s-.39-.09-.61-.14c-.22-.05-.45-.08-.69-.08h-.69c-.08.05-.18.07-.28.06-.11-.01-.2,0-.28.02-.22.05-.43.1-.63.14s-.4.09-.59.14c-.79.32-1.41.73-1.89,1.22-.47.49-.9,1.1-1.28,1.83-.08.14-.16.3-.24.51-.08.2-.15.43-.2.67-.05.24-.07.47-.04.69.03.22.12.38.28.49.22.16.59.24,1.12.22.53-.01.98-.02,1.36-.02h6.17c.41,0,.89,0,1.46.02.57.01.95-.09,1.14-.3Z"/>
        <path class="cls-1" d="M267.26,131.5c.62,0,.97.16,1.06.47.08.31.12.76.12,1.36v.77c0,.24-.07.45-.2.61-.16.22-.39.33-.69.34s-.59.06-.89.14c-.38.08-.74.16-1.08.24-.34.08-.66.19-.95.32-.79.35-1.42.83-1.91,1.44-.49.61-.91,1.31-1.26,2.09-.11.3-.19.6-.24.91-.05.31-.12.63-.2.95-.03.14-.03.27-.02.41.01.14,0,.27-.02.41-.08.32-.12.7-.1,1.12.01.42.02.82.02,1.2v5.92c0,.32-.01.63-.04.93-.03.3-.03.55-.02.77.01.22-.05.41-.18.57-.14.19-.34.3-.63.32-.28.03-.59.04-.91.04h-.73c-.14-.05-.26-.1-.38-.14-.12-.04-.21-.1-.26-.18-.14-.19-.21-.43-.22-.71-.01-.28-.02-.57-.02-.87v-17.16c0-.3,0-.57.02-.83.01-.26.09-.48.22-.67.08-.11.22-.19.43-.24.2-.05.43-.09.67-.1.24-.01.49,0,.73.02.24.03.43.07.57.12.22.08.36.24.43.47.07.23.1.47.1.73v.81c0,.28.05.53.16.75.03.05.05.1.08.12.03.03.07.07.12.12.3,0,.54-.13.73-.39s.35-.47.49-.63l.24-.24c.24-.3.58-.61,1.01-.93.43-.32.84-.57,1.22-.73.24-.13.5-.24.77-.3s.55-.14.85-.22c.16-.03.32-.05.49-.06.16-.01.31-.03.45-.06Z"/>
        <path class="cls-1" d="M277.49,131.5c1.95-.03,3.58.2,4.91.67,1.32.47,2.35,1.31,3.08,2.5.19.3.34.6.45.91.11.31.22.66.32,1.03.05.19.07.39.04.59-.03.2-.07.36-.12.47-.05.05-.12.1-.2.14s-.15.09-.2.14c-.14.05-.27.07-.41.04-.14-.03-.27-.03-.41,0-.22.05-.5.06-.85.02-.35-.04-.59-.1-.73-.18-.22-.13-.36-.32-.43-.55s-.17-.45-.3-.67c-.24-.43-.58-.82-1.01-1.18-.3-.22-.62-.38-.97-.49-.35-.11-.73-.22-1.14-.33-.14-.05-.27-.07-.41-.06-.14.01-.27,0-.41-.02-.16-.05-.37-.08-.61-.08s-.45.03-.61.08h-.24c-.14.03-.27.05-.41.06-.14.01-.27.03-.41.06-.7.16-1.29.39-1.74.69-.46.3-.77.8-.93,1.5-.05.19-.06.38-.02.57.04.19.09.35.14.49.16.41.36.7.59.87.23.18.52.37.87.59.43.27.92.47,1.46.59.54.12,1.08.26,1.62.43.35.11.7.19,1.05.24.35.05.7.14,1.05.24.57.16,1.12.32,1.66.47s1.08.33,1.62.55c.14.05.27.11.41.16.13.05.27.12.41.2.54.32,1.01.69,1.42,1.09s.74.92,1.01,1.54c.05.19.11.45.16.77.05.19.09.39.1.59.01.2.02.43.02.67v.41c-.05.19-.08.38-.08.57s-.03.38-.08.57c-.08.3-.18.58-.28.85-.11.27-.23.51-.37.73-.43.7-.99,1.26-1.66,1.68-.68.42-1.43.78-2.27,1.07-.24.08-.49.14-.75.18-.26.04-.51.1-.75.18-.27.05-.54.08-.81.08s-.54.03-.81.08h-.41c-.14.03-.33.04-.57.04s-.43-.01-.57-.04h-.45c-.16-.05-.34-.07-.53-.06s-.35,0-.49-.06c-.14-.03-.31-.04-.53-.04-.22-.05-.43-.1-.63-.14-.2-.04-.41-.1-.63-.18-.84-.27-1.57-.61-2.19-1.01-.62-.41-1.16-.93-1.62-1.58-.24-.35-.45-.72-.61-1.09-.16-.38-.31-.8-.45-1.26-.05-.16-.08-.36-.06-.59.01-.23.05-.41.1-.55.08-.11.22-.22.41-.32.14-.05.33-.09.57-.1s.49,0,.73.02c.24.03.48.06.71.1.23.04.39.09.47.14.19.14.32.33.38.59.07.26.16.49.26.71.27.59.64,1.05,1.1,1.38.32.24.69.43,1.1.57.41.13.84.27,1.3.41l.85.12h.24c.19.05.44.08.75.08s.58-.03.79-.08c.19,0,.34-.01.45-.04.16-.03.32-.05.49-.06s.31-.03.45-.06c.78-.22,1.41-.5,1.87-.85.46-.35.78-.95.97-1.79.05-.13.07-.28.04-.45-.03-.16-.05-.28-.08-.37-.14-.51-.32-.9-.57-1.16-.24-.26-.55-.49-.93-.71-.24-.16-.51-.3-.81-.41-.3-.11-.6-.22-.89-.32-.08-.03-.16-.04-.22-.04s-.14-.03-.22-.08c-.92-.3-1.87-.52-2.86-.67-.99-.15-1.91-.4-2.78-.75-.27-.11-.53-.2-.77-.28-.24-.08-.47-.19-.69-.32-.51-.3-.99-.64-1.42-1.01-.43-.38-.77-.85-1.01-1.42-.08-.19-.14-.38-.18-.57-.04-.19-.09-.39-.14-.61-.08-.32-.11-.7-.08-1.12s.07-.78.12-1.08c.05-.14.09-.25.1-.34.01-.09.05-.2.1-.3.24-.62.57-1.16.99-1.62.42-.46.9-.87,1.44-1.22.41-.24.85-.44,1.34-.59.49-.15,1-.29,1.54-.43.19-.03.37-.05.55-.08.18-.03.37-.05.59-.08.08-.03.19-.03.33,0,.13.03.23.01.28-.04Z"/>
        <path class="cls-1" d="M303.25,127.93c-.22-.16-.33-.45-.35-.87-.01-.42-.02-.83-.02-1.24v-.69c0-.24.04-.45.12-.61.11-.22.33-.38.65-.49.05-.03.11-.03.18-.02.07.01.13,0,.18-.02.46,0,.89.01,1.3.04.41.03.68.19.81.49.08.16.12.36.12.59v.71c0,.49,0,.95-.02,1.38-.01.43-.2.72-.55.85-.14.05-.28.08-.43.08h-1.32c-.27,0-.5-.07-.69-.2ZM306.25,150.93c0,.27,0,.55.02.83.01.28-.05.51-.18.67-.08.16-.2.26-.37.3s-.35.09-.57.14h-.61c-.35,0-.66-.02-.91-.06s-.45-.17-.59-.39c-.11-.16-.16-.37-.16-.63v-18.78c0-.28.07-.51.2-.67.08-.13.19-.22.33-.24.13-.03.28-.07.45-.12.05,0,.11,0,.18.02.07.01.13,0,.18-.02.35,0,.71,0,1.08.02.36.01.61.13.75.34.13.16.2.37.2.63v17.95Z"/>
        <path class="cls-1" d="M321.46,131.58c1.7-.05,3.07.18,4.1.69,1.03.51,1.85,1.29,2.47,2.31.16.27.29.56.39.87.09.31.18.63.26.95.13.51.22,1.07.24,1.66.03.6.04,1.2.04,1.83v10.67c0,.46,0,.92-.02,1.38-.01.46-.2.76-.55.89-.14.05-.28.09-.43.1-.15.01-.3.02-.47.02-.35,0-.69,0-1.01-.02-.33-.01-.55-.13-.69-.35-.14-.19-.2-.43-.2-.73v-11c0-.73-.01-1.45-.04-2.17-.03-.72-.15-1.33-.37-1.85-.22-.54-.54-.98-.97-1.32s-.93-.6-1.5-.79c-.16-.05-.33-.09-.51-.1-.18-.01-.34-.05-.51-.1-.14-.03-.34-.03-.63-.02-.28.01-.48.04-.59.06-.11.05-.2.08-.28.06s-.18,0-.28.02c-.35.08-.68.17-.99.26-.31.1-.6.22-.87.39-.11.05-.2.11-.28.16-.08.05-.18.11-.28.16-.95.68-1.64,1.69-2.07,3.04-.08.22-.14.44-.16.67-.03.23-.07.45-.12.67-.05.14-.07.26-.04.38.03.12.01.24-.04.35v.85c-.03.08-.03.18-.02.28s.02.23.02.37v9.59c0,.31-.07.56-.2.75-.14.22-.37.33-.71.35s-.68.02-1.03.02c-.22,0-.42-.01-.61-.04-.19-.03-.35-.09-.49-.2-.22-.14-.32-.39-.32-.77v-18.91c0-.24.05-.43.16-.57.08-.16.22-.27.41-.32.11-.03.26-.05.47-.08.2-.03.41-.04.63-.04s.43.01.63.04c.2.03.34.07.43.12.3.19.43.43.41.71-.03.28.01.6.12.95.05.16.16.3.33.41.32.03.59-.09.79-.36s.41-.49.63-.65c.38-.27.76-.52,1.16-.75.39-.23.84-.43,1.36-.59.22-.08.45-.13.71-.16.26-.03.51-.07.75-.12.13-.03.27-.04.41-.04h.41Z"/>
        <path class="cls-1" d="M363.58,141.6c.05.27.06.58.02.91-.04.34-.13.58-.26.71-.14.11-.33.18-.59.22-.26.04-.55.06-.87.06s-.65,0-.97-.02c-.32-.01-.61-.02-.85-.02h-10.39c-.22,0-.43,0-.65.02-.22.01-.39.06-.53.14-.11.05-.22.16-.33.32-.05.08-.11.2-.16.34-.05.15-.05.29,0,.43.03.14.04.26.04.37s.01.22.04.33c.05.22.11.44.16.67.05.23.14.45.24.67.62,1.46,1.65,2.5,3.08,3.12.16.08.34.15.53.2s.38.11.57.16c.08.03.22.04.41.04.38.11.88.16,1.5.16s1.12-.05,1.5-.16c.38-.11.72-.22,1.04-.34.31-.12.6-.28.87-.47.3-.19.55-.41.77-.67.22-.26.41-.53.57-.83.16-.27.3-.55.43-.85.12-.3.33-.51.63-.65.11-.05.28-.09.53-.12.24-.03.49-.03.73-.02s.47.03.69.06c.22.03.37.08.45.16.27.19.34.5.2.93-.22.73-.5,1.38-.85,1.95-.54.87-1.16,1.58-1.85,2.13s-1.56,1.01-2.62,1.36c-.27.11-.54.18-.81.22-.27.04-.55.09-.85.14-.14.03-.26.04-.38.04s-.25.01-.39.04h-.41c-.14.03-.29.04-.47.04s-.32-.01-.43-.04h-.37c-.14-.03-.26-.04-.37-.04s-.22-.01-.33-.04c-.13-.03-.28-.05-.45-.06-.16-.01-.31-.03-.45-.06-.24-.05-.49-.12-.73-.18-.24-.07-.47-.14-.69-.22-.11-.05-.2-.09-.28-.1-.08-.01-.18-.05-.28-.1-.41-.19-.84-.42-1.3-.69-.78-.51-1.45-1.14-2.01-1.89-.55-.74-1.02-1.58-1.4-2.5-.14-.3-.24-.61-.3-.93-.07-.32-.16-.65-.26-.97-.03-.11-.04-.2-.04-.29s-.01-.19-.04-.32c-.05-.22-.09-.45-.12-.69-.03-.24-.07-.49-.12-.73v-.57c-.03-.11-.05-.26-.06-.47-.01-.2,0-.37.02-.51v-.45c.05-.13.07-.28.06-.43-.01-.15,0-.29.02-.43.11-.43.2-.87.26-1.3s.18-.84.34-1.22c.14-.3.26-.6.39-.91s.26-.62.43-.91c.59-.95,1.27-1.76,2.03-2.45.76-.69,1.69-1.26,2.8-1.72.32-.13.66-.24.99-.3.34-.07.7-.14,1.08-.22.13-.03.26-.05.37-.06.11-.01.23-.02.37-.02.05-.03.12-.03.2,0,.08.03.15.01.2-.04,1.14-.03,2.12.09,2.96.34.84.26,1.6.6,2.27,1.04.13.05.24.13.33.22.08.1.17.17.28.22.22.16.44.35.67.57.23.22.43.43.59.65.43.57.8,1.11,1.1,1.62.19.3.34.62.45.97.11.35.23.7.37,1.05.13.35.24.72.3,1.1s.16.76.26,1.14c.03.19.05.38.06.57.01.19.03.38.06.57ZM359.64,140.22c.08-.11.15-.25.2-.43.05-.18.05-.36,0-.55-.16-.59-.39-1.15-.69-1.66-.38-.62-.8-1.15-1.26-1.58s-1.05-.8-1.79-1.09c-.19-.05-.38-.1-.57-.14s-.39-.09-.61-.14c-.22-.05-.45-.08-.69-.08h-.69c-.08.05-.18.07-.28.06-.11-.01-.2,0-.28.02-.22.05-.43.1-.63.14s-.4.09-.59.14c-.79.32-1.41.73-1.89,1.22-.47.49-.9,1.1-1.28,1.83-.08.14-.16.3-.24.51-.08.2-.15.43-.2.67-.05.24-.07.47-.04.69.03.22.12.38.28.49.22.16.59.24,1.12.22.53-.01.98-.02,1.36-.02h6.17c.41,0,.89,0,1.46.02.57.01.95-.09,1.14-.3Z"/>
        <path class="cls-1" d="M385.73,151.37c.08.43.04.79-.12,1.08-.16.28-.38.49-.65.63-.14.05-.28.08-.43.08s-.3.03-.47.08c-.6.13-1.18.1-1.76-.1-.58-.2-.98-.45-1.2-.75-.14-.19-.26-.41-.37-.67-.11-.26-.24-.47-.41-.63-.05-.05-.12-.11-.18-.16-.07-.05-.16-.07-.26-.04-.3.08-.58.23-.83.45-.26.22-.51.41-.75.57-.35.22-.73.41-1.14.59-.41.18-.84.33-1.3.47-.27.08-.56.14-.87.16-.31.03-.62.07-.91.12-.14.03-.25.04-.34.04h-.3c-.3.05-.58.05-.85,0h-.37c-.14-.03-.27-.04-.41-.04s-.26-.03-.37-.08c-.11-.03-.2-.03-.26-.02-.07.01-.14,0-.22-.02-.22-.05-.43-.1-.65-.14-.22-.04-.42-.1-.61-.18-.81-.35-1.47-.75-1.97-1.2-.5-.45-.91-1.08-1.24-1.89-.24-.59-.37-1.31-.37-2.15v-.85c.03-.13.05-.28.06-.43.01-.15.03-.3.06-.47.11-.3.22-.59.32-.89.11-.3.24-.57.41-.81.49-.78,1.15-1.37,1.99-1.74.84-.38,1.76-.72,2.76-1.01.38-.11.77-.19,1.18-.24s.81-.12,1.22-.2c.19-.05.37-.08.55-.08s.37-.03.59-.08c.19-.05.38-.09.57-.1s.39-.05.61-.1c.68-.16,1.31-.3,1.91-.43.59-.12,1.07-.43,1.42-.91.16-.22.3-.49.41-.83s.11-.71,0-1.12c-.16-.65-.4-1.16-.71-1.54s-.75-.68-1.32-.89c-.32-.13-.71-.23-1.16-.28s-.91-.08-1.4-.08-.96.03-1.42.08-.85.13-1.18.24c-.46.16-.91.39-1.34.69-.22.16-.41.37-.59.63-.18.26-.33.53-.47.83-.08.22-.16.45-.22.69-.07.24-.2.43-.39.57-.11.08-.29.14-.55.18-.26.04-.52.06-.79.06s-.53-.02-.79-.06c-.26-.04-.44-.1-.55-.18-.11-.08-.19-.22-.24-.41-.05-.19-.05-.39,0-.61.08-.35.17-.68.26-.99.09-.31.21-.62.34-.91.51-.95,1.16-1.68,1.95-2.21.78-.53,1.76-.95,2.92-1.28.27-.05.55-.09.83-.12s.57-.07.87-.12c.11-.03.28-.03.53-.02.24.01.39,0,.45-.06,1.89-.03,3.54.19,4.95.65s2.39,1.34,2.96,2.64c.24.54.39,1.17.43,1.89.04.72.06,1.47.06,2.25v8.97c0,.38.01.74.04,1.1.03.35.11.63.24.85.14.19.31.32.53.41.24.11.47.18.69.22.22.04.38.17.49.38.05.08.08.16.08.24s.01.19.04.32ZM379.93,146.87c.16-.38.25-.82.26-1.32.01-.5.02-1.02.02-1.56,0-.3-.01-.57-.04-.81-.03-.24-.13-.43-.32-.57-.08-.05-.27-.08-.57-.08-.05.05-.15.08-.28.08s-.26.03-.37.08c-.22.05-.46.11-.73.16-.27.05-.54.11-.81.16-.08,0-.17,0-.26.02-.09.01-.2.02-.3.02-.41.11-.84.17-1.32.18-.47.01-.91.08-1.32.18-.22.05-.41.1-.59.14-.18.04-.37.09-.59.14-.43.14-.84.3-1.22.51-.38.2-.7.45-.97.75-.27.3-.47.66-.61,1.08-.14.42-.19.93-.16,1.52,0,.27.05.52.14.75s.21.44.34.63c.22.3.5.55.85.75.35.2.73.37,1.14.51.13.03.27.04.41.04s.27.01.41.04c.19.05.43.09.71.1.28.01.52,0,.71-.06.16-.05.32-.07.49-.06s.33,0,.49-.06c.22-.05.43-.09.63-.12.2-.03.4-.08.59-.16.78-.32,1.45-.72,2.01-1.18.55-.46.98-1.08,1.28-1.87Z"/>
        <path class="cls-1" d="M397.37,131.5c2-.03,3.67.26,5.01.87s2.4,1.52,3.18,2.74c.35.54.65,1.2.89,1.99.05.14.09.31.12.53.03.22.01.41-.04.57-.08.14-.22.26-.41.37-.08.05-.16.08-.24.06-.08-.01-.18,0-.28.02s-.22.03-.32.02c-.11-.01-.22-.02-.32-.02-.3,0-.58,0-.85-.02-.27-.01-.5-.09-.69-.22-.22-.16-.37-.39-.45-.69-.08-.3-.19-.55-.32-.77-.41-.7-.93-1.26-1.58-1.66-.22-.14-.45-.25-.69-.35-.24-.09-.5-.18-.77-.26-.38-.11-.88-.17-1.5-.18-.62-.01-1.14.05-1.54.18-.19.05-.37.1-.53.12-.16.03-.34.07-.53.12-.7.3-1.33.7-1.87,1.22s-.96,1.12-1.26,1.83c-.11.24-.2.49-.28.75-.08.26-.16.53-.24.83l-.24,1.09c-.03.14-.03.28-.02.45s0,.31-.06.45v.33c-.03.11-.05.28-.06.53-.01.24,0,.42.06.53.03.13.03.27,0,.41-.03.14-.03.27,0,.41.03.11.04.3.04.57.05.22.1.45.14.69.04.24.09.47.14.69.3.87.64,1.62,1.03,2.25.39.64.94,1.18,1.64,1.64.24.14.49.26.75.36.26.11.53.22.83.33.13.03.24.04.32.04s.19.01.33.04c.08.03.22.04.41.04h.45s.05.04.16.04c.05-.03.12-.03.2-.02.08.01.16,0,.24-.02.19-.05.37-.07.55-.06s.36,0,.55-.06c.7-.22,1.31-.49,1.83-.83.51-.34.95-.78,1.3-1.32.13-.22.26-.45.37-.69.11-.24.22-.49.32-.73.05-.22.12-.43.18-.63.07-.2.2-.37.39-.51.08-.08.24-.14.49-.18.24-.04.51-.07.79-.08.28-.01.55,0,.81.02.26.03.44.08.55.16.16.11.26.27.3.49.04.22.03.45-.02.69-.14.41-.26.79-.39,1.16-.12.37-.28.72-.47,1.07-.41.81-.91,1.53-1.52,2.15-.61.62-1.35,1.12-2.21,1.5-.22.11-.45.2-.69.26-.24.07-.5.14-.77.22-.3.11-.6.17-.89.18-.3.01-.6.05-.89.1-.11.05-.22.07-.32.04-.11-.03-.22-.03-.33,0h-.37c-.22,0-.43,0-.63.02-.2.01-.38,0-.55-.06h-.2l-.97-.12c-.35-.11-.69-.2-1.01-.28-.32-.08-.64-.19-.93-.33-.97-.43-1.78-.95-2.41-1.54-.64-.59-1.22-1.32-1.76-2.19-.14-.22-.26-.46-.37-.73-.11-.27-.22-.54-.33-.81-.14-.3-.23-.61-.28-.93-.05-.33-.12-.65-.2-.97-.03-.11-.04-.22-.04-.32s-.01-.22-.04-.33c-.05-.16-.08-.34-.06-.53.01-.19,0-.37-.06-.53v-.41c-.03-.14-.04-.33-.04-.57s.01-.43.04-.57c.03-.13.03-.26.02-.37-.01-.11,0-.22.02-.32.05-.19.07-.38.06-.57-.01-.19,0-.37.06-.53.11-.46.2-.92.28-1.38s.2-.89.37-1.3c.57-1.41,1.26-2.54,2.07-3.41.81-.87,1.92-1.58,3.33-2.15.3-.14.62-.23.97-.28.35-.05.72-.12,1.1-.2.19-.03.38-.05.57-.06.19-.01.39-.03.61-.06Z"/>
        <path class="cls-1" d="M411.94,124.03c.38,0,.78,0,1.2.02.42.01.71.13.87.35.13.19.2.47.2.83v6.59c0,.11,0,.22-.02.32-.01.11,0,.22.02.32.03.08.03.18.02.29-.01.11,0,.2.02.28.05.22.09.42.1.61s.16.28.43.28c.05-.05.12-.09.18-.1.07-.01.13-.05.18-.1.16-.11.31-.22.45-.34.13-.12.28-.25.45-.39.3-.22.63-.41.99-.59.37-.18.74-.33,1.12-.47.22-.05.45-.1.69-.14.24-.04.47-.09.69-.14.11-.05.22-.07.32-.06s.23,0,.37-.02c.13-.05.36-.08.67-.08s.53.03.67.08h.39c.12,0,.25.01.38.04.22.05.43.1.65.12.22.03.43.07.65.12.13.05.24.09.32.1s.19.05.33.1c.3.13.58.28.85.43.27.15.54.32.81.51.27.24.53.53.77.85.16.24.31.49.45.73.13.24.27.51.41.81.08.19.14.38.18.57.04.19.09.39.14.61.05.14.08.27.08.41s.01.28.04.45c.05.14.07.27.06.41-.01.14,0,.27.06.41v.41c.03.13.03.28.02.45s-.02.31-.02.45v10.18c0,.22,0,.48.02.79.01.31.01.61,0,.89s-.05.55-.1.79c-.05.24-.14.41-.24.49-.19.16-.54.24-1.05.24h-1.04c-.34,0-.59-.11-.75-.33-.14-.19-.2-.41-.2-.67v-10.24c0-.73,0-1.51.02-2.33.01-.82-.08-1.53-.26-2.13-.33-.92-.87-1.6-1.62-2.03-.22-.13-.45-.25-.69-.34-.24-.09-.51-.17-.81-.22-.11-.03-.27-.04-.49-.04-.11-.03-.24-.05-.38-.08-.15-.03-.29-.01-.43.04-.11.03-.22.03-.32.02-.11-.01-.23,0-.37.02-.24.05-.49.1-.75.14-.26.04-.49.12-.71.22-.92.38-1.65.89-2.19,1.54-.54.65-.96,1.47-1.26,2.47-.05.19-.09.39-.12.61-.03.22-.07.43-.12.65-.03.08-.03.17-.02.26s0,.18-.02.26c-.03.13-.03.27,0,.41.03.14.03.27,0,.41v8.16c0,.22,0,.47.02.75.01.28.01.56,0,.83s-.03.53-.06.77c-.03.24-.08.42-.16.53-.11.14-.24.21-.39.22-.15.01-.32.05-.51.1h-.57c-.3,0-.58,0-.85-.02-.27-.01-.47-.1-.61-.26-.14-.22-.21-.48-.22-.79-.01-.31-.02-.64-.02-.99v-24.63c0-.3,0-.61-.02-.95-.01-.34.05-.6.18-.79.11-.19.31-.32.61-.41.05-.03.11-.03.16-.02.05.01.11,0,.16-.02Z"/>
        <path class="cls-1" d="M454.37,131.5c.62,0,.97.16,1.06.47.08.31.12.76.12,1.36v.77c0,.24-.07.45-.2.61-.16.22-.39.33-.69.34s-.59.06-.89.14c-.38.08-.74.16-1.08.24-.34.08-.66.19-.95.32-.79.35-1.42.83-1.91,1.44-.49.61-.91,1.31-1.26,2.09-.11.3-.19.6-.24.91-.05.31-.12.63-.2.95-.03.14-.03.27-.02.41.01.14,0,.27-.02.41-.08.32-.12.7-.1,1.12.01.42.02.82.02,1.2v5.92c0,.32-.01.63-.04.93-.03.3-.03.55-.02.77.01.22-.05.41-.18.57-.14.19-.34.3-.63.32-.28.03-.59.04-.91.04h-.73c-.14-.05-.26-.1-.38-.14-.12-.04-.21-.1-.26-.18-.14-.19-.21-.43-.22-.71-.01-.28-.02-.57-.02-.87v-17.16c0-.3,0-.57.02-.83.01-.26.09-.48.22-.67.08-.11.22-.19.43-.24.2-.05.43-.09.67-.1.24-.01.49,0,.73.02.24.03.43.07.57.12.22.08.36.24.43.47.07.23.1.47.1.73v.81c0,.28.05.53.16.75.03.05.05.1.08.12.03.03.07.07.12.12.3,0,.54-.13.73-.39s.35-.47.49-.63l.24-.24c.24-.3.58-.61,1.01-.93.43-.32.84-.57,1.22-.73.24-.13.5-.24.77-.3s.55-.14.85-.22c.16-.03.32-.05.49-.06.16-.01.31-.03.45-.06Z"/>
        <path class="cls-1" d="M477.29,141.52c.05.16.08.41.08.75s-.01.57-.04.71v.41c-.03.22-.05.41-.06.59-.01.18-.03.37-.06.59-.05.16-.09.32-.1.49-.01.16-.05.32-.1.49-.11.35-.2.7-.28,1.05s-.19.68-.32.97c-.57,1.3-1.33,2.39-2.27,3.27-.95.88-2.11,1.55-3.49,2.01-.3.11-.62.19-.95.24s-.68.11-1.03.16c-.16.03-.33.05-.51.06s-.34.02-.51.02c-.11.03-.26.04-.47.04s-.34-.01-.43-.04c-.11-.03-.22-.03-.32-.02-.11.01-.2,0-.28-.02h-.24l-.97-.12c-.38-.11-.74-.22-1.1-.32s-.69-.23-1.01-.37c-1.22-.54-2.22-1.24-3-2.11s-1.43-1.92-1.95-3.16c-.14-.27-.24-.54-.3-.81-.07-.27-.13-.55-.18-.85-.05-.11-.07-.2-.06-.26.01-.07,0-.16-.02-.26-.05-.22-.09-.44-.1-.67-.01-.23-.05-.45-.1-.67v-.34c0-.09-.01-.21-.04-.35-.03-.13-.04-.37-.04-.71s.03-.59.08-.75c.05-.19.07-.38.04-.57-.03-.19-.01-.38.04-.57.03-.13.05-.25.06-.35.01-.09.03-.21.06-.34.08-.33.16-.65.22-.97.07-.32.17-.63.3-.93.41-1,.9-1.9,1.48-2.7.58-.8,1.29-1.47,2.13-2.01.32-.22.66-.4,1.01-.55.35-.15.72-.3,1.09-.47.33-.14.68-.22,1.05-.26.38-.04.76-.11,1.14-.22.19,0,.37,0,.55-.02s.35-.03.51-.06c2.41-.03,4.41.47,6,1.5s2.75,2.37,3.45,4.02c.13.27.24.54.32.81.08.27.18.55.28.85.08.3.15.62.2.95.05.34.12.68.2,1.03.03.14.03.28.02.43-.01.15,0,.29.02.43ZM473.68,143.83c.05-.19.07-.41.06-.65-.01-.24-.02-.47-.02-.69,0-1.05-.1-1.95-.28-2.68-.08-.22-.15-.43-.2-.65-.05-.22-.12-.42-.2-.61-.76-1.76-1.96-2.97-3.61-3.65-.19-.08-.39-.14-.61-.18-.22-.04-.43-.09-.65-.14-.22-.05-.45-.08-.69-.08h-.73l-.73.12c-.27.05-.52.12-.75.18-.23.07-.45.16-.67.26-.19.05-.37.13-.53.24s-.31.22-.45.32c-.65.46-1.18,1.01-1.58,1.66-.41.65-.76,1.41-1.05,2.27-.08.27-.14.55-.16.83-.03.29-.07.58-.12.87-.03.11-.04.28-.04.53-.03.08-.03.18-.02.28.01.11.02.23.02.37v.81c0,.27.03.51.08.73l.08.49c.05.27.1.53.14.79.04.26.12.49.22.71.27.65.59,1.26.95,1.83.37.57.82,1.04,1.36,1.42.13.08.26.15.37.2.11.05.23.12.36.2.22.14.45.25.71.34s.53.18.83.26c.13.05.26.08.39.06.12-.01.25,0,.38.02.08.03.25.05.51.08.26.03.45.01.59-.04.11-.03.22-.03.33-.02.11.01.22,0,.32-.06.22-.05.43-.1.65-.14.22-.04.42-.1.61-.18.92-.38,1.66-.91,2.23-1.58.57-.68,1.04-1.47,1.42-2.39.13-.33.22-.67.26-1.03.04-.37.11-.74.22-1.12Z"/>
        <path class="cls-1" d="M500.58,141.52c.05.16.08.41.08.75s-.01.57-.04.71v.41c-.03.22-.05.41-.06.59-.01.18-.03.37-.06.59-.05.16-.09.32-.1.49-.01.16-.05.32-.1.49-.11.35-.2.7-.28,1.05s-.19.68-.32.97c-.57,1.3-1.33,2.39-2.27,3.27-.95.88-2.11,1.55-3.49,2.01-.3.11-.62.19-.95.24s-.68.11-1.03.16c-.16.03-.33.05-.51.06s-.34.02-.51.02c-.11.03-.26.04-.47.04s-.34-.01-.43-.04c-.11-.03-.22-.03-.32-.02-.11.01-.2,0-.28-.02h-.24l-.97-.12c-.38-.11-.74-.22-1.1-.32s-.69-.23-1.01-.37c-1.22-.54-2.22-1.24-3-2.11s-1.43-1.92-1.95-3.16c-.14-.27-.24-.54-.3-.81-.07-.27-.13-.55-.18-.85-.05-.11-.07-.2-.06-.26.01-.07,0-.16-.02-.26-.05-.22-.09-.44-.1-.67-.01-.23-.05-.45-.1-.67v-.34c0-.09-.01-.21-.04-.35-.03-.13-.04-.37-.04-.71s.03-.59.08-.75c.05-.19.07-.38.04-.57-.03-.19-.01-.38.04-.57.03-.13.05-.25.06-.35.01-.09.03-.21.06-.34.08-.33.16-.65.22-.97.07-.32.17-.63.3-.93.41-1,.9-1.9,1.48-2.7.58-.8,1.29-1.47,2.13-2.01.32-.22.66-.4,1.01-.55.35-.15.72-.3,1.09-.47.33-.14.68-.22,1.05-.26.38-.04.76-.11,1.14-.22.19,0,.37,0,.55-.02s.35-.03.51-.06c2.41-.03,4.41.47,6,1.5s2.75,2.37,3.45,4.02c.13.27.24.54.32.81.08.27.18.55.28.85.08.3.15.62.2.95.05.34.12.68.2,1.03.03.14.03.28.02.43-.01.15,0,.29.02.43ZM496.97,143.83c.05-.19.07-.41.06-.65-.01-.24-.02-.47-.02-.69,0-1.05-.1-1.95-.28-2.68-.08-.22-.15-.43-.2-.65-.05-.22-.12-.42-.2-.61-.76-1.76-1.96-2.97-3.61-3.65-.19-.08-.39-.14-.61-.18-.22-.04-.43-.09-.65-.14-.22-.05-.45-.08-.69-.08h-.73l-.73.12c-.27.05-.52.12-.75.18-.23.07-.45.16-.67.26-.19.05-.37.13-.53.24s-.31.22-.45.32c-.65.46-1.18,1.01-1.58,1.66-.41.65-.76,1.41-1.05,2.27-.08.27-.14.55-.16.83-.03.29-.07.58-.12.87-.03.11-.04.28-.04.53-.03.08-.03.18-.02.28.01.11.02.23.02.37v.81c0,.27.03.51.08.73l.08.49c.05.27.1.53.14.79.04.26.12.49.22.71.27.65.59,1.26.95,1.83.37.57.82,1.04,1.36,1.42.13.08.26.15.37.2.11.05.23.12.36.2.22.14.45.25.71.34s.53.18.83.26c.13.05.26.08.39.06.12-.01.25,0,.38.02.08.03.25.05.51.08.26.03.45.01.59-.04.11-.03.22-.03.33-.02.11.01.22,0,.32-.06.22-.05.43-.1.65-.14.22-.04.42-.1.61-.18.92-.38,1.66-.91,2.23-1.58.57-.68,1.04-1.47,1.42-2.39.13-.33.22-.67.26-1.03.04-.37.11-.74.22-1.12Z"/>
        <path class="cls-1" d="M514.58,131.5c1.03-.03,1.9.08,2.62.32.72.24,1.37.6,1.97,1.05.22.14.4.32.55.55s.32.44.51.63c.05.05.13.12.24.2.11.08.24.11.41.08.27-.08.51-.25.71-.51.2-.26.41-.45.63-.59.38-.3.77-.56,1.18-.79.41-.23.85-.43,1.34-.59.22-.08.45-.14.71-.18.26-.04.51-.09.75-.14.13-.03.26-.04.38-.04h.39c.13-.05.32-.07.57-.06.24.01.42.03.53.06.13.03.34.04.61.04.24.05.48.1.71.14.23.04.45.1.67.18.14.05.26.09.39.1s.25.05.39.1c1.35.59,2.29,1.51,2.8,2.76.11.22.19.45.24.71.05.26.11.53.16.83.05.08.07.17.06.26s0,.18.02.26v.37c.03.11.03.23.02.37-.01.14-.02.27-.02.41v11.89c0,.43,0,.95.02,1.54.01.59-.1.99-.35,1.18-.11.08-.28.14-.53.18-.24.04-.5.06-.77.06s-.53-.01-.79-.04c-.26-.03-.44-.08-.55-.16-.16-.08-.27-.24-.32-.49-.05-.16-.07-.33-.04-.51.03-.18.01-.34-.04-.51-.03-.13-.03-.29-.02-.47.01-.18.02-.34.02-.51v-9.58c0-.89-.02-1.74-.06-2.54-.04-.8-.24-1.47-.59-2.01-.41-.65-1.03-1.12-1.87-1.42-.16-.05-.33-.09-.51-.1-.18-.01-.36-.05-.55-.1-.11-.03-.28-.03-.53-.02-.24.01-.41.03-.49.06-.14.03-.27.03-.41.02-.14-.01-.27,0-.41.06-.38.08-.74.19-1.09.33-1.41.59-2.35,1.64-2.84,3.12-.13.46-.21.99-.22,1.58-.01.6-.02,1.2-.02,1.83v10.24c0,.34-.07.6-.2.79-.14.22-.37.34-.69.37-.32.03-.66.04-1.01.04-.46,0-.8-.05-1.01-.16-.24-.14-.39-.36-.43-.67-.04-.31-.06-.66-.06-1.04v-10.55c0-.87-.03-1.67-.08-2.41-.05-.74-.24-1.39-.57-1.93-.3-.49-.64-.85-1.01-1.08s-.89-.41-1.54-.55c-.11-.03-.22-.04-.35-.04h-.38c-.6,0-1.12.07-1.56.2-.45.14-.85.31-1.2.53-1.38.84-2.3,2.1-2.76,3.77-.11.35-.16.75-.14,1.2.01.45.02.89.02,1.32v10.14c0,.38-.08.68-.24.89-.14.19-.34.3-.61.32-.27.03-.55.04-.85.04h-.61c-.16-.05-.32-.1-.47-.12s-.28-.11-.38-.24c-.14-.16-.2-.37-.2-.63v-18.87c0-.26.05-.47.16-.63.08-.16.2-.27.37-.32.22-.08.56-.12,1.03-.12s.82.04,1.04.12c.22.11.37.24.45.4.05.14.09.3.1.49.01.19.03.36.06.53.03.16.08.3.16.41s.22.16.41.16c.05-.05.11-.08.18-.08s.13-.03.18-.08c.16-.14.32-.27.47-.41.15-.14.3-.27.47-.41.59-.43,1.27-.81,2.03-1.14.27-.11.54-.18.81-.22s.55-.1.85-.18c.16,0,.33,0,.51-.02.18-.01.34-.02.51-.02Z"/>
        <path class="cls-1" d="M541.19,148.45c.24,0,.51,0,.81-.02.3-.01.59-.01.87,0s.55.04.79.08c.24.04.43.12.57.22.05.05.1.14.14.24.04.11.09.23.14.37v.2c.03.14.03.28.02.43-.01.15-.02.29-.02.43v1.28c0,.47-.11.8-.32.99-.19.13-.43.2-.71.2h-2.11c-.42,0-.74-.08-.95-.24-.11-.08-.19-.22-.24-.43-.05-.2-.09-.43-.1-.69-.01-.26-.01-.51,0-.77.01-.26.02-.48.02-.67v-.53c0-.16.03-.31.08-.45.11-.3.3-.49.57-.57.08,0,.23-.03.45-.08Z"/>
      </g>
    </g>
  </g>
</svg>