<?xml version="1.0" encoding="UTF-8"?>
<svg xmlns="http://www.w3.org/2000/svg" version="1.1" viewBox="0 0 1054.62 108.15">
  <defs>
    <style>
      .cls-1 {
        fill: #911b1d;
      }

      .cls-1, .cls-2, .cls-3, .cls-4, .cls-5, .cls-6, .cls-7, .cls-8, .cls-9, .cls-10, .cls-11, .cls-12 {
        fill-rule: evenodd;
      }

      .cls-2 {
        fill: #fcbf62;
      }

      .cls-3 {
        fill: #231f20;
      }

      .cls-4 {
        fill: #ec1c24;
      }

      .cls-5 {
        fill: #c96c38;
      }

      .cls-6 {
        fill: #fdbd10;
      }

      .cls-7 {
        fill: #7fc89a;
      }

      .cls-8 {
        fill: #fff100;
      }

      .cls-9 {
        fill: #7c181a;
      }

      .cls-10 {
        fill: #54a175;
      }

      .cls-11 {
        fill: #9ad2ad;
      }

      .cls-12 {
        fill: #cbe6d2;
      }
    </style>
  </defs>
  <!-- Generator: Adobe Illustrator 28.6.0, SVG Export Plug-In . SVG Version: 1.2.0 Build 709)  -->
  <g>
    <g id="Layer_1">
      <g>
        <path class="cls-3" d="M40.63,1.5c245.65.38,491.27,2.14,736.92,2.14C847,3.64,916.76.03,986.22.03c14.33,0,39.57-.61,50.39,4.21,12.17,5.41,8.97,21.3,8.97,28.41,0,14.47,3.12,27.89,6.9,42.19,1.78,6.74,5.32,16.84-4.2,22.74-13.08,8.1-52.26,8.1-72.49,8.4-47.95.7-96.48,1.46-144.42,1.5l-798.96.68c-10.44,0-22.14-.83-28.32-4.93-6.77-4.5-3.56-11.24-1.53-16.19,2.49-6.07,5.14-12.27,3.12-18.43C.68,53.37,1.12,32.81,8.97,17.78,13.66,8.79,11.23,1.46,40.63,1.5Z"/>
        <path class="cls-5" d="M40.61,4.77c244.5.38,490.15,2.14,736.94,2.14,57.51,0,150.82-3.62,208.68-3.62s51.83,1.25,51.83,29.35c0,60.1,43.99,68.49-62.51,70.05-24.57.36-108.28,1.48-144.19,1.5l-798.96.69c-45.76.04-13.16-18.16-19.26-36.74-5.15-15.69-3.71-36.45,3.17-49.64,3.61-6.91-.18-13.77,24.3-13.73Z"/>
        <path class="cls-2" d="M45.79,7.84c241.89.36,484.93,2.01,729.09,2.01,56.89,0,149.2-3.39,206.45-3.39s51.27,1.17,51.27,27.53c0,56.36,43.52,64.24-61.85,65.69-24.31.34-107.12,1.38-142.64,1.41l-790.44.64c-45.27.04-13.02-17.03-19.06-34.46-5.1-14.71-3.67-34.18,3.14-46.55,3.56-6.48-.18-12.92,24.03-12.88Z"/>
        <path class="cls-1" d="M40.02,14.75c-23.9,3.03-14.64,17.24-11.06,35.36,1.93,9.81-9.21,39.14.34,44.56,8.88,5.04,30.03,5.36,61.71,4.32,222.34-7.35,464.47,4.75,692.22-3.99,28.8-1.11,252.89,3.04,249.63-7.42-18.11-58.06,8.49-75.78-21.13-75.68-45.22.14-124.53-2.09-252.79,2.06-86.67,2.81-358.19,1.65-553.69-1.2-79.48-1.15-141.7-1-165.22,1.99Z"/>
        <path class="cls-10" d="M46.91,18.77c-23.56,2.73-14.43,15.54-10.91,31.87,1.9,8.84-9.07,35.27.33,40.16,8.76,4.54,29.6,4.83,60.84,3.89,219.21-6.63,457.93,4.28,682.47-3.6,28.39-.99,249.32,2.74,246.11-6.68-17.86-52.33,8.37-68.29-20.83-68.2-44.58.13-122.76-1.88-249.23,1.86-85.45,2.52-353.14,1.48-545.89-1.08-78.36-1.04-139.71-.9-162.9,1.78Z"/>
        <path class="cls-7" d="M964.01,84.45c67.63-1.84,45-13.13,45.33-20.39.78-16.66,2.98-37.82-17.19-47.87-46.17-.16-121.29-1.53-236.46,1.88-85.45,2.52-353.14,1.48-545.89-1.08-55.01-.73-101.66-.87-132.58.04-18.87,10.64-25.69,27.38-26.52,40.91-.78,12.72-16.16,22.5,2.7,27.33,33.21,8.51,116.88.92,233.96-.63,36.04-.47,173.27,4.48,273.65,2.82,135.14-2.24,267.2.69,403-3.01Z"/>
        <path class="cls-11" d="M1009.77,48.21c-.37-12.55-3.52-25-17.62-32.02-46.17-.16-121.29-1.53-236.46,1.88-85.45,2.52-353.14,1.48-545.89-1.08-55.01-.73-101.66-.87-132.58.04-14.73,8.31-22.11,20.34-25.04,31.65,15.4,4.57,36.14,7.94,61.5,9.14,91.08,4.31,185.01-14.17,281.33-9.98,87.93,3.82,171.13,14.97,259.81,14.97,80.94,0,187.07-31.65,262.67-16.22,34.79,7.1,67.53,6.68,92.29,1.63Z"/>
        <path class="cls-12" d="M46.9,18.77c-21.75,2.51-15.62,13.63-11.79,28.16,2.53-9.74,6.26-20.93,15.4-21.56,127.34-8.73,262.54,3.12,404.78,3.12,163.27,0,416.33-9.01,546.87-6.24,6.96.14,12.57,7.6,16.88,16.45.84-16.61,3.74-22.56-14.13-22.51-44.58.13-122.76-1.88-249.23,1.87-85.45,2.52-353.14,1.48-545.89-1.08-78.36-1.04-139.7-.9-162.9,1.78Z"/>
      </g>
      <g>
        <path class="cls-9" d="M62.53,27.58h566.47c6.55,0,11.9,5.53,11.9,12.28v30.68c0,6.75-5.36,12.27-11.9,12.27H62.53c-6.54,0-11.9-5.52-11.9-12.27v-30.68c0-6.75,5.36-12.28,11.9-12.28Z"/>
        <path class="cls-4" d="M68.77,34.8h554c6.45,0,11.74,4.08,11.74,9.06v22.67c0,4.99-5.29,9.07-11.74,9.07H68.77c-6.46,0-11.74-4.08-11.74-9.07v-22.67c0-4.99,5.28-9.06,11.74-9.06Z"/>
        <path class="cls-6" d="M68.77,34.8h554c6.45,0,11.74,2.91,11.74,6.46v16.16c0,3.55-5.29,6.46-11.74,6.46H68.77c-6.46,0-11.74-2.91-11.74-6.46v-16.16c0-3.55,5.28-6.46,11.74-6.46Z"/>
        <path class="cls-8" d="M68.77,34.8h554c6.45,0,11.74,1.63,11.74,3.62v9.08c0,2-5.29,3.63-11.74,3.63H68.77c-6.46,0-11.74-1.63-11.74-3.63v-9.08c0-1.99,5.28-3.62,11.74-3.62Z"/>
      </g>
    </g>
  </g>
</svg>