<?xml version="1.0" encoding="UTF-8"?>
<svg xmlns="http://www.w3.org/2000/svg" version="1.1" viewBox="0 0 1054.62 207.07">
  <defs>
    <style>
      .cls-1 {
        fill: #911b1d;
      }

      .cls-1, .cls-2, .cls-3, .cls-4, .cls-5, .cls-6, .cls-7, .cls-8, .cls-9, .cls-10, .cls-11, .cls-12, .cls-13, .cls-14 {
        fill-rule: evenodd;
      }

      .cls-15 {
        fill: #9b3922;
      }

      .cls-16, .cls-10 {
        fill: #7c181a;
      }

      .cls-2 {
        fill: #fcbf62;
      }

      .cls-3 {
        fill: #231f20;
      }

      .cls-4 {
        fill: #b3512c;
      }

      .cls-5 {
        fill: #ec1c24;
      }

      .cls-6 {
        fill: #c96c38;
      }

      .cls-7 {
        fill: #fdbd10;
      }

      .cls-8 {
        fill: #7fc89a;
      }

      .cls-9 {
        fill: #fff100;
      }

      .cls-17 {
        fill: #e1a85f;
      }

      .cls-18 {
        fill: #fff;
        font-family: GoodGirl, GoodGirl;
        font-size: 59.99px;
        stroke: #552b00;
        stroke-linecap: round;
        stroke-linejoin: round;
        stroke-width: 1.5px;
      }

      .cls-11 {
        fill: #54a175;
      }

      .cls-12 {
        fill: #9ad2ad;
      }

      .cls-13 {
        fill: #ce7541;
      }

      .cls-14 {
        fill: #cbe6d2;
      }

      .cls-19 {
        fill: #b44e2a;
      }
    </style>
  </defs>
  <!-- Generator: Adobe Illustrator 28.6.0, SVG Export Plug-In . SVG Version: 1.2.0 Build 709)  -->
  <g>
    <g id="Layer_1">
      <g>
        <path class="cls-3" d="M40.63,100.42c245.65.38,491.27,2.14,736.92,2.14,69.45,0,139.21-3.62,208.68-3.62,14.33,0,39.57-.61,50.39,4.21,12.17,5.41,8.97,21.3,8.97,28.41,0,14.47,3.12,27.89,6.9,42.19,1.78,6.74,5.32,16.84-4.2,22.74-13.08,8.1-52.26,8.1-72.49,8.4-47.95.7-96.48,1.46-144.42,1.5l-798.96.68c-10.44,0-22.14-.83-28.32-4.93-6.77-4.5-3.56-11.24-1.53-16.19,2.49-6.07,5.14-12.27,3.12-18.43-5-15.23-4.56-35.8,3.29-50.83,4.69-8.99,2.26-16.32,31.66-16.27Z"/>
        <path class="cls-6" d="M40.61,103.69c244.5.38,490.15,2.14,736.94,2.14,57.51,0,150.82-3.62,208.68-3.62s51.83,1.25,51.83,29.35c0,60.1,43.99,68.49-62.51,70.05-24.57.36-108.28,1.48-144.19,1.5l-798.96.69c-45.76.04-13.16-18.16-19.26-36.74-5.15-15.69-3.71-36.45,3.17-49.64,3.61-6.91-.18-13.77,24.3-13.73Z"/>
        <path class="cls-2" d="M45.79,106.76c241.89.36,484.93,2.01,729.09,2.01,56.89,0,149.2-3.39,206.45-3.39s51.27,1.17,51.27,27.53c0,56.36,43.52,64.24-61.85,65.69-24.31.34-107.12,1.38-142.64,1.41l-790.44.64c-45.27.04-13.02-17.03-19.06-34.46-5.1-14.71-3.67-34.18,3.14-46.55,3.56-6.48-.18-12.92,24.03-12.88Z"/>
        <path class="cls-1" d="M40.02,113.67c-23.9,3.03-14.64,17.24-11.06,35.36,1.93,9.81-9.21,39.14.34,44.56,8.88,5.04,30.03,5.36,61.71,4.32,222.34-7.35,464.47,4.75,692.22-3.99,28.8-1.11,252.89,3.04,249.63-7.42-18.11-58.06,8.49-75.78-21.13-75.68-45.22.14-124.53-2.09-252.79,2.06-86.67,2.81-358.19,1.65-553.69-1.2-79.48-1.15-141.7-1-165.22,1.99Z"/>
        <path class="cls-11" d="M46.91,117.69c-23.56,2.73-14.43,15.54-10.91,31.87,1.9,8.84-9.07,35.27.33,40.16,8.76,4.54,29.6,4.83,60.84,3.89,219.21-6.63,457.93,4.28,682.47-3.6,28.39-.99,249.32,2.74,246.11-6.68-17.86-52.33,8.37-68.29-20.83-68.2-44.58.13-122.76-1.88-249.23,1.86-85.45,2.52-353.14,1.48-545.89-1.08-78.36-1.04-139.71-.9-162.9,1.78Z"/>
        <path class="cls-8" d="M964.01,183.37c67.63-1.84,45-13.13,45.33-20.39.78-16.66,2.98-37.82-17.19-47.87-46.17-.16-121.29-1.53-236.46,1.88-85.45,2.52-353.14,1.48-545.89-1.08-55.01-.73-101.66-.87-132.58.04-18.87,10.64-25.69,27.38-26.52,40.91-.78,12.72-16.16,22.5,2.7,27.33,33.21,8.51,116.88.92,233.96-.63,36.04-.47,173.27,4.48,273.65,2.82,135.14-2.24,267.2.69,403-3.01Z"/>
        <path class="cls-12" d="M1009.77,147.13c-.37-12.55-3.52-25-17.62-32.02-46.17-.16-121.29-1.53-236.46,1.88-85.45,2.52-353.14,1.48-545.89-1.08-55.01-.73-101.66-.87-132.58.04-14.73,8.31-22.11,20.34-25.04,31.65,15.4,4.57,36.14,7.94,61.5,9.14,91.08,4.31,185.01-14.17,281.33-9.98,87.93,3.82,171.13,14.97,259.81,14.97,80.94,0,187.07-31.65,262.67-16.22,34.79,7.1,67.53,6.68,92.29,1.63Z"/>
        <path class="cls-14" d="M46.9,117.69c-21.75,2.51-15.62,13.63-11.79,28.16,2.53-9.74,6.26-20.93,15.4-21.56,127.34-8.73,262.54,3.12,404.78,3.12,163.27,0,416.33-9.01,546.87-6.24,6.96.14,12.57,7.6,16.88,16.45.84-16.61,3.74-22.56-14.13-22.51-44.58.13-122.76-1.88-249.23,1.87-85.45,2.52-353.14,1.48-545.89-1.08-78.36-1.04-139.7-.9-162.9,1.78Z"/>
      </g>
      <g>
        <path class="cls-10" d="M62.53,126.5h935.57c6.55,0,11.9,5.53,11.9,12.28v30.68c0,6.75-5.36,12.27-11.9,12.27H62.53c-6.54,0-11.9-5.52-11.9-12.27v-30.68c0-6.75,5.36-12.28,11.9-12.28Z"/>
        <path class="cls-5" d="M68.77,133.72h923.09c6.45,0,11.74,4.08,11.74,9.06v22.67c0,4.99-5.29,9.07-11.74,9.07H68.77c-6.46,0-11.74-4.08-11.74-9.07v-22.67c0-4.99,5.28-9.06,11.74-9.06Z"/>
        <path class="cls-7" d="M68.77,133.72h923.09c6.45,0,11.74,2.91,11.74,6.46v16.16c0,3.55-5.29,6.46-11.74,6.46H68.77c-6.46,0-11.74-2.91-11.74-6.46v-16.16c0-3.55,5.28-6.46,11.74-6.46Z"/>
        <path class="cls-9" d="M68.77,133.72h923.09c6.45,0,11.74,1.63,11.74,3.62v9.08c0,2-5.29,3.63-11.74,3.63H68.77c-6.46,0-11.74-1.63-11.74-3.63v-9.08c0-1.99,5.28-3.62,11.74-3.62Z"/>
      </g>
      <g>
        <path class="cls-16" d="M675.1,75l.78.6.28,1.27c7.86,35.51-12.46,27.79-35.33,28.01l-154.89,1.44c-31.37.29-65.43,5.77-96.41.68-12.45-2.04-19.08-21.63-10.87-32.61-2.21-4.78-3.3-12.31-3.3-24v-1.45l.28-.3c-.19-2.19-.28-4.7-.28-7.59,0-8.3,2.22-13.96,5.83-17.74-2.8-3.22-3.79-7.39-1.92-12.8.03-6.09,16.25-5.68,19.19-5.82,12.42-.56,24.99-.5,37.41-.33,15.63.22,36.55-.08,51.86,2.33,49.49,7.82,107.49,4.96,156.44-5.72,28.81-6.28,39.45,19.63,34.05,29.7,2.11,9.49,1.21,21.03-2.8,26.41,1.07,4.16,1.17,9.07,1.48,12.33.21,2.17-.47,4.01-1.8,5.58Z"/>
        <path class="cls-6" d="M382.66,10.02c-2.18-4.5,90.71-2.58,104.6-.64,49.83,6.97,109.23,4.24,157.57-5.09,17.57-3.39,19.64,1.47,24,5.75,7.54,7.38,8.14,10.98,3.32,9.34-25.02-8.5-68.69,3.44-104.28,6.3-30.44,2.44-63.92,4.09-93.35,2.13-23.55-1.57-102.55,5.82-91.86-17.8Z"/>
        <path class="cls-13" d="M419.54,21.63c-18.94-3.03-42.84-4.98-40.9,19.4.5,6.33,26.47-12.12,50.46,5.39,3.37,6.8,31.01,4.48,60.12,4.37,30.99-.12,64.78-5.1,74.81-5.09,19.4.01,95.77,18.34,107.62,10.41,7.41-4.96,9.14-27.55-1.84-33.41-6.23-3.33-19.16-3.92-26.73-3.4-45.19,3.08-97.67,15.29-135.04,5.92-27.77-6.96-61.76-10.24-88.51-3.59Z"/>
        <path class="cls-6" d="M378.63,50.37l2.68-2.87c21.22-8.89,46.66-3.44,67.72,2.16,39.93,10.62,79.33-1.69,123.37,5.03,27.03,4.13,70.03,14.39,92.53-.72,8.13-5.46,8.11,9.52,8.71,15.8,1.26,13.15-58.34,10.55-74.42,13.65-57.69,11.1-119.3-6.47-179.02-6.47-32.57,0-41.57,11.46-41.57-26.58Z"/>
        <path class="cls-4" d="M378.63,50.37l2.68-2.87c21.22-8.89,46.66-3.44,67.72,2.16,39.93,10.62,79.33-1.69,123.37,5.03,23.89,3.65,60.24,12.08,83.9,3.56-.59,7.54-5.09,12.6-15.84,12.6-26.28,0-52.82-7.54-77.78-7.54-44.61,0-78.74,5.89-123.04-6.11-22.69-6.14-42.17,6.52-60.74,3.05-.19-2.85-.27-6.12-.27-9.88Z"/>
        <path class="cls-6" d="M672.99,77.67c-22.94-17.55-87.21,1.88-116.66,2.88-52.9,1.78-87.34,0-140.3,0-8.13,0-23.13,6.6-35.56-2.84-5.6,9.26.4,24.32,9.58,25.82,29.17,4.79,65.82-.44,95.88-.72l154.89-1.43c25.27-.24,38.92,6.7,32.19-23.71Z"/>
        <path class="cls-19" d="M384,60.43c-10.23,25.58,26.13,17.88,38.22,15.8,39.62-6.83,72.76,13.55,112.64,2.88,19.22-5.14,70.53,9.58,43.58,2.16-18.23-5.02-32.35-12.6-53.64-7.19-32.73,8.33-58.81-5.29-89.85-7.18-11.03-.68-49.62,6.51-50.96-6.47Z"/>
        <path class="cls-15" d="M443.5,50.93c11.48.77,28.34-.07,45.71-.14,30.99-.12,63.77-4.38,73.81-4.37,19.4.01,96.77,17.63,108.62,9.7,4.63-3.1,7.04-13.09,5.52-21.57-.04,7.58-2.71,14.12-5.67,14.6-40.88,6.61-63.18-6.65-90.89-6.32-43.24.51-73.64,1.7-102.06,1.8-34.92.11-40.98,3.16-35.04,6.31Z"/>
        <path class="cls-17" d="M382.66,10.02c-2.18-4.5,90.71-2.58,104.6-.64,49.83,6.97,109.23,4.24,157.57-5.09,17.57-3.39,19.64,1.47,24,5.75,5.1,4.99,7.01,8.23,6.24,9.32-.67-.42-1.36-.85-2.08-1.32-13.76-9.04-29.59-8.59-46.93-6.47-51.51,6.3-75.53,4.19-130.08,2.16-25.89-.96-117.61-11.74-102.86,10.18-8.88-2.59-13.64-6.87-10.46-13.9Z"/>
        <path class="cls-17" d="M574.42,27.39c-21.71,0-49.85,5.1-71.07-.72-18.19-4.98-34.46-5.03-53.64-5.03-13.55,0-51.47,4.6-38.89,5.03l41.57,1.44c43.97,1.52,85.59,12.28,122.03-.72Z"/>
        <path class="cls-15" d="M672.99,77.67c-.49-.37-1-.73-1.53-1.06-52.27,26.23-62.71,11.94-89.82,12.26-43.24.51-69.31,1.65-97.73,1.74-33.44.11-80.07,16.18-105.61-5-.17,8.16,4.9,16.8,11.73,17.93,29.17,4.79,65.82-.44,95.88-.72l154.89-1.43c25.27-.24,38.92,6.7,32.19-23.71Z"/>
      </g>
      <text class="cls-18" transform="translate(417.32 76.19)"><tspan x="0" y="0">START</tspan></text>
    </g>
  </g>
</svg>