<?xml version="1.0" encoding="UTF-8"?>
<svg xmlns="http://www.w3.org/2000/svg" version="1.1" viewBox="0 0 462.14 165.63">
  <defs>
    <style>
      .cls-1 {
        fill: #9b3922;
      }

      .cls-2 {
        fill: #7c181a;
      }

      .cls-3 {
        fill: #b3512c;
      }

      .cls-3, .cls-4, .cls-5 {
        fill-rule: evenodd;
      }

      .cls-4 {
        fill: #c96c38;
      }

      .cls-6 {
        fill: #fff;
        stroke: #552b00;
        stroke-linecap: round;
        stroke-linejoin: round;
        stroke-width: 1.5px;
      }

      .cls-7 {
        fill: #e1a85f;
      }

      .cls-5 {
        fill: #ce7541;
      }

      .cls-8 {
        fill: #b44e2a;
      }
    </style>
  </defs>
  <!-- Generator: Adobe Illustrator 28.6.0, SVG Export Plug-In . SVG Version: 1.2.0 Build 709)  -->
  <g>
    <g id="Layer_1">
      <g>
        <path class="cls-2" d="M455.35,113.81l1.18.91.43,1.93c11.93,53.88-18.91,42.18-53.62,42.5l-235.05,2.18c-47.6.44-99.29,8.76-146.3,1.03-18.9-3.1-28.95-32.82-16.49-49.49C2.14,105.61.49,94.18.49,76.44v-2.19l.43-.46c-.29-3.32-.43-7.13-.43-11.53,0-12.6,3.37-21.19,8.85-26.92-4.24-4.89-5.75-11.22-2.92-19.42.04-9.24,24.66-8.63,29.12-8.83,18.84-.85,37.92-.76,56.77-.5,23.73.33,55.47-.13,78.69,3.54,75.11,11.87,163.12,7.53,237.4-8.68,43.72-9.53,59.87,29.79,51.68,45.08,3.2,14.4,1.83,31.91-4.26,40.08,1.62,6.31,1.78,13.76,2.25,18.71.32,3.29-.72,6.08-2.73,8.47Z"/>
        <path class="cls-4" d="M11.56,15.2c-3.32-6.83,137.66-3.91,158.73-.97,75.62,10.58,165.76,6.44,239.11-7.72,26.66-5.14,29.8,2.24,36.42,8.73,11.44,11.2,12.36,16.66,5.04,14.17-37.98-12.91-104.23,5.23-158.25,9.57-46.2,3.71-97.01,6.21-141.65,3.23C115.22,39.83-4.67,51.05,11.56,15.2Z"/>
        <path class="cls-5" d="M67.52,32.83C38.78,28.24,2.51,25.27,5.45,62.27c.76,9.6,40.17-18.39,76.57,8.18,5.12,10.32,47.05,6.8,91.24,6.64,47.03-.18,98.3-7.73,113.53-7.72,29.44.02,145.33,27.84,163.31,15.8,11.25-7.53,13.87-41.8-2.8-50.7-9.46-5.05-29.07-5.94-40.56-5.16-68.57,4.68-148.22,23.2-204.92,8.98-42.14-10.57-93.72-15.54-134.31-5.45Z"/>
        <path class="cls-4" d="M5.45,76.44l4.07-4.36c32.19-13.49,70.82-5.23,102.77,3.27,60.59,16.11,120.38-2.57,187.22,7.64,41.02,6.27,106.28,21.84,140.42-1.1,12.34-8.29,12.31,14.44,13.22,23.98,1.91,19.96-88.54,16.02-112.94,20.72-87.54,16.85-181.05-9.81-271.67-9.81-49.43,0-63.09,17.38-63.09-40.34Z"/>
        <path class="cls-3" d="M5.45,76.44l4.07-4.36c32.19-13.49,70.82-5.23,102.77,3.27,60.59,16.11,120.38-2.57,187.22,7.64,36.25,5.54,91.41,18.33,127.32,5.4-.89,11.44-7.72,19.13-24.04,19.13-39.88,0-80.16-11.45-118.03-11.45-67.7,0-119.49,8.93-186.72-9.27-34.43-9.31-64,9.9-92.18,4.63-.29-4.33-.41-9.28-.41-14.99Z"/>
        <path class="cls-4" d="M452.14,117.87c-34.81-26.64-132.35,2.86-177.04,4.36-80.28,2.7-132.53,0-212.92,0-12.33,0-35.1,10.02-53.97-4.31-8.5,14.05.6,36.9,14.54,39.19,44.27,7.27,99.89-.67,145.5-1.09l235.04-2.18c38.35-.36,59.06,10.16,48.84-35.98Z"/>
        <path class="cls-8" d="M13.59,91.71c-15.52,38.82,39.65,27.14,58,23.98,60.13-10.36,110.42,20.57,170.94,4.36,29.17-7.8,107.03,14.53,66.14,3.27-27.66-7.61-49.1-19.12-81.41-10.91-49.67,12.63-89.25-8.03-136.34-10.9-16.74-1.02-75.29,9.88-77.33-9.81Z"/>
        <path class="cls-1" d="M103.89,77.29c17.42,1.17,43-.11,69.37-.21,47.03-.17,96.77-6.65,112.01-6.64,29.43.02,146.86,26.75,164.84,14.72,7.03-4.7,10.68-19.86,8.37-32.73-.05,11.5-4.11,21.43-8.6,22.15-62.04,10.04-95.88-10.09-137.93-9.59-65.62.78-111.76,2.59-154.89,2.73-53,.17-62.19,4.8-53.18,9.57Z"/>
        <path class="cls-7" d="M11.56,15.2c-3.32-6.83,137.66-3.91,158.73-.97,75.62,10.58,165.76,6.44,239.11-7.72,26.66-5.14,29.8,2.24,36.42,8.73,7.73,7.58,10.64,12.5,9.46,14.14-1.02-.63-2.06-1.28-3.15-2-20.89-13.72-44.9-13.03-71.22-9.81-78.17,9.56-114.62,6.36-197.39,3.27C144.23,19.38,5.04,3.03,27.42,36.29c-13.48-3.93-20.7-10.42-15.87-21.09Z"/>
        <path class="cls-7" d="M302.57,41.56c-32.95,0-75.64,7.73-107.86-1.09-27.6-7.56-52.29-7.63-81.4-7.63-20.56,0-78.11,6.98-59.02,7.63l63.09,2.18c66.72,2.3,129.88,18.63,185.19-1.09Z"/>
        <path class="cls-1" d="M452.14,117.87c-.74-.57-1.52-1.1-2.32-1.62-79.33,39.8-95.17,18.12-136.3,18.61-65.62.78-105.18,2.51-148.31,2.64-50.75.16-121.5,24.55-160.26-7.59-.26,12.38,7.43,25.5,17.81,27.21,44.27,7.27,99.89-.67,145.5-1.09l235.04-2.18c38.35-.36,59.06,10.16,48.84-35.98Z"/>
      </g>
      <g>
        <path class="cls-6" d="M125.79,111.55c0,6.18-1.34,10.85-4.01,14-.49.55-1.34,1.27-2.55,2.18-4.61,3.39-10.62,5.09-18.03,5.09-6.13,0-13.75-1.18-22.85-3.54-5.71-1.51-9.32-4.87-10.83-10.07-1.27-4.42-2-9.32-2.18-14.7,2.06-.3,4.37-.45,6.92-.45,4.49,0,9.71.48,15.66,1.45.42.6.76,2.05,1,4.33.24,1.81.94,3.07,2.09,3.79,1.7,1.02,3.61,1.54,5.74,1.54,2.31,0,4.22-.76,5.74-2.27-.18-3.76-1.7-7-4.55-9.73-1.76-1.64-4.82-3.61-9.19-5.91-2.79-1.45-4.98-2.7-6.55-3.73-.67-.54-1.58-1.24-2.73-2.09-.79-.36-1.97-.97-3.55-1.82-3.22-2.06-5.58-4.82-7.1-8.27-.49-1.03-.76-1.73-.82-2.09,0-.06-.09-1.21-.27-3.46-.36-4.3-.55-7.21-.55-8.73,0-9.27,2.61-15.49,7.83-18.64,2.97-1.82,7.56-3.03,13.75-3.64,7.83-.79,13.08-1.18,15.75-1.18,8.07,0,13.59,2.25,16.57,6.74,2.49,3.76,3.73,11.32,3.73,22.67,0,2.25-.12,4.34-.36,6.28-3.64,0-7.28-.03-10.92-.09-4.25-.12-7.83-.61-10.74-1.46l.27-6.28c0-.67.06-1.67.18-3,0-3.4-.36-5.98-1.09-7.74-.67-1.58-1.88-2.37-3.64-2.37-1.94,0-3.82.64-5.64,1.91-2.55.49-4.28,2.09-5.19,4.82-.24.73-.36,1.97-.36,3.73,0,3.88,1,6.61,3,8.18.12.06,1.82,1.03,5.1,2.91,6.31,3.58,10.71,6.15,13.2,7.73,4.73,3.03,8.74,6.12,12.02,9.27.49.42,1.12,1.06,1.91,1.91,2.18,2.91,3.28,7.15,3.28,12.73Z"/>
        <path class="cls-6" d="M203.81,60.73l-1.55,1.35-26.77-1.09-1.37,1.55c0,.85.09,9.86.27,27.04.21,10.56.72,19.48,1.55,26.77-1.4.42-2.97.64-4.73.64-.97,0-2.41-.09-4.32-.27-1.91-.18-3.35-.27-4.32-.27s-1.82.06-2.55.18c-.3-.24-1.24-.36-2.82-.36-1.21,0-2-.4-2.37-1.18v-7.74c0-4.25-.24-11.05-.72-20.39-.42-8.8-.6-15.6-.54-20.39l-1.9-1.55h-24.97l-.81-1.09c.24-1.76.36-4.98.36-9.65,0-4.07.24-7.28.73-9.65,1.21-.49,2.61-.73,4.19-.73,1.03,0,2.46.18,4.28.53,2.12.49,3.52.77,4.19.84-.06,0,1.03,0,3.28,0l8.01-.27c4.01,0,10.07.05,18.21.14,8.13.09,14.2.14,18.21.14h14.57l1.91,1.08v14.41Z"/>
        <path class="cls-6" d="M279.19,124.47c0,1.09-.06,2.68-.18,4.77-.12,2.09-1.06,3.35-2.82,3.77-4.67-.61-11.83-1.34-21.48-2.19-1.28-1.15-2.12-2.88-2.55-5.19l-1.09-5.83c-.12-.55-.33-1.37-.64-2.46-.43-2-.85-4.01-1.27-6.01-.49-2.31-1.09-4.22-1.82-5.74h-19.12l-.64.64-5.01,18.48c-.3,1.15-1.15,1.73-2.55,1.73-.49,0-1.18-.15-2.09-.46-.91-.3-1.55-.49-1.91-.55-2.12-.24-4.25-.52-6.37-.82-2.43-.55-4.04-1.79-4.83-3.73.36-6.25,2.03-11.96,5.01-17.12.24-.3.55-.79.91-1.46.12-.42.27-1.03.46-1.82.55-1.88,1.4-4.13,2.55-6.74,1.94-4.37,2.91-6.58,2.91-6.65.97-2.49,2.49-6.92,4.55-13.29,3.34-10.44,5.67-19.69,7.01-27.77.55-.91,1.55-2,3-3.28l19.21.46c2,1.64,3.43,3.95,4.28,6.93,0,.12.46,2.86,1.37,8.21,1.7,10.34,5.19,21.28,10.47,32.83,2.19,4.84,6.4,15.93,12.65,33.25ZM244.05,91.13c-2.43-7.34-4.16-12.87-5.19-16.57-2.97,7.41-5.1,13.02-6.37,16.84l11.56-.27Z"/>
        <path class="cls-6" d="M337.27,128.27c0,.36-.06.7-.18,1-2.43,1.4-5.4,2.09-8.92,2.09-2.37,0-5.31-.33-8.83-1-1.76-2.37-3.04-6.19-3.82-11.47-.91-6.01-1.79-9.95-2.64-11.83-1.76-3.82-4.92-6.19-9.47-7.1l-1.27,1.18v2.91c-.06,7.41.36,15.29,1.27,23.67l-.73,1.27-20.94.55-1-1c.67-8.86,1.03-18.84,1.09-29.95v3.28l-.09-33.5c0-1.7-.23-4.22-.68-7.56-.46-3.34-.68-5.86-.68-7.56l1.37-1.55h4.1c13.66-.12,24.82.85,33.5,2.91,1.03.24,2.52.67,4.46,1.27,3.22,1.21,5.86,3.7,7.92,7.46,1.94,3.46,2.91,7.04,2.91,10.74,0,6.5-2.79,11.38-8.38,14.66-.61.18-1.44.49-2.5.91-1.06.43-1.56,1.03-1.5,1.82v.36c3.34,1.94,5.58,5.07,6.74,9.38,0,.06.15,1.37.46,3.91l1,7.92c.67,5.22,1.97,8.74,3.92,10.56,1.94,1.82,2.91,3.37,2.91,4.64ZM310.41,75.2c0-2.91-.49-4.92-1.46-6.01-.73-.85-1.85-2.09-3.37-3.73-.61-.12-1.65-.53-3.14-1.23-1.49-.7-2.69-1.05-3.6-1.05-.67,0-1.27.15-1.82.46l-.46,18.21,1.27,1.09c4.31-.3,7.1-.7,8.38-1.18,2.79-1.03,4.19-3.22,4.19-6.55Z"/>
        <path class="cls-6" d="M416.47,60.73l-1.55,1.35-26.76-1.09-1.37,1.55c0,.85.09,9.86.27,27.04.21,10.56.72,19.48,1.55,26.77-1.4.42-2.97.64-4.73.64-.97,0-2.41-.09-4.32-.27-1.91-.18-3.35-.27-4.32-.27s-1.82.06-2.55.18c-.3-.24-1.25-.36-2.82-.36-1.21,0-2-.4-2.37-1.18v-7.74c0-4.25-.24-11.05-.72-20.39-.42-8.8-.6-15.6-.54-20.39l-1.9-1.55h-24.97l-.81-1.09c.24-1.76.36-4.98.36-9.65,0-4.07.24-7.28.73-9.65,1.21-.49,2.61-.73,4.19-.73,1.03,0,2.46.18,4.28.53,2.12.49,3.52.77,4.19.84-.06,0,1.03,0,3.28,0l8.01-.27c4,0,10.07.05,18.21.14,8.13.09,14.2.14,18.21.14h14.57l1.91,1.08v14.41Z"/>
      </g>
    </g>
  </g>
</svg>